<svg width="125" height="111" viewBox="0 0 125 111" fill="none" xmlns="http://www.w3.org/2000/svg">
<path d="M90.7402 63.6339C92.2093 65.2373 93.6823 66.8406 95.159 68.4516C96.2177 67.8916 96.609 67.1245 96.6435 66.1272C96.7125 64.2783 96.7931 62.4295 96.8813 60.5806C96.889 60.4349 96.9887 60.293 97.0884 60.0436C98.1318 60.8683 98.5997 61.973 99.1367 63.0202C99.5702 63.8679 100.111 64.0673 100.855 63.4958C101.097 63.3117 101.266 62.8975 101.285 62.5791C101.411 60.4464 101.507 58.3137 101.58 56.181C101.657 53.9639 101.722 51.7507 101.734 49.5337C101.737 48.8586 102.04 48.6169 102.627 48.4827C103.997 48.1681 105.262 48.3752 106.463 49.0964C106.912 49.3649 107.38 49.6027 107.832 49.8674C108.979 50.5425 109.72 51.4899 109.789 52.8631C109.819 53.5075 109.789 54.1557 109.846 54.8001C110.003 56.484 110.107 58.1795 110.406 59.8365C110.594 60.8875 111.15 61.8695 111.434 62.909C111.718 63.9523 111.952 65.0263 112.063 66.1003C112.313 68.5245 112.221 70.9334 111.323 73.2502C111.281 73.3614 111.292 73.5033 111.231 73.5992C109.862 75.6782 108.584 77.8454 106.079 78.8082C104.956 79.2416 104.71 79.1803 104.537 78.0065C104.327 76.5719 104.227 75.122 104.096 73.6798C104.031 72.9663 104 72.249 103.943 71.3975C104.211 71.4397 104.526 71.3898 104.691 71.5241C105.907 72.5175 107.138 73.4957 108.27 74.5812C108.788 75.0798 109.186 75.3138 109.931 74.8037C109.804 74.5006 109.75 74.1209 109.535 73.8831C108.803 73.0852 108.043 72.3066 107.242 71.5778C106.083 70.5191 104.879 69.5141 103.694 68.4823C103.544 68.3519 103.425 68.1716 103.256 68.0719C102.811 67.8034 102.355 68.0143 102.271 68.536C102.221 68.8505 102.213 69.1843 102.24 69.5026C102.397 71.34 102.14 73.2118 102.669 75.0223C102.773 75.3829 102.731 75.7856 102.754 76.1654C102.669 76.2114 102.585 76.2574 102.501 76.3034C102.29 76.1155 102.056 75.9544 101.875 75.7396C100.755 74.4239 99.6661 73.0814 98.5153 71.7926C98.3197 71.5739 97.8172 71.409 97.5794 71.5126C97.3339 71.6161 97.1421 72.0649 97.0999 72.3833C96.9312 73.7373 96.8353 75.099 96.701 76.453C96.678 76.6755 96.6013 76.898 96.5092 77.3007C95.5426 76.8941 94.6681 76.5374 93.8012 76.1577C93.3946 75.9774 93.0264 75.7166 92.6159 75.5516C91.6416 75.1565 91.2734 75.3828 91.166 76.4147C91.0394 77.6574 90.8975 78.9041 90.8285 80.1507C90.794 80.7644 90.5715 81.2132 90.138 81.6275C89.1484 82.5749 88.2202 83.5914 87.2037 84.5043C86.4595 85.1717 85.6617 85.82 84.7948 86.3071C82.3591 87.6765 78.5195 86.3416 76.9315 84.1015C75.4931 82.0724 75.0213 79.817 75.4701 77.4427C75.8038 75.6897 76.7359 74.1669 77.9173 72.7899C79.1908 71.3054 80.8632 70.4462 82.5125 69.5218C82.6545 69.4413 82.8271 69.3952 82.9306 69.2802C83.8359 68.2982 84.7641 68.5514 85.7269 69.1804C87.1462 70.1048 88.5884 70.9832 89.9923 71.9307C90.5446 72.3066 91.0394 72.2452 91.5841 72.0035C91.9255 71.8501 92.0597 71.6046 91.9869 71.2287C91.703 69.7289 91.446 68.2253 91.1468 66.7294C91.0394 66.1808 90.84 65.6477 90.6942 65.103C90.583 64.6887 90.4948 64.2668 90.395 63.8449C90.5063 63.7758 90.6213 63.703 90.7326 63.6339H90.7402Z" fill="#ED1C24"/>
<path d="M104.227 79.6941L103.272 70.7606H105.14L110.79 76.0502L107.372 79.4256L104.227 79.6941Z" fill="white"/>
<path d="M20.7224 36.1237C20.7723 36.2503 20.872 36.3692 20.8452 36.4612C20.5997 37.3895 20.3273 38.3101 20.078 39.2345C19.9208 39.8213 20.1969 40.3353 20.7109 40.4581C21.2019 40.577 21.6507 40.2203 21.7504 39.5797C21.969 38.1336 22.2912 36.7336 23.1044 35.4793C23.8217 34.3746 24.6809 33.5269 25.9582 32.9975C29.1381 31.6742 32.4368 30.7689 35.7701 29.9788C35.9926 29.9251 36.2304 29.9366 36.6639 29.9059C36.591 30.3317 36.5718 30.6577 36.4797 30.9684C36.1767 31.9695 35.843 32.9592 35.5285 33.9565C35.4671 34.1483 35.4019 34.3592 35.4287 34.5472C35.4556 34.7658 35.5361 35.1149 35.6704 35.1571C35.8929 35.2261 36.3148 35.1839 36.4145 35.0343C36.7828 34.4705 37.1778 33.8759 37.339 33.2354C37.6803 31.8775 38.3056 30.6769 39.0765 29.5377C39.253 29.2768 39.4563 28.9738 39.7248 28.8434C40.9522 28.245 42.2142 27.7118 43.4455 27.1288C45.2598 26.2696 47.3234 26.0049 48.9958 24.7928C49.6441 24.3249 50.3652 24.2443 51.1784 24.4821C52.9659 25 54.5347 25.8515 55.7736 27.2477C56.1227 27.6428 56.4717 27.7962 56.9244 27.5047C57.4844 27.148 57.5227 26.5841 56.9781 26.1162C55.8465 25.1381 54.6536 24.2482 53.2535 23.669C52.8738 23.5117 52.5362 23.2509 52.0338 22.9478C54.1818 21.4442 56.1572 20.0672 58.1288 18.6786C58.6505 18.3104 59.1836 18.2337 59.8357 18.2951C61.4007 18.4408 62.9503 18.5904 64.4961 18.9548C65.7811 19.2578 66.9434 19.6989 67.9752 20.5083C68.1286 20.631 68.3204 20.7231 68.5084 20.7806C69.0262 20.9302 69.5824 20.7116 69.7473 20.2858C69.9544 19.7488 69.6207 19.4151 69.2026 19.2233C67.2234 18.3181 65.2671 17.3476 63.0462 17.1673C62.8621 17.152 62.6857 17.0561 62.3366 16.9449C62.6358 16.7224 62.7816 16.5459 62.9695 16.4807C64.3849 16.0089 65.785 15.4642 67.2349 15.1382C68.4853 14.8582 69.7933 14.7316 71.0783 14.724C75.7043 14.6971 80.265 15.33 84.7068 16.5843C87.5337 17.3821 90.3147 18.3718 92.8424 19.9483C94.5379 21.0069 95.9532 22.384 97.3265 23.8032C98.5309 25.0498 99.7161 26.3195 100.859 27.6236C102.773 29.81 104.722 31.9427 106.954 33.8299C108.546 35.1763 110.134 36.607 111.392 38.2525C113.172 40.577 114.664 43.1278 116.256 45.598C117.748 47.9148 118.791 50.4464 119.674 53.0471C120.088 54.2668 120.56 55.4713 120.897 56.7102C121.116 57.5157 121.139 58.3749 121.246 59.2073C121.595 61.9269 121.921 64.6541 122.305 67.3698C122.662 69.9014 122.804 72.433 122.439 74.9685C122.347 75.6014 122.098 76.2074 121.91 76.825C120.932 80.0738 119.812 83.2729 118.151 86.2456C116.923 88.4396 115.466 90.4649 113.444 92.0146C111.292 93.6601 109.033 95.1254 106.594 96.326C103.349 97.9255 99.8734 98.5622 96.3253 98.9189C95.3625 99.0148 94.3959 99.0686 93.4293 99.1338C90.9706 99.3064 88.5234 99.176 86.0608 99.0302C81.0705 98.7387 76.0955 97.983 71.0745 98.4855C69.3484 98.6581 67.5993 98.6926 65.8962 98.988C64.3159 99.2603 62.7931 99.8549 61.2243 100.208C58.7655 100.76 56.4909 101.78 54.2086 102.793C52.0568 103.748 49.7975 104.304 47.5229 104.853C44.6768 105.54 41.7501 105.428 38.8733 105.812C37.8031 105.954 36.7022 105.866 35.6167 105.885C34.0249 105.912 32.4752 105.628 30.9869 105.087C28.9156 104.335 26.8136 104.243 24.6694 104.584C23.7642 104.73 22.8704 104.945 21.9652 105.106C21.6507 105.16 21.3208 105.16 21.0024 105.152C18.2982 105.091 16.1272 104.005 14.4931 101.826C13.4038 100.377 12.2185 98.9995 11.1714 97.5189C10.573 96.6712 10.105 95.7161 9.6946 94.7571C9.12691 93.4261 8.53621 92.0798 8.18715 90.6797C7.43151 87.6725 6.23475 84.788 5.81665 81.6887C5.61719 80.2158 5.2106 78.7735 4.8999 77.3159C4.89223 77.2776 4.87688 77.2392 4.87305 77.197C4.50098 72.8243 3.87576 68.4592 4.59304 64.0595C4.81935 62.6672 4.93442 61.2594 5.17224 59.8709C5.46375 58.1563 5.99693 56.5146 6.73723 54.9343C7.98769 52.2722 9.10006 49.5373 10.4771 46.9444C11.4744 45.0687 12.8284 43.3886 13.9868 41.5973C15.571 39.1386 17.9799 37.6695 20.3734 36.1735C20.4616 36.1198 20.5997 36.1429 20.7301 36.1275L20.7224 36.1237ZM38.4628 56.7946C37.9488 56.7486 37.5001 56.7984 37.1241 56.6603C34.6999 55.7551 32.1185 55.8433 29.6176 55.4521C29.2685 55.3984 28.8926 55.4789 28.532 55.4981C27.1282 55.5825 25.7243 55.6937 24.3204 55.7551C22.0649 55.8548 19.8786 56.2192 18.1256 57.7689C16.4762 59.2265 15.3255 61.0715 14.309 63.02C12.8169 65.8815 13.0355 68.8312 13.6454 71.8385C13.7452 72.3256 13.7298 72.8665 13.6454 73.3613C13.4345 74.5887 13.0471 75.7893 12.9166 77.0206C12.6136 79.8207 13.6148 82.3293 14.8844 84.7458C15.0148 84.9913 15.1913 85.2329 15.4022 85.4094C16.6373 86.4374 17.884 87.4577 19.1421 88.4588C19.7596 88.9498 20.4769 89.1723 21.2786 89.1761C22.5291 89.18 23.7834 89.1608 25.0223 89.2797C27.1512 89.483 29.2647 89.8129 31.3897 90.043C33.5991 90.2808 35.6934 89.9356 37.7647 89.038C39.4985 88.2862 41.3933 88.0062 43.3036 88.0254C44.8647 88.0407 46.3607 87.8106 47.6533 86.8325C48.0369 86.541 48.4511 86.2801 48.8577 86.0193C49.8742 85.371 50.6069 84.508 51.0825 83.3841C51.3779 82.686 51.8727 82.0761 52.2562 81.4164C52.7165 80.6185 53.1423 79.7977 53.5988 78.996C54.2355 77.8836 54.9067 76.7866 55.5358 75.6666C55.8887 75.0413 56.418 74.9646 57.0701 74.9723C58.5622 74.9876 60.062 75.0183 61.5388 74.8764C66.0918 74.4391 69.2602 72.1415 70.8405 67.7687C71.1397 66.9402 71.5424 66.1347 71.972 65.3637C72.7315 63.9982 73.1995 62.5367 73.3414 61.0063C73.445 59.9169 73.6061 58.8698 73.9475 57.8264C74.2582 56.879 74.2812 55.8242 74.6609 54.9151C75.8347 52.1303 75.6582 49.4683 74.0165 46.975C73.3184 45.9125 72.4707 44.8692 71.4734 44.1021C69.4826 42.5716 67.1889 41.5283 64.7608 40.8608C63.4298 40.4964 62.0604 40.4773 60.7064 40.9452C59.4943 41.3633 58.2554 41.3595 57.0509 40.8608C55.8849 40.3737 54.6881 40.0707 53.407 40.1435C52.8048 40.1781 52.1949 40.1704 51.5926 40.1359C48.6775 39.971 46.4182 41.4247 44.5579 43.3618C43.1271 44.8539 41.9265 46.626 41.1632 48.6168C41.0328 48.9543 40.8909 49.2957 40.6952 49.5987C39.3297 51.7122 38.5779 54.0213 38.459 56.7908L38.4628 56.7946ZM101.511 81.5199C102.846 81.3703 104.112 81.3358 105.324 81.0673C106.41 80.8257 107.541 80.4843 108.469 79.8974C109.996 78.9308 111.434 77.7993 112.785 76.5987C113.609 75.866 114.196 74.9109 114.465 73.741C114.695 72.7437 114.488 71.8193 114.392 70.8719C114.154 68.5474 113.928 66.2229 113.579 63.9138C113.279 61.9575 112.961 60.0128 113.003 58.0259C113.022 57.2204 112.938 56.411 112.95 55.6055C112.973 54.1978 112.62 52.8975 111.933 51.6777C111.381 50.6996 110.913 49.6601 110.28 48.7357C109.003 46.8715 107.092 46.0161 104.944 45.506C102.792 44.9958 101.105 45.901 99.7276 47.2857C98.7879 48.2293 98.1435 49.5143 97.5413 50.7341C96.7434 52.3413 95.7423 53.6838 94.043 54.3934C92.7811 54.9228 91.5191 55.4636 90.2418 55.9546C88.673 56.5606 87.4263 57.5541 86.663 59.0424C86.08 60.1816 85.6542 61.4014 85.1364 62.5789C84.8295 63.2771 84.584 64.0365 84.1237 64.6272C82.881 66.2229 81.4425 67.6115 79.6014 68.5474C77.3421 69.6981 75.6275 71.4511 74.5228 73.7142C74.0012 74.7843 73.7672 76.0003 73.4143 77.1548C72.7008 79.4755 73.142 81.704 74.0741 83.8482C74.4039 84.6077 75.01 85.2521 75.4779 85.9541C76.3295 87.2314 77.4917 88.1711 78.8496 88.8194C79.6321 89.1953 80.545 89.5712 81.3735 89.5213C83.3489 89.3986 85.355 88.9958 86.9891 87.8451C88.7957 86.5755 90.541 85.1562 92.0753 83.5759C94.277 81.3051 96.8661 80.8372 99.8043 81.2898C100.399 81.3818 100.997 81.4547 101.511 81.5238V81.5199ZM33.9098 38.1912C33.5109 38.2027 33.1925 38.6438 33.227 39.1424C33.2615 39.6948 33.6489 40.1436 34.0632 40.1129C34.5619 40.0784 34.9493 39.6602 34.9378 39.1616C34.9301 38.6936 34.3816 38.1758 33.9098 38.1912ZM77.415 23.0514C77.4303 22.242 77.181 21.9122 76.7054 21.8892C76.1876 21.8623 76.0034 22.1615 75.9958 22.6371C75.9842 23.2432 76.3218 23.7495 76.7553 23.6268C77.0583 23.5424 77.2807 23.178 77.415 23.0552V23.0514ZM34.7537 43.4039C35.0413 42.8017 35.0068 42.2724 34.4775 41.9003C34.3125 41.7853 33.8177 41.8275 33.7487 41.9502C33.5914 42.2302 33.4917 42.6368 33.5646 42.9398C33.7218 43.5689 34.2588 43.4308 34.7498 43.4039H34.7537ZM58.8461 28.6516C58.8806 29.0774 58.8269 29.53 58.9803 29.8982C59.0647 30.1015 59.4943 30.255 59.7666 30.2511C59.9047 30.2511 60.131 29.8637 60.1579 29.6336C60.2461 28.8434 59.9584 28.6248 58.8461 28.6516ZM19.4336 48.8853C19.5448 48.7357 19.844 48.5055 19.8977 48.2255C19.9783 47.8112 19.4068 47.2666 19.0002 47.2896C18.5284 47.3126 18.4401 47.6617 18.4478 48.0452C18.4555 48.5631 18.7892 48.916 19.4336 48.8891V48.8853ZM19.8901 44.9881C20.032 44.7772 20.3312 44.4971 20.4041 44.1711C20.5076 43.7108 20.1931 43.427 19.7213 43.3809C19.2687 43.3349 18.9158 43.6379 18.9004 44.0599C18.8889 44.4703 19.3109 44.9651 19.8901 44.992V44.9881ZM62.6243 32.1153C62.7509 31.9542 63.0539 31.7356 63.0999 31.4709C63.169 31.049 62.6933 30.6424 62.2637 30.6654C61.7612 30.6884 61.5963 31.0106 61.6078 31.4671C61.6193 32.0232 62.0259 32.0578 62.6243 32.1191V32.1153ZM80.4299 25.4641C80.6754 25.4641 80.9631 25.2953 80.9477 24.8274C80.9324 24.3747 80.7483 24.0333 80.2305 24.0333C79.797 24.0333 79.5707 24.275 79.5362 24.7046C79.4978 25.1917 79.7433 25.4526 80.4299 25.4641Z" fill="#FF9439"/>
<path d="M34.8649 27.7886C34.7038 26.9678 34.5773 26.1814 34.397 25.4105C33.9367 23.4581 33.4496 21.5095 32.9778 19.5571C32.8358 18.9702 32.7131 18.3757 32.5903 17.785C32.0342 15.1306 31.8922 12.4341 31.8961 9.7337C31.8961 8.26076 31.7311 6.84536 31.2402 5.46065C31.1481 5.19598 31.0791 4.91597 31.0484 4.63979C30.9103 3.43153 31.1558 3.27043 32.3257 2.89452C33.5761 2.49177 34.7499 1.83586 35.9658 1.31803C36.3954 1.13392 36.8557 1.03035 37.3007 0.884589C37.9489 0.669786 38.5972 0.458814 39.2416 0.232504C40.3309 -0.147236 40.4767 -0.131889 41.1556 0.811708C42.1184 2.15423 43.0428 3.52359 43.9787 4.88529C46.3684 8.37967 48.7542 11.8779 51.1516 15.3646C51.4009 15.7252 51.7231 16.0435 52.0453 16.3427C53.0925 17.3132 53.2881 17.3438 54.5961 16.6994C55.5742 16.2161 56.5332 15.7021 57.5036 15.2112C59.7936 14.0566 62.2561 13.4621 64.7455 12.9442C65.5357 12.7793 66.3105 12.5607 67.0892 12.3459C68.3972 11.9815 69.7129 11.9393 71.0439 12.1924C71.2011 12.2231 71.3622 12.2768 71.5195 12.2768C74.4462 12.3037 77.2425 13.182 80.1039 13.6193C80.3417 13.6577 80.5796 13.7382 80.8174 13.7497C84.5726 13.884 87.9596 15.3454 91.3619 16.7071C93.4409 17.5395 95.0941 19.0738 96.8892 20.3741C100.821 23.2202 103.97 26.8259 107.1 30.4737C108.278 31.8469 109.586 33.1088 110.886 34.3708C112.873 36.304 114.434 38.5403 115.8 40.9338C117.019 43.0703 118.243 45.203 119.516 47.305C121.127 49.9632 122.155 52.8016 122.531 55.9009C122.646 56.8369 123.057 57.7536 123.414 58.6435C124.806 62.1264 125.236 65.7243 124.883 69.445C124.775 70.5689 124.829 71.712 124.668 72.8243C124.461 74.2551 124.15 75.6743 123.816 77.0858C123.229 79.5676 122.305 81.9419 121.181 84.2165C120.061 86.4835 118.776 88.666 117.552 90.8793C117.437 91.0864 117.284 91.2859 117.1 91.4316C115.201 92.9314 113.36 94.5156 111.373 95.8849C109.355 97.2773 107.207 98.4587 104.848 99.2565C101.853 100.273 98.7726 100.86 95.6695 101.362C95.236 101.431 94.7872 101.428 94.3423 101.439C93.8973 101.451 93.4486 101.382 93.0113 101.439C89.8429 101.88 86.7551 101.22 83.6482 100.81C79.8354 100.304 76.0035 100.154 72.1677 100.327C69.2142 100.457 66.3412 101.052 63.591 102.222C59.8473 103.813 56.1036 105.405 52.3177 106.886C48.7082 108.297 44.9875 109.356 41.1326 109.889C40.2158 110.016 39.3221 110.33 38.4053 110.426C34.7038 110.814 30.987 110.975 27.3008 110.43C23.887 109.928 20.5921 108.923 17.7421 106.886C15.0878 104.987 12.4986 103 9.92481 100.998C9.33794 100.542 8.90067 99.878 8.45188 99.2642C7.28581 97.6647 6.37674 95.9118 5.55205 94.1166C4.08295 90.9215 2.97057 87.615 2.21493 84.1705C1.77381 82.1606 1.6549 80.0969 1.17927 78.1215C0.788019 76.5067 0.753506 74.8496 0.300886 73.2616C-0.12872 71.7542 0.00168915 70.216 0.0899117 68.6894C0.170463 67.2817 0.220327 65.8547 0.496502 64.4777C0.860899 62.6711 1.42859 60.9066 1.9119 59.123C2.03848 58.6589 2.15355 58.1871 2.29548 57.7306C2.66371 56.5415 3.00509 55.3371 3.4347 54.1672C4.24404 51.9769 5.11093 49.8059 5.94713 47.6272C7.15539 44.4742 9.16916 41.8774 11.5358 39.5222C11.7046 39.3534 11.8887 39.1693 12.1035 39.0734C13.8603 38.2756 15.2182 36.9293 16.6719 35.7172C18.3788 34.2941 20.2775 33.1817 22.2875 32.2496C25.6553 30.6885 29.1036 29.3344 32.6709 28.2873C33.3537 28.0878 34.0633 27.9728 34.8726 27.7925L34.8649 27.7886ZM20.7225 36.1199C20.5882 36.1352 20.454 36.1122 20.3658 36.1659C17.9722 37.658 15.5634 39.131 13.9792 41.5897C12.8247 43.381 11.4668 45.0649 10.4695 46.9368C9.09245 49.5297 7.98391 52.2646 6.72962 54.9267C5.98548 56.507 5.45615 58.1525 5.16463 59.8633C4.92681 61.2518 4.81557 62.6634 4.58543 64.0519C3.86814 68.4516 4.49337 72.8167 4.86544 77.1894C4.86544 77.2278 4.88462 77.27 4.89229 77.3083C5.20299 78.7659 5.61341 80.2082 5.80904 81.6811C6.22713 84.7804 7.42389 87.6687 8.17953 90.6721C8.52859 92.0684 9.11931 93.4147 9.687 94.7496C10.0974 95.7085 10.5654 96.6636 11.1638 97.5113C12.2109 98.9919 13.3962 100.369 14.4855 101.819C16.1196 103.994 18.2906 105.083 20.9948 105.144C21.317 105.152 21.6431 105.152 21.9576 105.098C22.8628 104.937 23.7566 104.723 24.6618 104.577C26.806 104.232 28.9118 104.327 30.9793 105.079C32.4638 105.62 34.0134 105.904 35.6091 105.877C36.6946 105.858 37.7955 105.946 38.8656 105.804C41.7425 105.417 44.6691 105.532 47.5153 104.845C49.7899 104.297 52.0492 103.741 54.201 102.785C56.4795 101.773 58.7579 100.753 61.2166 100.2C62.7855 99.8473 64.3083 99.2566 65.8886 98.9804C67.5917 98.685 69.3408 98.6505 71.0669 98.4779C76.0879 97.9754 81.0629 98.7311 86.0532 99.0226C88.5158 99.1645 90.963 99.2949 93.4217 99.1261C94.3883 99.0571 95.3549 99.0073 96.3177 98.9114C99.8658 98.5546 103.341 97.914 106.586 96.3184C109.026 95.1178 111.285 93.6564 113.437 92.007C115.458 90.4573 116.92 88.4321 118.143 86.238C119.804 83.2653 120.924 80.0663 121.902 76.8174C122.086 76.1998 122.34 75.5899 122.432 74.9608C122.796 72.4254 122.654 69.8938 122.297 67.3622C121.914 64.6465 121.588 61.9193 121.239 59.1997C121.131 58.3635 121.108 57.5081 120.89 56.7026C120.552 55.4637 120.08 54.2592 119.666 53.0395C118.784 50.4388 117.74 47.911 116.248 45.5904C114.656 43.1202 113.164 40.5694 111.385 38.2449C110.123 36.5994 108.538 35.1686 106.947 33.8223C104.714 31.9389 102.766 29.8024 100.852 27.616C99.7085 26.3119 98.5233 25.0422 97.3188 23.7956C95.9456 22.3725 94.5302 20.9955 92.8348 19.9407C90.3071 18.3642 87.5261 17.3745 84.6992 16.5767C80.2574 15.3262 75.6966 14.6895 71.0707 14.7163C69.7857 14.724 68.4777 14.8506 67.2273 15.1306C65.7774 15.4567 64.3773 16.0013 62.9619 16.4731C62.774 16.5345 62.6282 16.7109 62.329 16.9372C62.6781 17.0485 62.8545 17.1444 63.0386 17.1597C65.2595 17.34 67.2196 18.3105 69.195 19.2157C69.6131 19.4075 69.943 19.7412 69.7397 20.2782C69.5786 20.704 69.0224 20.9226 68.5007 20.773C68.3128 20.7193 68.121 20.6234 67.9676 20.5007C66.9358 19.6913 65.7735 19.2464 64.4885 18.9472C62.9427 18.5866 61.3969 18.437 59.8281 18.2874C59.176 18.2261 58.6467 18.3028 58.1212 18.671C56.1534 20.0596 54.1742 21.4366 52.0261 22.9402C52.5286 23.2433 52.8662 23.5041 53.2459 23.6614C54.646 24.2406 55.8389 25.1305 56.9704 26.1086C57.5113 26.5765 57.4768 27.1366 56.9167 27.4971C56.4603 27.7886 56.1151 27.6352 55.766 27.2401C54.5271 25.8439 52.9582 24.9924 51.1708 24.4745C50.3576 24.2405 49.6365 24.3173 48.9882 24.7852C47.312 25.9935 45.2522 26.2582 43.4379 27.1212C42.2028 27.7081 40.9446 28.2374 39.7172 28.8358C39.4525 28.9662 39.2454 29.2692 39.0689 29.5301C38.298 30.6693 37.6689 31.8699 37.3313 33.2277C37.1702 33.8683 36.7752 34.4629 36.4069 35.0267C36.3072 35.1763 35.8853 35.2185 35.6628 35.1495C35.5285 35.1073 35.448 34.762 35.4211 34.5396C35.3981 34.3478 35.4633 34.1407 35.5209 33.9489C35.8354 32.9516 36.1691 31.9619 36.4721 30.9608C36.5642 30.6539 36.5872 30.3241 36.6562 29.8983C36.2228 29.9328 35.985 29.9213 35.7625 29.9712C32.4254 30.7652 29.1305 31.6666 25.9506 32.9899C24.6772 33.5193 23.8179 34.367 23.0968 35.4717C22.2798 36.726 21.9614 38.126 21.7428 39.5721C21.6469 40.2127 21.1943 40.5694 20.7033 40.4505C20.1893 40.3277 19.9093 39.8138 20.0704 39.2269C20.3197 38.3025 20.5921 37.3819 20.8376 36.4536C20.8606 36.3654 20.7608 36.2426 20.7148 36.1161L20.7225 36.1199ZM36.5527 4.05677C35.9543 4.23322 35.8085 4.58611 36.0809 5.13846C36.2765 5.53354 36.5028 5.91711 36.6486 6.33138C37.4081 8.52927 38.1791 10.7272 38.881 12.9442C39.863 16.0435 40.7835 19.1658 41.7501 22.2728C42.0302 23.1742 42.2066 24.137 42.9546 24.9809C43.6488 24.4707 44.3086 23.9835 44.9223 23.5309C44.0785 21.498 43.2806 19.6108 42.5096 17.7159C41.3435 14.8544 40.2005 11.9776 39.0268 9.11996C38.5396 7.93855 38.0218 6.76481 37.4809 5.60641C37.247 5.10776 36.9171 4.65515 36.5565 4.05293L36.5527 4.05677ZM34.5389 5.84423C34.4315 5.86724 34.3241 5.89025 34.2129 5.91327C34.1553 6.13574 34.0556 6.35438 34.0441 6.58069C33.9866 7.7084 34.117 8.78625 34.4814 9.88711C35.2063 12.062 35.774 14.2906 36.3801 16.5038C36.7828 17.9767 37.2431 19.4458 37.4848 20.9456C37.7456 22.5682 38.3555 24.0296 39.1418 25.4296C39.5292 26.1239 39.6481 26.1124 40.6838 25.7557C40.5917 25.4603 40.515 25.1535 40.4038 24.8619C39.6673 22.9095 38.8541 20.9801 38.2059 19.0009C37.5308 16.9372 36.9746 14.8314 36.4453 12.7256C36.0425 11.1299 35.8085 9.48821 35.4096 7.89254C35.2332 7.18292 34.8304 6.52699 34.5312 5.84423H34.5389ZM48.1405 20.4547C47.2046 18.8168 46.3262 17.3323 45.4938 15.8249C43.8253 12.7985 42.1989 9.74903 40.5227 6.72645C40.189 6.1204 39.7133 5.59107 39.3029 5.02721C39.23 5.07707 39.1533 5.1231 39.0804 5.17297C41.5123 10.7156 43.9442 16.2622 46.3837 21.824C47.335 21.6936 47.7339 21.0607 48.1405 20.4547ZM39.418 2.74492C39.6673 3.15152 39.8322 3.49291 40.0624 3.78442C42.594 6.98729 44.2933 10.6888 46.3147 14.1985C47.2353 15.798 48.2134 17.363 49.1608 18.9472C49.437 19.4113 49.8014 19.5302 50.277 19.2617C50.6146 19.0699 50.9445 18.8628 51.3702 18.6058C50.7488 17.762 50.231 16.9526 49.6058 16.243C47.661 14.0297 46.0922 11.5595 44.4812 9.10847C43.1809 7.12538 41.8575 5.15763 40.5342 3.18989C40.3424 2.90604 40.1851 2.51863 39.4218 2.74111L39.418 2.74492ZM42.2258 107.227C42.126 107.189 42.0225 107.105 41.9266 107.116C40.2887 107.281 38.6508 107.454 37.013 107.63C35.5707 107.787 34.1515 107.902 32.7054 107.469C30.1853 106.713 27.6192 106.18 24.961 106.66C24.4739 106.748 23.9944 106.871 23.4459 106.989C23.9829 107.734 24.4547 107.998 26.5413 108.282C31.827 109.003 37.0782 108.95 42.2258 107.223V107.227ZM35.8162 21.5977C35.6551 21.9813 35.5515 22.104 35.5784 22.1846C36.0962 23.692 36.6217 25.1957 37.1779 26.6878C37.2163 26.7913 37.5039 26.8028 37.6727 26.8565C37.7149 26.6801 37.8377 26.473 37.7878 26.3311C37.6382 25.9206 37.4004 25.5447 37.2316 25.1381C36.779 24.0372 36.3455 22.9287 35.8124 21.5977H35.8162Z" fill="black"/>
<path d="M36.5528 4.06067C36.9134 4.65905 37.2433 5.1155 37.4772 5.61415C38.0181 6.77255 38.5359 7.94245 39.0231 9.1277C40.1968 11.9892 41.3398 14.8622 42.5059 17.7237C43.2807 19.6185 44.0748 21.5057 44.9186 23.5387C44.3049 23.9913 43.6452 24.4746 42.9509 24.9886C42.2029 24.1486 42.0265 23.1858 41.7464 22.2805C40.776 19.1736 39.8593 16.0513 38.8773 12.952C38.1754 10.7349 37.4044 8.53698 36.6449 6.33909C36.503 5.92483 36.2728 5.54126 36.0772 5.14617C35.8048 4.59382 35.9506 4.24093 36.549 4.06449L36.5528 4.06067Z" fill="#8B9463"/>
<path d="M34.5352 5.84802C34.8343 6.52695 35.2333 7.18288 35.4135 7.89633C35.8125 9.49584 36.0464 11.1337 36.4492 12.7294C36.9785 14.8352 37.5347 16.941 38.2098 19.0047C38.8581 20.9878 39.6712 22.9133 40.4077 24.8657C40.5189 25.1573 40.5956 25.4603 40.6877 25.7595C39.6482 26.1162 39.5332 26.1277 39.1457 25.4334C38.3594 24.0295 37.7495 22.5719 37.4887 20.9494C37.247 19.4496 36.7867 17.9805 36.384 16.5076C35.7779 14.2944 35.2102 12.0658 34.4853 9.89091C34.1209 8.79004 33.9866 7.7122 34.048 6.58448C34.0595 6.36201 34.1592 6.13954 34.2168 5.91706C34.3242 5.89405 34.4316 5.87104 34.5428 5.84802H34.5352Z" fill="#6C7249"/>
<path d="M48.1406 20.4586C47.7379 21.0646 47.3351 21.6975 46.3839 21.8279C43.9443 16.2661 41.5124 10.7196 39.0806 5.17689C39.1534 5.12702 39.2302 5.08099 39.303 5.03113C39.7135 5.59499 40.1853 6.12432 40.5228 6.73037C42.199 9.75295 43.8254 12.8024 45.494 15.8288C46.3263 17.3363 47.2009 18.8207 48.1406 20.4586Z" fill="#6C7249"/>
<path d="M39.414 2.74492C40.1735 2.52244 40.3346 2.90987 40.5264 3.19372C41.8497 5.16146 43.173 7.12921 44.4733 9.1123C46.0844 11.5634 47.6532 14.0336 49.5979 16.2468C50.2232 16.9603 50.741 17.7696 51.3624 18.6096C50.9366 18.8628 50.6067 19.0738 50.2692 19.2655C49.7974 19.5341 49.433 19.4151 49.153 18.951C48.2055 17.3668 47.2274 15.8019 46.3069 14.2023C44.2854 10.6926 42.5862 6.99112 40.0546 3.78826C39.8244 3.49674 39.6595 3.15535 39.4102 2.74876L39.414 2.74492Z" fill="#8B9463"/>
<path d="M42.2218 107.231C37.0742 108.953 31.823 109.007 26.5374 108.29C24.4507 108.006 23.9751 107.741 23.4419 106.997C23.9942 106.874 24.4737 106.756 24.957 106.667C27.6152 106.188 30.1813 106.721 32.7014 107.477C34.1437 107.91 35.5629 107.791 37.009 107.638C38.6469 107.461 40.2847 107.289 41.9226 107.124C42.0185 107.116 42.1221 107.197 42.2218 107.235V107.231Z" fill="#FFC34F"/>
<path d="M35.8124 21.6016C36.3456 22.9326 36.779 24.0411 37.2317 25.142C37.3966 25.5486 37.6382 25.9245 37.7878 26.3349C37.8377 26.4768 37.715 26.6839 37.6728 26.8604C37.5002 26.8067 37.2163 26.7952 37.178 26.6916C36.6218 25.1995 36.0963 23.6959 35.5784 22.1884C35.5516 22.1079 35.6552 21.9851 35.8163 21.6016H35.8124Z" fill="#8B9463"/>
<path d="M38.4631 56.7908C38.582 54.0214 39.3377 51.7123 40.6994 49.5988C40.895 49.2958 41.0407 48.9544 41.1673 48.6168C41.9268 46.6261 43.1274 44.8539 44.562 43.3618C46.4223 41.4209 48.6816 39.971 51.5968 40.136C52.199 40.1705 52.8089 40.1743 53.4111 40.1436C54.6922 40.0707 55.889 40.3776 57.0551 40.8609C58.2595 41.3634 59.4984 41.3634 60.7105 40.9453C62.0646 40.4773 63.4339 40.4965 64.7649 40.8609C67.193 41.5245 69.4829 42.5717 71.4775 44.1021C72.4748 44.8693 73.3225 45.9126 74.0206 46.9751C75.6623 49.4722 75.8388 52.1304 74.665 54.9151C74.2815 55.8242 74.2585 56.8791 73.9516 57.8265C73.6102 58.8698 73.4453 59.9131 73.3455 61.0063C73.2036 62.5368 72.7318 63.9982 71.9762 65.3638C71.5466 66.1386 71.1438 66.9403 70.8446 67.7688C69.2643 72.1416 66.0959 74.4392 61.5429 74.8765C60.0623 75.0184 58.5625 74.9839 57.0742 74.9724C56.4222 74.9647 55.8928 75.0414 55.5399 75.6666C54.9109 76.7867 54.2396 77.8799 53.6029 78.9961C53.1426 79.7977 52.7207 80.6186 52.2604 81.4164C51.8806 82.08 51.382 82.6899 51.0866 83.3842C50.611 84.5119 49.8783 85.3711 48.8619 86.0193C48.4553 86.2802 48.0449 86.5372 47.6574 86.8325C46.3648 87.8145 44.8727 88.0408 43.3077 88.0254C41.3975 88.0101 39.4988 88.2901 37.7688 89.0381C35.6975 89.9357 33.6032 90.2809 31.3938 90.0431C29.2688 89.8129 27.1553 89.483 25.0264 89.2797C23.7875 89.1608 22.5293 89.18 21.2827 89.1762C20.481 89.1762 19.7638 88.9499 19.1462 88.4589C17.8881 87.4578 16.6415 86.4374 15.4063 85.4095C15.1954 85.233 15.0151 84.9914 14.8885 84.7459C13.6189 82.3293 12.6177 79.8207 12.9208 77.0206C13.055 75.7894 13.4386 74.5849 13.6496 73.3613C13.7339 72.8665 13.7493 72.3295 13.6496 71.8385C13.0397 68.8313 12.821 65.8816 14.3131 63.0201C15.3296 61.0715 16.4803 59.2265 18.1297 57.7689C19.8827 56.2193 22.0691 55.8511 24.3245 55.7552C25.7284 55.6938 27.1323 55.5864 28.5362 55.4982C28.8967 55.4752 29.2688 55.3946 29.6217 55.4522C32.1264 55.8434 34.7041 55.7513 37.1283 56.6604C37.5042 56.8023 37.9491 56.7486 38.467 56.7947L38.4631 56.7908ZM32.7708 84.7574C34.401 84.6653 36.3381 84.6078 38.2636 84.4198C39.0423 84.3431 39.8555 84.0976 40.5421 83.7217C42.7246 82.5211 44.8842 81.2822 46.9133 79.8092C47.7687 79.1917 48.3977 78.4821 48.8504 77.5615C49.4641 76.3149 49.9052 75.0337 49.7518 73.6106C49.7019 73.1312 49.7326 72.644 49.7172 72.1569C49.629 69.6637 48.6279 67.531 46.967 65.7435C44.8803 63.4996 42.3718 61.8195 39.4719 60.7877C38.1524 60.3159 36.7984 59.9016 35.429 59.6139C34.5736 59.4375 33.6607 59.5181 32.7747 59.5411C30.8338 59.5909 28.9082 59.7214 27.2972 61.0179C27.1783 61.1137 27.0019 61.1406 26.8484 61.1981C26.0928 61.4781 25.3448 61.7735 24.5853 62.0382C23.1316 62.5406 22.1496 63.5878 21.394 64.8613C19.944 67.3008 19.9134 70.005 19.9786 72.7208C19.9786 72.8013 20.0131 72.878 20.0284 72.9586C20.5923 75.5094 21.6241 77.8607 23.1201 79.9972C24.6122 82.1299 26.4802 83.833 29.1115 84.4006C30.2047 84.6385 31.3516 84.627 32.7862 84.7574H32.7708ZM53.8637 46.7526C53.4188 46.7526 52.9738 46.7181 52.5327 46.7565C48.9731 47.0633 45.9352 48.3483 44.0902 51.5972C43.3997 52.8132 42.9318 54.1595 42.4063 55.4637C42.0918 56.2385 42.1915 56.3229 42.8858 56.8369C43.6261 57.3892 44.3242 57.9914 45.0108 58.609C45.5785 59.1191 46.0771 59.7137 46.6525 60.2162C49.1726 62.4256 50.9639 65.0991 51.8844 68.3288C52.1721 69.3338 52.4023 70.3579 52.6439 71.3782C52.7437 71.8002 52.8856 72.1607 53.3881 72.1914C55.8391 72.3372 58.2211 72.1109 60.4497 70.964C62.6092 69.8516 64.297 68.1869 65.8198 66.3495C66.3261 65.7397 66.8094 65.03 67.0472 64.2859C67.8719 61.7236 67.7415 59.1191 67.1278 56.5262C67.0626 56.2538 66.9398 55.9892 66.8017 55.7475C65.8121 53.9946 64.8263 52.2493 63.338 50.8224C60.676 48.2678 57.6956 46.534 53.8637 46.7526ZM60.3922 42.4144C60.6223 42.7174 60.7029 42.9246 60.8525 43.0089C62.1068 43.7301 63.361 44.4627 64.6422 45.1339C68.4281 47.117 71.3394 49.8519 72.5477 54.102C72.6474 54.451 72.8853 54.7579 73.0617 55.0839C73.5258 54.2669 73.8058 53.5189 73.9439 52.7441C74.3467 50.4427 73.8826 48.4059 72.2293 46.6222C70.0852 44.3093 67.3234 43.1547 64.4236 42.2725C63.1616 41.8889 61.8344 42.0884 60.3922 42.4144ZM28.2216 86.7788C28.2408 86.6714 28.2638 86.5602 28.283 86.4528C27.8035 86.1843 27.3125 85.9388 26.8484 85.6473C25.9624 85.0949 24.9689 84.6385 24.2401 83.9212C22.7825 82.4828 21.4093 80.9446 20.1243 79.3528C18.7933 77.6996 17.9648 75.7702 17.6004 73.6682C17.1976 71.3552 16.8985 69.0499 18.1259 66.8444C18.4251 66.3035 18.521 65.6476 18.7128 65.0454C18.6245 65.0186 18.5402 64.9917 18.4519 64.9648C18.1336 65.6975 17.7807 66.4148 17.5045 67.1589C17.002 68.5091 16.6913 69.9513 16.0277 71.2133C15.4332 72.3525 15.4792 73.3153 15.9894 74.3932C17.19 76.9363 18.3292 79.5101 19.5643 82.0378C20.4465 83.8445 21.3364 85.6549 22.9513 86.9859C23.4308 87.381 23.868 87.592 24.4741 87.4808C25.4254 87.3082 26.3843 87.1739 27.3356 87.0051C27.6347 86.9514 27.9263 86.8517 28.2255 86.7711L28.2216 86.7788ZM62.7627 46.1121C68.1557 50.6805 70.1542 56.4111 69.4062 63.5226C70.8216 61.9077 71.9071 60.5039 71.9263 58.4287C71.9455 56.5914 71.3049 54.9382 70.6682 53.3348C69.5021 50.4004 67.3541 48.2448 64.4619 46.8869C63.8981 46.6222 63.3304 46.3691 62.7627 46.1121ZM21.2175 87.381C21.1945 87.266 21.2099 87.1164 21.1446 87.0473C19.8443 85.7278 19.2459 83.9864 18.3906 82.4022C17.7308 81.1748 17.2859 79.8323 16.6798 78.5741C16.185 77.55 15.7055 76.499 14.8041 75.4211C13.8759 78.3977 14.5778 80.9063 15.8705 83.3151C16.8831 85.2062 19.7983 87.3849 21.2175 87.3772V87.381ZM26.5722 57.6385C26.5722 57.5465 26.5722 57.4544 26.5722 57.3624C26.2846 57.2933 25.9969 57.1552 25.713 57.1706C24.6659 57.2319 23.6034 57.2473 22.5831 57.4621C21.4093 57.7076 20.1819 58.0183 19.2843 58.8583C16.6453 61.3247 14.8463 64.2552 14.6123 67.9683C14.5855 68.4247 14.4589 68.931 15.0918 69.3798C15.3104 68.8581 15.5713 68.417 15.6863 67.9376C16.2195 65.7051 17.2168 63.7412 18.6514 61.9308C20.4274 59.6907 22.6943 58.4172 25.4522 57.8955C25.8281 57.8227 26.2002 57.7191 26.5722 57.6309V57.6385ZM45.2524 45.786C45.6053 45.786 45.7357 45.8282 45.8201 45.7783C47.6383 44.758 49.5907 44.2249 51.6466 43.8797C53.9097 43.4999 56.0654 43.9103 58.225 44.363C59.3067 44.5893 60.3346 45.0917 61.3856 45.4677C60.3461 44.5662 59.1954 43.9065 58.0869 43.1816C57.3159 42.6752 56.495 42.376 55.586 42.3952C54.1399 42.4297 52.6976 42.5218 51.2516 42.5985C48.8312 42.7289 47.1166 44.152 45.2524 45.7822V45.786ZM60.6338 73.181C64.8915 73.5991 68.6007 70.6149 69.1837 66.8444C66.679 69.5141 64.3315 72.2413 60.6338 73.181ZM49.9666 81.6389C49.6559 81.9419 49.3528 82.2488 49.0306 82.5441C48.6471 82.8932 48.3018 83.319 47.8569 83.5568C46.3072 84.3815 44.7193 85.1371 43.1504 85.9311C43.0392 85.9886 42.974 86.1383 42.8589 86.284C46.0234 86.8555 48.812 85.0719 49.9666 81.6427V81.6389ZM29.0003 88.2249C31.0448 88.9729 34.8268 88.7811 36.0734 87.895C35.7666 87.8298 35.5403 87.7148 35.3408 87.7493C33.8909 88.0101 32.4563 87.7109 31.0141 87.6726C30.7341 87.6649 30.4349 87.6342 30.174 87.7071C29.825 87.8068 29.4989 87.9986 29.0041 88.2249H29.0003Z" fill="black"/>
<path d="M101.511 81.5163C100.997 81.4472 100.399 81.3743 99.8045 81.2823C96.8701 80.8296 94.2772 81.2976 92.0754 83.5684C90.5411 85.1487 88.7959 86.568 86.9892 87.8376C85.3552 88.9883 83.3491 89.3949 81.3737 89.5138C80.5451 89.5637 79.6322 89.1878 78.8497 88.8119C77.4919 88.1636 76.3296 87.2239 75.4781 85.9466C75.0101 85.2446 74.4041 84.6002 74.0742 83.8407C73.1421 81.6965 72.701 79.468 73.4145 77.1473C73.7673 75.9928 74.0013 74.7806 74.523 73.7066C75.6277 71.4435 77.3423 69.6868 79.6015 68.5399C81.4427 67.6039 82.8811 66.2115 84.1239 64.6197C84.5842 64.0328 84.8297 63.2695 85.1365 62.5714C85.6544 61.3977 86.0801 60.1741 86.6632 59.0348C87.4265 57.5466 88.6731 56.5531 90.2419 55.9471C91.5193 55.4561 92.7774 54.9152 94.0432 54.3859C95.7424 53.6763 96.7436 52.3338 97.5414 50.7266C98.1475 49.5106 98.7919 48.2218 99.7278 47.2782C101.105 45.8935 102.793 44.9883 104.944 45.4984C107.092 46.0086 108.999 46.864 110.28 48.7281C110.913 49.6526 111.381 50.6921 111.933 51.6702C112.624 52.89 112.973 54.1903 112.95 55.598C112.938 56.4035 113.019 57.2129 113.003 58.0184C112.961 60.0053 113.28 61.95 113.579 63.9063C113.932 66.2116 114.158 68.5399 114.392 70.8643C114.488 71.8118 114.695 72.7362 114.465 73.7335C114.196 74.8996 113.609 75.8585 112.785 76.5911C111.431 77.7917 109.992 78.9233 108.469 79.8899C107.541 80.4767 106.41 80.8182 105.324 81.0598C104.112 81.3321 102.846 81.3667 101.511 81.5124V81.5163ZM90.7406 63.6301C90.6293 63.6991 90.5143 63.772 90.403 63.8411C90.5028 64.2592 90.591 64.6811 90.7022 65.0992C90.848 65.6439 91.0436 66.1732 91.1549 66.7256C91.454 68.2215 91.711 69.7251 91.9949 71.2249C92.0678 71.6046 91.9335 71.8463 91.5921 71.9997C91.0475 72.2452 90.5565 72.3028 90.0003 71.9269C88.6002 70.9794 87.1542 70.101 85.7349 69.1766C84.7721 68.5475 83.8439 68.2944 82.9387 69.2763C82.8351 69.3876 82.6625 69.4374 82.5205 69.518C80.8712 70.4424 79.1988 71.3055 77.9253 72.7861C76.7401 74.1631 75.808 75.6897 75.4781 77.4388C75.0255 79.817 75.4973 82.0686 76.9395 84.0977C78.5275 86.3378 82.3671 87.6727 84.8028 86.3033C85.6697 85.8161 86.4676 85.1679 87.2117 84.5005C88.232 83.5876 89.1564 82.5672 90.146 81.6236C90.5795 81.2094 90.8058 80.7644 90.8365 80.1469C90.9055 78.9003 91.0474 77.6536 91.174 76.4109C91.2776 75.3829 91.6497 75.1566 92.624 75.5478C93.0344 75.7128 93.4026 75.9736 93.8092 76.1538C94.6761 76.5374 95.5506 76.8942 96.5172 77.2969C96.6093 76.8942 96.686 76.6755 96.709 76.4492C96.8433 75.0913 96.9392 73.7297 97.108 72.3795C97.1463 72.0611 97.3419 71.6123 97.5874 71.5087C97.8253 71.409 98.3277 71.5701 98.5234 71.7887C99.6741 73.0776 100.763 74.4201 101.883 75.7358C102.064 75.9467 102.298 76.1117 102.509 76.2996C102.593 76.2536 102.677 76.2076 102.762 76.1615C102.739 75.778 102.781 75.3752 102.677 75.0185C102.148 73.2042 102.405 71.3361 102.248 69.4988C102.221 69.1804 102.229 68.8467 102.279 68.5322C102.363 68.0105 102.819 67.7996 103.264 68.0681C103.433 68.1678 103.552 68.3481 103.702 68.4785C104.883 69.5103 106.091 70.5153 107.25 71.5739C108.051 72.3027 108.811 73.0814 109.544 73.8792C109.758 74.1132 109.816 74.493 109.939 74.7998C109.191 75.31 108.796 75.0722 108.278 74.5774C107.15 73.4918 105.915 72.5137 104.699 71.5203C104.534 71.386 104.223 71.432 103.951 71.3937C104.008 72.2452 104.039 72.9625 104.104 73.676C104.235 75.1182 104.335 76.5681 104.546 78.0027C104.718 79.1764 104.964 79.2378 106.087 78.8044C108.592 77.8378 109.87 75.6705 111.239 73.5954C111.3 73.4995 111.289 73.3576 111.331 73.2464C112.229 70.9296 112.321 68.5207 112.071 66.0965C111.96 65.0225 111.726 63.9485 111.442 62.9051C111.158 61.8618 110.602 60.8837 110.414 59.8327C110.115 58.1718 110.011 56.4764 109.854 54.7963C109.793 54.1557 109.831 53.5037 109.797 52.8593C109.728 51.4861 108.987 50.5348 107.84 49.8635C107.388 49.5989 106.92 49.361 106.471 49.0925C105.274 48.3714 104.005 48.1681 102.635 48.4788C102.045 48.6131 101.745 48.8586 101.742 49.5298C101.726 51.7469 101.661 53.964 101.588 56.1772C101.515 58.3099 101.419 60.4426 101.293 62.5753C101.274 62.8936 101.105 63.3079 100.863 63.492C100.119 64.0635 99.5782 63.8641 99.1448 63.0164C98.6077 61.9692 98.1359 60.8645 97.0964 60.0398C96.9967 60.2891 96.897 60.4311 96.8893 60.5768C96.8011 62.4257 96.7244 64.2745 96.6515 66.1233C96.6132 67.1206 96.2219 67.8878 95.1671 68.4478C93.6903 66.8368 92.2212 65.2334 90.7483 63.6301H90.7406ZM95.0136 57.1093C93.8284 57.2397 92.7774 57.2589 91.7762 57.4967C90.9017 57.7038 89.9734 57.9493 89.3559 58.7625C89.4096 58.9313 89.4211 59.1116 89.5132 59.2266C91.1242 61.1867 92.739 63.1429 94.3692 65.08C94.4958 65.2296 94.7682 65.2641 95.1709 65.4367C95.0597 62.5522 95.7539 59.8289 95.0136 57.1055V57.1093ZM85.3744 66.879C86.0801 67.6806 89.2562 69.4566 90.031 69.5333C90.0732 67.9875 88.5043 61.9347 87.8293 61.1483C86.6862 62.9243 86.8895 65.2411 85.3744 66.879ZM99.7048 60.0897C99.7968 59.5565 99.8966 59.2535 99.8927 58.9543C99.8697 56.7142 99.8352 54.4703 99.7776 52.2302C99.7738 52.0231 99.559 51.8198 99.3327 51.4209C98.9875 52.8938 98.5502 54.033 97.4494 54.7771C97.0811 55.0265 97.0773 55.387 97.246 55.7399C97.8751 57.0364 98.5157 58.3252 99.1678 59.6064C99.233 59.733 99.3864 59.8097 99.7048 60.0897ZM102.279 79.0767C101.3 77.692 100.395 76.3303 99.068 75.3445C98.9146 75.2294 98.6461 75.2755 98.4505 75.2486C98.3584 76.2766 98.274 77.2087 98.1935 78.1024C99.4478 79.092 100.836 79.0997 102.282 79.0729L102.279 79.0767ZM95.006 79.0767L95.0558 78.7775C94.5418 78.5435 94.0394 78.2712 93.5062 78.0909C93.2875 78.018 92.8695 78.0602 92.7736 78.2022C92.624 78.4285 92.5818 78.8159 92.67 79.0729C92.7314 79.2455 93.1073 79.4334 93.3221 79.4104C93.8898 79.3567 94.4459 79.1918 95.006 79.0729V79.0767Z" fill="black"/>
<path d="M33.9099 38.1913C34.3779 38.1759 34.9264 38.6937 34.9379 39.1617C34.9494 39.6603 34.562 40.0785 34.0634 40.113C33.6491 40.1437 33.2617 39.6949 33.2272 39.1425C33.1965 38.6439 33.511 38.2066 33.9099 38.1913Z" fill="black"/>
<path d="M77.4151 23.0514C77.2847 23.1741 77.0584 23.5347 76.7554 23.6229C76.3219 23.7457 75.9844 23.2394 75.9959 22.6333C76.0036 22.1577 76.1839 21.8585 76.7055 21.8853C77.1812 21.9122 77.4305 22.2382 77.4151 23.0476V23.0514Z" fill="black"/>
<path d="M34.7536 43.404C34.2626 43.4309 33.7256 43.5651 33.5683 42.9399C33.4916 42.6369 33.5914 42.2303 33.7525 41.9503C33.8215 41.8275 34.3163 41.7853 34.4813 41.9004C35.0067 42.2686 35.0451 42.798 34.7574 43.404H34.7536Z" fill="black"/>
<path d="M58.8462 28.6517C59.9586 28.6286 60.2424 28.8434 60.158 29.6336C60.1312 29.8638 59.9048 30.2512 59.7668 30.2512C59.4944 30.2512 59.0648 30.1016 58.9804 29.8983C58.827 29.53 58.8807 29.0774 58.8462 28.6517Z" fill="black"/>
<path d="M19.4335 48.8854C18.7853 48.9122 18.4554 48.5632 18.4477 48.0415C18.44 47.6579 18.5283 47.3089 19.0001 47.2859C19.4028 47.2628 19.9782 47.8075 19.8976 48.2218C19.8439 48.5018 19.5447 48.732 19.4335 48.8816V48.8854Z" fill="black"/>
<path d="M19.8903 44.992C19.3111 44.9652 18.8891 44.4704 18.9006 44.0599C18.9121 43.6418 19.2689 43.3388 19.7215 43.381C20.1933 43.427 20.5078 43.7147 20.4042 44.1712C20.3314 44.501 20.0322 44.7772 19.8903 44.9882V44.992Z" fill="black"/>
<path d="M62.6281 32.1154C62.0297 32.054 61.6231 32.0195 61.6116 31.4633C61.6039 31.0069 61.765 30.6885 62.2675 30.6617C62.6933 30.6425 63.1727 31.0452 63.1037 31.4672C63.0615 31.7318 62.7547 31.9505 62.6281 32.1116V32.1154Z" fill="black"/>
<path d="M80.4336 25.468C79.7509 25.4565 79.5016 25.1957 79.5399 24.7085C79.5744 24.2789 79.8008 24.0334 80.2342 24.0373C80.7482 24.0373 80.9361 24.3825 80.9515 24.8313C80.9668 25.2954 80.6791 25.4642 80.4336 25.468Z" fill="black"/>
<path d="M32.7744 84.7574C31.3398 84.627 30.1929 84.6385 29.0997 84.4006C26.4684 83.833 24.6042 82.1299 23.1082 79.9972C21.6123 77.8645 20.5805 75.5094 20.0166 72.9586C19.9974 72.878 19.9668 72.8013 19.9668 72.7208C19.9015 70.005 19.9322 67.3008 21.3822 64.8613C22.1416 63.5878 23.1198 62.5445 24.5735 62.0382C25.333 61.7735 26.0848 61.482 26.8366 61.1981C26.9862 61.1406 27.1627 61.1137 27.2854 61.0179C28.8964 59.7214 30.822 59.5909 32.7629 59.5411C33.6489 59.5181 34.5657 59.4375 35.4172 59.614C36.7866 59.8978 38.1406 60.3159 39.4601 60.7877C42.3599 61.8195 44.8685 63.4996 46.9552 65.7435C48.6199 67.531 49.6172 69.6637 49.7054 72.1569C49.7208 72.6402 49.6901 73.1273 49.74 73.6106C49.8934 75.0375 49.4523 76.3149 48.8385 77.5615C48.3859 78.4821 47.7569 79.1917 46.9015 79.8093C44.8762 81.2783 42.7128 82.5173 40.5303 83.7217C39.8475 84.0976 39.0305 84.3431 38.2518 84.4198C36.3263 84.6078 34.3931 84.6653 32.759 84.7574H32.7744ZM37.6189 75.4135C37.6151 73.8293 36.2419 72.3257 34.4583 71.9383C33.2193 71.6698 31.8883 72.4523 31.5201 73.6682C30.9754 75.4595 32.1376 77.5615 33.9558 78.0563C35.7624 78.5511 37.6266 77.2048 37.6228 75.4135H37.6189Z" fill="white"/>
<path d="M53.8675 46.7565C57.6956 46.5379 60.6798 48.2678 63.3418 50.8263C64.8301 52.2532 65.812 53.9984 66.8055 55.7514C66.9436 55.9969 67.0663 56.2615 67.1315 56.53C67.7453 59.123 67.8757 61.7275 67.051 64.2898C66.8132 65.0339 66.3299 65.7435 65.8236 66.3534C64.3008 68.1907 62.6169 69.8593 60.4535 70.9678C58.2249 72.1147 55.8429 72.3372 53.3918 72.1953C52.8894 72.1646 52.7474 71.804 52.6477 71.3821C52.406 70.3618 52.1759 69.3377 51.8882 68.3327C50.9676 65.103 49.1763 62.4294 46.6562 60.22C46.0809 59.7176 45.5861 59.123 45.0145 58.6128C44.3279 57.9953 43.626 57.3931 42.8895 56.8407C42.1952 56.3229 42.0955 56.2423 42.41 55.4675C42.9355 54.1634 43.4035 52.817 44.0939 51.6011C45.9351 48.3522 48.973 47.071 52.5365 46.7603C52.9776 46.722 53.4225 46.7565 53.8675 46.7565ZM57.826 65.2372C57.8183 63.8142 57.1662 62.6864 56.0577 62.1763C54.3853 61.4053 52.6669 62.556 52.7973 64.378C52.9124 66.0005 53.7409 66.714 55.2253 67.1244C56.6983 67.5348 57.8337 66.7217 57.8222 65.2372H57.826Z" fill="white"/>
<path d="M60.3921 42.4183C61.8343 42.0884 63.1615 41.8927 64.4235 42.2763C67.3233 43.1585 70.0851 44.3131 72.2293 46.6261C73.8825 48.4097 74.3466 50.4465 73.9438 52.748C73.8096 53.5228 73.5258 54.2669 73.0616 55.0878C72.889 54.7617 72.6474 54.4549 72.5476 54.1058C71.3394 49.8558 68.428 47.1209 64.6421 45.1378C63.361 44.4665 62.1067 43.7339 60.8524 43.0128C60.7028 42.9246 60.6222 42.7213 60.3921 42.4183Z" fill="#FFC34F"/>
<path d="M28.2254 86.7826C27.9301 86.8632 27.6385 86.9629 27.3355 87.0166C26.3842 87.1815 25.4253 87.3196 24.474 87.4922C23.8641 87.6035 23.4307 87.3925 22.9512 86.9974C21.3364 85.6664 20.4465 83.8559 19.5643 82.0493C18.333 79.5215 17.1899 76.9477 15.9893 74.4046C15.4792 73.3268 15.4331 72.364 16.0277 71.2248C16.6874 69.9628 17.002 68.5206 17.5045 67.1704C17.7806 66.4224 18.1335 65.7051 18.4519 64.9763C18.5401 65.0032 18.6245 65.03 18.7127 65.0569C18.5209 65.6591 18.4289 66.315 18.1258 66.8558C16.8984 69.0614 17.1976 71.3667 17.6004 73.6797C17.9647 75.7817 18.7933 77.7149 20.1243 79.3642C21.4093 80.9599 22.7825 82.4942 24.2401 83.9327C24.9689 84.6499 25.9623 85.1064 26.8484 85.6587C27.3125 85.9503 27.8035 86.1957 28.2829 86.4642C28.2638 86.5716 28.2407 86.6829 28.2216 86.7903L28.2254 86.7826Z" fill="#FFC34F"/>
<path d="M62.7622 46.1158C63.3299 46.3728 63.8976 46.6298 64.4615 46.8907C67.3536 48.2447 69.5017 50.4004 70.6677 53.3386C71.3045 54.9419 71.945 56.5952 71.9259 58.4325C71.9067 60.5076 70.8211 61.9154 69.4058 63.5264C70.1537 56.4149 68.1515 50.6842 62.7622 46.1158Z" fill="#FFC34F"/>
<path d="M21.2211 87.3811C19.8019 87.3888 16.8867 85.2101 15.8741 83.319C14.5814 80.9102 13.8795 78.4016 14.8077 75.425C15.7091 76.5029 16.1886 77.5539 16.6834 78.578C17.2933 79.8362 17.7344 81.1787 18.3942 82.4061C19.2457 83.9865 19.8479 85.7279 21.1482 87.0512C21.2135 87.1203 21.1981 87.266 21.2211 87.385V87.3811Z" fill="#FFC34F"/>
<path d="M26.5761 57.6385C26.204 57.7267 25.8319 57.8303 25.456 57.9031C22.6981 58.4248 20.4312 59.6944 18.6552 61.9384C17.2207 63.7488 16.2234 65.7128 15.6902 67.9452C15.5751 68.4208 15.3143 68.8658 15.0957 69.3874C14.4627 68.9386 14.5893 68.4285 14.6162 67.9758C14.8502 64.2628 16.6491 61.3323 19.2881 58.8659C20.1857 58.0259 21.4132 57.7152 22.5869 57.4697C23.6072 57.2549 24.6697 57.2396 25.7169 57.1782C25.9969 57.1628 26.2884 57.3009 26.5761 57.37C26.5761 57.462 26.5761 57.5541 26.5761 57.6461V57.6385Z" fill="#FFC34F"/>
<path d="M45.2559 45.786C47.1239 44.1558 48.8384 42.7328 51.255 42.6024C52.6972 42.5256 54.1433 42.4336 55.5894 42.3991C56.4946 42.376 57.3155 42.6791 58.0903 43.1854C59.1988 43.9104 60.3534 44.5701 61.3891 45.4715C60.3381 45.0956 59.3101 44.5931 58.2284 44.3668C56.0689 43.9142 53.9132 43.4999 51.6501 43.8835C49.5941 44.2287 47.6417 44.7657 45.8235 45.7822C45.7392 45.8282 45.6087 45.7899 45.2559 45.7899V45.786Z" fill="#FFC34F"/>
<path d="M60.6372 73.181C64.3349 72.2413 66.6824 69.5141 69.1871 66.8444C68.6041 70.6149 64.8949 73.5991 60.6372 73.181Z" fill="#FFC34F"/>
<path d="M49.97 81.6388C48.8116 85.0719 46.0268 86.8516 42.8623 86.2801C42.9812 86.1344 43.0426 85.9809 43.1538 85.9272C44.7226 85.1332 46.3106 84.3814 47.8603 83.5529C48.3052 83.3151 48.6543 82.8893 49.034 82.5402C49.3524 82.2487 49.6593 81.938 49.97 81.635V81.6388Z" fill="#FFC34F"/>
<path d="M29.0038 88.2249C29.5025 87.9986 29.8247 87.8068 30.1737 87.707C30.4384 87.6341 30.7338 87.6648 31.0138 87.6725C32.456 87.7109 33.8906 88.0101 35.3405 87.7492C35.54 87.7147 35.7701 87.8298 36.0731 87.895C34.8227 88.7849 31.0445 88.9728 29 88.2249H29.0038Z" fill="#FFC34F"/>
<path d="M95.0137 57.1093C95.7578 59.8288 95.0636 62.556 95.171 65.4405C94.7682 65.2679 94.4997 65.2372 94.3693 65.0838C92.7353 63.1429 91.1204 61.1867 89.5132 59.2304C89.4212 59.1153 89.4097 58.9351 89.356 58.7663C89.9735 57.9531 90.9018 57.7076 91.7763 57.5005C92.7775 57.2627 93.8285 57.2435 95.0137 57.1131V57.1093Z" fill="white"/>
<path d="M85.374 66.8788C86.8891 65.241 86.6859 62.9242 87.8289 61.1482C88.504 61.9345 90.0728 67.9874 90.0306 69.5332C89.252 69.4565 86.076 67.6843 85.374 66.8788Z" fill="white"/>
<path d="M99.7045 60.0934C99.39 59.8134 99.2327 59.7366 99.1675 59.6101C98.5154 58.3251 97.8748 57.0363 97.2458 55.7436C97.0732 55.3907 97.0808 55.0302 97.4491 54.7809C98.5499 54.0367 98.9872 52.8975 99.3324 51.4246C99.5587 51.8235 99.7697 52.0268 99.7774 52.2339C99.8387 54.474 99.8733 56.7141 99.8925 58.958C99.8925 59.2572 99.7965 59.5602 99.7045 60.0934Z" fill="white"/>
<path d="M102.278 79.0805C100.836 79.1073 99.4437 79.0997 98.1895 78.11C98.27 77.2163 98.3544 76.2842 98.4464 75.2562C98.6421 75.2831 98.9106 75.237 99.064 75.3521C100.391 76.3379 101.296 77.6996 102.275 79.0843L102.278 79.0805Z" fill="white"/>
<path d="M95.0057 79.0843C94.4457 79.2032 93.8857 79.3682 93.3218 79.4219C93.107 79.4411 92.7311 79.2569 92.6697 79.0843C92.5815 78.8273 92.6237 78.4399 92.7733 78.2136C92.8653 78.0717 93.2873 78.0295 93.5059 78.1024C94.0391 78.2827 94.5416 78.5512 95.0555 78.789L95.0057 79.0882V79.0843Z" fill="white"/>
<path d="M37.6192 75.4173C37.6231 77.2086 35.7589 78.5511 33.9522 78.0602C32.1379 77.5654 30.9719 75.4634 31.5165 73.672C31.8848 72.4599 33.2158 71.6774 34.4547 71.9421C36.2422 72.3257 37.6116 73.8331 37.6154 75.4173H37.6192Z" fill="black"/>
<path d="M57.8258 65.2333C57.8334 66.7177 56.6981 67.5309 55.229 67.1205C53.7445 66.7062 52.916 65.9966 52.8009 64.3741C52.6705 62.5521 54.3889 61.4052 56.0613 62.1724C57.1699 62.6825 57.8181 63.8102 57.8296 65.2333H57.8258Z" fill="black"/>
<path d="M112.789 76.5949C111.435 77.7954 109.996 78.927 108.474 79.8936C107.545 80.4805 106.414 80.8219 105.328 81.0635C104.116 81.3359 102.85 81.3704 101.515 81.5161C101.001 81.4471 100.403 81.3742 99.8085 81.2821C96.8742 80.8295 94.2812 81.2975 92.0795 83.5683C90.5452 85.1486 88.7999 86.5678 86.9933 87.8375C85.3592 88.9882 83.3531 89.3948 81.3777 89.5137C80.5492 89.5636 79.6363 89.1877 78.8538 88.8117C77.4959 88.1635 76.3337 87.2238 75.4821 85.9464C75.0142 85.2445 74.4081 84.6001 74.0782 83.8406C73.6026 82.7474 73.2574 81.6312 73.127 80.4958C72.9237 82.2986 73.3418 84.0477 74.0782 85.7431C74.4081 86.5065 75.0142 87.147 75.4821 87.849C76.3337 89.1263 77.4959 90.066 78.8538 90.7143C79.6363 91.0902 80.5492 91.4661 81.3777 91.4162C83.3531 91.2935 85.3592 90.8907 86.9933 89.74C88.7999 88.4704 90.5452 87.0511 92.0795 85.4708C94.2812 83.2 96.8704 82.7321 99.8085 83.1847C100.403 83.2767 101.001 83.3496 101.515 83.4187C102.85 83.2691 104.116 83.2346 105.328 82.966C106.414 82.7244 107.545 82.383 108.474 81.7961C110 80.8295 111.439 79.698 112.789 78.4974C113.613 77.7648 114.2 76.8097 114.469 75.6397C114.63 74.934 114.576 74.2665 114.496 73.5991C114.488 73.6452 114.48 73.6912 114.469 73.741C114.2 74.9071 113.613 75.8661 112.789 76.5987V76.5949Z" fill="#FFC34F"/>
<path d="M33.5687 44.8387C33.7259 45.4678 34.2629 45.3297 34.7539 45.3028C35.0416 44.7006 35.0071 44.1713 34.4777 43.7992C34.3128 43.6841 33.818 43.7263 33.7489 43.8491C33.5917 44.1291 33.4919 44.5357 33.5648 44.8387H33.5687Z" fill="#FFC34F"/>
<path d="M80.4337 27.3668C80.6792 27.3668 80.9669 27.198 80.9515 26.73C80.9362 26.2774 80.7521 25.936 80.2342 25.936C79.8008 25.936 79.5745 26.1777 79.54 26.6073C79.5016 27.0944 79.7471 27.3553 80.4337 27.3668Z" fill="#FFC34F"/>
<path d="M33.7527 41.9463C33.8255 41.8313 34.2743 41.7929 34.4546 41.8888C34.7461 41.7239 34.9418 41.4132 34.9341 41.0564C34.9264 40.646 34.5006 40.1934 34.0787 40.1052C34.071 40.1052 34.0672 40.1052 34.0595 40.1052C34.002 40.109 33.9445 40.1052 33.8869 40.0898C33.4957 40.1167 33.1926 40.5463 33.2233 41.0373C33.2502 41.4477 33.4688 41.8006 33.7527 41.9425V41.9463Z" fill="#FFC34F"/>
<path d="M19.434 50.7879C19.5452 50.6383 19.8444 50.4082 19.8981 50.1282C19.9787 49.7139 19.4033 49.1692 19.0005 49.1922C18.5287 49.2152 18.4405 49.5643 18.4482 49.9479C18.4559 50.4657 18.7896 50.8186 19.434 50.7917V50.7879Z" fill="#FFC34F"/>
<path d="M65.2559 17.5931C65.908 17.3783 66.5678 17.1789 67.2352 17.0293C68.4856 16.7493 69.7937 16.6227 71.0786 16.615C75.7046 16.5882 80.2653 17.2211 84.7071 18.4754C87.534 19.2732 90.315 20.2628 92.8427 21.8393C94.5382 22.898 95.9536 24.275 97.3268 25.6943C98.5312 26.9409 99.7164 28.2105 100.859 29.5147C102.774 31.7011 104.722 33.8338 106.955 35.721C108.546 37.0673 110.134 38.498 111.392 40.1436C113.172 42.4681 114.664 45.0189 116.256 47.4891C117.748 49.8059 118.792 52.3375 119.674 54.9381C120.088 56.1579 120.56 57.3623 120.898 58.6013C121.116 59.4068 121.139 60.266 121.247 61.0984C121.596 63.8179 121.922 66.5452 122.305 69.2609C122.47 70.4346 122.585 71.6084 122.631 72.7783C122.7 70.9716 122.562 69.165 122.305 67.3583C121.922 64.6426 121.596 61.9154 121.247 59.1958C121.139 58.3596 121.116 57.5043 120.898 56.6988C120.56 55.4598 120.088 54.2554 119.674 53.0356C118.792 50.435 117.748 47.9072 116.256 45.5865C114.664 43.1163 113.172 40.5655 111.392 38.2411C110.131 36.5955 108.546 35.1648 106.955 33.8184C104.722 31.9351 102.774 29.7985 100.859 27.6122C99.7164 26.308 98.5312 25.0384 97.3268 23.7917C95.9536 22.3687 94.5382 20.9916 92.8427 19.9368C90.315 18.3603 87.534 17.3707 84.7071 16.5728C80.2653 15.3224 75.7046 14.6856 71.0786 14.7125C69.7937 14.7202 68.4856 14.8467 67.2352 15.1268C65.7853 15.4528 64.3852 15.9975 62.9698 16.4693C62.7819 16.5306 62.6361 16.7071 62.3369 16.9334C62.686 17.0446 62.8624 17.1405 63.0465 17.1559C63.8099 17.2172 64.5425 17.3783 65.2559 17.5931Z" fill="#FFC34F"/>
<path d="M19.8903 46.8907C20.0322 46.6798 20.3314 46.3998 20.4042 46.0737C20.5078 45.6134 20.1933 45.3296 19.7215 45.2836C19.2689 45.2375 18.916 45.5406 18.9006 45.9625C18.8891 46.3729 19.3111 46.8677 19.8903 46.8946V46.8907Z" fill="#FFC34F"/>
<path d="M13.6456 71.8385C13.4423 70.8297 13.2812 69.8285 13.2159 68.8351C13.1009 70.3847 13.2965 71.9574 13.6072 73.5454C13.6187 73.484 13.634 73.4227 13.6456 73.3613C13.7299 72.8665 13.7453 72.3294 13.6456 71.8385Z" fill="#FFC34F"/>
<path d="M53.5451 23.7879C55.1255 22.6832 56.6329 21.6284 58.1365 20.5697C58.6582 20.2015 59.1914 20.1247 59.8434 20.1861C61.4084 20.3319 62.9581 20.4815 64.5039 20.8458C65.7889 21.1489 66.9511 21.59 67.9829 22.3994C68.1364 22.5221 68.3281 22.6141 68.5161 22.6717C69.0339 22.8213 69.5901 22.6026 69.7551 22.1769C69.9622 21.6399 69.6285 21.3061 69.2104 21.1144C67.2311 20.2091 65.2749 19.2387 63.054 19.0584C62.8698 19.0431 62.6934 18.9472 62.3444 18.8359C62.4594 18.7515 62.5477 18.6748 62.6282 18.6058C61.7038 18.4715 60.7755 18.3795 59.8434 18.2912C59.1914 18.2299 58.662 18.3066 58.1365 18.6748C56.1688 20.0634 54.1895 21.4404 52.0415 22.944C52.544 23.247 52.8815 23.5079 53.2613 23.6651C53.3572 23.7035 53.4531 23.7495 53.5451 23.7917V23.7879Z" fill="#FFC34F"/>
<path d="M20.3276 40.2471C20.2432 40.5425 20.1627 40.8378 20.0821 41.1332C19.9249 41.7201 20.201 42.2341 20.715 42.3568C21.206 42.4757 21.6548 42.119 21.7545 41.4784C21.9732 40.0323 22.2954 38.6323 23.1085 37.378C23.8258 36.2733 24.685 35.4256 25.9623 34.8962C29.1422 33.5729 32.4409 32.6677 35.7742 31.8775C35.9008 31.8468 36.0389 31.8391 36.2077 31.8315C36.2997 31.5438 36.3918 31.2561 36.48 30.9646C36.5721 30.6577 36.5951 30.3279 36.6641 29.9021C36.2307 29.9366 35.9929 29.9251 35.7704 29.975C32.4333 30.769 29.1384 31.6704 25.9585 32.9937C24.685 33.5231 23.8258 34.3708 23.1047 35.4755C22.2877 36.7297 21.9693 38.1298 21.7507 39.5759C21.6548 40.2165 21.2022 40.5732 20.7112 40.4543C20.5578 40.4159 20.4273 40.343 20.3238 40.2471H20.3276Z" fill="#FFC34F"/>
<path d="M35.7474 35.1648C35.6746 35.3911 35.5978 35.6213 35.5288 35.8476C35.4674 36.0394 35.4022 36.2504 35.4291 36.4383C35.4559 36.657 35.5365 37.006 35.6707 37.0482C35.8932 37.1173 36.3151 37.0751 36.4149 36.9255C36.7831 36.3616 37.1782 35.7671 37.3393 35.1265C37.6807 33.7686 38.3059 32.568 39.0769 31.4288C39.2533 31.168 39.4566 30.865 39.7251 30.7345C40.9526 30.1362 42.2145 29.603 43.4458 29.0199C45.2601 28.1607 47.3238 27.8961 48.9962 26.684C49.6444 26.216 50.3655 26.1355 51.1787 26.3733C52.9662 26.8911 54.535 27.7426 55.774 29.1388C56.123 29.5339 56.4721 29.6874 56.9247 29.3959C57.4847 29.0391 57.5231 28.4753 56.9784 28.0073C56.8326 27.8807 56.6869 27.758 56.5411 27.6352C56.2611 27.6659 56.0156 27.5125 55.774 27.2363C55.5476 26.9793 55.306 26.7492 55.0567 26.5267C54.489 26.1546 53.8944 25.8209 53.2577 25.5563C52.878 25.399 52.5404 25.1382 52.0379 24.8351C52.0648 24.816 52.0878 24.8006 52.1146 24.7814C51.8078 24.6664 51.5009 24.5589 51.1787 24.4669C50.3655 24.2329 49.6444 24.3096 48.9962 24.7776C47.3199 25.9858 45.2601 26.2505 43.4458 27.1136C42.2107 27.7004 40.9526 28.2298 39.7251 28.8281C39.4604 28.9586 39.2533 29.2616 39.0769 29.5224C38.3059 30.6616 37.6768 31.8622 37.3393 33.2201C37.1782 33.8607 36.7831 34.4552 36.4149 35.0191C36.3266 35.1533 35.9814 35.1994 35.7474 35.161V35.1648Z" fill="#FFC34F"/>
<path d="M4.58937 65.9544C4.81568 64.5621 4.93076 63.1543 5.16858 61.7658C5.46009 60.0512 5.99326 58.4095 6.73356 56.8292C7.98402 54.1671 9.09639 51.4323 10.4734 48.8393C11.4707 46.9636 12.8248 45.2835 13.9832 43.4922C15.5673 41.0335 17.9762 39.5644 20.3697 38.0684C20.3812 38.0608 20.3966 38.0569 20.4119 38.0531C20.5615 37.5238 20.7111 36.9906 20.853 36.4574C20.876 36.3692 20.7763 36.2465 20.7303 36.1199C20.596 36.1352 20.4618 36.1122 20.3735 36.1659C17.98 37.658 15.5712 39.131 13.987 41.5897C12.8324 43.381 11.4746 45.0649 10.4773 46.9367C9.10023 49.5297 7.9917 52.2646 6.7374 54.9266C5.99326 56.507 5.46392 58.1525 5.1724 59.8633C4.93459 61.2518 4.82336 62.6634 4.59321 64.0519C4.30169 65.8432 4.23265 67.6268 4.27868 69.4105C4.30936 68.2597 4.40526 67.109 4.59321 65.9544H4.58937Z" fill="#FFC34F"/>
<path d="M62.6284 34.018C62.755 33.8569 63.058 33.6383 63.104 33.3736C63.173 32.9517 62.6974 32.5451 62.2678 32.5681C61.7653 32.5911 61.6004 32.9133 61.6119 33.3698C61.6234 33.9259 62.03 33.9605 62.6284 34.0218V34.018Z" fill="#FFC34F"/>
<path d="M14.8844 86.6446C15.0148 86.8901 15.1913 87.1317 15.4023 87.3082C16.6374 88.3361 17.884 89.3565 19.1421 90.3576C19.7597 90.8486 20.477 91.071 21.2786 91.0749C22.5291 91.0787 23.7834 91.0595 25.0223 91.1785C27.1512 91.3818 29.2647 91.7116 31.3897 91.9418C33.5991 92.1796 35.6934 91.8344 37.7647 90.9368C39.4985 90.185 41.3934 89.905 43.3036 89.9242C44.8647 89.9395 46.3607 89.7094 47.6534 88.7312C48.0369 88.4397 48.4512 88.1789 48.8578 87.9181C49.8742 87.2698 50.6069 86.4068 51.0825 85.2829C51.3779 84.5848 51.8727 83.9749 52.2563 83.3151C52.7166 82.5173 53.1423 81.6965 53.5988 80.8948C54.2355 79.7824 54.9068 78.6854 55.5358 77.5653C55.8887 76.9401 56.4181 76.8634 57.0702 76.871C58.5623 76.8864 60.062 76.9171 61.5388 76.7751C66.0919 76.3379 69.2602 74.0403 70.8405 69.6675C71.1397 68.839 71.5425 68.0334 71.9721 67.2625C72.7316 65.8969 73.1995 64.4355 73.3415 62.905C73.445 61.8157 73.6061 60.7685 73.9475 59.7252C74.2582 58.7778 74.2812 57.7229 74.661 56.8138C75.3015 55.2987 75.5355 53.8181 75.3552 52.3835C75.2517 53.2159 75.0215 54.0598 74.661 54.9151C74.2774 55.8242 74.2544 56.8791 73.9475 57.8265C73.6061 58.8698 73.4412 59.9131 73.3415 61.0063C73.1995 62.5368 72.7277 63.9982 71.9721 65.3638C71.5425 66.1386 71.1397 66.9403 70.8405 67.7688C69.2602 72.1416 66.0919 74.4392 61.5388 74.8765C60.0582 75.0184 58.5584 74.9839 57.0702 74.9724C56.4181 74.9647 55.8887 75.0414 55.5358 75.6666C54.9068 76.7828 54.2355 77.8799 53.5988 78.9961C53.1385 79.7977 52.7166 80.6186 52.2563 81.4164C51.8765 82.08 51.3779 82.6899 51.0825 83.3842C50.6069 84.5119 49.8742 85.3711 48.8578 86.0194C48.4512 86.2802 48.0369 86.5372 47.6534 86.8325C46.3607 87.8145 44.8686 88.0408 43.3036 88.0254C41.3934 88.0101 39.4947 88.2901 37.7647 89.0381C35.6934 89.9357 33.5991 90.2809 31.3897 90.0431C29.2647 89.8129 27.1512 89.483 25.0223 89.2798C23.7834 89.1608 22.5253 89.18 21.2786 89.1762C20.477 89.1762 19.7597 88.9499 19.1421 88.4589C17.884 87.4578 16.6374 86.4374 15.4023 85.4095C15.1913 85.233 15.011 84.9914 14.8844 84.7459C13.9178 82.9085 13.1123 81.0175 12.9128 78.9846C12.6328 81.7578 13.6263 84.2472 14.8844 86.6446Z" fill="#FFC34F"/>
<path d="M76.7593 25.5255C77.0623 25.4411 77.2848 25.0767 77.419 24.954C77.4344 24.1446 77.1851 23.8147 76.7094 23.7917C76.1916 23.7649 76.0075 24.0641 75.9998 24.5397C75.9883 25.1457 76.3259 25.6521 76.7593 25.5293V25.5255Z" fill="#FFC34F"/>
<path d="M58.9804 31.8008C59.0648 32.0041 59.4944 32.1575 59.7668 32.1537C59.9048 32.1537 60.1312 31.7663 60.158 31.5361C60.2462 30.7459 59.9586 30.5273 58.8462 30.5542C58.8807 30.9799 58.827 31.4325 58.9804 31.8008Z" fill="#FFC34F"/>
<path d="M91.1547 66.7256C91.1662 66.7832 91.1777 66.8407 91.1892 66.8982C92.5126 68.3405 93.8321 69.7789 95.1631 71.2288C96.2218 70.6688 96.613 69.9016 96.6475 68.9043C96.7166 67.0555 96.7971 65.2066 96.8853 63.3578C96.893 63.212 96.9927 63.0701 97.0925 62.8208C98.1358 63.6455 98.6038 64.7502 99.1408 65.7973C99.5742 66.645 100.115 66.8445 100.859 66.273C101.101 66.0889 101.27 65.6746 101.289 65.3562C101.415 63.2236 101.511 61.0909 101.584 58.9582C101.661 56.7411 101.726 54.5279 101.738 52.3108C101.741 51.6357 102.044 51.3941 102.631 51.2598C104.001 50.9453 105.266 51.1524 106.467 51.8735C106.916 52.142 107.384 52.3799 107.836 52.6445C108.983 53.3196 109.724 54.267 109.793 55.6403C109.823 56.2847 109.793 56.9329 109.85 57.5773C110.007 59.2612 110.111 60.9566 110.41 62.6137C110.598 63.6647 111.154 64.6466 111.438 65.6861C111.722 66.7294 111.956 67.8035 112.067 68.8775C112.094 69.1306 112.113 69.3876 112.133 69.6408C112.228 68.4709 112.19 67.2856 112.067 66.0965C111.956 65.0225 111.722 63.9485 111.438 62.9052C111.154 61.8619 110.598 60.8837 110.41 59.8327C110.111 58.1719 110.007 56.4764 109.85 54.7964C109.789 54.1558 109.827 53.5037 109.793 52.8593C109.724 51.4861 108.983 50.5349 107.836 49.8636C107.384 49.5989 106.916 49.3611 106.467 49.0926C105.27 48.3715 104.001 48.1682 102.631 48.4789C102.041 48.6131 101.741 48.8586 101.738 49.5299C101.722 51.747 101.657 53.964 101.584 56.1773C101.511 58.31 101.415 60.4426 101.289 62.5753C101.27 62.8937 101.101 63.3079 100.859 63.492C100.115 64.0636 99.5742 63.8641 99.1408 63.0164C98.6038 61.9693 98.132 60.8645 97.0925 60.0399C96.9927 60.2892 96.893 60.4311 96.8853 60.5769C96.7971 62.4257 96.7204 64.2746 96.6475 66.1234C96.6092 67.1207 96.2179 67.8878 95.1631 68.4479C93.6863 66.8368 92.2172 65.2335 90.7443 63.6302C90.6331 63.6992 90.518 63.7721 90.4067 63.8411C90.5065 64.2592 90.5947 64.6811 90.7059 65.0992C90.8517 65.6439 91.0473 66.1733 91.1586 66.7256H91.1547Z" fill="#870B20"/>
<path d="M75.4782 80.2237C75.8119 78.4707 76.744 76.9479 77.9254 75.5709C79.1989 74.0865 80.8713 73.2272 82.5207 72.3028C82.6626 72.2223 82.8352 72.1762 82.9388 72.0612C83.844 71.0792 84.7723 71.3324 85.735 71.9614C87.1543 72.8858 88.5965 73.7642 90.0004 74.7117C90.5528 75.0876 91.0476 75.0262 91.5923 74.7845C91.9336 74.6311 92.0679 74.3856 91.995 74.0097C91.8684 73.3346 91.7457 72.6595 91.6229 71.9844C91.6114 71.9883 91.6038 71.9998 91.5923 72.0036C91.0476 72.2491 90.5566 72.3066 90.0004 71.9307C88.6003 70.9833 87.1543 70.1049 85.735 69.1805C84.7723 68.5514 83.844 68.2983 82.9388 69.2802C82.8352 69.3915 82.6626 69.4413 82.5207 69.5219C80.8713 70.4463 79.1989 71.3094 77.9254 72.79C76.7402 74.167 75.8081 75.6936 75.4782 77.4428C75.2787 78.4937 75.2711 79.5217 75.436 80.5152C75.4514 80.4154 75.459 80.3196 75.4782 80.2237Z" fill="#870B20"/>
</svg>
