<svg width="125" height="150" viewBox="0 0 125 150" fill="none" xmlns="http://www.w3.org/2000/svg">
<path d="M91.5094 140.129C89.1132 140.129 86.711 140.129 84.3148 140.129C82.2897 140.129 80.3071 140.348 78.4826 141.357C78.0873 141.576 77.619 141.747 77.169 141.789C72.5713 142.227 68.3629 143.906 64.0814 145.535C60.5724 146.867 56.747 147.402 53.0251 148.108C50.2215 148.637 47.3692 148.941 44.523 149.203C43.1668 149.33 41.7377 149.318 40.4119 149.038C34.9324 147.883 29.6536 146.144 25.0741 142.793C22.8848 141.187 21.2306 139.04 19.7345 136.802C18.9196 135.586 18.2567 134.26 17.5755 132.959C17.3323 132.497 17.1133 131.949 17.1133 131.438C17.1194 127.735 16.9613 124.007 17.2897 120.327C17.8675 113.869 18.7493 107.434 19.5156 100.994C19.7223 99.2364 19.4426 98.8593 17.6424 98.6039C14.0665 98.093 10.679 96.8585 7.79634 94.7907C3.76425 91.902 1.30123 87.73 0.2552 82.9073C-0.24349 80.6024 -0.0488731 78.2245 1.17353 75.9378C3.55751 71.4739 7.01791 68.4575 11.8345 66.9067C14.8571 65.9336 17.8492 64.8693 21.0907 64.918C22.1915 64.9362 22.9273 64.3767 22.8483 63.2334C22.5868 59.4628 24.0159 56.1301 25.3964 52.767C25.6884 52.0554 26.0533 51.2892 26.0411 50.5594C25.9559 46.7888 27.6649 43.6568 29.6232 40.6829C31.8733 37.2711 34.3729 33.9992 37.8698 31.7369C38.9462 31.0375 40.2051 30.4111 41.4518 30.2286C45.2711 29.6691 49.1085 29.1157 53.0008 29.432C54.7583 29.5779 54.8252 29.5171 55.0563 27.7838C55.7983 22.3165 57.5072 17.0924 59.131 11.8562C60.2257 8.32277 61.4967 4.84411 62.6461 1.32895C62.9685 0.343735 63.6375 -0.0393999 64.5679 0.00317115C65.7234 0.0518238 66.885 0.161285 68.0345 0.337651C71.0083 0.79377 73.9822 1.30464 76.95 1.79725C79.0421 2.1439 79.261 2.59393 79.1029 4.7164C78.9326 6.98483 77.7103 8.48089 75.7885 9.2715C73.3011 10.2932 71.434 12.0386 70.1447 14.2037C69.2386 15.7301 68.9893 17.6884 68.6 19.4825C67.9067 22.6449 67.335 25.8317 66.7086 29.0062C66.6782 29.1583 66.6174 29.3042 66.587 29.4563C66.2525 31.4632 66.6296 32.9958 68.375 34.4858C73.3072 38.7064 77.8623 43.3649 82.8127 47.5612C87.8057 51.7939 92.0506 56.6957 96.3077 61.5974C98.6917 64.3402 100.924 67.2168 103.083 70.1481C106.154 74.314 109.134 78.5529 112.065 82.8222C115.526 87.8699 118.347 93.2764 121.048 98.7681C122.465 101.645 123.383 104.619 124.192 107.69C125.974 114.44 124.8 120.619 120.762 126.178C118.317 129.541 115.817 132.983 112.144 135.166C107.449 137.952 102.572 140.257 96.8611 139.843C95.0914 139.715 93.3034 139.825 91.5215 139.825C91.5215 139.934 91.5215 140.044 91.5215 140.153L91.5094 140.129ZM25.7553 89.7795C25.3478 90.6005 25.1471 90.8498 25.0985 91.1296C24.6484 93.7143 24.0829 96.2868 23.8274 98.8897C23.1584 105.586 22.5138 112.281 22.082 118.995C21.8934 121.908 21.8813 124.931 22.4286 127.777C23.5416 133.573 27.4642 137.569 31.9828 141.011C32.3964 141.327 32.9559 141.509 33.4789 141.607C37.1218 142.27 40.7038 143.352 44.4683 143.206C46.0921 143.145 47.7159 142.993 49.3396 143.024C55.1232 143.127 60.7609 142.355 66.1917 140.311C69.0136 139.247 71.7625 137.988 74.6026 136.979C82.3444 134.23 90.2869 133.445 98.3694 135.051C102.858 135.945 106.598 134.412 110.07 131.882C111.049 131.171 111.737 130.07 112.612 129.2C114.844 126.993 116.401 124.402 117.472 121.446C120.47 113.2 119.071 105.348 115.659 97.5882C113.829 93.4284 110.66 90.3208 107.632 87.1644C103.685 83.0472 99.233 79.4104 95.2435 75.3236C91.2722 71.255 86.8752 67.5027 84.2905 62.2542C84.1567 61.9806 83.9621 61.7313 83.7857 61.4758C81.5356 58.131 79.5955 54.6462 78.2576 50.8026C77.6859 49.1728 76.7189 47.549 75.5452 46.2901C73.7815 44.3926 71.6895 42.8053 69.7008 41.1207C69.342 40.8167 68.8311 40.689 68.0527 40.3241C68.2899 41.1268 68.3628 41.5708 68.5514 41.9539C70.4245 45.761 72.3767 49.5316 74.1829 53.3691C76.5122 58.3256 78.9995 63.2273 80.2767 68.6095C80.4165 69.2055 80.8301 69.7407 80.9152 70.3367C80.97 70.7076 80.7389 71.3766 80.4713 71.474C80.0516 71.626 79.4435 71.5226 79.0117 71.3219C78.7259 71.1881 78.5556 70.7198 78.4096 70.3671C76.944 66.8824 75.5026 63.3915 74.0309 59.9129C73.0457 57.5714 72.1395 55.1875 70.9962 52.9251C69.8528 50.6567 68.375 48.5524 67.1952 46.2962C65.839 43.7054 64.5679 41.06 63.4246 38.3658C62.561 36.3224 60.2135 35.0453 57.6349 35.6534C57.8539 36.3041 57.9938 36.9792 58.2978 37.563C59.3804 39.6186 60.5419 41.6255 61.6244 43.6811C62.6401 45.5907 63.674 47.5003 64.5679 49.4707C67.2074 55.2847 68.7825 61.5306 71.7685 67.2533C71.1482 68.0622 70.4488 67.9709 69.8407 67.2959C69.4393 66.8458 69.1109 66.2863 68.8919 65.7147C67.7729 62.8381 66.7147 59.9372 65.6079 57.0545C64.3916 53.8921 63.2969 50.6689 61.8677 47.6037C60.2014 44.0399 58.164 40.6464 56.3943 37.1251C54.5455 33.4579 53.2501 32.9897 48.9383 33.0262C47.3449 33.0383 46.7428 33.7499 46.609 35.3311C46.5604 35.8662 46.5604 36.4136 46.5969 36.9549C46.9739 43.0547 47.3631 49.1484 47.7341 55.2483C47.7889 56.1727 47.8497 57.1214 47.6976 58.0215C47.6307 58.4107 47.0287 58.7087 46.6638 59.0432C46.4144 58.7026 45.9826 58.3742 45.9522 58.0154C45.6968 55.1692 45.4474 52.317 45.3319 49.4586C45.1434 44.8244 45.3319 40.172 44.371 35.5865C44.219 34.8689 44.1095 34.1695 43.1668 34.1877C42.3093 34.1999 41.6708 34.5891 41.4032 35.4284C41.0626 36.5048 40.6126 37.5752 40.4605 38.682C39.9558 42.4344 39.5787 46.2049 39.1165 49.9634C38.8611 52.0311 38.5692 54.0928 38.1921 56.1362C38.1009 56.6288 37.6144 57.0484 37.2738 57.5532C36.1183 56.7322 36.4284 55.8443 36.5257 55.0415C36.8785 52.1223 37.2677 49.2093 37.6326 46.2901C37.9732 43.5351 38.3198 40.7863 38.6239 38.0252C38.6665 37.636 38.5023 37.2164 38.3806 36.5048C35.3703 38.1773 33.5519 40.5734 32.6396 43.4378C31.2226 47.8774 30.7543 52.5298 30.5962 57.1761C30.4867 60.5271 30.0975 63.7868 29.0211 66.9857C28.5832 68.2811 28.1271 69.692 28.5224 71.1212C28.7961 71.1212 28.8934 71.1516 28.9359 71.1212C29.161 70.9266 29.4103 70.7381 29.5867 70.4948C31.9646 67.2837 35.1574 65.1734 38.8307 63.7625C40.345 63.1786 41.9323 62.8016 43.4831 62.309C48.1294 60.819 52.423 61.5792 56.0841 64.7234C58.0546 66.4141 59.6358 68.5609 61.3508 70.5435C63.8746 73.4626 65.1153 76.8926 65.2491 80.7423C65.4133 85.5163 64.4159 89.9863 61.5636 93.8785C58.3951 98.2147 53.9373 100.903 48.9748 102.563C42.6195 104.692 36.8481 103.025 32.0011 98.5978C30.2131 96.9679 28.9603 94.736 27.5129 92.7412C26.9412 91.9506 26.5094 91.0627 25.7492 89.7795H25.7553ZM53.1285 69.0474C52.3379 67.5391 51.0364 67.1317 49.6011 66.9736C45.8123 66.5539 42.1816 67.1317 38.8489 68.9805C36.8298 70.1056 34.8107 71.3219 33.0836 72.8301C31.2348 74.4478 29.7631 76.4365 29.2644 79.0151C28.5893 82.5059 28.8447 85.8569 29.8421 89.293C30.6935 92.2365 32.1592 94.6873 34.306 96.7308C36.3737 98.7012 38.8672 99.7472 41.8167 99.8506C44.8393 99.954 47.6003 99.1391 50.3796 98.1295C54.9773 96.4571 57.9025 93.1973 59.6479 88.7395C61.0406 85.1818 60.3595 81.5511 59.7817 78.0177C59.3804 75.5486 58.3404 73.1464 57.343 70.8171C56.4369 68.7007 55.4273 68.3662 53.1285 69.0474ZM22.9212 71.4131C21.6502 70.8597 20.6711 70.5799 19.8561 70.0508C18.5486 69.2116 17.3262 69.2298 15.9153 69.7833C13.1664 70.8658 11.05 72.7511 9.21945 74.9587C7.06657 77.5555 6.44623 80.4869 7.41929 83.8196C7.99704 85.7961 9.01267 87.4807 10.0891 89.1653C12.0048 92.1635 14.6868 94.0974 18.1837 94.882C20.1055 95.3138 20.9143 94.6874 20.963 92.6743C20.9812 91.9081 20.8778 91.1296 20.9447 90.3694C21.2549 86.9941 21.5894 83.6249 21.9604 80.2557C22.1915 78.188 22.5259 76.1324 22.7692 74.0647C22.8726 73.1646 22.8726 72.2524 22.9212 71.407V71.4131ZM71.2151 5.33673C67.4567 4.26637 66.7877 4.61301 65.541 7.83017C64.1726 11.3696 63.382 15.0368 62.932 18.777C62.7009 20.6684 62.8043 22.5962 62.6522 24.4998C62.6036 25.1323 62.336 25.8073 61.9833 26.3364C61.0102 27.8082 61.3143 29.1644 62.2265 30.5753C62.6826 29.2982 63.2361 27.9724 63.1266 26.6953C62.8043 22.8274 64.0449 19.3426 65.6626 16.0342C67.3715 12.5373 68.6244 8.76065 71.2516 5.74419C71.2881 5.70162 71.2455 5.59824 71.2273 5.33673H71.2151Z" fill="black"/>
<path d="M25.7554 89.7796C26.5095 91.0628 26.9474 91.9568 27.5191 92.7413C28.9665 94.7361 30.2132 96.9681 32.0073 98.5979C36.8604 103.019 42.6318 104.686 48.981 102.563C53.9436 100.903 58.3953 98.2148 61.5699 93.8786C64.416 89.9864 65.4195 85.5104 65.2553 80.7424C65.1215 76.8988 63.8808 73.4688 61.357 70.5436C59.6481 68.561 58.0608 66.4142 56.0904 64.7235C52.4292 61.5793 48.1295 60.8191 43.4893 62.3091C41.9446 62.8078 40.3512 63.1788 38.8369 63.7626C35.1636 65.1796 31.9769 67.2899 29.5929 70.4949C29.4165 70.7321 29.1672 70.9206 28.9422 71.1213C28.8996 71.1578 28.7962 71.1213 28.5286 71.1213C28.1333 69.6922 28.5894 68.2812 29.0273 66.9859C30.1037 63.7869 30.4929 60.5272 30.6024 57.1763C30.7545 52.5299 31.2228 47.8775 32.6459 43.4379C33.5642 40.5735 35.3765 38.1774 38.3869 36.505C38.5085 37.2165 38.6727 37.6361 38.6301 38.0254C38.326 40.7803 37.9855 43.5353 37.6388 46.2902C37.2739 49.2094 36.8847 52.1225 36.532 55.0416C36.4347 55.8444 36.1245 56.7323 37.28 57.5533C37.6206 57.0485 38.1071 56.6289 38.1983 56.1363C38.5754 54.0929 38.8673 52.0251 39.1227 49.9635C39.5849 46.2051 39.962 42.4345 40.4668 38.6821C40.6188 37.5753 41.0628 36.505 41.4094 35.4285C41.677 34.5893 42.3156 34.2 43.1731 34.1878C44.1157 34.1757 44.2313 34.8751 44.3772 35.5866C45.332 40.1661 45.1496 44.8246 45.3381 49.4587C45.4537 52.3171 45.703 55.1693 45.9584 58.0155C45.9888 58.3743 46.4267 58.7027 46.67 59.0433C47.0288 58.7027 47.6369 58.4108 47.7038 58.0216C47.8559 57.1215 47.7951 56.1728 47.7403 55.2484C47.3693 49.1485 46.9801 43.0548 46.6031 36.955C46.5727 36.4137 46.5727 35.8664 46.6152 35.3312C46.749 33.75 47.3511 33.0445 48.9445 33.0263C53.2624 32.9898 54.5578 33.4581 56.4005 37.1253C58.1703 40.6465 60.2076 44.04 61.8739 47.6039C63.3092 50.669 64.3978 53.8922 65.6141 57.0546C66.7209 59.9373 67.7792 62.8382 68.8982 65.7148C69.1171 66.2804 69.4455 66.846 69.8469 67.296C70.4551 67.971 71.1483 68.0623 71.7747 67.2535C68.7887 61.5307 67.2136 55.2788 64.5742 49.4709C63.6802 47.5004 62.6463 45.5969 61.6307 43.6812C60.5421 41.6317 59.3805 39.6187 58.3041 37.5632C57.9939 36.9793 57.8601 36.3043 57.6412 35.6535C60.2197 35.0454 62.5672 36.3225 63.4308 38.3659C64.5742 41.0601 65.8452 43.7055 67.2014 46.2963C68.3812 48.5526 69.859 50.6507 71.0024 52.9252C72.1457 55.1876 73.0519 57.5716 74.0371 59.913C75.5028 63.3916 76.9502 66.8886 78.4158 70.3672C78.5618 70.7139 78.7321 71.1882 79.0179 71.322C79.4497 71.5227 80.0579 71.6261 80.4775 71.4741C80.739 71.3768 80.9701 70.7078 80.9214 70.3368C80.8363 69.7408 80.4227 69.2056 80.2829 68.6096C79.0057 63.2274 76.5123 58.3257 74.1892 53.3692C72.3829 49.5317 70.4307 45.7611 68.5576 41.954C68.3691 41.5709 68.3022 41.1209 68.0589 40.3242C68.8434 40.6952 69.3482 40.8168 69.707 41.1209C71.6896 42.8055 73.7878 44.3928 75.5514 46.2902C76.7252 47.5552 77.6982 49.1729 78.2638 50.8027C79.6017 54.6402 81.5479 58.125 83.792 61.4759C83.9622 61.7314 84.1569 61.9807 84.2967 62.2544C86.8814 67.5028 91.2784 71.2551 95.2497 75.3237C99.2392 79.4105 103.691 83.0473 107.638 87.1645C110.666 90.3209 113.841 93.4346 115.666 97.5884C119.077 105.348 120.476 113.206 117.478 121.446C116.401 124.402 114.851 126.993 112.619 129.2C111.743 130.07 111.056 131.171 110.077 131.882C106.604 134.412 102.864 135.945 98.3756 135.051C90.2932 133.445 82.3506 134.23 74.6088 136.979C71.7687 137.988 69.0198 139.247 66.1979 140.311C60.7732 142.355 55.1294 143.121 49.3459 143.024C47.7221 142.993 46.0983 143.146 44.4745 143.206C40.7161 143.352 37.128 142.27 33.4851 141.607C32.9621 141.51 32.4026 141.327 31.989 141.011C27.4704 137.563 23.5478 133.567 22.4349 127.777C21.8875 124.931 21.8997 121.909 22.0882 118.996C22.52 112.281 23.1586 105.586 23.8336 98.8898C24.0951 96.2869 24.6607 93.7083 25.1047 91.1297C25.1533 90.85 25.354 90.6006 25.7615 89.7796H25.7554ZM86.5773 127.571V127.394C91.6007 127.254 96.6302 127.066 101.654 127.005C103.806 126.981 105.807 126.415 107.674 125.503C109.657 124.542 111.11 123.015 111.901 120.838C113.926 115.249 112.88 109.831 110.977 104.527C109.304 99.8811 107.291 95.3625 105.436 90.7831C105.035 89.7918 104.889 88.5694 104.22 87.8274C101.216 84.513 97.9803 81.6911 92.89 82.5364C90.7493 82.8892 88.7971 83.5278 87.1186 84.738C84.4305 86.678 81.8884 88.8248 79.3524 90.9655C78.5436 91.6467 77.7955 92.5103 77.2968 93.4407C75.5575 96.6701 73.3012 99.4615 70.8078 102.131C66.9521 106.249 63.2544 110.5 60.6333 115.578C58.8818 118.971 59.4656 121.939 62.251 124.505C64.6593 126.725 67.5967 127.376 70.5827 127.504C75.9102 127.735 81.2498 127.571 86.5895 127.571H86.5773ZM83.1777 78.772C83.7676 78.0483 84.4427 77.5617 84.3758 77.2029C84.3028 76.7711 83.6034 76.4488 83.1777 76.0778C82.8797 76.4427 82.3749 76.7893 82.3385 77.1786C82.302 77.5678 82.7398 77.9935 83.1716 78.772H83.1777ZM74.7426 79.5139C74.8399 79.7632 74.9432 80.0126 75.0406 80.2619C75.4784 80.5295 75.8981 80.9188 76.3724 81.01C76.567 81.0465 77.163 80.2558 77.09 80.1464C76.8103 79.7024 76.3968 79.2402 75.9285 79.07C75.6305 78.9605 75.1439 79.3497 74.7426 79.52V79.5139Z" fill="#FF9439"/>
<path d="M53.1346 69.0534C55.4334 68.3722 56.449 68.7068 57.3491 70.8231C58.3404 73.1524 59.3864 75.5546 59.7878 78.0237C60.3655 81.5571 61.0467 85.1878 59.654 88.7456C57.9086 93.2034 54.9773 96.457 50.3857 98.1355C47.6064 99.1451 44.8514 99.96 41.8228 99.8566C38.8732 99.7532 36.3798 98.7072 34.3121 96.7368C32.1653 94.6934 30.6996 92.2364 29.8482 89.299C28.8508 85.8629 28.5953 82.518 29.2704 79.0211C29.7691 76.4425 31.2469 74.4538 33.0896 72.8361C34.8168 71.3279 36.8359 70.1116 38.855 68.9865C42.1877 67.1316 45.8184 66.56 49.6072 66.9796C51.0425 67.1377 52.344 67.5452 53.1346 69.0534ZM38.2833 87.2069C38.338 85.6805 37.4197 84.5371 36.0757 84.4702C34.4337 84.3851 32.6092 85.3824 32.5423 86.3981C32.4511 87.7847 34.2147 90.193 35.3155 90.1869C36.8298 90.1747 38.2225 88.776 38.2833 87.2069Z" fill="white"/>
<path d="M22.9213 71.4131C22.8788 72.2645 22.8788 73.1706 22.7693 74.0707C22.526 76.1384 22.1916 78.194 21.9605 80.2618C21.5895 83.6309 21.255 87.0001 20.9448 90.3754C20.8718 91.1356 20.9813 91.9141 20.9631 92.6804C20.9144 94.6934 20.1056 95.3198 18.1838 94.888C14.6869 94.1035 12.0049 92.1695 10.0892 89.1713C9.01275 87.4867 7.99712 85.8021 7.41937 83.8256C6.44632 80.4929 7.07273 77.5616 9.21953 74.9647C11.0501 72.7571 13.1665 70.8718 15.9154 69.7893C17.3202 69.2359 18.5487 69.2176 19.8562 70.0569C20.6772 70.586 21.6503 70.8657 22.9213 71.4191V71.4131ZM12.3272 83.3999C11.8772 84.1783 11.4393 84.8108 11.1292 85.498C10.6183 86.6353 11.0197 87.4624 12.1752 87.8333C13.355 88.2043 14.0362 87.7725 14.322 86.4589C14.6504 84.9446 14.2976 84.3547 12.3272 83.3999Z" fill="white"/>
<path d="M71.2151 5.33681C71.2334 5.59832 71.2759 5.7017 71.2395 5.74427C68.6122 8.75465 67.3594 12.5374 65.6505 16.0343C64.0328 19.3427 62.7921 22.8274 63.1145 26.6953C63.2239 27.9725 62.6705 29.2983 62.2144 30.5754C61.3083 29.1645 60.9981 27.8082 61.9711 26.3365C62.3239 25.8074 62.5914 25.1263 62.6401 24.4999C62.7921 22.5963 62.6948 20.6685 62.9199 18.7771C63.376 15.0369 64.1605 11.3697 65.5288 7.83025C66.7756 4.61309 67.4445 4.26646 71.203 5.33681H71.2151Z" fill="#8B9463"/>
<path d="M86.577 127.571C81.2435 127.571 75.8977 127.741 70.5703 127.504C67.5903 127.376 64.6468 126.719 62.2385 124.505C59.4531 121.945 58.8693 118.977 60.6208 115.578C63.242 110.5 66.9396 106.249 70.7953 102.131C73.2948 99.4676 75.5511 96.6701 77.2843 93.4407C77.783 92.5103 78.5311 91.6527 79.3399 90.9655C81.8759 88.8248 84.418 86.678 87.1061 84.738C88.7846 83.5278 90.7368 82.8892 92.8775 82.5364C97.9739 81.6911 101.203 84.5129 104.208 87.8274C104.883 88.5694 105.022 89.7918 105.424 90.7831C107.279 95.3625 109.298 99.8811 110.964 104.527C112.868 109.825 113.914 115.249 111.889 120.838C111.098 123.015 109.638 124.542 107.662 125.503C105.789 126.409 103.794 126.975 101.641 127.005C96.6116 127.066 91.5882 127.254 86.5648 127.394V127.571H86.577ZM82.7395 113.492C81.4563 113.212 80.5623 113.102 79.7291 112.817C76.0923 111.564 72.3704 111.175 68.5451 111.357C67.3045 111.418 66.447 111.85 65.9726 112.938C65.109 114.909 64.2089 116.879 63.5217 118.916C63.3271 119.506 63.6677 120.4 64.0082 121.021C65.188 123.143 67.347 123.605 69.4999 123.916C75.2105 124.737 80.909 124.366 86.6074 123.66C87.7568 123.52 88.9245 123.484 90.0678 123.313C91.5396 123.088 91.8071 122.797 91.649 121.361C91.4058 119.148 91.0774 116.94 90.7247 114.738C90.5057 113.37 90.0618 112.026 89.9645 110.652C89.9158 109.983 90.2564 109.076 90.749 108.651C91.047 108.389 92.0261 108.718 92.5978 108.997C94.3918 109.879 96.1251 110.871 97.8948 111.801C98.5273 112.129 99.1902 112.397 99.8652 111.387C98.9834 109.502 98.0408 107.501 97.1103 105.5C96.8853 105.014 96.5994 104.534 96.4778 104.017C96.2041 102.812 96.6238 102.302 97.8887 102.241C99.6646 102.156 101.446 102.162 103.216 102.01C104.001 101.943 104.761 101.578 105.655 101.31C104.548 95.9524 101.519 92.1575 97.6941 88.916C97.1164 88.4234 96.1251 88.241 95.3223 88.2288C93.1634 88.1923 91.0409 88.4478 88.9671 89.2201C86.5831 90.1141 86.3581 90.2601 86.9237 92.7048C87.7203 96.1531 88.7238 99.5527 88.6812 103.165C88.663 104.57 88.4136 105.403 87.027 106.048C85.7803 106.626 84.9836 106.547 83.9133 105.719C83.0193 105.032 82.2956 103.81 80.5562 104.035C81.3225 107.07 82.703 109.873 82.7395 113.504V113.492ZM100.705 106.23C101.702 110.147 103.812 113.553 105.685 117.062C105.831 117.335 106.306 117.433 106.616 117.603C107.929 116.703 108.197 115.401 108.252 114.088C108.3 112.938 108.161 111.771 108.027 110.621C107.613 106.942 104.615 105.099 100.705 106.23ZM70.8075 106.54C71.0142 106.924 71.0507 107.143 71.1602 107.179C73.313 107.957 75.4599 108.772 77.6432 109.454C78.4581 109.709 79.121 108.955 78.8899 108.03C78.3 105.683 77.2357 103.621 75.022 102.131C73.5442 103.676 72.1515 105.142 70.8135 106.54H70.8075ZM101.83 119.999C100.51 118.083 96.1372 115.474 94.0756 115.426C94.2459 117.463 94.4162 119.488 94.5804 121.465C96.7576 121.878 100.376 121.112 101.83 119.999ZM82.849 100.41C84.3207 98.5857 84.4606 95.253 83.2686 93.3434C81.5658 94.3347 80.1366 96.068 79.1453 98.452C80.319 99.0723 81.511 99.7047 82.8429 100.41H82.849Z" fill="black"/>
<path d="M83.1776 78.7658C82.7458 77.9934 82.3079 77.5616 82.3444 77.1724C82.3809 76.7832 82.8857 76.4366 83.1837 76.0717C83.6094 76.4426 84.3088 76.7649 84.3817 77.1967C84.4425 77.5555 83.7675 78.036 83.1837 78.7658H83.1776Z" fill="black"/>
<path d="M74.7427 79.5077C75.1441 79.3435 75.6245 78.9482 75.9286 79.0577C76.3969 79.228 76.8165 79.6963 77.0902 80.1341C77.1571 80.2436 76.5611 81.0342 76.3725 80.9977C75.8982 80.9065 75.4846 80.5173 75.0407 80.2497C74.9434 80.0004 74.84 79.751 74.7427 79.5016V79.5077Z" fill="black"/>
<path d="M38.2771 87.2069C38.2224 88.776 36.8297 90.1808 35.3093 90.1869C34.2085 90.193 32.4388 87.7786 32.5361 86.3981C32.603 85.3764 34.4274 84.3851 36.0695 84.4702C37.4135 84.5371 38.3318 85.6804 38.2771 87.2069Z" fill="black"/>
<path d="M12.3274 83.3999C14.2978 84.3547 14.6505 84.9446 14.3221 86.4589C14.0363 87.7725 13.3551 88.2043 12.1753 87.8334C11.0198 87.4685 10.6184 86.6353 11.1293 85.4981C11.4395 84.8108 11.8773 84.1783 12.3274 83.3999Z" fill="black"/>
<path d="M82.7399 113.485C82.7034 109.855 81.3229 107.051 80.5566 104.016C82.2959 103.791 83.0197 105.02 83.9136 105.701C84.9901 106.528 85.7807 106.607 87.0274 106.029C88.414 105.385 88.6633 104.552 88.6816 103.147C88.7302 99.5343 87.7268 96.1408 86.924 92.6864C86.3585 90.2416 86.5835 90.0896 88.9674 89.2017C91.0413 88.4293 93.1637 88.1739 95.3227 88.2104C96.1255 88.2226 97.1167 88.405 97.6945 88.8976C101.52 92.1391 104.548 95.934 105.655 101.292C104.761 101.559 104.001 101.924 103.217 101.991C101.447 102.143 99.6649 102.137 97.8891 102.222C96.6241 102.283 96.2045 102.794 96.4782 103.998C96.5937 104.515 96.8796 104.996 97.1107 105.482C98.0412 107.483 98.9838 109.484 99.8656 111.369C99.1906 112.379 98.5277 112.111 97.8952 111.783C96.1255 110.858 94.3861 109.861 92.5981 108.979C92.0325 108.699 91.0534 108.371 90.7493 108.632C90.2567 109.058 89.9162 109.964 89.9648 110.633C90.0621 112.008 90.5061 113.352 90.725 114.72C91.0717 116.922 91.4061 119.129 91.6494 121.343C91.8075 122.778 91.5339 123.076 90.0682 123.295C88.9249 123.471 87.7572 123.502 86.6078 123.642C80.9154 124.341 75.2109 124.712 69.5003 123.897C67.3474 123.587 65.1945 123.131 64.0086 121.002C63.668 120.382 63.3214 119.488 63.5221 118.898C64.2093 116.861 65.1033 114.89 65.973 112.92C66.4534 111.831 67.3109 111.393 68.5455 111.339C72.3708 111.162 76.0988 111.552 79.7295 112.798C80.5627 113.084 81.4567 113.194 82.7399 113.473V113.485Z" fill="#ED1C24"/>
<path d="M100.711 106.23C104.627 105.099 107.62 106.948 108.033 110.621C108.161 111.771 108.307 112.938 108.258 114.088C108.203 115.401 107.936 116.703 106.622 117.603C106.312 117.426 105.838 117.335 105.692 117.061C103.819 113.552 101.708 110.147 100.711 106.23Z" fill="white"/>
<path d="M70.8137 106.54C72.1516 105.141 73.5443 103.676 75.0222 102.131C77.2358 103.621 78.3062 105.689 78.89 108.03C79.1211 108.955 78.4643 109.709 77.6433 109.453C75.46 108.772 73.3132 107.957 71.1603 107.179C71.0569 107.142 71.0144 106.923 70.8076 106.54H70.8137Z" fill="white"/>
<path d="M101.83 119.993C100.376 121.106 96.7577 121.878 94.5805 121.458C94.4163 119.482 94.246 117.457 94.0757 115.419C96.1373 115.468 100.51 118.077 101.83 119.993Z" fill="white"/>
<path d="M82.849 100.404C81.511 99.6985 80.3251 99.066 79.1514 98.4457C80.1427 96.0617 81.5658 94.3285 83.2747 93.3372C84.4606 95.2468 84.3207 98.5856 82.8551 100.404H82.849Z" fill="white"/>
<path d="M83.1776 80.8272C83.7675 80.1035 84.4426 79.617 84.3757 79.2582C84.3209 78.9298 83.8952 78.6622 83.5121 78.3885C83.4026 78.5102 83.2871 78.6318 83.1776 78.7717C83.0985 78.6318 83.0195 78.5102 82.9465 78.3885C82.6728 78.6622 82.3687 78.9359 82.3444 79.2339C82.3079 79.6231 82.7458 80.0488 83.1776 80.8272Z" fill="#FFC34F"/>
<path d="M62.2445 126.561C64.6528 128.781 67.5902 129.431 70.5763 129.559C75.9038 129.79 81.2434 129.626 86.583 129.626V129.45C91.6064 129.31 96.6359 129.121 101.659 129.06C103.812 129.036 105.813 128.47 107.68 127.558C109.663 126.597 111.116 125.071 111.907 122.894C112.813 120.4 113.099 117.943 112.977 115.511C112.886 117.268 112.557 119.044 111.907 120.832C111.116 123.009 109.657 124.536 107.68 125.497C105.807 126.403 103.812 126.968 101.659 126.999C96.6298 127.06 91.6064 127.248 86.583 127.388V127.564C81.2495 127.564 75.9038 127.735 70.5763 127.497C67.5963 127.37 64.6528 126.713 62.2445 124.499C60.8336 123.204 59.9943 121.805 59.7267 120.297C59.3679 122.602 60.2133 124.688 62.2445 126.561Z" fill="#FFC34F"/>
<path d="M58.322 37.6116C60.6208 37.3622 62.6338 38.5724 63.4244 40.4273C64.5678 43.1215 65.8388 45.767 67.195 48.3577C68.3749 50.614 69.8527 52.7121 70.996 54.9866C72.1394 57.249 73.0455 59.633 74.0307 61.9744C75.4964 65.453 76.9438 68.95 78.4095 72.4286C78.5554 72.7753 78.7257 73.2496 79.0115 73.3834C79.4433 73.5841 80.0515 73.6875 80.4711 73.5355C80.7326 73.4382 80.9637 72.7692 80.9151 72.3982C80.8664 72.0576 80.7083 71.7292 80.5563 71.4008C80.5258 71.4252 80.5015 71.4678 80.4711 71.4738C80.0515 71.6259 79.4433 71.5225 79.0115 71.3218C78.7257 71.188 78.5554 70.7197 78.4095 70.367C76.9438 66.8822 75.5025 63.3914 74.0307 59.9127C73.0455 57.5713 72.1394 55.1874 70.996 52.925C69.8527 50.6566 68.3749 48.5523 67.195 46.2961C65.8388 43.7053 64.5678 41.0598 63.4244 38.3657C62.5609 36.3223 60.2134 35.0451 57.6348 35.6533C57.8537 36.304 57.9936 36.9791 58.2977 37.5629C58.3038 37.5751 58.3159 37.5933 58.322 37.6055V37.6116Z" fill="#FFC34F"/>
<path d="M75.0402 82.3112C75.4781 82.5788 75.8977 82.968 76.372 83.0592C76.5667 83.0957 77.1626 82.3051 77.0897 82.1956C76.8099 81.7517 76.3964 81.2895 75.9281 81.1192C75.6301 81.0097 75.1436 81.399 74.7422 81.5692C74.8395 81.8186 74.9429 82.0679 75.0402 82.3173V82.3112Z" fill="#FFC34F"/>
<path d="M68.9465 42.7689C69.2506 42.8966 69.4999 43.0122 69.6945 43.1764C71.6771 44.861 73.7752 46.4483 75.5389 48.3457C76.7126 49.6107 77.6857 51.2284 78.2513 52.8582C79.5893 56.6957 81.5353 60.1805 83.7794 63.5314C83.9497 63.7868 84.1443 64.0362 84.2842 64.3099C86.8689 69.5583 91.2659 73.3106 95.2372 77.3792C99.2267 81.466 103.678 85.1028 107.625 89.22C110.654 92.3764 113.829 95.4901 115.653 99.6438C117.611 104.102 118.901 108.59 119.083 113.163C119.272 107.872 117.909 102.709 115.653 97.5883C113.822 93.4285 110.654 90.3208 107.625 87.1645C103.678 83.0472 99.2267 79.4104 95.2372 75.3236C91.2659 71.255 86.8689 67.5027 84.2842 62.2543C84.1504 61.9806 83.9558 61.7313 83.7794 61.4759C81.5293 58.131 79.5893 54.6462 78.2513 50.8027C77.6796 49.1728 76.7126 47.549 75.5389 46.2901C73.7752 44.3927 71.6832 42.8054 69.6945 41.1208C69.3357 40.8167 68.8248 40.689 68.0464 40.3241C68.2836 41.1269 68.3566 41.5708 68.5451 41.954C68.6789 42.2276 68.8187 42.4952 68.9525 42.7689H68.9465Z" fill="#FFC34F"/>
<path d="M46.615 37.3257C46.761 35.7932 47.3631 35.106 48.9382 35.0877C53.2561 35.0512 54.5515 35.5195 56.3942 39.1867C58.164 42.7079 60.2013 46.1014 61.8677 49.6653C63.3029 52.7304 64.3915 55.9536 65.6078 59.1161C66.7147 61.9987 67.7729 64.8996 68.8919 67.7762C69.1108 68.3418 69.4392 68.9074 69.8406 69.3574C70.4488 70.0325 71.1421 70.1237 71.7685 69.3149C71.507 68.8162 71.2698 68.3114 71.0326 67.8066C70.6252 67.91 70.2177 67.7154 69.8406 67.3018C69.4392 66.8518 69.1108 66.2923 68.8919 65.7207C67.7729 62.8441 66.7147 59.9432 65.6078 57.0605C64.3915 53.8981 63.2968 50.6748 61.8677 47.6097C60.2013 44.0459 58.164 40.6524 56.3942 37.1311C54.5454 33.4639 53.2501 32.9957 48.9382 33.0321C47.3448 33.0443 46.7428 33.7558 46.609 35.337C46.5603 35.8722 46.5603 36.4196 46.5968 36.9609C46.6029 37.0825 46.609 37.2041 46.6211 37.3257H46.615Z" fill="#FFC34F"/>
<path d="M29.0208 69.0534C30.0972 65.8545 30.4864 62.5948 30.5959 59.2438C30.7479 54.5975 31.2162 49.9451 32.6393 45.5056C33.5576 42.6411 35.3699 40.245 38.3803 38.5725C38.4168 38.7854 38.4533 38.9678 38.4959 39.132C38.5385 38.7671 38.5871 38.4022 38.6297 38.0313C38.6722 37.642 38.508 37.2224 38.3864 36.5109C35.376 38.1833 33.5576 40.5795 32.6454 43.4439C31.2284 47.8834 30.7601 52.5359 30.602 57.1822C30.4925 60.5332 30.1033 63.7928 29.0268 66.9918C28.6072 68.2324 28.1815 69.5825 28.4917 70.9448C28.6133 70.2941 28.8201 69.6555 29.0268 69.0473L29.0208 69.0534Z" fill="#FFC34F"/>
<path d="M22.0819 121.057C22.5137 114.343 23.1523 107.647 23.8273 100.951C24.0888 98.3484 24.6544 95.7698 25.0983 93.1912C25.147 92.9115 25.3477 92.6621 25.7552 91.8411C26.5093 93.1243 26.9471 94.0183 27.5188 94.8029C28.9662 96.7976 30.2129 99.0296 32.007 100.659C36.8601 105.081 42.6316 106.747 48.9807 104.625C53.9433 102.964 58.395 100.276 61.5696 95.9401C64.4158 92.0479 65.4193 87.5718 65.2551 82.8039C65.2551 82.7735 65.255 82.7492 65.249 82.7188C65.103 86.7508 64.0266 90.5336 61.5696 93.8845C58.4011 98.2207 53.9433 100.909 48.9807 102.569C42.6255 104.698 36.854 103.031 32.007 98.6038C30.219 96.974 28.9662 94.742 27.5188 92.7473C26.9471 91.9567 26.5154 91.0688 25.7552 89.7855C25.3477 90.6066 25.147 90.8559 25.0983 91.1356C24.6483 93.7203 24.0827 96.2928 23.8273 98.8957C23.1583 105.592 22.5137 112.287 22.0819 119.001C21.9906 120.406 21.9481 121.835 21.9785 123.259C21.9967 122.523 22.0332 121.787 22.0819 121.063V121.057Z" fill="#FFC34F"/>
<path d="M37.28 57.5652C36.909 57.3037 36.7022 57.0301 36.5745 56.7564C36.5623 56.872 36.5441 56.9875 36.5319 57.1091C36.4346 57.9119 36.1245 58.7998 37.28 59.6208C37.6205 59.1161 38.107 58.6965 38.1983 58.2038C38.5753 56.1604 38.8672 54.0927 39.1227 52.031C39.5849 48.2726 39.9619 44.502 40.4667 40.7497C40.6188 39.6428 41.0627 38.5725 41.4094 37.496C41.6769 36.6568 42.3155 36.2676 43.173 36.2554C44.1157 36.2432 44.2312 36.9426 44.3772 37.6541C45.332 42.2336 45.1495 46.8921 45.3381 51.5262C45.4536 54.3846 45.7029 57.2369 45.9584 60.083C45.9888 60.4418 46.4267 60.7703 46.6699 61.1108C47.0288 60.7703 47.6369 60.4783 47.7038 60.0891C47.8437 59.2742 47.8072 58.4228 47.7524 57.5835C47.7403 57.7355 47.7281 57.8815 47.7038 58.0335C47.6369 58.4228 47.0348 58.7208 46.6699 59.0552C46.4206 58.7147 45.9888 58.3863 45.9584 58.0275C45.7029 55.1813 45.4536 52.329 45.3381 49.4707C45.1495 44.8365 45.3381 40.1841 44.3772 35.5986C44.2251 34.8809 44.1157 34.1816 43.173 34.1998C42.3155 34.212 41.6769 34.6012 41.4094 35.4405C41.0688 36.5169 40.6188 37.5873 40.4667 38.6941C39.9619 42.4464 39.5849 46.217 39.1227 49.9754C38.8672 52.0432 38.5753 54.1049 38.1983 56.1483C38.107 56.6409 37.6205 57.0605 37.28 57.5652Z" fill="#FFC34F"/>
<path d="M65.2798 120.893C65.967 118.856 66.861 116.885 67.7306 114.915C68.2111 113.826 69.0686 113.388 70.3031 113.333C74.1285 113.157 77.8565 113.546 81.4872 114.793C82.3204 115.079 83.2143 115.188 84.4975 115.468C84.4611 111.837 83.0806 109.034 82.3143 105.999C84.0536 105.774 84.7773 107.003 85.6713 107.684C86.7478 108.511 87.5384 108.59 88.7851 108.012C90.1717 107.367 90.421 106.534 90.4393 105.129C90.4879 101.517 89.4844 98.1234 88.6817 94.6691C88.1161 92.2243 88.3411 92.0722 90.7251 91.1843C92.7989 90.412 94.9214 90.1565 97.0803 90.193C97.8831 90.2052 98.8744 90.3876 99.4522 90.8802C100.249 91.5553 100.997 92.2607 101.715 92.9905C100.535 91.5066 99.1785 90.1626 97.6946 88.9037C97.1168 88.4111 96.1256 88.2287 95.3228 88.2165C93.1638 88.18 91.0413 88.4354 88.9675 89.2078C86.5835 90.1018 86.3585 90.2477 86.9241 92.6925C87.7208 96.1408 88.7242 99.5404 88.6817 103.153C88.6634 104.558 88.4141 105.391 87.0275 106.036C85.7808 106.613 84.9841 106.534 83.9137 105.707C83.0197 105.02 82.296 103.798 80.5567 104.023C81.323 107.057 82.7035 109.861 82.74 113.492C81.4568 113.212 80.5628 113.102 79.7296 112.817C76.0928 111.564 72.3709 111.174 68.5456 111.357C67.3049 111.418 66.4474 111.85 65.9731 112.938C65.1095 114.909 64.2094 116.879 63.5222 118.916C63.3276 119.506 63.6681 120.4 64.0087 121.021C64.4405 121.799 65.0061 122.346 65.6507 122.754C65.3527 122.158 65.1095 121.41 65.2798 120.893Z" fill="#870B20"/>
</svg>
