<svg width="125" height="115" viewBox="0 0 125 115" fill="none" xmlns="http://www.w3.org/2000/svg">
<path d="M97.1091 109.434C95.4297 109.434 93.7502 109.419 92.0707 109.442C91.366 109.454 90.6613 109.552 89.9567 109.614C89.6591 109.642 89.3538 109.736 89.068 109.689C87.4903 109.438 85.9517 109.873 84.4015 109.92C80.5257 110.041 76.6461 109.986 72.7665 110.041C69.0004 110.096 65.2264 109.896 61.4799 110.44C59.6008 110.714 57.7295 111.043 55.8464 111.317C54.3744 111.529 52.8907 111.673 51.4148 111.877C50.3852 112.022 49.3673 112.237 48.3416 112.39C47.4569 112.523 46.5682 112.609 45.6795 112.719C42.6102 113.091 39.541 113.463 36.4717 113.834C34.3655 114.089 32.2672 114.433 30.1531 114.586C27.2914 114.794 24.5314 114.058 21.7753 113.412C20.4012 113.091 19.0506 112.652 17.7038 112.214C16.8935 111.947 16.1144 111.576 15.3197 111.259C14.8382 111.067 14.3488 110.883 13.8594 110.718C10.9037 109.712 8.36297 108.103 6.40163 105.641C5.31329 104.274 4.20147 102.928 3.1562 101.526C2.67076 100.876 2.26361 100.152 1.92301 99.4121C0.533237 96.4133 0.0712822 93.2148 0.00864435 89.9459C-0.0226746 88.3056 0.0438782 86.6614 0.00864435 85.021C-0.0305043 83.3925 0.267024 81.8382 0.82685 80.3193C0.865999 80.2136 0.889489 80.104 0.912978 79.9983C1.50412 77.344 2.1031 74.6936 2.68641 72.0393C3.24624 69.4868 4.11143 67.0322 4.98444 64.5737C5.54035 63.0117 6.05712 61.4379 6.26852 59.7349C6.5543 57.4604 7.24724 55.2328 7.79923 52.9896C8.04979 51.9796 8.33557 50.9734 8.68008 49.9947C9.67054 47.1721 11.1386 44.6901 13.5893 42.8422C15.7895 41.1823 18.0914 39.6359 20.0058 37.6276C20.9062 36.6841 21.7714 35.7054 22.5935 34.6954C24.1242 32.8162 25.9995 31.3873 28.0939 30.1933C30.666 28.7291 33.3868 27.6291 36.2329 26.8539C38.4566 26.2471 40.7037 25.7147 42.9626 25.2684C44.1605 25.0296 45.4289 25.1627 46.623 24.92C49.5865 24.3171 52.5736 24.5911 55.5528 24.5128C56.8447 24.4776 56.8173 24.5011 56.9935 23.2679C57.2636 21.3888 57.4163 19.4744 57.9095 17.654C58.4028 15.8414 58.6495 14.0014 58.9039 12.1653C59.1584 10.3214 59.1936 8.45012 59.3659 6.59447C59.542 4.73882 59.8905 2.91449 60.6891 1.20761C60.9906 0.56557 61.4212 0.299372 62.1768 0.291542C63.6644 0.275883 65.1521 0.0409775 66.6397 0.0331478C69.0982 0.0174883 71.5607 0.12712 74.0192 0.146694C75.0997 0.154524 76.1802 0.0997091 77.2568 0.0174969C78.6114 -0.0842897 79.0538 0.236739 79.1321 1.54431C79.2847 4.08114 79.5666 6.60622 80.2713 9.0491C80.929 11.3393 81.7276 13.5864 82.4675 15.8531C82.859 17.055 83.2427 18.2608 83.6537 19.4548C84.1118 20.7781 84.1509 20.7937 85.5838 20.735C85.8461 20.7233 86.1162 20.7311 86.3628 20.6606C88.7783 19.9951 91.2133 20.3044 93.574 20.7898C95.7546 21.24 97.8569 22.066 99.7752 23.2601C101.294 24.2036 102.809 25.1588 104.273 26.1805C104.97 26.666 105.604 27.2689 106.176 27.9031C108.22 30.1698 110.588 32.1312 112.42 34.6093C113.959 36.6881 115.219 38.9234 116.496 41.1588C118.105 43.9854 119.412 46.9568 120.524 49.9986C121.941 53.8822 123.296 57.8049 124 61.892C124.392 64.1626 124.592 66.4724 124.799 68.7704C124.94 70.3285 125.03 71.8984 124.991 73.4604C124.924 76.103 124.732 78.7455 124.611 81.388C124.576 82.2062 124.588 83.0284 124.615 83.8466C124.678 85.6357 124.842 87.4247 124.822 89.2099C124.799 91.3474 124.286 93.4184 123.613 95.4424C123.378 96.151 123.065 96.8283 122.814 97.5329C121.957 99.9093 120.301 101.663 118.316 103.104C116.053 104.744 113.771 106.388 111.132 107.379C109.821 107.872 108.419 108.13 107.057 108.491C106.806 108.557 106.52 108.542 106.301 108.659C105.205 109.238 104.003 109.313 102.817 109.348C100.914 109.407 99.0078 109.364 97.1052 109.364C97.1052 109.383 97.1052 109.403 97.1052 109.422L97.1091 109.434ZM43.5811 28.7879C43.2288 28.6978 43.0918 28.6273 42.9587 28.6352C42.0308 28.69 41.103 28.7644 40.1752 28.8309C37.5796 29.0188 35.1328 29.653 32.8466 30.9723C30.2549 32.4717 27.816 34.163 25.514 36.0617C24.6253 36.7938 23.6505 37.4515 22.891 38.2971C20.777 40.6499 18.7335 43.0732 16.6977 45.5005C15.8404 46.5262 15.0535 47.6105 14.2744 48.6989C13.1978 50.2061 12.5206 51.9952 11.076 53.2519C10.9977 53.3223 10.9546 53.4398 10.9116 53.5416C10.5044 54.5399 10.0464 55.5225 9.70577 56.5443C9.11854 58.3099 8.47259 60.0716 8.08893 61.8842C7.51736 64.5893 6.77745 67.2319 5.81439 69.8235C5.21933 71.4247 4.73389 73.0729 4.25628 74.7132C3.92351 75.8524 3.64164 77.0151 3.42632 78.1818C3.06224 80.1236 2.67859 82.0653 2.4711 84.0227C2.26361 85.9488 2.24403 87.8946 2.17357 89.8324C2.00914 94.4285 3.74734 98.3747 6.56997 101.847C7.71702 103.26 9.25165 104.364 10.6336 105.586C10.8685 105.793 11.2247 105.864 11.5223 106.001C11.949 106.2 12.5049 106.302 12.7633 106.635C13.143 107.117 13.6167 107.391 14.1022 107.688C15.4097 108.499 16.7917 109.101 18.3067 109.45C19.72 109.775 21.0941 110.268 22.4956 110.656C23.4274 110.914 24.363 111.243 25.3144 111.309C27.4714 111.458 29.6403 111.466 31.8013 111.521C32.6234 111.54 33.4495 111.454 34.2637 111.536C37.2234 111.846 40.1517 111.529 43.0839 111.219C44.2701 111.094 45.4564 110.926 46.6269 110.71C49.0071 110.268 51.3678 109.736 53.752 109.321C56.4689 108.851 59.1975 108.459 61.9262 108.068C62.7327 107.95 63.5587 107.849 64.3652 107.903C67.8298 108.142 71.2945 108.134 74.767 108.009C79.3904 107.841 84.0139 107.704 88.6374 107.551C90.3129 107.496 92.0081 107.571 93.664 107.367C96.8821 106.976 100.084 106.478 103.279 105.934C106.145 105.445 108.928 104.74 111.629 103.542C114.017 102.485 115.893 100.841 117.78 99.1928C119.209 97.944 119.901 96.1236 120.516 94.3697C121.769 90.7916 122.399 87.092 122.387 83.2867C122.384 82.171 122.579 81.0592 122.642 79.9435C122.759 77.8255 123.026 75.6919 122.912 73.5818C122.716 69.9018 122.262 66.2336 121.949 62.5575C121.761 60.3574 121.287 58.212 120.637 56.1215C119.941 53.8822 119.06 51.7016 118.269 49.4936C117.513 47.3835 116.672 45.3282 115.407 43.4491C113.743 40.9749 112.162 38.4498 110.525 35.9599C109.586 34.5271 108.623 33.1177 107.311 31.9785C106.411 31.1955 105.534 30.3851 104.669 29.5708C102.946 27.9462 101.094 26.4624 98.8865 25.6168C96.5689 24.7282 94.1612 24.0665 91.6361 23.9804C90.7436 23.9491 89.8549 23.769 88.9584 23.7494C87.1693 23.7142 85.3802 23.7416 83.5911 23.7533C83.4658 23.7533 83.3366 23.8551 82.9765 24.0117C83.4541 24.2192 83.732 24.3641 84.0256 24.458C84.6246 24.642 85.2471 24.7555 85.8343 24.9709C86.6369 25.2684 87.4081 25.6482 88.1989 25.9692C90.8297 27.0418 93.2765 28.3964 95.5823 30.0954C97.896 31.8023 99.4111 34.0182 100.664 36.5002C100.938 37.0404 100.809 37.4632 100.339 37.7529C99.9004 38.023 99.3954 37.9291 99.0626 37.475C98.8669 37.2049 98.7416 36.8877 98.5733 36.5941C98.3697 36.2379 98.2131 35.8385 97.943 35.541C96.193 33.6071 94.4274 31.7123 92.2547 30.209C90.0232 28.6665 87.69 27.4177 85.0396 26.7835C83.916 26.5172 82.7572 26.345 81.6885 25.9378C80.099 25.3389 78.4783 25.2175 76.8419 25.3898C74.215 25.6599 71.5998 26.0435 68.9808 26.3802C68.8712 26.3959 68.7655 26.4428 68.6598 26.4702C67.8337 26.6895 67.0194 26.9557 66.1817 27.1162C65.1207 27.3198 64.0481 27.4725 62.9754 27.5899C62.0202 27.6956 61.0532 27.7387 60.094 27.7935C59.2837 27.8365 58.7865 28.2633 58.5281 29.0071C58.3089 29.6413 58.0348 30.2599 57.8665 30.9058C57.5063 32.2721 57.2519 33.6658 56.8525 35.0164C56.5198 36.1517 56.0578 37.2479 55.6194 38.348C55.4862 38.6808 55.1613 38.9313 54.8168 38.7081C54.6289 38.5868 54.488 38.207 54.5232 37.9721C54.6641 37.056 54.8599 36.1478 55.083 35.2513C55.5645 33.3017 56.0813 31.3638 56.5785 29.4181C56.7977 28.5569 56.5589 28.0871 55.682 27.9853C55.0321 27.907 54.3509 28.0127 53.6932 28.0871C52.8868 28.181 52.0412 28.5608 51.2895 28.416C49.3008 28.0284 47.4725 28.506 45.7813 29.3555C44.3993 30.0485 43.1544 31.0546 41.933 32.0215C40.1517 33.4309 38.4448 34.9342 36.7066 36.3945C36.3073 36.7312 35.8884 37.0287 35.3168 36.9308C34.9254 36.3083 35.172 35.7994 35.5791 35.3922C36.2368 34.7385 36.9298 34.1121 37.6579 33.5405C39.4392 32.1312 41.2518 30.761 43.0448 29.3712C43.2092 29.2459 43.3267 29.0619 43.5929 28.7683L43.5811 28.7879ZM63.3904 2.23722C62.6074 2.22156 62.5878 2.66004 62.5134 3.06328C62.2042 4.71144 61.891 6.35568 61.5817 8.00384C61.4721 8.58715 61.3625 9.17046 61.2724 9.75769C60.8849 12.3337 60.509 14.9097 60.1254 17.4856C59.8787 19.1377 59.5969 20.7898 59.3855 22.4458C59.3032 23.0917 59.3737 23.7573 59.3737 24.4972H64.8036C64.878 24.2897 64.9407 24.1879 64.9446 24.0861C65.0385 22.1874 65.1951 20.2926 65.1912 18.3939C65.1873 16.3464 65.1012 14.295 64.9132 12.2554C64.7841 10.8617 64.3965 9.49149 64.1538 8.10563C63.9228 6.79023 63.7036 5.46699 63.5196 4.14376C63.4334 3.52913 63.4334 2.90275 63.3904 2.24114V2.23722ZM73.8313 2.16284C73.8313 2.47603 73.8117 2.65612 73.8313 2.83229C73.9723 3.9402 74.1797 5.04419 74.262 6.15993C74.5321 9.81641 75.687 13.3085 76.239 16.9141C76.466 18.4135 76.9476 19.8698 77.2921 21.3535C77.4604 22.0817 77.6405 22.2501 78.3608 22.113C79.1634 21.9604 79.9659 21.7724 80.7567 21.561C81.1365 21.4592 81.4888 21.2557 81.9194 21.0717C81.7746 20.6175 81.6963 20.2534 81.5436 19.9207C80.5688 17.7871 79.4492 15.7161 78.7915 13.4455C78.3765 12.0166 77.8245 10.619 77.523 9.16654C77.1081 7.16213 76.8732 5.12248 76.5639 3.09458C76.5013 2.69135 76.5208 2.20591 75.961 2.17459C75.272 2.13544 74.5751 2.16676 73.8313 2.16676V2.16284ZM71.0753 23.6946C70.8756 22.6611 70.7033 21.9055 70.5898 21.1421C70.3784 19.7054 70.261 18.253 70.0026 16.828C69.5171 14.115 68.926 11.4215 68.4484 8.70851C68.1469 6.98988 67.959 5.24776 67.7359 3.51347C67.685 3.10241 67.548 2.80879 67.1369 2.75399C66.1308 3.46258 66.1112 4.42955 66.2835 5.47091C66.855 8.93165 67.223 12.412 67.2857 15.9236C67.3326 18.5583 67.3757 21.1891 67.4227 23.8864C68.6754 24.137 69.7364 23.3619 71.0713 23.6946H71.0753ZM70.0848 2.03758C70.1318 2.52303 70.1553 2.93017 70.214 3.32948C70.6172 6.08947 71.0909 8.8416 71.408 11.6094C71.6507 13.7156 71.8465 15.8179 72.3946 17.8771C72.8056 19.4196 73.1188 20.9895 73.4986 22.5397C73.5455 22.7316 73.7491 23.0409 73.8548 23.033C74.4655 22.9743 75.1154 22.9352 75.6596 22.6885C76.1137 22.481 75.824 21.9525 75.73 21.5689C75.2015 19.4392 74.6613 17.3134 74.1249 15.1876C73.6982 13.4964 73.2793 11.8013 72.8526 10.1061C72.4807 8.6263 72.0696 7.15821 71.7486 5.66665C71.5176 4.58615 71.4158 3.47432 71.2358 2.38207C71.1222 1.7048 70.6838 1.83401 70.0848 2.03366V2.03758Z" fill="black"/>
<path d="M43.577 28.784C43.3147 29.0776 43.1933 29.2616 43.0289 29.3869C41.2359 30.7806 39.4233 32.1508 37.642 33.5562C36.9139 34.1317 36.2249 34.7581 35.5632 35.408C35.1561 35.8112 34.9055 36.3201 35.3009 36.9465C35.8725 37.0404 36.2914 36.7468 36.6907 36.4102C38.4289 34.946 40.1358 33.4466 41.9171 32.0373C43.1424 31.0664 44.3834 30.0642 45.7654 29.3712C47.4566 28.5217 49.2849 28.0441 51.2736 28.4316C52.0253 28.5765 52.8709 28.1968 53.6773 28.1028C54.339 28.0245 55.0162 27.9227 55.6661 28.001C56.543 28.1028 56.7858 28.5726 56.5626 29.4339C56.0654 31.3796 55.5487 33.3174 55.0671 35.267C54.844 36.1675 54.6482 37.0757 54.5073 37.9879C54.4721 38.2227 54.613 38.6025 54.8009 38.7239C55.1454 38.947 55.4704 38.6964 55.6035 38.3637C56.0419 37.2636 56.5039 36.1636 56.8366 35.0322C57.236 33.6776 57.4904 32.2839 57.8506 30.9215C58.0228 30.2756 58.293 29.657 58.5122 29.0228C58.7706 28.279 59.2678 27.8523 60.0782 27.8092C61.0412 27.7544 62.0043 27.7152 62.9595 27.6056C64.0322 27.4843 65.1048 27.3355 66.1658 27.1319C67.0036 26.9714 67.8178 26.7052 68.6439 26.486C68.7535 26.4586 68.8553 26.4116 68.9649 26.3959C71.584 26.0593 74.1991 25.6756 76.826 25.4055C78.4624 25.2371 80.0831 25.3546 81.6726 25.9536C82.7452 26.3568 83.904 26.5291 85.0237 26.7992C87.6741 27.4295 90.0073 28.6783 92.2388 30.2247C94.4116 31.728 96.1811 33.6267 97.9271 35.5567C98.1972 35.8543 98.3538 36.2536 98.5574 36.6098C98.7218 36.8995 98.851 37.2205 99.0468 37.4907C99.3756 37.9487 99.8806 38.0388 100.323 37.7686C100.797 37.4789 100.922 37.06 100.648 36.5159C99.3952 34.0338 97.8801 31.818 95.5664 30.1111C93.2606 28.4121 90.8138 27.0575 88.183 25.9849C87.3883 25.6638 86.621 25.2841 85.8184 24.9866C85.2312 24.7713 84.6087 24.6577 84.0097 24.4737C83.7161 24.3837 83.4421 24.2349 82.9606 24.0274C83.3246 23.8708 83.4499 23.7691 83.5752 23.7691C85.3643 23.7573 87.1534 23.7299 88.9425 23.7652C89.8351 23.7808 90.7237 23.9648 91.6202 23.9961C94.1453 24.0822 96.553 24.7439 98.8706 25.6326C101.079 26.4782 102.934 27.9619 104.653 29.5866C105.522 30.4048 106.395 31.2152 107.295 31.9942C108.607 33.1334 109.57 34.5467 110.509 35.9756C112.146 38.4655 113.728 40.9945 115.391 43.4648C116.656 45.34 117.498 47.3992 118.253 49.5093C119.044 51.7173 119.925 53.9018 120.622 56.1372C121.271 58.2277 121.749 60.3731 121.933 62.5732C122.242 66.2493 122.696 69.9175 122.896 73.5975C123.01 75.7076 122.743 77.8373 122.626 79.9591C122.563 81.0749 122.368 82.1906 122.372 83.3025C122.387 87.1077 121.753 90.8112 120.5 94.3855C119.886 96.1393 119.193 97.9597 117.764 99.2086C115.873 100.857 114.002 102.505 111.613 103.558C108.912 104.752 106.125 105.461 103.263 105.95C100.069 106.494 96.8623 106.991 93.6481 107.383C91.9882 107.586 90.297 107.512 88.6215 107.567C83.998 107.716 79.3745 107.853 74.7511 108.025C71.2825 108.15 67.8179 108.158 64.3493 107.919C63.5428 107.864 62.7168 107.966 61.9103 108.084C59.1816 108.475 56.453 108.867 53.7361 109.336C51.3519 109.747 48.9912 110.284 46.611 110.726C45.4405 110.945 44.2543 111.11 43.0681 111.235C40.1358 111.544 37.2075 111.861 34.2479 111.552C33.4375 111.466 32.6075 111.552 31.7854 111.536C29.6205 111.482 27.4556 111.474 25.2985 111.325C24.3472 111.259 23.4115 110.93 22.4798 110.671C21.0782 110.284 19.7041 109.79 18.2908 109.466C16.7758 109.117 15.3938 108.514 14.0863 107.704C13.6008 107.402 13.1271 107.132 12.7474 106.651C12.4851 106.318 11.9331 106.216 11.5064 106.017C11.2089 105.876 10.8526 105.809 10.6177 105.602C9.23576 104.384 7.70113 103.276 6.55407 101.863C3.73537 98.3904 1.99325 94.4442 2.15768 89.8481C2.22814 87.9102 2.24772 85.9646 2.45521 84.0385C2.66661 82.0771 3.05027 80.1353 3.41044 78.1975C3.62967 77.0308 3.91154 75.8681 4.24039 74.7289C4.718 73.0846 5.20344 71.4404 5.7985 69.8392C6.76156 67.2476 7.50147 64.6089 8.07304 61.8999C8.4567 60.0873 9.09874 58.3256 9.68988 56.56C10.0305 55.5382 10.4885 54.5556 10.8957 53.5573C10.9387 53.4555 10.9818 53.3381 11.0601 53.2676C12.5008 52.0109 13.178 50.2218 14.2585 48.7146C15.0376 47.6263 15.8245 46.5379 16.6818 45.5161C18.7176 43.0889 20.7572 40.6695 22.8752 38.3128C23.6346 37.4672 24.6134 36.8095 25.4981 36.0774C27.8001 34.1748 30.2429 32.4875 32.8307 30.9881C35.117 29.6648 37.5637 29.0346 40.1593 28.8466C41.0871 28.7801 42.015 28.7057 42.9428 28.6509C43.0759 28.6431 43.2129 28.7135 43.5652 28.8036L43.577 28.784ZM33.9895 77.3284V77.3362C33.4296 77.3362 32.8698 77.3127 32.31 77.3401C29.8162 77.4732 27.3185 77.532 24.8991 78.2797C23.0083 78.863 21.18 79.5872 19.3596 80.3585C16.0633 81.7522 13.5852 84.0111 11.8313 87.0881C11.4907 87.6871 11.2323 88.3918 11.1462 89.073C10.9818 90.361 10.8409 91.6764 10.9231 92.9644C11.0523 94.957 11.5925 96.8362 12.9431 98.4256C16.0868 102.121 20.2561 103.534 24.9148 103.852C25.8779 103.918 26.8605 103.863 27.8196 103.75C28.7788 103.636 29.7183 103.386 30.6657 103.182C31.9381 102.908 33.2222 102.658 34.4827 102.329C36.3188 101.847 38.1353 101.299 39.9636 100.79C42.2577 100.148 44.5244 99.4395 46.8811 99.0089C49.2927 98.5665 51.7003 98.4452 54.1236 98.5587C57.5139 98.7192 60.9003 98.9737 64.2866 99.2125C65.4376 99.2908 66.5886 99.4121 67.7356 99.5492C69.1372 99.7175 70.5348 99.9563 71.9402 100.101C73.4983 100.262 75.0721 100.277 76.6185 100.489C80.5881 101.033 84.5108 100.426 88.4296 99.9915C90.3088 99.7841 92.1527 99.2947 94.0396 99.048C96.5452 98.7153 99.0389 98.222 101.501 97.6465C104.978 96.8322 108.204 95.5168 110.846 92.933C112.89 90.9404 114.385 88.6502 114.906 85.898C115.364 83.4786 115.313 80.9888 114.049 78.7064C112.8 76.4554 111.242 74.5684 108.568 73.9616C108.392 73.9224 108.231 73.8011 108.059 73.7345C106.238 73.0338 104.355 72.5718 102.398 72.6344C99.0859 72.7441 95.9501 73.6876 92.8495 74.7642C91.8669 75.1047 90.9234 75.5823 89.9212 75.829C88.0812 76.2831 86.1982 76.5532 84.3621 77.0113C82.0562 77.5829 79.7112 77.6181 77.3701 77.6925C76.0273 77.7355 74.6845 77.6807 73.3417 77.669C69.0902 77.6259 64.8386 77.6024 60.591 77.5241C57.236 77.4654 53.8848 77.3127 50.5298 77.2618C48.8973 77.2384 47.2609 77.3832 45.6284 77.3989C43.9137 77.4145 42.199 77.3597 40.4842 77.344C39.5877 77.3362 38.6951 77.3323 37.7986 77.3323C36.5302 77.3323 35.2657 77.3323 33.9973 77.3323L33.9895 77.3284ZM56.5391 60.0756C56.5391 60.0756 56.5665 60.0756 56.5822 60.0795C56.5822 60.4162 56.5665 60.7528 56.5822 61.0856C56.7192 63.6616 56.9149 66.2258 58.4652 68.4338C59.3108 69.6396 60.3365 70.6574 61.7537 71.1703C63.1826 71.687 64.6116 72.2195 66.0718 72.6305C67.9118 73.1473 69.7596 73.1434 71.5526 72.3604C71.6897 72.3017 71.8228 72.2234 71.9676 72.196C74.1051 71.8201 75.8747 70.6066 77.7303 69.6161C78.8069 69.0406 79.7621 68.2381 80.7956 67.5725C82.0641 66.7543 83.4734 66.218 84.9611 66.081C86.9185 65.9048 88.8877 65.7012 90.8608 66.0418C91.2953 66.1162 91.7534 66.0535 92.1997 66.0731C92.7203 66.0966 93.2645 66.0575 93.7539 66.1945C95.6956 66.7308 97.6726 66.5586 99.6457 66.6095C102.038 66.6682 103.584 65.2823 105.001 63.6459C105.33 63.2662 105.569 62.7886 105.761 62.3188C106.587 60.2948 106.689 58.1612 106.399 56.0432C106.176 54.399 106 52.7352 105.322 51.1614C104.402 49.0317 103.052 47.1878 101.462 45.5984C99.5988 43.7388 97.473 42.1298 95.3785 40.5168C93.9339 39.4089 92.3328 38.5086 90.8334 37.4711C88.8446 36.097 86.6719 35.1065 84.3543 34.5232C82.4869 34.0534 80.5608 33.7911 78.6464 33.521C76.0117 33.1491 73.4435 33.4153 70.9928 34.5232C70.66 34.672 70.2842 34.7503 69.9201 34.8168C67.5321 35.2357 65.5159 36.3749 63.7777 38.027C62.3253 39.405 61.2644 41.0532 60.4383 42.8697C58.8567 46.3461 57.5961 49.9204 57.0989 53.7178C56.8249 55.824 56.7192 57.9498 56.5391 60.0677V60.0756ZM51.9626 58.2042C51.8961 57.3156 51.9313 56.4034 51.7434 55.5382C51.1836 52.9779 50.244 50.5428 49.0617 48.2057C48.22 46.5379 47.3196 44.8859 45.7928 43.7271C42.8253 41.476 39.4155 40.8457 35.8412 41.4643C32.8737 41.9771 29.9493 42.7757 27.205 44.095C25.1145 45.1012 23.0866 46.2208 21.4384 47.8768C19.8646 49.4584 18.3848 51.1379 16.8423 52.7586C14.3368 55.3894 12.4851 58.4313 11.2245 61.8177C10.7626 63.0626 10.4689 64.3975 10.3006 65.7208C10.0109 67.9992 10.606 70.1407 11.5416 72.2234C12.0897 73.4448 12.951 74.2983 14.0393 74.9873C14.3838 75.2065 14.7283 75.4336 15.0885 75.6293C16.768 76.5454 18.5453 77.1287 20.4558 76.6472C21.7124 76.3301 22.9613 75.8838 24.1201 75.3122C25.7526 74.5018 27.3929 73.6484 28.861 72.5835C30.791 71.1899 33.1086 71.0724 35.2187 70.2934C35.3518 70.2464 35.5163 70.3012 35.665 70.2816C36.1426 70.2229 36.6203 70.1602 37.094 70.0898C37.6812 70.0036 38.2684 69.8353 38.8557 69.8275C40.8444 69.7922 42.7784 69.5065 44.6927 68.9584C47.6484 68.1128 49.6959 66.2571 51.0309 63.548C51.8648 61.8568 52.0057 60.0481 51.9587 58.2003L51.9626 58.2042ZM115.658 58.2591C115.642 58.8071 115.943 59.2143 116.358 59.2026C116.769 59.1908 117.462 58.6309 117.498 58.2864C117.533 57.9184 116.926 57.1942 116.566 57.1746C116.143 57.1511 115.673 57.7149 115.658 58.2591ZM117.239 55.3581C116.832 54.9392 116.836 54.1876 115.979 54.3207C115.544 54.3872 115.34 54.6456 115.246 55.041C115.129 55.5265 115.395 55.8827 115.767 56.0393C116.394 56.2977 116.765 55.8162 117.239 55.362V55.3581Z" fill="#FF9439"/>
<path d="M63.3905 2.23716C63.4335 2.89877 63.4296 3.52517 63.5197 4.1398C63.7076 5.46303 63.9229 6.78625 64.1539 8.10165C64.3966 9.48751 64.7842 10.8577 64.9133 12.2514C65.1052 14.2871 65.1874 16.3425 65.1913 18.3899C65.1952 20.2886 65.0386 22.1834 64.9447 24.0821C64.9408 24.1839 64.8781 24.2857 64.8037 24.4932H59.3738C59.3738 23.7533 59.3033 23.0878 59.3856 22.4418C59.597 20.7819 59.8788 19.1337 60.1255 17.4817C60.5091 14.9057 60.885 12.3297 61.2725 9.75371C61.3587 9.16648 61.4722 8.58317 61.5818 7.99986C61.8911 6.3517 62.2043 4.70746 62.5135 3.0593C62.5879 2.65607 62.6114 2.22152 63.3905 2.23327V2.23716Z" fill="#8B9463"/>
<path d="M73.8312 2.15897C74.5751 2.15897 75.268 2.12763 75.9609 2.16678C76.5208 2.1981 76.5051 2.68356 76.5638 3.08679C76.8731 5.11078 77.108 7.15432 77.523 9.15873C77.8244 10.6111 78.3764 12.0088 78.7914 13.4377C79.4491 15.7083 80.5687 17.7793 81.5435 19.9129C81.6962 20.2456 81.7745 20.6097 81.9194 21.0639C81.4887 21.2479 81.1364 21.4514 80.7566 21.5532C79.9658 21.7685 79.1672 21.9525 78.3607 22.1052C77.6404 22.2422 77.4603 22.0739 77.292 21.3457C76.9475 19.8659 76.4659 18.4057 76.2389 16.9063C75.6869 13.3007 74.532 9.8086 74.2619 6.15211C74.1797 5.04029 73.9722 3.9363 73.8312 2.82447C73.8078 2.65222 73.8312 2.47215 73.8312 2.15505V2.15897Z" fill="#6C7249"/>
<path d="M71.079 23.6907C69.7401 23.358 68.6831 24.1331 67.4304 23.8826C67.3834 21.1852 67.3442 18.5545 67.2933 15.9197C67.2307 12.412 66.8627 8.92779 66.2911 5.46704C66.1189 4.42569 66.1384 3.45871 67.1446 2.75012C67.5556 2.80493 67.6927 3.09855 67.7435 3.50961C67.9667 5.24389 68.1507 6.9821 68.456 8.70465C68.9337 11.4176 69.5248 14.1111 70.0103 16.8241C70.2647 18.253 70.3861 19.7015 70.5975 21.1382C70.711 21.9016 70.8833 22.6572 71.0829 23.6907H71.079Z" fill="#6C7249"/>
<path d="M70.085 2.03364C70.6839 1.83398 71.1224 1.70477 71.2359 2.38204C71.416 3.47429 71.5178 4.58612 71.7488 5.66662C72.0698 7.15819 72.4809 8.62627 72.8528 10.1061C73.2795 11.7973 73.6984 13.4924 74.1251 15.1876C74.6614 17.3134 75.2017 19.4391 75.7302 21.5688C75.8242 21.9486 76.1139 22.4771 75.6597 22.6885C75.1156 22.939 74.4657 22.9743 73.855 23.033C73.7493 23.0447 73.5457 22.7315 73.4987 22.5397C73.119 20.9894 72.8019 19.4196 72.3947 17.8771C71.8466 15.8179 71.6509 13.7156 71.4082 11.6094C71.0911 8.84158 70.6135 6.08944 70.2142 3.32946C70.1554 2.93014 70.1319 2.523 70.085 2.03755V2.03364Z" fill="#8B9463"/>
<path d="M33.9934 77.3322C35.2618 77.3322 36.5263 77.3322 37.7947 77.3322C38.6912 77.3322 39.5838 77.3322 40.4803 77.3439C42.1951 77.3635 43.9098 77.4144 45.6245 77.3987C47.257 77.3831 48.8934 77.2382 50.5259 77.2617C53.8809 77.3126 57.2321 77.4653 60.5871 77.524C64.8387 77.5984 69.0863 77.6219 73.3378 77.6688C74.6806 77.6845 76.0234 77.7354 77.3662 77.6924C79.7112 77.618 82.0523 77.5827 84.3582 77.0112C86.1943 76.5531 88.0773 76.283 89.9173 75.8289C90.9195 75.5822 91.863 75.1046 92.8456 74.764C95.9462 73.6875 99.082 72.74 102.394 72.6343C104.355 72.5717 106.234 73.0337 108.055 73.7344C108.227 73.801 108.388 73.9223 108.564 73.9615C111.238 74.5683 112.796 76.4552 114.045 78.7063C115.309 80.9887 115.356 83.4785 114.902 85.8979C114.381 88.6501 112.886 90.9363 110.842 92.9329C108.196 95.5128 104.974 96.8321 101.497 97.6464C99.035 98.2219 96.5413 98.7191 94.0357 99.0479C92.1488 99.2985 90.3049 99.7839 88.4257 99.9914C84.5069 100.426 80.5882 101.029 76.6146 100.489C75.0643 100.277 73.4905 100.262 71.9363 100.101C70.5309 99.9562 69.1372 99.7174 67.7317 99.5491C66.5847 99.412 65.4337 99.2907 64.2827 99.2124C60.8964 98.9775 57.51 98.7191 54.1197 98.5586C51.6964 98.4451 49.2888 98.5664 46.8772 99.0088C44.5205 99.4394 42.2538 100.148 39.9597 100.79C38.1314 101.303 36.3149 101.847 34.4788 102.329C33.2183 102.657 31.9381 102.908 30.6619 103.182C29.7145 103.386 28.7749 103.636 27.8157 103.75C26.8566 103.863 25.874 103.914 24.9109 103.851C20.2522 103.534 16.0829 102.121 12.9392 98.4255C11.5886 96.8361 11.0523 94.9569 10.9192 92.9643C10.837 91.6763 10.9779 90.3609 11.1423 89.0729C11.2284 88.3917 11.4868 87.6909 11.8274 87.088C13.5813 84.0149 16.0594 81.7521 19.3557 80.3584C21.18 79.5871 23.0044 78.8629 24.8952 78.2796C27.3146 77.5319 29.8123 77.4731 32.3061 77.34C32.862 77.3087 33.4257 77.3361 33.9856 77.3361V77.3283L33.9934 77.3322ZM27.0484 91.6684C26.4729 90.9951 25.9288 90.3843 25.412 89.754C23.9322 87.9375 22.6442 85.9488 20.6163 84.6413C20.1935 84.3672 19.8764 83.7252 19.4692 83.6899C18.9916 83.6469 18.4357 84.0188 17.9777 84.3124C15.7423 85.7452 13.7222 87.3856 13.1272 90.1651C12.9745 90.8815 12.9627 91.6371 12.9627 92.3731C12.9549 95.278 14.2311 97.5721 16.5487 99.2202C18.7763 100.806 21.2701 101.542 24.0379 100.864C24.3981 100.778 24.7739 100.763 25.1458 100.72C26.3633 100.575 27.5808 100.43 28.7984 100.289C29.2251 100.242 29.6518 100.207 30.0785 100.168C29.1233 101.217 27.7218 100.665 26.6491 101.311C26.9271 101.487 27.205 101.612 27.4634 101.585C28.4969 101.471 29.5344 101.373 30.5483 101.158C32.079 100.833 33.5784 100.367 35.1091 100.062C36.1388 99.8544 36.8552 98.8405 38.0022 99.0166C39.4821 98.1436 41.1928 98.1005 42.8019 97.7208C44.681 97.2784 46.6267 97.1375 48.5293 96.793C50.937 96.3545 53.3603 96.3976 55.7875 96.4132C56.9032 96.4211 58.0268 96.4524 59.1386 96.5659C61.2879 96.7812 63.4254 97.1023 65.5746 97.3098C68.2837 97.5681 71.0163 97.6034 73.6902 98.1789C73.9446 98.2337 74.2108 98.2337 74.4692 98.2376C78.8656 98.3041 83.2581 98.539 87.6428 97.8265C89.8038 97.4742 92 97.3411 94.1649 96.9261C96.2907 96.519 98.4361 96.2019 100.472 95.4659C102.359 94.7808 104.246 94.0409 106.027 93.117C108.329 91.9229 109.95 89.9302 111.426 87.8553C112.263 86.677 112.651 85.2989 112.526 83.8308C112.436 82.7543 112.408 81.6542 112.154 80.6168C111.946 79.7711 111.606 78.8394 111.026 78.2248C109.296 76.3809 107.115 75.2573 104.59 74.9011C103.561 74.7562 103.169 75.0224 102.789 75.9855C101.94 78.1308 101.325 80.3466 100.816 82.5938C100.777 82.766 100.711 82.9696 100.585 83.0792C99.8219 83.733 98.3773 83.5294 97.7901 82.7269C97.1755 81.8852 96.5178 81.0748 95.9227 80.2214C94.987 78.8825 93.5738 78.1856 92.2192 77.4066C92.1135 77.3439 91.9374 77.3987 91.8473 77.3987C91.6007 78.213 91.3932 78.9803 91.1348 79.732C90.5554 81.4271 90.2501 83.181 89.9134 84.9349C89.471 87.2368 88.9425 89.5231 88.4257 91.8133C88.3396 92.2048 88.2104 92.6197 87.9833 92.9408C87.3413 93.8451 86.5075 93.7903 85.975 92.8272C85.5796 92.1108 85.3017 91.32 84.8436 90.6466C83.3599 88.4622 81.8253 86.3129 80.2985 84.1558C80.138 83.9288 79.9148 83.7448 79.6564 83.4746C79.5507 83.7056 79.4607 83.827 79.4411 83.9601C79.2923 84.9153 79.1906 85.8823 79.0066 86.8297C78.8735 87.5187 78.6895 88.2116 78.4272 88.8654C78.067 89.7697 77.2566 89.8754 76.5715 89.1551C76.3405 88.9124 76.1096 88.6579 75.9373 88.3721C74.5945 86.1407 72.5783 84.4846 70.9263 82.5194C70.8636 82.445 70.7344 82.4293 70.5152 82.3315C70.3743 82.766 70.2451 83.1771 70.1159 83.5881C69.5678 85.2872 69.055 86.998 68.4638 88.6814C68.1819 89.4839 67.2502 89.6053 66.6747 88.9711C66.526 88.8106 66.4242 88.6031 66.3146 88.4113C64.9835 86.0741 63.1357 84.1401 61.4719 82.0927C61.3701 82.1357 61.3074 82.1396 61.3035 82.1631C60.6693 84.4885 60.0155 86.8101 59.4322 89.1473C59.3109 89.6288 59.1817 90.0868 58.7158 90.1534C58.3243 90.2082 57.8663 90.032 57.4904 89.8519C57.2399 89.7345 57.0833 89.4252 56.8758 89.2099C56.5704 88.8889 56.2612 88.5718 55.948 88.2547C54.5386 86.8218 53.004 85.5142 51.7982 83.8817C51.2932 83.1966 50.6825 82.582 50.0913 81.9634C49.9191 81.7834 49.6411 81.6973 49.234 81.4663C49.0108 82.7621 48.7799 83.8426 48.6428 84.9349C48.4667 86.3012 48.4197 87.687 48.2161 89.0455C48.0047 90.4392 48.3257 91.872 47.8285 93.2422C47.7542 93.4419 47.9029 93.7355 47.9812 93.9743C48.1887 94.6085 47.9147 95.5128 47.394 95.8495C46.936 96.1471 46.3526 96.0648 45.7654 95.5559C45.4914 95.3171 45.2526 95.0196 45.0451 94.7142C43.9137 93.0426 42.6218 91.4962 41.1302 90.1495C38.6678 87.9258 36.1583 85.7609 33.919 83.3024C33.504 82.8443 33.0108 82.4567 32.4901 81.9791C30.1451 84.7508 29.7536 88.2508 28.3129 91.2887C27.9332 91.4061 27.5456 91.5275 27.0484 91.6841V91.6684ZM46.9477 79.4814C46.1804 79.3992 45.3661 79.1996 44.5714 79.2466C41.9758 79.4031 39.3842 79.6419 36.7925 79.869C36.3502 79.9082 35.9156 80.0374 35.4732 80.0922C35.023 80.147 34.5689 80.1548 33.9464 80.1979C36.7456 84.0462 40.5508 86.5752 43.6279 89.8285C44.2034 90.4353 44.8611 90.9637 45.5227 91.5666C46.3761 89.2999 47.3392 81.0787 46.9438 79.4814H46.9477ZM88.9268 78.5497C88.8759 78.4401 88.8251 78.3344 88.7742 78.2248C87.5645 78.722 86.2765 78.6397 85.0276 78.996C83.8062 79.3444 82.5104 79.4188 81.2302 79.6145C82.0602 82.5507 85.0198 87.4169 86.5779 88.4622C86.7619 87.8906 86.9733 87.3386 87.1103 86.7709C87.2552 86.1641 87.3022 85.5299 87.4392 84.9192C87.8698 83.0009 88.32 81.0904 88.7663 79.1761C88.8133 78.9647 88.8759 78.7572 88.9268 78.5497ZM21.5245 82.5233C23.435 84.516 25.1184 86.2737 26.8997 88.1333C27.8197 86.8923 28.3756 85.6552 28.8845 84.3946C29.3817 83.1614 30.059 81.983 30.2547 80.511C29.5892 80.7068 29.1037 80.9064 28.6026 80.9847C27.3577 81.1766 26.0893 81.2431 24.8561 81.4976C23.8187 81.7129 22.8204 82.1162 21.5245 82.5272V82.5233ZM57.604 86.9197C58.5944 85.3811 58.4378 83.7056 58.9037 82.1905C59.0446 81.7325 59.119 81.251 59.2169 80.7773C59.3148 80.2958 59.1738 80.0452 58.6375 79.9238C57.6157 79.685 56.6018 79.591 55.5487 79.6263C54.3625 79.6654 53.1684 79.5754 51.9783 79.5558C51.7865 79.5558 51.5907 79.6381 51.2854 79.7085C53.2859 82.2845 55.118 84.8252 57.604 86.9197ZM63.1709 80.1548C64.3963 81.9869 65.4689 83.8465 67.1523 85.6317C67.5751 83.4903 68.5499 81.7403 68.5225 79.7829C66.6865 79.9121 65.0031 80.0256 63.167 80.1548H63.1709ZM72.7349 79.7359C72.684 79.826 72.6371 79.916 72.5862 80.0099C73.8507 81.7951 74.9742 83.6782 76.4893 85.3381C76.5793 83.4472 77.3349 81.6542 77.0961 79.7359H72.7349ZM100.632 75.1399C98.7023 75.5979 97.015 76.0011 95.128 76.4513C96.3416 77.7589 97.4025 78.902 98.5809 80.1744C99.5205 78.5419 100.116 77.0073 100.628 75.1399H100.632Z" fill="black"/>
<path d="M56.5435 60.0795C56.7235 57.9615 56.8292 55.8357 57.1033 53.7295C57.6005 49.9321 58.8611 46.3578 60.4427 42.8814C61.2687 41.0649 62.3296 39.4168 63.782 38.0387C65.5202 36.3906 67.5364 35.2514 69.9245 34.8286C70.2886 34.7659 70.6644 34.6876 70.9971 34.535C73.4518 33.427 76.0199 33.1608 78.6507 33.5327C80.5651 33.8029 82.4912 34.0652 84.3586 34.535C86.6801 35.1183 88.8529 36.1126 90.8377 37.4828C92.3371 38.5203 93.9422 39.4168 95.3829 40.5286C97.4773 42.1376 99.6031 43.7505 101.467 45.6101C103.06 47.1956 104.411 49.0435 105.327 51.1731C106.008 52.7469 106.18 54.4107 106.403 56.055C106.693 58.1729 106.591 60.3065 105.765 62.3305C105.573 62.8003 105.334 63.2779 105.006 63.6577C103.588 65.2941 102.042 66.6799 99.6501 66.6212C97.677 66.5703 95.7 66.7425 93.7582 66.2062C93.2649 66.0692 92.7247 66.1084 92.204 66.0849C91.7577 66.0653 91.2997 66.1279 90.8651 66.0536C88.8959 65.7091 86.9228 65.9126 84.9654 66.0927C83.4777 66.2258 82.0684 66.766 80.8 67.5842C79.7665 68.2498 78.8112 69.0524 77.7346 69.6278C75.879 70.6183 74.1095 71.8358 71.9719 72.2077C71.8271 72.2312 71.694 72.3095 71.557 72.3721C69.764 73.1512 67.9122 73.159 66.0762 72.6423C64.6159 72.2312 63.187 71.7027 61.7581 71.182C60.3409 70.6692 59.3152 69.6513 58.4696 68.4455C56.9193 66.2336 56.7235 63.6694 56.5865 61.0973C56.5669 60.7646 56.5865 60.4279 56.5865 60.0912C56.5709 60.0912 56.5591 60.0912 56.5435 60.0873V60.0795ZM68.8596 70.2385C71.2203 70.4695 73.4087 69.8392 75.4366 68.6217C76.8381 67.78 78.2397 66.9422 79.5903 66.0222C81.767 64.5424 84.0924 63.5872 86.7702 63.6459C86.9933 63.6498 87.2164 63.6067 87.4396 63.6146C89.3657 63.7085 91.3114 63.4854 93.2023 64.0922C93.6838 64.2488 94.2358 64.2057 94.7565 64.2253C95.3515 64.2449 95.9584 64.1666 96.5456 64.241C98.3856 64.4759 99.9711 63.9043 101.51 62.9412C102.618 62.2483 103.361 61.3283 103.741 60.1265C103.996 59.32 104.191 58.4665 104.238 57.6248C104.36 55.6087 104.375 53.573 103.279 51.7643C102.551 50.5585 101.819 49.3214 100.891 48.2761C99.5091 46.718 97.9784 45.293 96.4634 43.8562C94.8309 42.3099 92.8343 41.2607 90.9825 40.0158C88.4575 38.3167 85.627 37.4828 82.7183 36.8016C81.2071 36.4493 79.6725 36.4532 78.1574 36.5433C76.0082 36.6764 73.8511 36.88 71.7253 37.2205C70.7231 37.3811 69.7522 37.8665 68.8283 38.3245C66.9962 39.2289 65.9509 40.8653 65.117 42.6426C64.659 43.6135 64.2792 44.6235 63.8486 45.6101C62.8229 47.959 62.0204 50.3941 60.9947 52.7508C59.7732 55.5538 59.1938 58.5722 59.3661 61.6846C59.5227 64.5346 60.7441 66.8287 62.9678 68.5786C64.6785 69.9254 66.6516 70.4969 68.8635 70.2385H68.8596Z" fill="black"/>
<path d="M51.9666 58.2081C52.0136 60.0559 51.8688 61.8685 51.0388 63.5558C49.7038 66.2649 47.6525 68.1206 44.7006 68.9662C42.7863 69.5143 40.8484 69.8 38.8636 69.8353C38.2763 69.847 37.6891 70.0114 37.1019 70.0976C36.6282 70.168 36.1506 70.2307 35.673 70.2894C35.5242 70.3051 35.3598 70.2503 35.2267 70.3012C33.1165 71.0802 30.795 71.1976 28.8689 72.5913C27.3969 73.6562 25.7605 74.5096 24.128 75.32C22.9692 75.8955 21.7204 76.3418 20.4637 76.655C18.5532 77.1365 16.7759 76.5532 15.0964 75.6371C14.7362 75.4414 14.3956 75.2143 14.0472 74.9951C12.9628 74.3021 12.0976 73.4487 11.5495 72.2312C10.6139 70.1484 10.0149 68.007 10.3085 65.7286C10.4769 64.4093 10.7705 63.0704 11.2324 61.8255C12.4891 58.4391 14.3408 55.3933 16.8503 52.7664C18.3927 51.1496 19.8686 49.4701 21.4463 47.8846C23.0945 46.2286 25.1185 45.109 27.2129 44.1028C29.9572 42.7796 32.8817 41.981 35.8491 41.4721C39.4234 40.8574 42.8332 41.4838 45.8007 43.7349C47.3275 44.8937 48.2279 46.5457 49.0696 48.2134C50.2519 50.5506 51.1915 52.9857 51.7513 55.546C51.9392 56.4112 51.904 57.3234 51.9705 58.212L51.9666 58.2081ZM13.7458 65.9596C13.8789 66.9579 13.9024 67.9836 14.1764 68.9427C14.4387 69.8549 14.9555 70.6965 15.3626 71.5656C16.7485 72.2899 18.0952 73.2255 19.7551 72.9593C21.8143 72.6305 23.8344 72.1294 25.7057 71.1507C26.4574 70.7592 27.2521 70.4421 28.0468 70.1445C28.7436 69.8862 29.4875 69.7531 30.1726 69.479C31.4801 68.9505 32.7994 68.559 34.201 68.2732C36.3815 67.8269 38.5778 67.87 40.7584 67.6156C41.8271 67.4903 42.8685 67.459 43.9059 67.0362C46.4388 66.0105 48.0831 64.1156 49.3515 61.8059C49.4729 61.5866 49.5003 61.3087 49.5238 61.0503C49.7352 58.9989 49.5825 56.9671 49.238 54.9392C48.776 52.2223 47.9656 49.6541 46.2392 47.4462C44.869 45.6923 43.0877 44.4239 41.052 43.6918C38.707 42.8501 36.2602 43.175 33.8956 43.8719C30.8107 44.7801 28.1682 46.5575 25.5139 48.2722C22.7656 50.0495 20.5811 52.4572 18.6394 55.088C17.0852 57.1942 15.7619 59.4374 14.7519 61.845C14.2077 63.1448 13.6831 64.4837 13.7497 65.9596H13.7458Z" fill="black"/>
<path d="M115.662 58.2629C115.677 57.7187 116.151 57.155 116.57 57.1784C116.93 57.198 117.537 57.9223 117.502 58.2903C117.466 58.6387 116.773 59.1985 116.362 59.2064C115.943 59.2181 115.642 58.811 115.662 58.2629Z" fill="black"/>
<path d="M117.243 55.362C116.77 55.82 116.394 56.3016 115.771 56.0393C115.399 55.8827 115.133 55.5304 115.251 55.041C115.345 54.6456 115.548 54.3872 115.983 54.3206C116.84 54.1875 116.836 54.9392 117.243 55.3581V55.362Z" fill="black"/>
<path d="M27.0486 91.6684C27.5458 91.5118 27.9334 91.3904 28.3131 91.273C29.7577 88.239 30.1453 84.7351 32.4903 81.9634C33.011 82.441 33.5003 82.8286 33.9192 83.2866C36.1585 85.7452 38.668 87.9141 41.1304 90.1338C42.6259 91.4805 43.9178 93.0229 45.0453 94.6985C45.2488 95.0039 45.4877 95.2975 45.7656 95.5402C46.3489 96.0491 46.9362 96.1314 47.3942 95.8338C47.9149 95.4932 48.1889 94.5928 47.9814 93.9586C47.9031 93.7198 47.7583 93.4262 47.8287 93.2265C48.3259 91.8563 48.0049 90.4235 48.2163 89.0298C48.4238 87.6674 48.4708 86.2855 48.643 84.9192C48.784 83.8269 49.011 82.7425 49.2342 81.4506C49.6413 81.6816 49.9154 81.7638 50.0915 81.9478C50.6827 82.5663 51.2895 83.181 51.7984 83.8661C53.0003 85.4986 54.5349 86.81 55.9482 88.239C56.2614 88.5561 56.5706 88.8732 56.876 89.1942C57.0835 89.4095 57.2401 89.7188 57.4906 89.8363C57.8704 90.0163 58.3284 90.1925 58.716 90.1377C59.1819 90.0711 59.3111 89.6131 59.4324 89.1316C60.0157 86.7944 60.6734 84.4729 61.3037 82.1475C61.3115 82.124 61.3703 82.12 61.4721 82.077C63.1359 84.1244 64.9837 86.0584 66.3148 88.3956C66.4244 88.5874 66.5301 88.7949 66.6749 88.9554C67.2543 89.5896 68.1861 89.4683 68.464 88.6657C69.0552 86.9823 69.5719 85.2715 70.1161 83.5725C70.2492 83.1614 70.3784 82.7542 70.5154 82.3158C70.7346 82.4136 70.8638 82.4293 70.9265 82.5037C72.5785 84.4689 74.5947 86.125 75.9375 88.3564C76.1098 88.6422 76.3407 88.8967 76.5717 89.1394C77.2568 89.8597 78.0672 89.754 78.4274 88.8497C78.6857 88.1959 78.8697 87.503 79.0068 86.8139C79.1908 85.8666 79.2925 84.8996 79.4413 83.9444C79.4609 83.8152 79.5509 83.6938 79.6566 83.4589C79.915 83.733 80.1382 83.913 80.2987 84.1401C81.8255 86.2972 83.3601 88.4465 84.8438 90.6309C85.3019 91.3043 85.5798 92.0951 85.9752 92.8116C86.5076 93.7746 87.3415 93.8294 87.9835 92.9251C88.2106 92.604 88.3359 92.1891 88.4259 91.7976C88.9388 89.5074 89.4712 87.2211 89.9136 84.9192C90.2503 83.1653 90.5556 81.4114 91.135 79.7163C91.3934 78.9646 91.6009 78.1973 91.8475 77.383C91.9415 77.383 92.1137 77.3282 92.2194 77.3909C93.574 78.166 94.9872 78.8668 95.9229 80.2057C96.518 81.0591 97.1757 81.8695 97.7903 82.7112C98.3775 83.5137 99.8182 83.7173 100.586 83.0635C100.711 82.9578 100.777 82.7503 100.816 82.5781C101.325 80.3309 101.94 78.1151 102.79 75.9698C103.169 75.0067 103.561 74.7405 104.59 74.8854C107.116 75.2416 109.296 76.3652 111.026 78.2091C111.602 78.8237 111.943 79.7554 112.154 80.6011C112.412 81.6385 112.436 82.7386 112.526 83.8152C112.651 85.2872 112.264 86.6613 111.426 87.8396C109.95 89.9145 108.329 91.9072 106.027 93.1013C104.246 94.0252 102.363 94.7651 100.472 95.4502C98.4363 96.1901 96.2909 96.5072 94.1651 96.9104C92.0002 97.3254 89.804 97.4585 87.643 97.8109C83.2583 98.5234 78.8658 98.2884 74.4694 98.2219C74.2071 98.218 73.9409 98.218 73.6904 98.1632C71.0165 97.5877 68.2839 97.5564 65.5748 97.2941C63.4256 97.0866 61.2881 96.7695 59.1388 96.5502C58.027 96.4367 56.9073 96.4054 55.7877 96.3976C53.3644 96.3819 50.9372 96.3428 48.5295 96.7773C46.6269 97.1218 44.6812 97.2628 42.8021 97.7051C41.193 98.0849 39.4783 98.1279 38.0024 99.0009C36.8515 98.8287 36.1389 99.8427 35.1093 100.046C33.5786 100.352 32.0753 100.821 30.5485 101.142C29.5346 101.358 28.4932 101.456 27.4636 101.569C27.2052 101.597 26.9273 101.475 26.6493 101.295C27.722 100.649 29.1235 101.201 30.0787 100.152C29.652 100.191 29.2253 100.226 28.7986 100.273C27.581 100.414 26.3635 100.559 25.146 100.704C24.7741 100.747 24.3983 100.763 24.0381 100.849C21.2703 101.526 18.7804 100.79 16.5489 99.2045C14.2313 97.5564 12.9551 95.2623 12.9629 92.3574C12.9629 91.6214 12.9747 90.8658 13.1274 90.1494C13.7224 87.3699 15.7425 85.7296 17.9779 84.2967C18.4359 84.0031 18.9918 83.6312 19.4694 83.6743C19.8766 83.7134 20.1937 84.3515 20.6165 84.6256C22.6444 85.937 23.9324 87.9258 25.4122 89.7384C25.929 90.3726 26.4731 90.9794 27.0486 91.6527V91.6684Z" fill="#ED1C24"/>
<path d="M46.9441 79.4816C47.3356 81.0788 46.3726 89.3001 45.523 91.5668C44.8575 90.96 44.1998 90.4354 43.6282 89.8286C40.5472 86.5753 36.742 84.0463 33.9468 80.198C34.5692 80.1589 35.0234 80.1471 35.4736 80.0923C35.916 80.0375 36.3505 79.9083 36.7929 79.8691C39.3845 79.646 41.9762 79.4033 44.5717 79.2467C45.3704 79.1997 46.1807 79.3994 46.9481 79.4816H46.9441Z" fill="white"/>
<path d="M88.9232 78.5498C88.8684 78.7573 88.8097 78.9647 88.7627 79.1761C88.3164 81.0905 87.8662 83.0049 87.4355 84.9193C87.2985 85.53 87.2515 86.1603 87.1067 86.771C86.9697 87.3426 86.7583 87.8907 86.5743 88.4622C85.0162 87.417 82.0604 82.5468 81.2266 79.6146C82.5067 79.4189 83.8025 79.3445 85.024 78.9961C86.2767 78.6398 87.5608 78.726 88.7705 78.2249C88.8214 78.3345 88.8723 78.4402 88.9232 78.5498Z" fill="white"/>
<path d="M21.521 82.5232C22.8168 82.1122 23.8151 81.709 24.8526 81.4936C26.0818 81.2392 27.3542 81.1726 28.5991 80.9808C29.1041 80.9025 29.5856 80.7028 30.2512 80.5071C30.0554 81.983 29.3821 83.1575 28.881 84.3906C28.372 85.6512 27.82 86.8883 26.8961 88.1293C25.1109 86.2698 23.4275 84.512 21.521 82.5193V82.5232Z" fill="white"/>
<path d="M57.6003 86.9198C55.1144 84.8292 53.2783 82.2846 51.2817 79.7086C51.5871 79.6381 51.7828 79.552 51.9747 79.5559C53.1648 79.5716 54.3549 79.6655 55.545 79.6264C56.5942 79.5911 57.6121 79.6851 58.6339 79.9239C59.1702 80.0492 59.315 80.2997 59.2133 80.7774C59.1154 81.2511 59.041 81.7287 58.9001 82.1906C58.4342 83.7018 58.5908 85.3812 57.6003 86.9198Z" fill="white"/>
<path d="M63.167 80.1549C65.0031 80.0296 66.6825 79.9121 68.5225 79.783C68.5499 81.7404 67.5712 83.4864 67.1523 85.6318C65.4689 83.8466 64.3923 81.987 63.1709 80.1549H63.167Z" fill="white"/>
<path d="M72.7313 79.7319H77.0924C77.3313 81.6502 76.5757 83.4433 76.4856 85.3341C74.9667 83.6742 73.8431 81.7911 72.5825 80.006C72.6334 79.9159 72.6804 79.8259 72.7313 79.7319Z" fill="white"/>
<path d="M100.629 75.1399C100.116 77.0034 99.517 78.5419 98.5813 80.1744C97.403 78.9021 96.342 77.7589 95.1284 76.4514C97.0115 76.0012 98.7027 75.5979 100.633 75.1399H100.629Z" fill="white"/>
<path d="M68.8593 70.2346C66.6474 70.493 64.6782 69.9214 62.9635 68.5747C60.7398 66.8248 59.5184 64.5307 59.3618 61.6806C59.1896 58.5683 59.769 55.5539 60.9904 52.7469C62.0161 50.3902 62.8186 47.9551 63.8443 45.6062C64.275 44.6196 64.6547 43.6135 65.1127 42.6387C65.9505 40.8614 66.9919 39.2249 68.824 38.3206C69.7519 37.8626 70.7227 37.3771 71.721 37.2166C73.8468 36.876 76.0039 36.6725 78.1532 36.5394C79.6721 36.4454 81.2068 36.4415 82.714 36.7977C85.6227 37.4789 88.4532 38.3128 90.9783 40.0118C92.83 41.2607 94.8266 42.3059 96.4591 43.8523C97.9742 45.2852 99.5049 46.7141 100.887 48.2722C101.815 49.3175 102.547 50.5546 103.275 51.7604C104.371 53.569 104.355 55.6048 104.234 57.6209C104.183 58.4626 103.991 59.3161 103.737 60.1225C103.357 61.3244 102.609 62.2444 101.505 62.9373C99.9668 63.9043 98.3813 64.4719 96.5413 64.2371C95.9541 64.1627 95.3473 64.241 94.7522 64.2214C94.2315 64.2057 93.6835 64.2449 93.198 64.0883C91.3071 63.4815 89.3614 63.7046 87.4353 63.6107C87.2122 63.5989 86.989 63.6459 86.7659 63.642C84.0881 63.5794 81.7627 64.5385 79.586 66.0183C78.2354 66.9383 76.8339 67.7761 75.4323 68.6178C73.4005 69.8353 71.2121 70.4695 68.8554 70.2346H68.8593ZM71.5762 61.0151C73.009 61.0386 73.6667 60.2673 73.4084 58.8658C73.1813 57.6405 72.3748 56.8575 71.3335 56.2977C71.1103 56.1763 70.7306 56.2155 70.4722 56.3134C69.9594 56.513 69.4739 56.7949 68.9885 57.0689C68.8358 57.155 68.6792 57.2921 68.6009 57.4448C68.319 57.9968 68.5852 59.5235 69.102 59.9463C69.8145 60.5296 70.5427 61.1482 71.5762 61.0151Z" fill="white"/>
<path d="M13.746 65.9595C13.6794 64.4836 14.204 63.1447 14.7482 61.845C15.7582 59.4373 17.0814 57.1941 18.6356 55.0879C20.5774 52.461 22.758 50.0495 25.5101 48.2721C28.1605 46.5574 30.807 44.7801 33.8919 43.8718C36.2604 43.175 38.7032 42.85 41.0483 43.6917C43.084 44.4238 44.8692 45.6922 46.2355 47.4461C47.9619 49.6541 48.7723 52.2222 49.2342 54.9392C49.5788 56.9671 49.7314 58.9989 49.52 61.0503C49.4926 61.3047 49.4652 61.5866 49.3478 61.8058C48.0794 64.1156 46.4351 66.0104 43.9022 67.0361C42.8647 67.455 41.8234 67.4902 40.7546 67.6155C38.5741 67.87 36.3778 67.8269 34.1972 68.2732C32.7957 68.559 31.4764 68.9505 30.1688 69.479C29.4837 69.7569 28.7399 69.8861 28.0431 70.1445C27.2483 70.442 26.4536 70.7552 25.702 71.1506C23.8267 72.1293 21.8067 72.6304 19.7514 72.9593C18.0915 73.2255 16.7408 72.2898 15.3589 71.5656C14.9517 70.6926 14.4311 69.8548 14.1727 68.9426C13.8986 67.9874 13.8752 66.9578 13.742 65.9595H13.746ZM43.863 58.0984C42.8804 57.9888 42.07 58.4116 41.2597 58.7679C40.739 58.9988 40.5589 59.5078 40.5824 60.0794C40.6254 61.2108 41.9174 62.6828 43.0409 62.8119C44.693 62.9999 45.6717 62.4518 46.6074 61.0385C46.9675 60.4943 46.9245 59.9423 46.5056 59.3864C45.8205 58.4743 44.9396 58.0475 43.8591 58.0984H43.863Z" fill="white"/>
<path d="M71.5724 61.015C70.5388 61.152 69.8107 60.5295 69.0982 59.9462C68.5814 59.5234 68.3191 57.9966 68.5971 57.4446C68.6754 57.292 68.832 57.1549 68.9846 57.0688C69.4701 56.7987 69.9516 56.5129 70.4684 56.3132C70.7228 56.2154 71.1026 56.1762 71.3296 56.2976C72.371 56.8574 73.1775 57.6403 73.4045 58.8657C73.6668 60.2672 73.0052 61.0385 71.5724 61.015Z" fill="black"/>
<path d="M43.8632 58.0984C44.9437 58.0475 45.8246 58.4742 46.5097 59.3864C46.9286 59.9462 46.9716 60.4943 46.6115 61.0385C45.6758 62.4517 44.6932 62.9998 43.045 62.8119C41.9175 62.6827 40.6295 61.2107 40.5865 60.0793C40.563 59.5078 40.7431 58.9988 41.2638 58.7678C42.0741 58.4077 42.8845 57.9849 43.8671 58.0984H43.8632Z" fill="black"/>
<path d="M116.362 61.8762C116.774 61.8644 117.466 61.3046 117.502 60.9601C117.537 60.5921 116.93 59.8678 116.57 59.8482C116.147 59.8248 115.677 60.3885 115.662 60.9327C115.646 61.4808 115.948 61.8879 116.362 61.8762Z" fill="#FFC34F"/>
<path d="M56.5865 62.7532C56.5865 63.0899 56.5709 63.4265 56.5865 63.7593C56.7235 66.3353 56.9193 68.8995 58.4696 71.1075C59.3152 72.3133 60.3409 73.3312 61.7581 73.844C63.187 74.3608 64.6159 74.8932 66.0762 75.3043C67.9161 75.8211 69.764 75.8171 71.557 75.0341C71.694 74.9754 71.8271 74.8971 71.9719 74.8697C74.1095 74.4939 75.879 73.2803 77.7346 72.2898C78.8112 71.7143 79.7665 70.9118 80.8 70.2463C82.0684 69.4281 83.4777 68.8917 84.9654 68.7547C86.9228 68.5785 88.892 68.3749 90.8651 68.7155C91.2997 68.7899 91.7577 68.7273 92.204 68.7469C92.7247 68.7704 93.2688 68.7312 93.7582 68.8682C95.7 69.4046 97.677 69.2323 99.6501 69.2832C102.042 69.3419 103.588 67.9561 105.006 66.3196C105.334 65.9399 105.573 65.4623 105.765 64.9925C106.501 63.1877 106.658 61.293 106.482 59.4021C106.38 60.3926 106.157 61.3713 105.765 62.3265C105.573 62.7963 105.334 63.2739 105.006 63.6536C103.588 65.2901 102.042 66.6759 99.6501 66.6172C97.677 66.5663 95.7 66.7386 93.7582 66.2022C93.2649 66.0652 92.7247 66.1043 92.204 66.0808C91.7577 66.0613 91.2997 66.1239 90.8651 66.0495C88.8959 65.705 86.9228 65.9086 84.9654 66.0887C83.4777 66.2218 82.0684 66.762 80.8 67.5802C79.7665 68.2457 78.8112 69.0483 77.7346 69.6238C75.879 70.6143 74.1095 71.8318 71.9719 72.2037C71.8271 72.2272 71.694 72.3055 71.557 72.3681C69.764 73.1472 67.9122 73.155 66.0762 72.6382C64.6159 72.2272 63.187 71.6987 61.7581 71.178C60.3409 70.6652 59.3152 69.6473 58.4696 68.4415C57.0485 66.4136 56.7666 64.0843 56.6257 61.7236C56.5983 62.0642 56.5748 62.4048 56.5435 62.7454H56.5865V62.7532Z" fill="#FFC34F"/>
<path d="M85.8266 24.9785C86.6292 25.2761 87.4004 25.6558 88.1912 25.9768C88.5592 26.1256 88.9194 26.2822 89.2795 26.4427C90.0625 26.4897 90.8455 26.6267 91.6284 26.6541C94.1535 26.7402 96.5612 27.4018 98.8788 28.2905C101.087 29.1361 102.938 30.6198 104.661 32.2445C105.53 33.0627 106.403 33.8731 107.304 34.6522C108.615 35.7914 109.578 37.2047 110.518 38.6336C112.154 41.1235 113.736 43.6525 115.4 46.1227C116.664 47.998 117.506 50.0572 118.261 52.1673C119.052 54.3753 119.933 56.5598 120.63 58.7952C121.28 60.8857 121.757 63.031 121.941 65.2312C122.247 68.8524 122.689 72.4659 122.893 76.0949C122.932 75.2572 122.947 74.4233 122.904 73.5895C122.709 69.9095 122.254 66.2413 121.941 62.5652C121.753 60.365 121.28 58.2197 120.63 56.1291C119.933 53.8898 119.052 51.7093 118.261 49.5013C117.506 47.3912 116.664 45.3358 115.4 43.4567C113.736 40.9825 112.154 38.4574 110.518 35.9675C109.578 34.5347 108.615 33.1254 107.304 31.9862C106.403 31.2032 105.526 30.3928 104.661 29.5785C102.938 27.9538 101.087 26.4701 98.8788 25.6245C96.5612 24.7358 94.1535 24.0742 91.6284 23.9881C90.7359 23.9567 89.8472 23.7767 88.9507 23.7571C87.1616 23.7219 85.3725 23.7493 83.5834 23.761C83.4581 23.761 83.3289 23.8628 82.9688 24.0194C83.4464 24.2269 83.7243 24.3717 84.0179 24.4657C84.6169 24.6497 85.2394 24.7632 85.8266 24.9785Z" fill="#FFC34F"/>
<path d="M110.843 92.9368C108.196 95.5167 104.974 96.836 101.498 97.6503C99.0355 98.2258 96.5418 98.723 94.0362 99.0518C92.1493 99.3024 90.3054 99.7878 88.4262 99.9953C84.5074 100.43 80.5887 101.033 76.6151 100.493C75.0648 100.281 73.491 100.265 71.9368 100.105C70.5314 99.9601 69.1377 99.7213 67.7322 99.5529C66.5852 99.4159 65.4342 99.2946 64.2832 99.2163C60.8969 98.9814 57.5105 98.723 54.1202 98.5625C51.6969 98.4489 49.2893 98.5703 46.8777 99.0127C44.521 99.4433 42.2543 100.152 39.9602 100.794C38.1319 101.307 36.3154 101.851 34.4793 102.332C33.2188 102.661 31.9386 102.912 30.6623 103.186C29.715 103.39 28.7754 103.64 27.8162 103.754C26.8571 103.867 25.8745 103.918 24.9114 103.855C20.2527 103.538 16.0834 102.125 12.9397 98.4294C11.6948 96.9613 11.1428 95.2466 10.9627 93.4222C10.9001 94.1622 10.8727 94.9021 10.9197 95.6342C11.0489 97.6268 11.5891 99.506 12.9397 101.095C16.0834 104.791 20.2527 106.204 24.9114 106.521C25.8745 106.588 26.8571 106.533 27.8162 106.42C28.7754 106.306 29.715 106.056 30.6623 105.852C31.9347 105.578 33.2188 105.327 34.4793 104.999C36.3154 104.517 38.1319 103.969 39.9602 103.46C42.2543 102.818 44.521 102.109 46.8777 101.679C49.2893 101.236 51.6969 101.115 54.1202 101.229C57.5105 101.389 60.8969 101.643 64.2832 101.882C65.4342 101.961 66.5852 102.082 67.7322 102.219C69.1338 102.387 70.5314 102.626 71.9368 102.771C73.4949 102.931 75.0687 102.947 76.6151 103.159C80.5847 103.703 84.5074 103.096 88.4262 102.661C90.3054 102.454 92.1493 101.965 94.0362 101.718C96.5418 101.385 99.0355 100.892 101.498 100.316C104.974 99.502 108.2 98.1867 110.843 95.6029C112.886 93.6102 114.382 91.32 114.902 88.5678C115.149 87.2681 115.247 85.9449 115.09 84.6451C115.043 85.064 114.985 85.4829 114.902 85.8979C114.382 88.65 112.886 90.9363 110.843 92.9329V92.9368Z" fill="#FFC34F"/>
<path d="M11.5457 74.897C12.0938 76.1184 12.9551 76.9719 14.0434 77.6609C14.3879 77.8801 14.7324 78.1072 15.0926 78.3029C16.7721 79.219 18.5494 79.8023 20.4599 79.3208C21.7165 79.0037 22.9654 78.5574 24.1242 77.9858C25.7567 77.1755 27.397 76.322 28.8651 75.2572C30.7951 73.8635 33.1127 73.746 35.2228 72.967C35.3559 72.92 35.5204 72.9748 35.6691 72.9552C36.1467 72.8965 36.6244 72.8338 37.0981 72.7634C37.6853 72.6772 38.2725 72.5089 38.8597 72.5011C40.8485 72.4659 42.7824 72.1801 44.6968 71.632C47.6486 70.7864 49.7 68.9307 51.035 66.2216C51.8689 64.5304 52.0098 62.7217 51.9628 60.8739C51.9432 60.6077 51.9315 60.3415 51.9197 60.0753C51.8258 61.2733 51.5831 62.4399 51.0311 63.5556C49.6961 66.2647 47.6447 68.1204 44.6929 68.966C42.7785 69.514 40.8407 69.7998 38.8558 69.8351C38.2686 69.8468 37.6814 70.0112 37.0941 70.0974C36.6204 70.1678 36.1428 70.2305 35.6652 70.2892C35.5164 70.3049 35.352 70.2501 35.2189 70.301C33.1088 71.08 30.7873 71.1974 28.8612 72.5911C27.3892 73.656 25.7528 74.5094 24.1203 75.3198C22.9615 75.8953 21.7126 76.3416 20.4559 76.6548C18.5455 77.1363 16.7681 76.553 15.0887 75.6369C14.7285 75.4412 14.3879 75.2141 14.0395 74.9949C12.9551 74.3019 12.0899 73.4485 11.5418 72.231C10.9585 70.9351 10.5083 69.6159 10.3204 68.2535C10.3125 68.3005 10.3047 68.3474 10.3008 68.3944C10.0111 70.6729 10.6061 72.8143 11.5418 74.897H11.5457Z" fill="#FFC34F"/>
<path d="M2.46734 86.6925C2.67875 84.7312 3.0624 82.7894 3.42257 80.8515C3.64181 79.6849 3.92367 78.5222 4.25252 77.3829C4.73014 75.7387 5.21558 74.0945 5.81064 72.4933C6.7737 69.9016 7.51361 67.263 8.08518 64.5539C8.46884 62.7413 9.11088 60.9796 9.70202 59.214C10.0426 58.1922 10.5007 57.2096 10.9078 56.2114C10.9509 56.1096 10.9939 55.9921 11.0722 55.9217C12.5129 54.665 13.1902 52.8759 14.2707 51.3687C15.0497 50.2803 15.8366 49.192 16.694 48.1702C18.7297 45.743 20.7694 43.3236 22.8873 40.9668C23.6468 40.1212 24.6255 39.4635 25.5103 38.7315C27.8122 36.8288 30.2551 35.1415 32.8428 33.6421C35.1291 32.3189 37.5759 31.6886 40.1714 31.5007C40.2184 31.5007 40.2654 31.4929 40.3124 31.4889C41.2206 30.7921 42.1289 30.0953 43.0332 29.3906C43.1976 29.2653 43.3151 29.0813 43.5813 28.7877C43.229 28.6976 43.0919 28.6272 42.9588 28.635C42.031 28.6898 41.1032 28.7642 40.1754 28.8307C37.5798 29.0187 35.133 29.6528 32.8467 30.9722C30.2551 32.4716 27.8161 34.1628 25.5142 36.0615C24.6255 36.7936 23.6507 37.4513 22.8912 38.2969C20.7772 40.6497 18.7336 43.0731 16.6979 45.5003C15.8405 46.526 15.0536 47.6104 14.2746 48.6987C13.198 50.2059 12.5207 51.995 11.0761 53.2517C10.9978 53.3222 10.9548 53.4396 10.9117 53.5414C10.5046 54.5397 10.0465 55.5223 9.70593 56.5441C9.1187 58.3097 8.47275 60.0714 8.08909 61.884C7.51752 64.5892 6.77761 67.2317 5.81456 69.8234C5.2195 71.4245 4.73405 73.0727 4.25644 74.713C3.92367 75.8523 3.6418 77.015 3.42649 78.1816C3.0624 80.1234 2.67875 82.0651 2.47126 84.0225C2.26377 85.9487 2.2442 87.8944 2.17373 89.8322C2.15415 90.4234 2.16198 91.0028 2.20505 91.5704C2.25594 89.9418 2.29901 88.3094 2.47517 86.6886L2.46734 86.6925Z" fill="#FFC34F"/>
<path d="M42.9549 31.2972C43.088 31.2894 43.225 31.3598 43.5774 31.4499C43.3151 31.7435 43.1937 31.9275 43.0293 32.0527C41.2363 33.4464 39.4237 34.8167 37.6424 36.2221C36.9143 36.7976 36.2252 37.4239 35.5636 38.0738C35.1565 38.477 34.9059 38.986 35.3013 39.6124C35.8729 39.7063 36.2918 39.4127 36.6911 39.076C38.4293 37.6119 40.1362 36.1125 41.9175 34.7031C43.1428 33.7322 44.3838 32.7301 45.7658 32.0371C47.457 31.1876 49.2852 30.71 51.274 31.0975C52.0256 31.2424 52.8713 30.8627 53.6777 30.7687C54.3393 30.6904 55.0166 30.5886 55.6665 30.6669C55.8857 30.6943 56.0658 30.7413 56.2067 30.8118C56.3242 30.3537 56.4455 29.8918 56.563 29.4298C56.7822 28.5685 56.5434 28.0987 55.6665 27.9969C55.0166 27.9187 54.3354 28.0244 53.6777 28.0987C52.8713 28.1927 52.0256 28.5724 51.274 28.4276C49.2852 28.04 47.457 28.5176 45.7658 29.3672C44.7283 29.8878 43.7731 30.5808 42.8414 31.305C42.8766 31.305 42.9157 31.3011 42.951 31.2972H42.9549Z" fill="#FFC34F"/>
<path d="M54.8837 38.7627C54.7427 39.393 54.6135 40.0233 54.5157 40.6575C54.4804 40.8924 54.6214 41.2722 54.8093 41.3935C55.1538 41.6167 55.4787 41.3661 55.6118 41.0334C56.0503 39.9333 56.5123 38.8332 56.845 37.7018C57.2443 36.3473 57.4988 34.9536 57.859 33.5912C58.0312 32.9452 58.3014 32.3267 58.5206 31.6925C58.779 30.9487 59.2762 30.522 60.0865 30.4789C61.0496 30.4241 62.0126 30.3849 62.9679 30.2753C64.0405 30.1539 65.1132 30.0051 66.1742 29.8016C67.0119 29.6411 67.8262 29.3749 68.6523 29.1557C68.7619 29.1283 68.8637 29.0812 68.9733 29.0656C71.5923 28.7289 74.2075 28.3453 76.8343 28.0752C78.4708 27.9068 80.0915 28.0242 81.681 28.6232C82.7536 29.0264 83.9124 29.1987 85.0321 29.4688C87.6824 30.0991 90.0157 31.348 92.2472 32.8943C94.4199 34.3976 96.1895 36.2963 97.9355 38.2264C98.2056 38.5239 98.3622 38.9233 98.5658 39.2795C98.7302 39.5692 98.8594 39.8902 99.0551 40.1603C99.384 40.6184 99.889 40.7084 100.331 40.4383C100.805 40.1486 100.93 39.7297 100.656 39.1856C100.437 38.751 100.202 38.3243 99.9634 37.9054C99.6306 37.9602 99.2939 37.8231 99.0551 37.4904C98.8594 37.2203 98.7341 36.9032 98.5658 36.6095C98.3622 36.2533 98.2056 35.854 97.9355 35.5565C96.8276 34.3311 95.7079 33.1214 94.4865 32.0135C92.5016 30.6668 90.4111 29.5589 88.1914 28.6506C87.3967 28.3296 86.6293 27.9498 85.8268 27.6523C85.2435 27.437 84.6171 27.3235 84.0181 27.1395C83.7245 27.0495 83.4505 26.9007 82.9689 26.6932C83.2351 26.5797 83.3722 26.4935 83.4779 26.4583C82.8672 26.3252 82.2604 26.1725 81.681 25.9533C80.0915 25.3543 78.4708 25.2329 76.8343 25.4052C74.2075 25.6753 71.5923 26.059 68.9733 26.3957C68.8637 26.4113 68.758 26.4583 68.6523 26.4857C67.8262 26.7049 67.0119 26.9711 66.1742 27.1317C65.1132 27.3352 64.0405 27.4879 62.9679 27.6053C62.0126 27.711 61.0457 27.7541 60.0865 27.8089C59.2762 27.852 58.779 28.2787 58.5206 29.0225C58.3014 29.6567 58.0273 30.2753 57.859 30.9213C57.4988 32.2876 57.2443 33.6813 56.845 35.0319C56.5123 36.1672 56.0503 37.2633 55.6118 38.3634C55.4905 38.6727 55.2008 38.9036 54.8837 38.7627Z" fill="#FFC34F"/>
<path d="M115.721 58.6817C115.681 58.5564 115.658 58.4155 115.662 58.2628C115.677 57.7186 116.151 57.1549 116.57 57.1784C116.613 57.1784 116.66 57.194 116.707 57.2136C116.554 57.0413 116.351 56.9317 115.983 56.9905C115.548 57.057 115.345 57.3154 115.251 57.7108C115.137 58.1727 115.376 58.5172 115.721 58.6817Z" fill="#FFC34F"/>
<path d="M13.1273 93.0738C13.7224 90.2943 15.7424 88.654 17.9778 87.2211C18.4359 86.9275 18.9918 86.5556 19.4694 86.5987C19.8765 86.6378 20.1936 87.2759 20.6164 87.55C22.6444 88.8615 23.9323 90.8502 25.4122 92.6628C25.9289 93.297 26.4731 93.9038 27.0486 94.5772C27.5458 94.4206 27.9333 94.2992 28.3131 94.1818C29.7577 91.1478 30.1452 87.6439 32.4902 84.8722C33.0109 85.3498 33.5003 85.7374 33.9192 86.1954C36.1585 88.654 38.6679 90.8228 41.1304 93.0425C42.5358 94.311 43.7612 95.7595 44.8417 97.3215C45.8869 97.161 46.9361 97.0357 47.9814 96.8674C47.9031 96.6286 47.7582 96.335 47.8287 96.1353C48.3259 94.7651 48.0049 93.3323 48.2163 91.9386C48.4238 90.5762 48.4707 89.1942 48.643 87.828C48.7839 86.7357 49.011 85.6513 49.2341 84.3594C49.6413 84.5904 49.9153 84.6725 50.0915 84.8565C50.6826 85.4751 51.2894 86.0897 51.7984 86.7748C53.0002 88.4073 54.5349 89.7188 55.9481 91.1478C56.2613 91.4649 56.5706 91.7819 56.876 92.103C57.0834 92.3183 57.24 92.6276 57.4906 92.745C57.8703 92.9251 58.3284 93.1013 58.716 93.0465C59.1818 92.9799 59.311 92.5219 59.4324 92.0404C60.0157 89.7032 60.6734 87.3816 61.3037 85.0562C61.3115 85.0327 61.3702 85.0288 61.472 84.9858C63.1358 87.0332 64.9836 88.9672 66.3147 91.3044C66.4243 91.4962 66.53 91.7037 66.6749 91.8642C67.2543 92.4984 68.186 92.377 68.464 91.5745C69.0551 89.8911 69.5719 88.1803 70.116 86.4812C70.2492 86.0702 70.3783 85.663 70.5154 85.2246C70.7346 85.3224 70.8638 85.3381 70.9264 85.4125C72.5785 87.3777 74.5947 89.0337 75.9375 91.2652C76.1097 91.551 76.3407 91.8054 76.5717 92.0482C77.2568 92.7685 78.0671 92.6628 78.4273 91.7585C78.6857 91.1047 78.8697 90.4118 79.0067 89.7227C79.1907 88.7753 79.2925 87.8084 79.4413 86.8532C79.4608 86.724 79.5509 86.6026 79.6566 86.3677C79.915 86.6417 80.1381 86.8218 80.2986 87.0489C81.8254 89.206 83.36 91.3552 84.8438 93.5397C85.3018 94.2131 85.5798 95.0039 85.9752 95.7203C86.5076 96.6834 87.3415 96.7382 87.9835 95.8338C88.2106 95.5128 88.3358 95.0979 88.4259 94.7064C88.9387 92.4162 89.4712 90.1299 89.9135 87.828C90.2502 86.0741 90.5556 84.3202 91.135 82.6251C91.3934 81.8734 91.6008 81.1061 91.8475 80.2918C91.9414 80.2918 92.1137 80.237 92.2194 80.2996C93.5739 81.0748 94.9872 81.7756 95.9229 83.1144C96.5179 83.9679 97.1756 84.7783 97.7903 85.62C98.3775 86.4225 99.8181 86.6261 100.585 85.9723C100.711 85.8666 100.777 85.6591 100.816 85.4868C101.325 83.2397 101.94 81.0239 102.79 78.8786C103.169 77.9155 103.561 77.6493 104.59 77.7942C107.115 78.1504 109.296 79.274 111.026 81.1179C111.602 81.7325 111.943 82.6642 112.154 83.5098C112.314 84.1597 112.381 84.8331 112.436 85.5064C112.545 84.9583 112.577 84.3907 112.53 83.8074C112.44 82.7308 112.412 81.6307 112.158 80.5932C111.95 79.7476 111.61 78.8159 111.03 78.2013C109.3 76.3574 107.119 75.2338 104.594 74.8775C103.565 74.7327 103.173 74.9989 102.793 75.962C101.944 78.1073 101.329 80.3231 100.82 82.5703C100.781 82.7425 100.715 82.9461 100.589 83.0557C99.826 83.7095 98.3814 83.5059 97.7942 82.7034C97.1795 81.8617 96.5218 81.0513 95.9268 80.1979C94.9911 78.859 93.5779 78.1621 92.2233 77.3831C92.1176 77.3204 91.9414 77.3752 91.8514 77.3752C91.6048 78.1895 91.3973 78.9569 91.1389 79.7085C90.5595 81.4037 90.2541 83.1575 89.9174 84.9114C89.4751 87.2133 88.9466 89.4996 88.4298 91.7898C88.3437 92.1813 88.2145 92.5963 87.9874 92.9173C87.3454 93.8216 86.5115 93.7668 85.9791 92.8037C85.5837 92.0873 85.3057 91.2965 84.8477 90.6232C83.364 88.4387 81.8293 86.2894 80.3025 84.1323C80.142 83.9052 79.9189 83.7212 79.6605 83.4511C79.5548 83.6821 79.4647 83.8035 79.4452 83.9366C79.2964 84.8918 79.1946 85.8588 79.0106 86.8062C78.8775 87.4952 78.6935 88.1881 78.4312 88.8419C78.0711 89.7462 77.2607 89.8519 76.5756 89.1316C76.3446 88.8889 76.1136 88.6344 75.9414 88.3486C74.5986 86.1171 72.5824 84.4612 70.9303 82.4959C70.8677 82.4215 70.7385 82.4058 70.5193 82.308C70.3783 82.7425 70.2491 83.1536 70.12 83.5647C69.5719 85.2637 69.059 86.9745 68.4679 88.6579C68.186 89.4605 67.2543 89.5818 66.6788 88.9476C66.53 88.7871 66.4282 88.5796 66.3186 88.3878C64.9876 86.0506 63.1397 84.1166 61.4759 82.0692C61.3741 82.1122 61.3115 82.1162 61.3076 82.1396C60.6734 84.4651 60.0196 86.7866 59.4363 89.1238C59.3149 89.6053 59.1857 90.0634 58.7199 90.1299C58.3284 90.1847 57.8703 90.0085 57.4945 89.8285C57.244 89.711 57.0874 89.4017 56.8799 89.1864C56.5745 88.8654 56.2652 88.5483 55.952 88.2312C54.5427 86.7983 53.0081 85.4908 51.8023 83.8583C51.2973 83.1732 50.6866 82.5585 50.0954 81.94C49.9232 81.756 49.6452 81.6738 49.2381 81.4428C49.0149 82.7386 48.7839 83.8191 48.6469 84.9114C48.4707 86.2776 48.4238 87.6635 48.2202 89.022C48.0088 90.4157 48.3298 91.8485 47.8326 93.2187C47.7582 93.4184 47.907 93.712 47.9853 93.9508C48.1928 94.585 47.9187 95.4893 47.3981 95.826C46.94 96.1235 46.3567 96.0413 45.7695 95.5324C45.4954 95.2936 45.2566 94.996 45.0491 94.6907C43.9177 93.019 42.6258 91.4727 41.1343 90.126C38.6718 87.9023 36.1624 85.7374 33.9231 83.2789C33.5081 82.8208 33.0148 82.4333 32.4942 81.9557C30.1492 84.7274 29.7577 88.2272 28.317 91.2652C27.9373 91.3826 27.5497 91.504 27.0525 91.6606C26.477 90.9872 25.9328 90.3765 25.4161 89.7462C23.9363 87.9297 22.6483 85.941 20.6204 84.6334C20.1976 84.3594 19.8805 83.7173 19.4733 83.6821C18.9957 83.639 18.4398 84.011 17.9817 84.3046C15.7464 85.7374 13.7263 87.3777 13.1312 90.1573C12.9785 90.8737 12.9668 91.6293 12.9668 92.3653C12.9668 92.7842 12.9942 93.1874 13.0451 93.5828C13.0686 93.4105 13.0921 93.2422 13.1312 93.0738H13.1273Z" fill="#870B20"/>
</svg>
