<svg width="125" height="116" viewBox="0 0 125 116" fill="none" xmlns="http://www.w3.org/2000/svg">
<path d="M22.2691 46.3492C22.5417 47.2797 21.9777 47.745 21.597 48.2479C20.4596 49.7378 19.2094 51.1384 18.0955 52.6423C16.9582 54.1792 15.9336 55.796 14.8573 57.3751C14.3685 58.0848 13.8092 58.7522 13.3862 59.4995C12.4275 61.1962 11.3747 62.8646 10.6462 64.6647C9.61221 67.212 9.17043 69.9333 8.95893 72.6827C8.92603 73.1433 9.16102 73.3971 9.58872 73.4629C10.0211 73.5287 10.3078 73.7355 10.618 74.0551C11.1867 74.6426 12.0844 74.3418 12.263 73.5428C12.3429 73.1809 12.3288 72.7955 12.3241 72.4195C12.31 70.4362 12.7189 68.5515 13.5742 66.7561C14.8949 63.9785 16.1169 61.1539 17.5128 58.4138C18.5467 56.3788 19.7781 54.4424 20.9484 52.4778C21.8884 50.8987 22.8189 49.3101 23.8341 47.7826C24.8493 46.2505 25.9679 44.7888 27.0348 43.2895C28.1251 41.7621 29.1591 40.1923 30.3059 38.7118C31.1284 37.6496 32.0919 36.6909 32.9942 35.6898C35.3677 33.0578 37.2712 30.0828 39.3438 27.2252C40.5517 25.5615 42.0275 24.175 44.0578 23.564C45.4537 23.141 46.8684 22.7274 48.3018 22.4784C49.0068 22.3562 49.7917 22.5488 50.5108 22.718C52.1181 23.094 53.7114 23.5405 55.3094 23.9588C57.2692 24.4664 59.2338 24.9599 61.1937 25.4816C63.4402 26.0785 65.7056 26.6284 67.9239 27.3286C71.3596 28.4096 74.8704 28.9125 78.4564 28.9642C79.6596 28.983 80.8581 29.0253 82.0612 29.0253C84.054 29.0253 85.9152 28.4566 87.7152 27.6623C89.5012 26.8775 91.2589 26.0268 93.0402 25.2278C93.6559 24.9552 94.2857 24.6685 94.939 24.5322C98.807 23.7332 102.633 23.6674 106.289 25.4628C108.174 26.3887 110.04 27.3427 111.882 28.3438C112.902 28.8984 113.518 29.8431 114.025 30.8724C114.899 32.6536 115.708 34.4772 116.742 36.1645C117.56 37.4945 118.213 38.8575 118.547 40.3662C118.753 41.3109 118.843 42.279 119.012 43.4164C118.923 43.3083 118.96 43.3929 119.021 43.4211C120.318 43.9945 120.488 43.877 120.572 42.4858C120.774 39.2147 119.914 36.1692 118.631 33.2129C118.053 31.8782 117.099 30.7925 116.07 29.8102C114.796 28.5976 113.386 27.526 112.042 26.3793C111.45 25.8764 110.886 25.3453 110.402 24.6168C110.745 24.6591 111.088 24.6873 111.426 24.7437C111.76 24.8001 112.098 24.8424 112.413 24.9505C113.297 25.256 114.176 25.585 115.055 25.9187C116.808 26.5814 118.232 27.7563 119.534 29.0394C121.813 31.2907 122.955 34.0824 123.11 37.2877C123.162 38.3358 123.463 39.4027 123.345 40.4226C123.185 41.8654 122.744 43.2754 122.419 44.6995C122.335 45.0614 122.227 45.4186 122.137 45.7805C121.677 47.6322 121.08 49.4417 120.436 51.2418C119.628 53.493 118.89 55.7772 118.297 58.0895C117 63.156 117.085 68.3588 116.967 73.5381C116.902 76.5366 116.624 79.5305 116.455 82.529C116.408 83.3515 116.469 84.1881 116.366 85.0059C116.112 87.0174 115.929 89.0525 115.449 91.0123C115.017 92.7795 114.58 94.5749 113.706 96.2151C113.231 97.0987 112.982 98.0998 112.512 98.9881C111.407 101.098 109.856 102.884 108.216 104.586C107.286 105.549 106.322 106.508 105.26 107.316C104.287 108.059 103.192 108.66 102.097 109.22C98.5062 111.053 94.6194 111.579 90.6433 111.65C88.0771 111.697 85.5721 111.325 83.0529 110.794C77.8877 109.709 72.9246 108.054 68.0414 106.104C65.8231 105.22 63.5295 104.727 61.1279 104.741C59.7743 104.75 58.4066 104.769 57.0765 104.581C54.736 104.247 52.433 104.562 50.116 104.745C48.6167 104.863 47.1175 104.948 45.6229 105.074C44.6876 105.154 43.757 105.291 42.8264 105.38C38.0372 105.826 33.2433 106.353 28.4353 105.906C26.0525 105.685 23.6743 105.225 21.3338 104.698C19.4585 104.275 17.7665 103.359 16.1968 102.217C14.1288 100.713 12.0562 99.209 10.3642 97.2773C8.75683 95.4444 7.16357 93.5879 5.7207 91.628C5.00161 90.6505 4.51282 89.4614 4.10863 88.3052C3.18745 85.6732 2.76915 82.9191 2.46836 80.1556C2.29446 78.567 2.58586 77.0113 2.98535 75.4745C3.33315 74.1303 3.63864 72.772 4.00523 71.4372C4.79951 68.5609 6.01679 65.8726 7.65235 63.3675C9.46182 60.5946 11.4922 58.0096 13.7669 55.5939C16.3096 52.8914 18.7441 50.0809 21.2351 47.3267C21.55 46.9789 21.9307 46.6829 22.2785 46.3633L22.2691 46.3492ZM48.9551 70.8498C48.941 70.925 48.9316 71.0049 48.9175 71.0801C48.4052 71.0096 47.8647 71.019 47.3853 70.8545C45.5336 70.2059 43.6348 69.8252 41.6985 69.5056C39.2075 69.092 36.7683 69.1249 34.3243 69.7547C33.671 69.9239 32.9989 70.0085 32.3362 70.1542C31.4245 70.3516 30.4798 70.4738 29.6056 70.7887C27.3403 71.6111 25.183 72.6122 23.5004 74.4499C21.7615 76.3533 20.6429 78.6234 19.8016 80.9734C18.7159 84.0095 18.448 87.2101 19.1765 90.4061C19.6747 92.5868 20.5395 94.6031 22.02 96.3373C23.2278 97.7473 24.666 98.88 26.123 100.008C28.6092 101.93 31.3963 103.016 34.5264 103.176C36.585 103.284 38.6529 103.34 40.7162 103.326C41.5246 103.321 42.3658 103.162 43.1413 102.908C45.3174 102.203 47.4605 101.404 49.6225 100.657C51.7234 99.9328 53.6973 98.9411 55.6196 97.8366C58.0447 96.4407 60.578 95.3081 63.4167 95.1671C64.4883 95.1154 65.5928 95.2376 66.6455 95.4632C69.0284 95.9707 71.134 97.1692 73.1972 98.3912C76.1723 100.144 79.0815 102.005 82.0236 103.82C83.4947 104.727 85.0081 105.549 86.6765 106.066C88.2933 106.569 89.9477 106.86 91.6161 107.138C94.4596 107.608 96.9223 106.724 99.0796 105.056C101.66 103.063 103.512 100.407 105.091 97.5734C105.697 96.483 106.101 95.3034 106.167 94.0438C106.27 92.098 106.364 90.1476 106.416 88.2018C106.454 86.7824 106.035 85.4477 105.349 84.221C104.762 83.1776 103.972 82.2423 103.441 81.1754C102.769 79.8266 101.824 78.7644 100.649 77.8573C98.4451 76.156 96.0387 74.9011 93.2799 74.4123C92.1754 74.2149 91.0569 74.1115 89.9383 73.9987C89.4871 73.9517 89.0406 73.9658 88.6975 73.3971C89.0406 73.2514 89.3414 73.1433 89.6234 73.0023C90.0558 72.7814 90.554 72.6169 90.8783 72.2879C91.6443 71.5218 92.4198 70.7323 93.0214 69.8393C94.5442 67.5645 95.5782 65.0219 96.7296 62.5544C97.0116 61.9481 96.6403 61.3653 96.0058 61.3418C95.3902 61.3184 94.5865 62.0045 94.6993 62.6108C94.9061 63.7059 94.1494 64.2934 93.6512 65.1441C93.2799 64.6318 93.4068 64.2135 93.4914 63.7717C93.6935 62.7424 93.8721 61.7084 94.0131 60.6698C94.2199 59.1141 93.8439 57.596 93.5478 56.0968C93.1248 53.9301 92.7535 51.7211 91.5174 49.8083C90.4459 48.1445 89.2004 46.6218 87.2734 45.9215C83.7579 44.6431 80.1437 44.0368 76.4307 44.9251C74.908 45.2917 73.3288 45.6113 72.1068 46.7157C71.2139 47.5194 70.3491 48.3513 69.5078 49.2114C68.9344 49.7989 68.4362 50.4616 67.8863 51.0726C67.2236 51.8057 66.6737 51.6976 66.3166 50.8C66.0816 50.2078 65.8842 49.5874 65.5505 49.0469C64.9442 48.0646 64.3708 47.0118 63.5671 46.2035C62.4015 45.0285 60.9587 44.1872 59.3842 43.6091C58.9659 43.454 58.5758 43.2237 58.1763 43.0169C56.2024 41.997 54.2237 40.9913 51.9207 40.9725C51.5495 40.9725 51.1735 40.8926 50.8069 40.8127C47.0893 40.0043 44.0625 41.4378 41.487 43.9099C38.8315 46.4526 37.8727 49.8083 37.5766 53.3614C37.3181 56.4211 38.479 59.194 39.6211 61.9199C41.0593 65.3462 43.4985 67.9593 46.718 69.8205C47.4182 70.2247 48.1937 70.5067 48.9363 70.8451L48.9551 70.8498ZM8.78503 80.4846C8.72393 81.6783 9.57932 82.6277 10.6885 82.5431C10.8436 82.529 11.1162 82.2141 11.1021 82.0543C11.0128 80.7572 10.101 80.1603 8.78033 80.4846H8.78503ZM10.7026 87.4451C11.2384 87.4169 11.6332 86.9986 11.5909 86.5051C11.5486 86.0351 11.1679 85.6921 10.6885 85.6968C10.1856 85.6968 9.82371 86.1009 9.82371 86.6602C9.82371 87.1396 10.1997 87.478 10.6979 87.4498L10.7026 87.4451ZM115.67 48.3842C115.731 48.4453 115.788 48.5017 115.849 48.5628C116.23 48.2949 116.643 48.0599 116.972 47.7403C117.113 47.6087 117.179 47.2468 117.094 47.0776C117.005 46.8896 116.704 46.697 116.497 46.7017C116.309 46.7017 116.042 46.9319 115.966 47.1246C115.811 47.5241 115.764 47.9612 115.67 48.3842ZM113.339 50.5039C113.254 50.6402 113.034 50.847 112.996 51.082C112.916 51.5849 113.32 52.0595 113.724 52.0031C114.119 51.9514 114.303 51.6883 114.303 51.3029C114.303 50.8799 113.922 50.5039 113.334 50.4992L113.339 50.5039Z" fill="#FF9439"/>
<path d="M10.8486 91.9852C11.3844 91.957 11.7792 91.5387 11.7369 91.0452C11.6946 90.5753 11.3139 90.2322 10.8345 90.2369C10.3316 90.2369 9.96973 90.6411 9.96973 91.2003C9.96973 91.6797 10.3457 92.0181 10.8439 91.9899L10.8486 91.9852Z" fill="#FFC34F"/>
<path d="M8.93097 85.0293C8.88867 85.8283 9.26467 86.5098 9.84745 86.8529C9.83335 86.7918 9.82395 86.726 9.82395 86.6555C9.82395 86.0962 10.1858 85.6967 10.6887 85.692C10.8109 85.692 10.9284 85.7155 11.0365 85.7531C10.6793 85.0575 9.92265 84.7849 8.93567 85.0246L8.93097 85.0293Z" fill="#FFC34F"/>
<path d="M96.1612 65.8866C95.5455 65.8631 94.7418 66.5493 94.8546 67.1555C95.0614 68.2506 94.3047 68.8381 93.8065 69.6888C93.628 69.4397 93.5669 69.2141 93.5575 68.9979C93.3836 69.2846 93.2097 69.5619 93.0217 69.8392C92.4248 70.7322 91.6446 71.5218 90.8785 72.2878C90.5495 72.6168 90.0513 72.7813 89.6236 73.0022C89.3416 73.1479 89.0361 73.256 88.6978 73.397C89.0408 73.9657 89.4873 73.9516 89.9385 73.9986C91.0195 74.1067 92.1005 74.2101 93.1674 74.3934C93.1674 74.3934 93.1721 74.3887 93.1768 74.384C94.6995 72.1092 95.7335 69.5666 96.885 67.0991C97.167 66.4929 96.7957 65.9101 96.1612 65.8866Z" fill="#FFC34F"/>
<path d="M112.033 26.3745C113.372 27.5166 114.787 28.5882 116.06 29.8055C116.794 30.5057 117.489 31.2624 118.039 32.1225C118.612 32.5737 119.153 33.0672 119.675 33.5795C121.822 35.6991 122.95 38.3076 123.204 41.2826C123.256 40.9959 123.308 40.7092 123.34 40.4178C123.453 39.3933 123.157 38.3311 123.106 37.283C122.95 34.0777 121.808 31.2859 119.529 29.0347C118.232 27.7516 116.803 26.5766 115.05 25.9139C114.176 25.5802 113.297 25.2513 112.409 24.9458C112.094 24.8377 111.751 24.7907 111.422 24.739C111.083 24.6826 110.74 24.6544 110.397 24.6121C110.881 25.3358 111.445 25.8716 112.037 26.3745H112.033Z" fill="#FFC34F"/>
<path d="M99.2393 109.596C101.82 107.603 103.671 104.947 105.25 102.113C105.857 101.023 106.261 99.8434 106.327 98.5838C106.43 96.6381 106.524 94.6876 106.576 92.7418C106.595 92.065 106.505 91.4071 106.336 90.7679C106.289 91.8583 106.237 92.9486 106.181 94.039C106.115 95.2986 105.711 96.4783 105.105 97.5686C103.526 100.398 101.674 103.058 99.0936 105.051C96.9364 106.719 94.4736 107.603 91.6302 107.133C89.9617 106.856 88.3073 106.564 86.6859 106.061C85.0174 105.544 83.504 104.722 82.033 103.815C79.0908 102.005 76.1816 100.144 73.2066 98.3864C71.1386 97.1691 69.033 95.966 66.6549 95.4584C65.6021 95.2328 64.4976 95.1106 63.4261 95.1623C60.5873 95.3033 58.0541 96.436 55.6289 97.8318C53.7067 98.9363 51.7327 99.928 49.6318 100.652C47.4699 101.399 45.3267 102.198 43.1507 102.903C42.3752 103.152 41.5386 103.317 40.7255 103.321C38.6623 103.335 36.599 103.274 34.5357 103.171C31.4056 103.011 28.6186 101.925 26.1323 100.003C24.6706 98.8752 23.2372 97.7425 22.0293 96.3326C20.5488 94.603 19.684 92.5867 19.1859 90.4013C19.1248 90.124 19.0778 89.8514 19.0308 89.5741C18.8428 91.346 18.9274 93.1413 19.3363 94.9414C19.8344 97.1221 20.6992 99.1384 22.1797 100.873C23.3876 102.283 24.8257 103.415 26.2827 104.543C26.936 105.046 27.6128 105.493 28.3037 105.878C28.3413 105.878 28.3789 105.887 28.4165 105.892C33.2245 106.339 38.0231 105.812 42.8076 105.366C43.7429 105.276 44.6687 105.14 45.604 105.06C47.0986 104.933 48.6026 104.849 50.0971 104.731C50.4825 104.703 50.8632 104.665 51.2486 104.633C52.809 103.989 54.3035 103.218 55.7699 102.377C58.1951 100.981 60.7283 99.8481 63.5671 99.7071C64.6386 99.6554 65.7431 99.7776 66.7959 100.003C69.1787 100.511 71.2843 101.709 73.3475 102.931C76.3226 104.684 79.2318 106.545 82.174 108.36C83.645 109.267 85.1584 110.089 86.8269 110.606C88.3355 111.071 89.8771 111.358 91.4328 111.621C93.2939 111.556 95.1269 111.377 96.9223 111.001C97.7306 110.639 98.4967 110.164 99.2346 109.596H99.2393Z" fill="#FFC34F"/>
<path d="M47.3855 70.8543C47.8648 71.0235 48.4053 71.0094 48.9176 71.0799C48.9317 71.0047 48.9411 70.9248 48.9552 70.8496C48.2126 70.5113 47.4372 70.234 46.7369 69.8251C43.5174 67.9639 41.0735 65.3508 39.64 61.9245C38.9444 60.2655 38.2441 58.5876 37.8587 56.8392C37.8118 57.1964 37.7741 57.5489 37.7459 57.9108C37.4875 60.9704 38.6483 63.7434 39.7904 66.4693C40.2463 67.5503 40.8103 68.5467 41.4589 69.4679C41.5435 69.482 41.6234 69.4914 41.708 69.5055C43.6443 69.8251 45.5431 70.2105 47.3949 70.8543H47.3855Z" fill="#FFC34F"/>
<path d="M119.148 47.9517C119.096 47.9188 119.073 47.8624 119.148 47.9517Z" fill="#FFC34F"/>
<path d="M21.3764 51.8573C21.6913 51.5095 22.072 51.2134 22.4198 50.8938C22.6924 51.8244 22.1284 52.2897 21.7477 52.7926C20.6103 54.2825 19.3602 55.683 18.2463 57.187C18.1476 57.3186 18.0536 57.4596 17.9549 57.5912C17.8092 57.8638 17.6541 58.1364 17.5131 58.4137C16.1172 61.1537 14.8953 63.9784 13.5746 66.756C12.7192 68.5514 12.3103 70.436 12.3244 72.4194C12.3244 72.7954 12.3432 73.1808 12.2633 73.5427C12.0847 74.3417 11.187 74.6425 10.6183 74.055C10.3082 73.7354 10.0215 73.5286 9.58907 73.4628C9.35877 74.7036 9.20837 75.9584 9.11438 77.2274C9.08148 77.688 9.31647 77.9418 9.74416 78.0076C10.1766 78.0734 10.4633 78.2802 10.7734 78.5998C11.3421 79.1873 12.2398 78.8865 12.4184 78.0875C12.4983 77.7256 12.4842 77.3402 12.4795 76.9642C12.4654 74.9809 12.8743 73.0962 13.7297 71.3008C15.0504 68.5232 16.2723 65.6985 17.6682 62.9585C18.7022 60.9234 19.9336 58.9871 21.1038 57.0225C22.0438 55.4434 22.9744 53.8548 23.9896 52.3273C25.0048 50.7951 26.1233 49.3335 27.1902 47.8342C28.2806 46.3067 29.3146 44.737 30.4613 43.2565C31.2838 42.1943 32.2473 41.2355 33.1497 40.2345C35.5231 37.6025 37.4266 34.6275 39.4993 31.7699C40.7071 30.1062 42.1829 28.7197 44.2133 28.1087C45.6091 27.6857 47.0238 27.2721 48.4573 27.023C49.1623 26.9008 49.9471 27.0935 50.6662 27.2627C52.2736 27.6387 53.8669 28.0852 55.4648 28.5035C57.4247 29.0111 59.3892 29.5046 61.3491 30.0263C63.5957 30.6232 65.861 31.173 68.0794 31.8733C71.515 32.9543 75.0258 33.4572 78.6119 33.5089C79.815 33.5277 81.0135 33.57 82.2167 33.57C84.2094 33.5747 86.0706 33.0013 87.8707 32.207C89.6566 31.4221 91.4144 30.5715 93.1957 29.7725C93.8113 29.4999 94.4411 29.2132 95.0944 29.0769C98.9624 28.2779 102.788 28.2121 106.445 30.0075C108.329 30.9334 110.195 31.8874 112.038 32.8885C113.057 33.4431 113.673 34.3878 114.181 35.4171C115.055 37.1983 115.863 39.0219 116.897 40.7092C117.715 42.0392 118.368 43.4022 118.702 44.9109C118.909 45.8555 118.998 46.8237 119.167 47.9611C119.167 47.9611 119.172 47.9658 119.177 47.9658C120.474 48.5392 120.643 48.4217 120.728 47.0305C120.808 45.7286 120.714 44.4597 120.497 43.2189C120.366 43.8957 120.042 43.8722 119.026 43.421C119.026 43.421 119.022 43.421 119.017 43.4163C118.848 42.2789 118.758 41.3107 118.552 40.3661C118.218 38.8574 117.565 37.4991 116.747 36.1643C116.225 35.3137 115.76 34.4207 115.313 33.523C114.298 32.6347 113.231 31.7981 112.202 30.924C111.61 30.4211 111.046 29.89 110.562 29.1615C110.905 29.2038 111.248 29.232 111.586 29.2884C111.92 29.3448 112.258 29.3871 112.573 29.4952C112.855 29.5939 113.142 29.6973 113.424 29.8007C113.025 29.2085 112.54 28.6962 111.892 28.3437C110.05 27.3426 108.179 26.3838 106.299 25.4627C102.647 23.6673 98.8167 23.7331 94.9487 24.5321C94.2954 24.6684 93.6656 24.9504 93.05 25.2277C91.2687 26.0267 89.5109 26.8726 87.725 27.6622C85.9249 28.4518 84.0637 29.0299 82.071 29.0252C80.8678 29.0252 79.6693 28.9782 78.4662 28.9641C74.8801 28.9124 71.3693 28.4095 67.9337 27.3285C65.7153 26.6282 63.45 26.0831 61.2034 25.4815C59.2482 24.9598 57.279 24.4663 55.3191 23.9587C53.7212 23.5451 52.1279 23.0939 50.5205 22.7179C49.8014 22.5487 49.0119 22.356 48.3116 22.4782C46.8781 22.7273 45.4634 23.1409 44.0676 23.5639C42.0419 24.1749 40.5614 25.5614 39.3536 27.2251C37.2809 30.0827 35.3774 33.0577 33.004 35.6897C32.1016 36.6907 31.1381 37.6448 30.3156 38.7117C29.1689 40.1969 28.1349 41.7619 27.0445 43.2894C25.9776 44.7887 24.8591 46.2503 23.8439 47.7825C22.9227 49.1737 22.072 50.6071 21.2166 52.0406C21.273 51.9795 21.3294 51.9184 21.3811 51.8573H21.3764ZM118.998 43.4069C118.946 43.374 118.923 43.3176 118.998 43.4069Z" fill="#FFC34F"/>
<path d="M3.12647 80.0099C3.47426 78.6657 3.77975 77.3074 4.14635 75.9727C4.94063 73.0963 6.15791 70.408 7.79347 67.903C8.92145 66.1734 10.1481 64.519 11.4594 62.9304C12.061 61.7696 12.7425 60.6416 13.3864 59.5042C13.8094 58.7569 14.3686 58.0895 14.8574 57.3799C15.9384 55.8007 16.963 54.1839 18.0957 52.6471C19.2095 51.1431 20.4597 49.7378 21.5971 48.2526C21.9825 47.7498 22.5465 47.2845 22.2692 46.3539C21.9214 46.6735 21.5407 46.9696 21.2258 47.3174C18.7349 50.0715 16.305 52.882 13.7577 55.5845C11.4829 58.0002 9.45254 60.5852 7.64308 63.3581C6.00751 65.8632 4.79023 68.5515 3.99595 71.4279C3.62466 72.7674 3.32387 74.1209 2.97607 75.4651C2.57658 77.002 2.28519 78.5576 2.45908 80.1462C2.52958 80.7854 2.60478 81.4246 2.69408 82.0637C2.79748 81.3729 2.95257 80.6914 3.12647 80.0099Z" fill="#FFC34F"/>
<path d="M93.5058 63.7716C93.4212 64.2134 93.2943 64.6317 93.6656 65.144C93.8395 64.8432 94.0463 64.5753 94.2343 64.3121C94.2343 63.3768 94.0792 62.4557 93.8959 61.5392C93.7784 62.2865 93.6515 63.0291 93.5105 63.7716H93.5058Z" fill="#FFC34F"/>
<path d="M113.875 56.5479C114.27 56.4962 114.453 56.233 114.453 55.8476C114.453 55.4246 114.073 55.0486 113.485 55.0439C113.401 55.1802 113.18 55.387 113.142 55.622C113.062 56.1249 113.466 56.5996 113.87 56.5432L113.875 56.5479Z" fill="#FFC34F"/>
<path d="M117.118 52.2803C117.259 52.1487 117.325 51.7869 117.24 51.6177C117.151 51.4297 116.85 51.237 116.643 51.2417C116.455 51.2417 116.187 51.472 116.112 51.6646C115.957 52.0641 115.91 52.5012 115.816 52.9242C115.877 52.9853 115.933 53.0417 115.995 53.1028C116.375 52.8349 116.789 52.5999 117.118 52.2803Z" fill="#FFC34F"/>
<path d="M80.7687 24.2174C81.5066 24.1751 82.1223 24.2456 82.6769 24.0952C85.0973 23.4325 87.5319 22.7886 89.91 21.9896C94.248 20.5327 98.6753 19.9922 103.23 20.2554C106.369 20.4387 109.415 21.0966 112.282 22.3421C114.787 23.4278 117.216 24.6968 119.327 26.5062C123.317 29.9325 125.343 34.2282 124.953 39.4921C124.75 42.2556 124.299 45.0051 123.81 47.7357C123.336 50.3488 122.603 52.9197 122.095 55.5281C121.479 58.6912 121.019 61.8871 120.422 65.0548C119.454 70.1777 119.444 75.3664 119.284 80.541C119.209 82.9427 119.129 85.3443 118.965 87.7413C118.899 88.6672 118.612 89.5742 118.387 90.486C118.058 91.8349 117.738 93.1838 117.343 94.5091C117.122 95.2517 116.803 95.9755 116.455 96.6758C115.28 99.0257 113.959 101.291 112.404 103.415C111.041 105.281 109.335 106.799 107.521 108.209C106.458 109.037 105.345 109.821 104.395 110.766C102.83 112.317 101.016 113.276 98.9009 113.873C95.6204 114.803 92.2929 115.372 88.8995 115.193C86.1595 115.048 83.4477 114.535 80.9661 113.257C77.9817 111.725 74.8985 110.47 71.6133 109.746C68.3892 109.037 65.1932 108.148 61.9362 107.636C59.6144 107.269 57.2175 107.377 54.8581 107.312C53.5469 107.274 52.2309 107.279 50.9149 107.312C48.4757 107.368 46.027 107.359 43.5972 107.551C41.736 107.697 39.903 108.205 38.0419 108.379C36.1384 108.552 34.2209 108.543 32.308 108.567C30.1319 108.595 27.9512 108.609 25.7751 108.552C23.7918 108.496 21.7849 108.731 19.8345 108.228C18.4903 107.88 17.2307 107.316 16.0745 106.508C14.3826 105.324 12.5778 104.294 10.9563 103.025C9.88006 102.184 8.92598 101.122 8.1317 100.003C7.15882 98.6357 6.41623 97.1035 5.55615 95.6512C5.02036 94.7488 4.44697 93.8653 3.90178 92.9676C3.62919 92.5211 3.3237 92.0793 3.1263 91.5952C2.07822 89.0243 1.03954 86.4394 0.541353 83.69C0.118361 81.3635 -0.229432 79.0183 0.18886 76.6495C0.447354 75.1737 0.68235 73.6839 1.06304 72.241C1.76333 69.595 2.52471 66.963 3.3472 64.3546C3.64799 63.4005 4.12738 62.4793 4.65377 61.6239C6.96612 57.8875 9.59337 54.3767 12.6201 51.1901C13.4943 50.269 14.5236 49.4935 15.5199 48.6992C17.8605 46.8239 20.3373 45.0991 22.5463 43.0781C24.1913 41.5694 25.6529 39.7976 26.9172 37.9505C29.0745 34.7922 31.2458 31.6526 33.6005 28.6353C34.2867 27.7517 34.9634 26.8258 35.4475 25.8248C36.2089 24.2409 37.4544 23.1458 38.7563 22.0789C40.1098 20.9744 41.6796 20.2601 43.3011 19.6397C45.0024 18.9911 46.7884 19.0945 48.5415 19.1556C49.8057 19.1979 51.0888 19.4188 52.3202 19.7196C55.0884 20.4011 57.8144 21.247 60.5873 21.9097C63.4684 22.6006 66.3823 23.1646 69.2868 23.7709C69.5688 23.832 69.8837 23.8273 70.1704 23.7803C70.5417 23.7145 70.7767 23.4889 70.7062 23.0612C70.5182 21.952 70.8049 20.918 71.0681 19.8512C71.4065 18.4741 71.5287 17.0406 71.8483 15.6589C72.1256 14.4557 72.5251 13.2807 72.9152 12.1057C73.1549 11.3772 73.4463 10.6629 73.7565 9.95788C74.6165 8.01682 75.3873 6.01935 76.4119 4.16759C77.1451 2.84222 78.2402 1.70954 79.166 0.487567C79.6454 -0.14692 80.2752 -0.0388195 80.9097 0.130377C82.3197 0.515769 83.7344 0.901162 85.1349 1.32415C86.6436 1.78474 88.1476 2.26413 89.6327 2.78582C90.5633 3.11481 90.6949 3.42971 90.709 4.38379C90.7184 4.99478 90.3894 5.32377 89.9664 5.67626C88.7632 6.68674 87.5366 7.68312 86.4321 8.797C85.7835 9.45029 85.2759 10.2728 84.8247 11.0859C83.2738 13.887 81.9719 16.7962 81.1259 19.8935C80.7546 21.2423 80.6559 22.6053 80.7875 24.2174H80.7687ZM22.269 46.3539C21.9212 46.6735 21.5405 46.9696 21.2256 47.3174C18.7347 50.0716 16.3048 52.8821 13.7575 55.5845C11.4827 58.0003 9.45237 60.5852 7.64291 63.3582C6.00734 65.8632 4.79006 68.5516 3.99578 71.4279C3.62449 72.7674 3.3237 74.121 2.9759 75.4651C2.57641 77.002 2.28502 78.5577 2.45891 80.1462C2.75971 82.9098 3.178 85.6639 4.09918 88.2959C4.50337 89.452 4.98746 90.6458 5.71125 91.6187C7.15882 93.5786 8.75208 95.435 10.3548 97.268C12.0467 99.1996 14.1194 100.704 16.1873 102.208C17.7571 103.35 19.4491 104.266 21.3243 104.689C23.6649 105.216 26.0383 105.676 28.4259 105.897C33.2339 106.344 38.0325 105.817 42.817 105.371C43.7523 105.281 44.6782 105.145 45.6134 105.065C47.108 104.938 48.612 104.854 50.1065 104.736C52.4236 104.553 54.7265 104.243 57.0671 104.572C58.3972 104.76 59.7695 104.741 61.1184 104.731C63.5201 104.717 65.8136 105.206 68.032 106.094C72.9152 108.045 77.883 109.699 83.0435 110.785C85.5626 111.316 88.0677 111.683 90.6338 111.64C94.6052 111.57 98.492 111.043 102.087 109.21C103.183 108.651 104.278 108.05 105.251 107.307C106.313 106.499 107.276 105.54 108.207 104.576C109.847 102.875 111.398 101.084 112.502 98.9788C112.968 98.0905 113.222 97.0894 113.696 96.2058C114.575 94.5655 115.012 92.7702 115.44 91.003C115.919 89.0432 116.103 87.0081 116.356 84.9965C116.46 84.1835 116.399 83.3469 116.446 82.5197C116.615 79.5211 116.892 76.5273 116.958 73.5288C117.075 68.3448 116.991 63.1467 118.288 58.0802C118.88 55.7631 119.618 53.479 120.426 51.2324C121.07 49.4324 121.672 47.6276 122.128 45.7711C122.217 45.4093 122.325 45.0521 122.41 44.6902C122.734 43.2661 123.176 41.8561 123.336 40.4132C123.449 39.3887 123.152 38.3265 123.101 37.2784C122.946 34.0731 121.804 31.2813 119.524 29.0301C118.227 27.747 116.798 26.572 115.045 25.9093C114.171 25.5757 113.292 25.2467 112.404 24.9412C112.089 24.8331 111.746 24.7861 111.417 24.7344C111.078 24.678 110.735 24.6498 110.392 24.6075C110.876 25.3313 111.44 25.8671 112.032 26.3699C113.372 27.512 114.787 28.5836 116.06 29.8009C117.09 30.7785 118.044 31.8641 118.622 33.2036C119.905 36.1598 120.765 39.2054 120.563 42.4765C120.478 43.8677 120.309 43.9899 119.012 43.4118C118.951 43.3836 118.913 43.299 119.002 43.4071C118.833 42.2697 118.744 41.3015 118.537 40.3569C118.203 38.8482 117.55 37.4899 116.732 36.1551C115.698 34.4726 114.89 32.6443 114.016 30.863C113.508 29.8338 112.893 28.8891 111.873 28.3345C110.03 27.3334 108.16 26.3793 106.28 25.4535C102.628 23.6581 98.7975 23.7239 94.9295 24.5229C94.2762 24.6592 93.6464 24.9412 93.0308 25.2185C91.2495 26.0174 89.4917 26.8634 87.7058 27.653C85.9104 28.4426 84.0445 29.0207 82.0518 29.016C80.8486 29.016 79.6501 28.969 78.447 28.9549C74.8609 28.9032 71.3501 28.4003 67.9145 27.3193C65.6961 26.619 63.4308 26.0738 61.1842 25.4723C59.2244 24.9506 57.2598 24.4571 55.2999 23.9495C53.702 23.5359 52.1087 23.0847 50.5013 22.7087C49.7822 22.5395 48.9927 22.3468 48.2924 22.469C46.8589 22.7181 45.4442 23.1317 44.0484 23.5547C42.0227 24.1657 40.5422 25.5522 39.3344 27.2159C37.2617 30.0735 35.3582 33.0485 32.9848 35.6804C32.0824 36.6815 31.1189 37.6356 30.2964 38.7025C29.1497 40.1877 28.1157 41.7527 27.0253 43.2802C25.9584 44.7795 24.8399 46.2411 23.8247 47.7733C22.8095 49.3055 21.8789 50.8893 20.9389 52.4685C19.7734 54.4331 18.542 56.3694 17.5033 58.4045C16.1074 61.1445 14.8855 63.9692 13.5648 66.7468C12.7094 68.5422 12.3005 70.4268 12.3146 72.4102C12.3146 72.7862 12.3334 73.1716 12.2535 73.5335C12.0749 74.3325 11.1772 74.6332 10.6085 74.0458C10.2984 73.7262 10.0117 73.5194 9.57927 73.4536C9.15158 73.3878 8.91658 73.134 8.94948 72.6734C9.15628 69.924 9.60277 67.2027 10.6367 64.6554C11.3652 62.86 12.4133 61.1868 13.3768 59.4902C13.7998 58.7429 14.3591 58.0755 14.8479 57.3658C15.9288 55.7866 16.9534 54.1699 18.0861 52.633C19.2 51.129 20.4501 49.7238 21.5875 48.2386C21.9729 47.7357 22.5369 47.2704 22.2596 46.3398L22.269 46.3539ZM87.8609 4.42139C87.1136 4.15349 86.6013 3.9185 86.0608 3.7916C84.6743 3.46731 83.2738 3.21351 81.8873 2.89392C80.1107 2.48503 78.8652 3.07252 78.0475 4.72688C77.8501 5.12637 77.6292 5.52586 77.3707 5.89246C75.9842 7.83822 75.0489 10.0096 74.4097 12.2843C73.9773 13.8259 73.8128 15.4474 73.4886 17.0218C73.028 19.2543 73.2348 21.5055 73.2771 23.7521C73.2865 24.1563 73.4745 24.396 73.8316 24.4994C75.1946 24.8895 76.567 24.9506 77.9347 24.5041C78.3906 24.3537 78.6632 24.0482 78.7196 23.5171C78.7853 22.892 78.9263 22.2669 79.0767 21.6512C79.5749 19.6538 80.0308 17.6422 80.6277 15.673C80.9708 14.5356 81.4972 13.4405 82.0424 12.383C82.6064 11.2926 83.2597 10.2446 83.9505 9.22939C84.4252 8.5291 85.0127 7.90402 85.5626 7.25543C85.9762 6.77134 86.4227 6.32015 86.8269 5.83136C87.1512 5.43657 87.4285 5.00418 87.8562 4.41199L87.8609 4.42139Z" fill="black"/>
<path d="M87.8607 4.41663C87.433 5.00882 87.1557 5.44121 86.8314 5.836C86.4272 6.32479 85.976 6.77598 85.5671 7.26007C85.0172 7.90866 84.4297 8.52905 83.9551 9.23403C83.2689 10.2492 82.6109 11.2973 82.0469 12.3877C81.497 13.4451 80.9753 14.5402 80.6322 15.6776C80.0353 17.6469 79.5794 19.6584 79.0813 21.6559C78.9262 22.2716 78.7899 22.892 78.7241 23.5217C78.6677 24.0481 78.3951 24.3583 77.9392 24.5087C76.5762 24.9552 75.2038 24.8941 73.8362 24.504C73.4837 24.4006 73.291 24.1609 73.2816 23.7567C73.2393 21.5102 73.0325 19.2589 73.4931 17.0265C73.8174 15.452 73.9819 13.8352 74.4142 12.289C75.0534 10.0142 75.9887 7.84286 77.3752 5.8971C77.6337 5.53521 77.8546 5.13572 78.052 4.73153C78.8745 3.07716 80.1152 2.48967 81.8918 2.89856C83.2783 3.21816 84.6788 3.47195 86.0653 3.79624C86.6011 3.92314 87.1134 4.15814 87.8654 4.42603L87.8607 4.41663Z" fill="#8B9463"/>
<path d="M48.9503 70.8498C48.2077 70.5114 47.4322 70.2341 46.7319 69.8252C43.5125 67.9641 41.0685 65.3509 39.6351 61.9247C38.493 59.1987 37.3321 56.4258 37.5906 53.3662C37.8867 49.813 38.8455 46.4573 41.5009 43.9147C44.0812 41.4425 47.1032 40.009 50.8208 40.8174C51.1874 40.8973 51.5634 40.9725 51.9347 40.9772C54.2424 40.996 56.2163 41.9971 58.1903 43.0217C58.5898 43.2285 58.9799 43.4588 59.3982 43.6139C60.9726 44.192 62.4155 45.0332 63.5811 46.2082C64.3848 47.0166 64.9582 48.0647 65.5644 49.0517C65.8934 49.5874 66.0955 50.2125 66.3305 50.8047C66.6877 51.7024 67.2376 51.8105 67.9003 51.0773C68.4502 50.4663 68.9484 49.8036 69.5218 49.2162C70.363 48.3561 71.2278 47.5242 72.1208 46.7205C73.3428 45.616 74.922 45.2964 76.4447 44.9298C80.1577 44.0369 83.7672 44.6479 87.2874 45.9262C89.2144 46.6265 90.4598 48.1493 91.5314 49.813C92.7675 51.7259 93.1388 53.9349 93.5618 56.1015C93.8532 57.6008 94.2339 59.1188 94.0271 60.6745C93.8861 61.7132 93.7075 62.7472 93.5054 63.7765C93.4208 64.2182 93.2939 64.6365 93.6652 65.1488C94.1634 64.2981 94.9153 63.7107 94.7132 62.6156C94.6004 62.0093 95.3994 61.3231 96.0198 61.3466C96.6543 61.3701 97.0303 61.9529 96.7436 62.5592C95.5921 65.0313 94.5582 67.5693 93.0354 69.844C92.4385 70.737 91.6583 71.5266 90.8922 72.2927C90.5632 72.6217 90.065 72.7862 89.6374 73.0071C89.3554 73.1528 89.0499 73.2609 88.7115 73.4019C89.0546 73.9705 89.5011 73.9564 89.9523 74.0034C91.0661 74.1162 92.1894 74.2196 93.2939 74.417C96.0527 74.9058 98.4638 76.1607 100.663 77.8621C101.838 78.7691 102.783 79.8266 103.455 81.1802C103.986 82.2471 104.78 83.1824 105.363 84.2257C106.049 85.4477 106.468 86.7825 106.43 88.2066C106.383 90.157 106.284 92.1028 106.181 94.0485C106.115 95.3081 105.711 96.4878 105.105 97.5782C103.526 100.408 101.674 103.068 99.0936 105.06C96.9363 106.729 94.4735 107.612 91.6301 107.142C89.9616 106.865 88.3073 106.574 86.6905 106.071C85.0221 105.554 83.5087 104.731 82.0376 103.824C79.0955 102.015 76.1862 100.154 73.2112 98.3959C71.1432 97.1787 69.0377 95.9755 66.6595 95.4679C65.6067 95.2423 64.5023 95.1201 63.4307 95.1718C60.592 95.3128 58.0587 96.4455 55.6335 97.8414C53.7113 98.9458 51.7373 99.9375 49.6365 100.661C47.4745 101.409 45.3314 102.208 43.1553 102.913C42.3798 103.162 41.5432 103.326 40.7302 103.331C38.6669 103.345 36.6036 103.284 34.5404 103.18C31.4102 103.021 28.6232 101.935 26.137 100.013C24.6753 98.8847 23.2371 97.7521 22.0339 96.3421C20.5535 94.6125 19.6887 92.5963 19.1905 90.4108C18.4573 87.2102 18.7299 84.0142 19.8156 80.9781C20.6569 78.6281 21.7707 76.3581 23.5144 74.4546C25.197 72.617 27.3542 71.6112 29.6196 70.7934C30.4891 70.4785 31.4337 70.3563 32.3502 70.1589C33.0129 70.0179 33.685 69.9286 34.3383 69.7594C36.7822 69.1296 39.2168 69.0967 41.7124 69.5103C43.6488 69.8299 45.5476 70.2153 47.3993 70.8592C47.8787 71.0284 48.4192 71.0143 48.9315 71.0848C48.9456 71.0096 48.955 70.9297 48.9691 70.8545L48.9503 70.8498ZM90.676 69.3505C90.5115 69.6043 90.347 69.8581 90.1402 70.1824C90.9956 70.1824 90.6431 69.6701 90.6713 69.3458C91.0317 69.3458 91.2244 69.2111 91.2494 68.9417C91.052 69.0826 90.864 69.2189 90.676 69.3505ZM86.808 91.708C87.5412 91.8067 87.9407 92.0793 88.2039 92.5916C89.0875 94.3305 89.9758 96.0648 90.8781 97.7944C91.3481 98.692 91.8134 99.5897 92.3539 100.445C92.6547 100.92 93.1153 100.835 93.2657 100.323C93.4631 99.6414 93.7216 98.9505 93.7545 98.2549C93.8344 96.4784 94.4031 94.8146 94.7979 93.1085C94.8825 92.742 94.9529 92.3707 95.0845 92.0182C95.3806 91.2427 95.813 91.0876 96.4569 91.5905C97.1384 92.1169 97.8293 92.6621 98.3839 93.3107C99.4273 94.5373 100.386 95.8345 101.364 97.1176C101.876 97.7944 102.186 97.8132 102.586 97.0659C102.938 96.4079 103.192 95.6935 103.502 95.012C104.179 93.5268 104.635 91.9853 104.607 90.3403C104.56 87.7366 104.108 85.255 102.336 83.1965C101.528 82.2565 101.458 82.233 100.353 82.7876C99.1829 83.3798 98.0502 84.0424 96.8658 84.6064C95.1785 85.4148 93.4631 86.1621 91.757 86.9235C91.4891 87.0457 91.193 87.1538 90.9063 87.182C89.9382 87.2713 89.4776 86.8389 89.4306 85.8472C89.3554 84.3103 89.3037 82.7735 89.1862 81.2366C89.1298 80.5175 89.1674 79.7373 88.4483 79.1216C88.2086 79.4036 87.9689 79.6386 87.7903 79.9112C86.4555 81.904 85.1301 83.9014 83.8001 85.8989C83.5228 86.3172 83.128 86.4911 82.6345 86.4018C82.1786 86.3172 82.1175 85.9506 82.0282 85.5652C81.6522 83.9249 81.248 82.2894 80.8391 80.6538C80.7592 80.3295 80.6323 80.0052 80.4725 79.7091C79.8804 78.6141 79.1895 78.3603 77.9816 78.5858C75.923 78.9759 73.8504 79.3096 71.7824 79.6527C70.02 79.9441 68.2575 79.7044 66.495 79.6574C64.0182 79.5963 61.6682 78.9524 59.3559 78.1723C57.4383 77.5284 55.5771 76.7106 53.6737 76.0197C52.5457 75.6108 51.3801 75.2959 50.2381 74.9293C49.6694 74.746 49.2088 74.8447 48.8704 75.3711C48.7294 75.592 48.532 75.7753 48.3816 75.9868C47.3852 77.3921 46.3888 78.8067 45.3925 80.2167C44.9413 80.8559 44.4619 81.481 44.0436 82.139C43.4655 83.0367 42.4033 83.0555 41.9239 82.0732C41.2988 80.7948 40.7913 79.46 40.232 78.1535C39.8043 77.1571 39.386 76.1513 38.9442 75.1643C38.8831 75.0327 38.6857 74.9622 38.4977 74.8259C38.3896 75.0374 38.2956 75.1549 38.2627 75.2912C37.6517 77.8057 37.0454 80.3154 36.4532 82.8346C36.3028 83.4832 35.8563 83.7933 35.2407 83.5537C35.0104 83.4644 34.7895 83.2858 34.625 83.0931C34.0939 82.4633 33.5816 81.8194 33.0881 81.1567C31.9037 79.5681 30.7617 77.9373 29.5397 76.3769C29.159 75.8928 28.5997 75.5121 28.0545 75.2113C27.7866 75.0656 27.2602 75.075 27.0158 75.2489C25.5307 76.3252 24.0502 77.4015 23.0538 79.0229C22.1514 80.4893 21.7566 82.1296 21.1927 83.7134C20.9671 84.3432 20.7932 85.0106 20.7227 85.6733C20.4971 87.84 20.8449 89.9549 21.5686 91.9853C22.0198 93.259 22.6872 94.448 23.6601 95.4256C24.2429 96.0131 24.4826 95.9896 25.0325 95.3645C25.2064 95.1671 25.3709 94.9603 25.5307 94.7535C27.3824 92.3519 29.2389 89.9549 31.0765 87.5439C31.3491 87.1914 31.6593 87.0739 32.0541 87.2149C32.7356 87.4593 33.6333 88.794 33.6803 89.4943C33.7978 91.2521 33.9388 93.0145 34.0939 94.7676C34.1174 95.0261 34.2631 95.2705 34.3571 95.5478C34.5498 95.4397 34.6438 95.4209 34.6767 95.3692C35.9175 93.3623 37.1441 91.3508 38.399 89.3533C38.5823 89.0619 38.8643 88.7235 39.1651 88.6436C39.621 88.5214 39.9077 88.935 40.0957 89.311C40.4153 89.9502 40.6973 90.6035 40.998 91.2521C41.8722 93.118 42.7887 94.9697 43.6206 96.8544C44.1987 98.1609 44.5089 98.3443 45.8389 97.879C48.0996 97.0894 50.365 96.3092 52.635 95.5431C53.6314 95.2047 54.6419 94.918 55.6335 94.5796C57.443 93.9639 59.2196 93.2449 61.0525 92.7185C64.0981 91.8443 67.1107 92.1545 69.9401 93.5409C72.9386 95.012 75.8572 96.6523 78.5456 98.6638C79.5655 99.4252 80.5289 100.267 81.5112 101.08C82.3525 101.785 82.9024 101.648 83.2831 100.614C83.4382 100.191 83.551 99.7542 83.7155 99.3359C84.2231 98.0528 84.7401 96.7745 85.2617 95.4961C85.7693 94.2553 86.2863 93.0193 86.8221 91.7174L86.808 91.708ZM57.9741 48.6334C57.349 48.8872 56.9683 48.6287 56.6534 48.2245C54.938 46.0155 52.5598 45.1601 49.8903 44.8875C49.4861 44.8452 49.0537 44.7888 48.6636 44.8734C45.698 45.5126 43.4937 47.1999 42.1025 49.8835C41.5902 50.8752 41.2142 51.9562 40.8758 53.0231C40.4858 54.2403 40.1568 55.5563 40.5704 56.7783C41.2189 58.6865 42.0461 60.5429 42.8968 62.3806C43.395 63.4522 44.2833 64.2887 45.2844 64.8809C47.5544 66.2204 49.9467 67.2497 52.6068 67.621C55.2294 67.9876 57.2409 67.057 58.7919 65.0219C59.7178 63.8094 60.6107 62.5592 61.3956 61.2526C62.3873 59.5982 63.191 57.8264 62.8714 55.8242C62.7022 54.762 62.3591 53.7187 61.9878 52.7035C61.2217 50.5885 59.9951 48.7791 58.2373 47.3503C57.9976 47.1529 57.7438 46.9837 57.4101 47.3503C57.584 47.7545 57.7673 48.1775 57.9694 48.6381L57.9741 48.6334ZM79.6172 47.8438C78.9451 47.8438 78.3435 47.8203 77.7466 47.8438C76.1439 47.9143 74.6776 48.4313 73.6013 49.6109C72.4216 50.9081 71.2372 52.2664 70.3583 53.7751C68.3186 57.2765 68.3609 60.9236 70.1939 64.519C70.6262 65.3697 71.2278 66.1546 71.8435 66.8925C72.7929 68.0393 74.17 68.4858 75.5188 68.9746C78.0897 69.9004 80.6934 69.8863 83.2455 69.0262C84.9468 68.4529 86.5119 67.6633 87.6211 66.0324C89.1439 63.7953 90.0556 61.4124 90.1543 58.7335C90.2295 56.6937 89.8113 54.7009 89.2614 52.7458C89.2144 52.5719 89.1016 52.4074 88.9841 52.2664C88.4624 51.6272 87.9407 50.988 87.4049 50.3629C86.8409 49.7049 86.2017 49.1786 85.3698 48.8214C83.4946 48.0177 81.5582 47.731 79.6125 47.8391L79.6172 47.8438ZM63.2662 65.8679C63.4307 66.0183 63.5294 66.1264 63.6469 66.211C64.6809 66.9301 64.6856 67.4471 63.661 68.138C62.8244 68.7067 62.0066 69.3082 61.1512 69.844C59.8494 70.6571 58.5616 71.5642 56.9871 71.7005C55.6852 71.8133 54.374 71.7569 53.0627 71.7569C52.6773 71.7569 52.2919 71.7099 51.9065 71.6864C51.883 71.7804 51.8595 71.8744 51.836 71.9684C52.3671 72.194 52.8888 72.4384 53.4293 72.6405C54.656 73.1011 55.9108 73.5006 57.1234 73.9893C59.5956 74.9857 62.0865 75.9163 64.695 76.485C67.1718 77.0208 69.6816 77.1618 72.1819 76.7717C75.0677 76.3205 77.9393 75.7659 80.8109 75.2348C81.1775 75.169 81.6334 75.169 81.8449 74.605C81.5441 74.5345 81.3044 74.4452 81.06 74.4311C77.6949 74.2854 74.4379 73.6087 71.3077 72.3585C69.597 71.677 67.8862 70.9579 66.7629 69.3834C66.0955 68.4482 65.2496 67.6257 64.9206 66.4742C64.8407 66.1875 64.6997 65.9102 64.5446 65.6564C64.1639 65.0407 63.8584 65.0783 63.2568 65.8632L63.2662 65.8679ZM90.7136 76.5837C90.6807 76.8234 90.6196 77.0067 90.6384 77.1806C90.8781 79.413 91.1037 81.6455 91.3951 83.8732C91.4891 84.5923 91.898 84.7709 92.6218 84.5641C93.0871 84.4278 93.5618 84.3056 93.9989 84.1082C95.9869 83.2059 97.787 81.9228 99.8737 81.2084C100.024 81.1567 100.132 80.9734 100.25 80.8653C99.009 78.7973 93.4255 76.2782 90.7136 76.5884V76.5837ZM34.3947 100.135C34.9305 100.243 35.3112 100.356 35.6966 100.389C37.2193 100.52 38.6763 100.13 40.1333 99.7777C40.8241 99.6132 41.5103 99.397 42.1824 99.1714C42.6195 99.0257 42.9156 98.7531 42.6665 98.2361C41.6936 96.2058 40.7537 94.166 39.7291 92.1639C39.2873 91.2991 38.9066 91.3273 38.3896 92.1968C37.5483 93.6114 36.707 95.0308 35.9598 96.4972C35.3864 97.6205 34.954 98.8189 34.39 100.135H34.3947ZM86.7563 95.2846C86.4743 96.0695 86.291 96.5865 86.103 97.1035C85.5625 98.5792 84.9985 100.046 84.4957 101.531C84.1855 102.433 84.303 102.607 85.0831 103.049C87.0806 104.182 89.2473 104.708 91.5126 104.896C91.8134 104.919 92.3398 104.835 92.4009 104.67C92.5043 104.384 92.4009 103.951 92.2458 103.66C91.5925 102.443 90.9157 101.239 90.1919 100.06C89.393 98.7531 88.547 97.4701 87.6963 96.1964C87.5036 95.9097 87.1934 95.7029 86.761 95.2893L86.7563 95.2846ZM29.3376 73.745C30.0849 74.6238 30.7194 75.3053 31.2786 76.0432C32.3596 77.4767 33.3936 78.943 34.4699 80.3812C34.6344 80.5974 35.0057 80.9076 35.1326 80.8465C35.3864 80.729 35.6167 80.4141 35.706 80.1321C35.9081 79.4929 36.0209 78.8256 36.1571 78.1676C36.5425 76.344 36.9467 74.5204 37.2945 72.6875C37.459 71.8227 37.2569 71.6488 36.3545 71.5924C34.7002 71.489 33.1727 71.9966 31.6781 72.6029C30.9262 72.9084 30.2165 73.3079 29.3376 73.7403V73.745ZM43.5031 80.1744C44.1141 79.3519 44.6452 78.6329 45.1763 77.9138C45.9329 76.8939 46.6943 75.8787 47.4416 74.8494C47.7894 74.37 47.7095 74.0363 47.1878 73.7637C46.9575 73.6462 46.699 73.5805 46.4452 73.51C45.181 73.1528 43.9308 72.7486 42.6524 72.4713C41.6936 72.2598 40.7114 72.006 39.6821 72.1329C39.6915 72.3162 39.668 72.4337 39.7056 72.5324C40.5798 74.7648 41.4633 76.9926 42.3469 79.2156C42.4033 79.3566 42.4832 79.4835 42.5443 79.6198C42.7464 80.0381 43.066 80.2402 43.5078 80.1791L43.5031 80.1744ZM31.8097 91.7738C30.6395 92.3989 26.3484 96.4502 25.8879 97.3761C27.1803 98.5604 28.8065 99.2184 30.428 99.8388C31.0813 100.088 31.8285 100.389 32.5476 100.017C32.5758 99.8905 32.6134 99.8153 32.6087 99.7448C32.4536 97.5077 32.3032 95.2705 32.1246 93.0333C32.0917 92.6198 31.9225 92.2156 31.8097 91.7691V91.7738ZM96.0903 96.1165C95.9211 97.0048 95.7613 97.8085 95.6156 98.6074C95.3524 100.079 95.1409 101.559 94.8213 103.016C94.5394 104.285 94.6616 104.492 95.9446 104.346C96.2689 104.308 96.6167 104.214 96.8987 104.05C97.5097 103.693 98.0925 103.279 98.68 102.884C99.4178 102.386 100.076 101.86 99.5917 100.812C99.5259 100.666 99.6387 100.445 99.6246 100.257C99.6058 99.9986 99.6246 99.6978 99.4931 99.5004C98.9009 98.598 98.2993 97.6957 97.6272 96.8497C97.2888 96.4173 96.8047 96.093 96.0903 96.1165ZM87.9689 76.2688C87.6023 76.2688 87.2404 76.2171 86.8973 76.2782C85.3134 76.5602 83.7343 76.8516 82.1598 77.1759C81.5488 77.3028 81.4642 77.4908 81.6569 78.1582C82.0423 79.4882 82.4418 80.8136 82.8601 82.1343C82.9447 82.3975 83.1233 82.6278 83.2596 82.8816C84.5568 82.0356 87.8514 77.4673 87.9736 76.2688H87.9689ZM81.06 71.0707C81.4031 71.301 81.5394 71.4608 81.6898 71.4796C82.4653 71.5877 83.2549 71.7569 84.0304 71.7287C85.9808 71.6582 87.4143 70.3657 88.782 69.2471C89.9522 68.2931 90.7606 66.869 91.0332 65.2757C91.1131 64.7963 91.0896 64.284 91.2494 63.8423C91.8886 62.0939 92.0296 60.275 92.0813 58.4421C92.1189 57.0556 91.5831 55.8007 91.2353 54.4941C91.1413 54.6868 91.0802 54.8983 91.1507 55.044C91.6348 56.0075 91.4327 57.0274 91.4186 58.0238C91.3857 59.9742 91.2964 61.9247 90.4833 63.7436C90.2248 64.3216 89.8441 64.8433 89.5904 65.4214C88.2415 68.5422 85.6753 70.0132 82.517 70.7041C82.094 70.7981 81.6804 70.9156 81.06 71.0754V71.0707ZM66.8569 59.7439C66.1942 60.2703 66.1754 60.8108 66.2318 61.3137C66.3117 62.0187 66.4621 62.719 66.6454 63.4052C66.9979 64.7258 67.6136 65.929 68.5254 66.9442C68.8685 67.3249 69.2069 67.8043 69.7098 67.9265C69.1364 66.6058 68.6758 65.2569 67.9849 64.0396C67.247 62.7378 67.576 61.1868 66.8522 59.7392L66.8569 59.7439ZM63.6516 59.6499C63.1675 60.6275 62.7774 61.5017 62.3168 62.3383C61.8703 63.1467 61.17 63.8141 60.8175 64.8339C63.3414 63.8987 64.5634 61.6474 63.6516 59.6546V59.6499ZM61.452 48.0788C62.7116 50.7953 64.131 53.4461 64.46 56.4916C64.8783 54.9453 64.3942 53.4461 63.9759 52.0549C63.5341 50.5791 62.9137 49.0282 61.452 48.0741V48.0788ZM54.7077 69.8252L54.6842 70.0837C55.361 70.3093 56.0095 70.2341 56.6299 69.8252H54.7077Z" fill="black"/>
<path d="M8.78027 80.4846C10.1009 80.1603 11.008 80.7572 11.102 82.0543C11.1114 82.2141 10.8435 82.529 10.6884 82.5431C9.57926 82.6324 8.71918 81.6783 8.78497 80.4846H8.78027Z" fill="black"/>
<path d="M10.698 87.4452C10.1951 87.4734 9.81907 87.135 9.82377 86.6556C9.82377 86.0963 10.1857 85.6968 10.6886 85.6921C11.1679 85.6921 11.5486 86.0305 11.5909 86.5005C11.6332 86.994 11.2384 87.4123 10.7027 87.4405L10.698 87.4452Z" fill="black"/>
<path d="M115.666 48.3796C115.76 47.9566 115.807 47.5195 115.962 47.12C116.037 46.9273 116.309 46.697 116.493 46.697C116.7 46.697 117 46.885 117.09 47.073C117.169 47.2422 117.104 47.6041 116.967 47.7357C116.634 48.0553 116.225 48.2903 115.844 48.5582C115.783 48.4971 115.727 48.4407 115.666 48.3796Z" fill="black"/>
<path d="M113.339 50.4993C113.926 50.4993 114.307 50.88 114.307 51.303C114.307 51.6883 114.124 51.9515 113.729 52.0032C113.325 52.0549 112.921 51.5802 113 51.0821C113.038 50.8471 113.259 50.6403 113.344 50.504L113.339 50.4993Z" fill="black"/>
<path d="M86.8126 91.7033C86.2721 93.0052 85.7551 94.2413 85.2523 95.4821C84.7306 96.7604 84.2136 98.0388 83.706 99.3219C83.5415 99.7402 83.4287 100.177 83.2736 100.6C82.8929 101.634 82.343 101.771 81.5017 101.066C80.5242 100.248 79.556 99.4112 78.5361 98.6498C75.8477 96.6429 72.9338 94.998 69.9306 93.5269C67.1059 92.1404 64.0933 91.8302 61.0431 92.7044C59.2101 93.2308 57.4335 93.9499 55.6241 94.5656C54.6277 94.904 53.6172 95.1954 52.6255 95.5291C50.3555 96.2999 48.0901 97.08 45.8295 97.8649C44.4994 98.3302 44.1892 98.1469 43.6111 96.8403C42.7792 94.9557 41.8674 93.1039 40.9886 91.2381C40.6878 90.5942 40.4058 89.9362 40.0862 89.297C39.8982 88.921 39.6162 88.5074 39.1556 88.6296C38.8548 88.7095 38.5728 89.0479 38.3895 89.3393C37.1346 91.3368 35.908 93.3483 34.6672 95.3552C34.6343 95.4116 34.5403 95.4304 34.3476 95.5338C34.2489 95.2612 34.1079 95.0121 34.0844 94.7536C33.9293 92.9958 33.793 91.2381 33.6708 89.4803C33.6238 88.78 32.7214 87.4452 32.0446 87.2008C31.6499 87.0598 31.3397 87.1773 31.0671 87.5298C29.2294 89.9409 27.3729 92.3378 25.5212 94.7395C25.3614 94.9463 25.1969 95.1531 25.023 95.3505C24.4731 95.9756 24.2334 95.9991 23.6506 95.4116C22.6824 94.434 22.015 93.2402 21.5592 91.9712C20.8354 89.9362 20.4876 87.8259 20.7132 85.6593C20.7837 84.9966 20.9576 84.3292 21.1832 83.6994C21.7472 82.1155 22.1419 80.4753 23.0443 79.0089C24.0407 77.3874 25.5212 76.3112 27.0063 75.2349C27.246 75.061 27.7771 75.0516 28.045 75.1973C28.5902 75.4981 29.1495 75.8788 29.5302 76.3629C30.7569 77.9232 31.8942 79.5494 33.0786 81.1427C33.5721 81.8006 34.0891 82.4445 34.6155 83.079C34.7753 83.2717 35.0009 83.4503 35.2312 83.5396C35.8469 83.7746 36.2887 83.4691 36.4438 82.8205C37.0359 80.3014 37.6422 77.7916 38.2532 75.2772C38.2861 75.1409 38.3801 75.0234 38.4882 74.8119C38.6762 74.9482 38.8783 75.014 38.9347 75.1503C39.3812 76.142 39.7995 77.1431 40.2225 78.1394C40.7818 79.4507 41.2894 80.7808 41.9144 82.0591C42.3938 83.0414 43.4607 83.0273 44.0341 82.1249C44.4571 81.467 44.9318 80.8419 45.383 80.2027C46.3793 78.7927 47.371 77.3827 48.3721 75.9728C48.5225 75.7566 48.7199 75.5733 48.8609 75.3571C49.1993 74.8307 49.6599 74.732 50.2286 74.9153C51.3706 75.2819 52.5362 75.5968 53.6642 76.0057C55.5677 76.6966 57.4288 77.5143 59.3464 78.1582C61.6587 78.9384 64.0087 79.5776 66.4855 79.6434C68.248 79.6904 70.0105 79.9301 71.7729 79.6387C73.8409 79.2956 75.9135 78.9619 77.9721 78.5718C79.18 78.3415 79.8709 78.6 80.463 79.6951C80.6228 79.9912 80.745 80.3155 80.8296 80.6398C81.2385 82.2753 81.6427 83.9109 82.0187 85.5512C82.108 85.9366 82.1691 86.3032 82.625 86.3878C83.1185 86.4818 83.5133 86.3032 83.7906 85.8849C85.1207 83.8874 86.446 81.8899 87.7808 79.8972C87.9641 79.6246 88.1991 79.3943 88.4388 79.1076C89.1579 79.7186 89.125 80.5035 89.1767 81.2226C89.2942 82.7547 89.3459 84.2963 89.4211 85.8332C89.4681 86.8249 89.9287 87.2572 90.8968 87.1679C91.1882 87.1397 91.4796 87.0316 91.7475 86.9094C93.4536 86.1481 95.1691 85.3961 96.8563 84.5924C98.036 84.0284 99.1734 83.361 100.344 82.7735C101.453 82.2142 101.519 82.2424 102.327 83.1824C104.099 85.241 104.545 87.7272 104.597 90.3263C104.625 91.9712 104.169 93.5128 103.493 94.998C103.182 95.6795 102.929 96.3939 102.576 97.0518C102.172 97.8038 101.866 97.7803 101.354 97.1035C100.377 95.8205 99.4178 94.5233 98.3744 93.2966C97.8198 92.648 97.1242 92.1028 96.4474 91.5765C95.8035 91.0783 95.3711 91.2287 95.0751 92.0041C94.9435 92.3519 94.873 92.7279 94.7884 93.0945C94.3936 94.8006 93.8249 96.4644 93.745 98.2409C93.7121 98.9365 93.4536 99.6274 93.2562 100.309C93.1058 100.821 92.6452 100.906 92.3444 100.431C91.8039 99.5757 91.3386 98.678 90.8686 97.7803C89.9663 96.0508 89.078 94.3165 88.1944 92.5775C87.9312 92.0652 87.5317 91.7926 86.7985 91.694L86.8126 91.7033Z" fill="#ED1C24"/>
<path d="M57.9791 48.6287C57.777 48.1634 57.5937 47.7404 57.4198 47.3409C57.7535 46.9743 58.0026 47.1482 58.247 47.3409C60.0047 48.7697 61.2314 50.5838 61.9975 52.6941C62.3641 53.7093 62.7119 54.7527 62.8811 55.8148C63.2007 57.817 62.397 59.5889 61.4053 61.2432C60.6204 62.5498 59.7227 63.8 58.8016 65.0126C57.2506 67.0476 55.239 67.9782 52.6165 67.6116C49.9563 67.2403 47.5641 66.211 45.294 64.8716C44.2929 64.2794 43.4047 63.4475 42.9065 62.3712C42.0558 60.5382 41.2286 58.6818 40.58 56.7689C40.1664 55.5469 40.4954 54.231 40.8855 53.0137C41.2286 51.9421 41.5999 50.8658 42.1122 49.8742C43.4987 47.1905 45.7029 45.4986 48.6733 44.8641C49.0633 44.7795 49.491 44.8359 49.8999 44.8782C52.5648 45.1508 54.9476 46.0061 56.6631 48.2151C56.978 48.6193 57.3634 48.8778 57.9838 48.624L57.9791 48.6287ZM42.789 53.8691C41.7409 53.6764 41.5905 53.9114 42.0229 54.8138C42.4553 55.7208 43.541 56.2848 44.5185 56.1062C45.2893 55.9699 45.7217 55.2274 45.4256 54.5036C45.2987 54.1934 45.1201 53.902 44.9321 53.6247C44.5843 53.0983 44.3728 53.0701 43.8277 53.3756C43.494 53.5636 43.1368 53.7046 42.789 53.8644V53.8691Z" fill="white"/>
<path d="M79.6171 47.8439C81.5629 47.7311 83.4992 48.0178 85.3745 48.8261C86.2064 49.1833 86.8456 49.7097 87.4096 50.3677C87.9453 50.9928 88.4717 51.632 88.9887 52.2712C89.1062 52.4122 89.2143 52.5767 89.266 52.7506C89.8159 54.7104 90.2342 56.6985 90.159 58.7382C90.0603 61.4172 89.1438 63.8 87.6258 66.0372C86.5166 67.6681 84.9515 68.4576 83.2501 69.031C80.6981 69.8911 78.099 69.9052 75.5235 68.9793C74.1746 68.4952 72.7976 68.044 71.8482 66.8973C71.2325 66.1547 70.6309 65.3745 70.1985 64.5238C68.3655 60.9284 68.3232 57.2813 70.363 53.7798C71.2419 52.2712 72.4216 50.9176 73.6059 49.6157C74.6775 48.436 76.1486 47.9191 77.7513 47.8486C78.3528 47.8251 78.9544 47.8486 79.6218 47.8486L79.6171 47.8439ZM83.2877 66.0513C83.236 66.8127 83.8517 67.2498 84.5379 66.9396C85.1207 66.6811 85.6753 65.3792 85.4403 64.7964C85.304 64.458 85.0831 64.2136 84.6695 64.3217C83.894 64.5285 83.3441 65.2241 83.2877 66.0513Z" fill="white"/>
<path d="M63.2709 65.8679C63.8724 65.083 64.1732 65.0501 64.5586 65.6611C64.7184 65.9149 64.8547 66.1922 64.9346 66.4789C65.2636 67.6351 66.1096 68.4575 66.777 69.3881C67.9003 70.9626 69.611 71.6817 71.3218 72.3632C74.4519 73.6133 77.7043 74.2901 81.0741 74.4358C81.3185 74.4452 81.5582 74.5392 81.859 74.6097C81.6475 75.1737 81.1916 75.1737 80.825 75.2395C77.9534 75.7706 75.0817 76.3252 72.196 76.7764C69.6909 77.1665 67.1859 77.0255 64.709 76.4897C62.0959 75.921 59.6096 74.9857 57.1375 73.994C55.9202 73.5052 54.67 73.1058 53.4434 72.6452C52.9029 72.4431 52.3812 72.1987 51.8501 71.9731C51.8736 71.8791 51.8971 71.7851 51.9206 71.6911C52.306 71.7146 52.6914 71.7616 53.0768 71.7616C54.3833 71.7616 55.6993 71.818 57.0012 71.7052C58.5804 71.5689 59.8681 70.6618 61.1653 69.8487C62.0254 69.3129 62.8385 68.7066 63.675 68.1427C64.6996 67.4518 64.6949 66.9348 63.661 66.2157C63.5435 66.1358 63.4448 66.023 63.2803 65.8726L63.2709 65.8679Z" fill="#FF9439"/>
<path d="M90.7135 76.579C93.4253 76.2688 99.0135 78.7927 100.25 80.8559C100.132 80.9687 100.024 81.1473 99.8736 81.199C97.7868 81.9134 95.9868 83.1965 93.9987 84.0989C93.5616 84.2963 93.0869 84.4232 92.6216 84.5547C91.8932 84.7662 91.489 84.5876 91.395 83.8639C91.1036 81.6361 90.878 79.4036 90.6383 77.1712C90.6195 76.9973 90.6806 76.814 90.7135 76.5743V76.579Z" fill="white"/>
<path d="M34.3945 100.135C34.9538 98.819 35.3862 97.6205 35.9643 96.4972C36.7116 95.0308 37.5576 93.6115 38.3941 92.1968C38.9111 91.3273 39.2918 91.2991 39.7336 92.1639C40.7535 94.1661 41.6982 96.2105 42.6711 98.2362C42.9202 98.7531 42.6241 99.0258 42.187 99.1714C41.5102 99.397 40.8287 99.6132 40.1378 99.7777C38.6808 100.126 37.2239 100.516 35.7011 100.389C35.3157 100.356 34.935 100.243 34.3992 100.135H34.3945Z" fill="white"/>
<path d="M86.7563 95.2847C87.1887 95.6983 87.4989 95.9051 87.6916 96.1918C88.547 97.4655 89.3883 98.7438 90.1872 100.055C90.9063 101.235 91.5878 102.438 92.2411 103.655C92.4009 103.951 92.4996 104.379 92.3962 104.666C92.3398 104.83 91.8134 104.915 91.5079 104.891C89.2426 104.708 87.0759 104.177 85.0784 103.044C84.2983 102.602 84.1808 102.429 84.491 101.526C84.9986 100.041 85.5625 98.5747 86.0983 97.0989C86.2863 96.5819 86.4696 96.0649 86.7516 95.28L86.7563 95.2847Z" fill="white"/>
<path d="M29.3379 73.745C30.2168 73.3126 30.9312 72.9084 31.6784 72.6076C33.173 72.0013 34.7005 71.4985 36.3549 71.5972C37.2525 71.6536 37.4593 71.8227 37.2948 72.6922C36.9517 74.5252 36.5428 76.3487 36.1575 78.1723C36.0165 78.8303 35.9037 79.4977 35.7063 80.1369C35.617 80.4189 35.3867 80.7338 35.1329 80.8513C35.006 80.9077 34.6347 80.6022 34.4702 80.386C33.3939 78.9478 32.3646 77.4814 31.279 76.048C30.7197 75.3101 30.0852 74.6286 29.3379 73.7497V73.745Z" fill="white"/>
<path d="M43.503 80.1743C43.0659 80.2354 42.7416 80.038 42.5395 79.615C42.4737 79.4787 42.3938 79.3519 42.3421 79.2109C41.4585 76.9831 40.5796 74.7553 39.7007 72.5276C39.6631 72.4336 39.6866 72.3114 39.6772 72.1281C40.7065 72.0059 41.6888 72.2597 42.6476 72.4665C43.926 72.7438 45.1808 73.1527 46.4404 73.5052C46.6942 73.5757 46.9527 73.6368 47.183 73.759C47.7047 74.0316 47.7893 74.3653 47.4368 74.8446C46.6942 75.8739 45.9281 76.8891 45.1714 77.909C44.6403 78.6281 44.1093 79.3471 43.4983 80.1696L43.503 80.1743Z" fill="white"/>
<path d="M31.8052 91.7738C31.918 92.2203 32.0872 92.6245 32.1201 93.0381C32.2987 95.2752 32.4491 97.5124 32.6042 99.7495C32.6089 99.82 32.5713 99.8952 32.5431 100.022C31.8193 100.393 31.0767 100.093 30.4234 99.8435C28.8019 99.2232 27.1758 98.5605 25.8833 97.3808C26.3439 96.4549 30.6396 92.4036 31.8052 91.7785V91.7738Z" fill="white"/>
<path d="M96.0856 96.1211C96.8 96.1023 97.2841 96.4219 97.6225 96.8543C98.2898 97.7003 98.8961 98.6027 99.4883 99.5051C99.6199 99.7025 99.6011 100.008 99.6199 100.262C99.634 100.445 99.5165 100.666 99.587 100.816C100.071 101.864 99.4131 102.396 98.6753 102.889C98.0878 103.284 97.505 103.702 96.894 104.055C96.612 104.219 96.2689 104.313 95.9399 104.351C94.6568 104.501 94.5346 104.29 94.8166 103.021C95.1409 101.564 95.3477 100.078 95.6109 98.6121C95.7566 97.8084 95.9164 97.0094 96.0856 96.1211Z" fill="white"/>
<path d="M87.9642 76.2735C87.842 77.472 84.5474 82.0403 83.2502 82.8862C83.1139 82.6324 82.9306 82.4021 82.8507 82.139C82.4371 80.8183 82.0329 79.4929 81.6475 78.1628C81.4548 77.4955 81.5394 77.3075 82.1504 77.1806C83.7249 76.8563 85.304 76.5602 86.8879 76.2829C87.231 76.2218 87.5929 76.2735 87.9595 76.2735H87.9642Z" fill="white"/>
<path d="M81.0552 71.0755C81.6756 70.9157 82.0939 70.7935 82.5121 70.7042C85.6705 70.0133 88.2366 68.5423 89.5855 65.4215C89.8346 64.8435 90.22 64.3218 90.4785 63.7437C91.2916 61.9248 91.3809 59.9743 91.4138 58.0239C91.4279 57.0275 91.63 56.0076 91.1459 55.0442C91.0754 54.8985 91.1365 54.687 91.2305 54.4943C91.583 55.8008 92.114 57.0557 92.0764 58.4422C92.0248 60.2751 91.8838 62.094 91.2446 63.8424C91.0801 64.2889 91.1083 64.8012 91.0284 65.2758C90.7558 66.8691 89.9474 68.2932 88.7771 69.2473C87.4047 70.3658 85.976 71.6583 84.0255 71.7288C83.25 71.757 82.4651 71.5878 81.685 71.4797C81.5299 71.4562 81.3983 71.3011 81.0552 71.0708V71.0755Z" fill="white"/>
<path d="M66.8521 59.7487C67.5759 61.1915 67.2469 62.7472 67.9848 64.0491C68.6757 65.2663 69.1363 66.6152 69.7097 67.9359C69.2068 67.809 68.8684 67.3296 68.5253 66.9536C67.6135 65.9384 66.9978 64.7353 66.6453 63.4146C66.462 62.7284 66.3116 62.0281 66.2317 61.3231C66.1753 60.8155 66.1941 60.2751 66.8568 59.7534L66.8521 59.7487Z" fill="white"/>
<path d="M63.647 59.6547C64.5541 61.6522 63.3368 63.9034 60.813 64.834C61.1655 63.8188 61.8658 63.1468 62.3123 62.3384C62.7728 61.5018 63.1629 60.6323 63.647 59.65V59.6547Z" fill="white"/>
<path d="M61.4473 48.0835C62.9136 49.0329 63.5293 50.5838 63.9711 52.0643C64.3894 53.4555 64.8735 54.9548 64.4552 56.501C64.1262 53.4555 62.7021 50.8047 61.4473 48.0882V48.0835Z" fill="white"/>
<path d="M54.7076 69.8252H56.6298C56.0095 70.2341 55.3609 70.3093 54.6841 70.0837L54.7076 69.8252Z" fill="white"/>
<path d="M90.6618 69.3412C90.643 69.6702 91.0002 70.1872 90.1401 70.1825C90.3469 69.8582 90.5114 69.6044 90.6759 69.3506L90.6618 69.3412Z" fill="white"/>
<path d="M90.6759 69.3505C90.8639 69.2142 91.0519 69.0826 91.2493 68.9417C91.2274 69.2142 91.0331 69.349 90.6665 69.3458L90.6759 69.3505Z" fill="white"/>
<path d="M42.7889 53.869C43.1367 53.7045 43.4939 53.5636 43.8276 53.3803C44.3728 53.0748 44.5843 53.103 44.9321 53.6293C45.1201 53.9066 45.2987 54.198 45.4256 54.5082C45.7217 55.232 45.2893 55.9746 44.5185 56.1109C43.5409 56.2848 42.4552 55.7208 42.0228 54.8184C41.5905 53.916 41.7456 53.681 42.7889 53.8737V53.869Z" fill="black"/>
<path d="M83.2926 66.0513C83.349 65.2241 83.8989 64.5285 84.6744 64.3217C85.0927 64.2089 85.3089 64.458 85.4452 64.7964C85.6802 65.3792 85.1256 66.681 84.5428 66.9395C83.8519 67.2497 83.2409 66.8126 83.2926 66.0513Z" fill="black"/>
<path d="M21.1879 87.5299C21.7519 85.946 22.1467 84.3058 23.049 82.8394C24.0454 81.2179 25.5259 80.1416 27.0111 79.0654C27.2508 78.8915 27.7819 78.8821 28.0497 79.0278C28.5949 79.3286 29.1542 79.7093 29.5349 80.1933C30.7616 81.7537 31.899 83.3799 33.0833 84.9731C33.5768 85.6311 34.0938 86.275 34.6202 86.9095C34.78 87.1022 35.0056 87.2855 35.2359 87.3701C35.8516 87.6051 36.2934 87.2996 36.4485 86.651C37.0407 84.1319 37.647 81.6221 38.2579 79.1077C38.2908 78.9714 38.3848 78.8539 38.4929 78.6424C38.6809 78.7787 38.883 78.8445 38.9394 78.9808C39.3859 79.9724 39.8042 80.9735 40.2272 81.9699C40.7865 83.2812 41.2941 84.6112 41.9192 85.8896C42.3986 86.8719 43.4654 86.8578 44.0388 85.9554C44.4618 85.2974 44.9365 84.6723 45.3877 84.0332C46.3841 82.6232 47.3758 81.2132 48.3768 79.8032C48.5272 79.587 48.7246 79.4038 48.8656 79.1876C49.204 78.6612 49.6646 78.5625 50.2333 78.7458C51.3754 79.1124 52.5409 79.4273 53.6689 79.8361C55.5724 80.527 57.4335 81.3448 59.3511 81.9887C61.6635 82.7689 64.0134 83.4081 66.4903 83.4739C68.2527 83.5209 70.0152 83.7606 71.7777 83.4692C73.8456 83.1261 75.9183 82.7924 77.9768 82.4023C79.1847 82.172 79.8756 82.4305 80.4678 83.5256C80.6276 83.8217 80.7498 84.146 80.8344 84.4703C81.2433 86.1058 81.6475 87.7414 82.0234 89.3816C82.1127 89.767 82.1738 90.1336 82.6297 90.2182C83.1232 90.3122 83.518 90.1336 83.7953 89.7153C85.1254 87.7179 86.4508 85.7204 87.7855 83.7277C87.9688 83.4551 88.2038 83.2248 88.4435 82.9381C89.1626 83.5491 89.1297 84.334 89.1814 85.053C89.2989 86.5852 89.3506 88.1268 89.4258 89.6636C89.4728 90.6553 89.9334 91.0877 90.9016 90.9984C91.193 90.9702 91.4844 90.8621 91.7522 90.7399C93.4583 89.9785 95.1738 89.2265 96.861 88.4229C98.0454 87.8589 99.1781 87.1915 100.348 86.604C101.458 86.0447 101.523 86.0729 102.332 87.0129C103.624 88.5122 104.212 90.2417 104.451 92.0747C104.555 91.506 104.611 90.9232 104.597 90.331C104.55 87.7273 104.099 85.2457 102.327 83.1872C101.519 82.2472 101.448 82.2237 100.344 82.7783C99.1734 83.3705 98.0407 84.0332 96.8563 84.5971C95.1691 85.4055 93.4536 86.1528 91.7475 86.9142C91.4796 87.0364 91.1836 87.1445 90.8969 87.1727C89.9287 87.262 89.4681 86.8296 89.4211 85.8379C89.3459 84.301 89.2942 82.7642 89.1767 81.2273C89.1203 80.5082 89.1579 79.728 88.4388 79.1124C88.1991 79.3943 87.9594 79.6294 87.7808 79.9019C86.446 81.8947 85.1207 83.8922 83.7906 85.8896C83.5133 86.3079 83.1185 86.4818 82.625 86.3925C82.1691 86.3079 82.108 85.9413 82.0187 85.5559C81.6428 83.9157 81.2386 82.2801 80.8297 80.6445C80.7498 80.3202 80.6229 79.9959 80.4631 79.6998C79.8709 78.6048 79.18 78.351 77.9721 78.5766C75.9136 78.9667 73.8409 79.3004 71.773 79.6434C70.0105 79.9348 68.248 79.6951 66.4856 79.6482C64.0087 79.5871 61.6588 78.9432 59.3464 78.163C57.4288 77.5191 55.5677 76.7013 53.6642 76.0104C52.5362 75.6015 51.3707 75.2866 50.2286 74.92C49.6599 74.7368 49.1993 74.8355 48.8609 75.3618C48.7199 75.5827 48.5225 75.766 48.3721 75.9775C47.3758 77.3828 46.3794 78.7975 45.383 80.2074C44.9318 80.8466 44.4524 81.4717 44.0341 82.1297C43.456 83.0274 42.3939 83.0462 41.9145 82.0639C41.2894 80.7855 40.7818 79.4507 40.2225 78.1442C39.7948 77.1478 39.3765 76.142 38.9347 75.155C38.8736 75.0234 38.6762 74.9529 38.4882 74.8167C38.3801 75.0281 38.2861 75.1456 38.2532 75.2819C37.6423 77.7964 37.036 80.3061 36.4438 82.8253C36.2934 83.4739 35.8469 83.7841 35.2312 83.5444C35.0009 83.4551 34.78 83.2765 34.6155 83.0838C34.0844 82.454 33.5721 81.8101 33.0786 81.1474C31.8943 79.5589 30.7522 77.928 29.5302 76.3676C29.1495 75.8835 28.5902 75.5028 28.045 75.202C27.7772 75.0563 27.2508 75.0657 27.0064 75.2396C25.5212 76.3159 24.0407 77.3922 23.0443 79.0137C22.142 80.48 21.7472 82.1203 21.1832 83.7042C20.9576 84.334 20.7837 85.0013 20.7132 85.664C20.5957 86.7732 20.6333 87.873 20.7931 88.9493C20.8824 88.4652 21.0187 87.9905 21.1832 87.5299H21.1879Z" fill="#870B20"/>
<path d="M76.2475 18.2202C76.5718 16.6458 76.7363 15.029 77.1687 13.4828C77.8079 11.208 78.7432 9.03664 80.1296 7.09088C80.3881 6.72899 80.609 6.32949 80.8064 5.9253C81.6289 4.27093 82.8697 3.68345 84.6462 4.09234C85.6379 4.31794 86.639 4.52003 87.6354 4.73153C87.7059 4.62813 87.7764 4.52943 87.861 4.41663C87.1137 4.14874 86.6014 3.91374 86.0609 3.78685C84.6744 3.46255 83.2739 3.20876 81.8874 2.88916C80.1108 2.48027 78.8654 3.06776 78.0476 4.72213C77.8502 5.12162 77.6293 5.52111 77.3708 5.8877C75.9843 7.83346 75.049 10.0048 74.4099 12.2796C73.9775 13.8211 73.813 15.4426 73.4887 17.0171C73.0281 19.2495 73.2349 21.5008 73.2772 23.7473C73.2866 24.1515 73.4746 24.3912 73.8318 24.4946C74.5649 24.7014 75.2981 24.8142 76.0313 24.8095C75.9843 22.61 75.7916 20.4057 76.2428 18.2202H76.2475Z" fill="#6C7249"/>
</svg>
