<svg width="125" height="107" viewBox="0 0 125 107" fill="none" xmlns="http://www.w3.org/2000/svg">
<path d="M22.326 41.143C19.3154 38.43 16.412 35.6535 13.333 33.0869C11.5227 31.5791 9.43918 30.4031 7.48248 29.0662C5.34525 27.6072 3.19825 26.1677 1.08542 24.6697C-0.0954309 23.8304 -0.329647 23.1814 0.465717 21.9127C1.71976 19.9073 3.04699 17.9164 4.60356 16.1451C6.77983 13.6663 9.19032 11.3925 11.5179 9.05031C12.6304 7.92801 13.3282 7.82064 14.47 8.84534C15.7972 10.036 17.1684 11.2558 18.1882 12.6953C20.1254 15.4181 22.5114 17.6724 24.8975 19.9658C27.4837 22.4495 29.9771 25.0405 32.4413 27.6511C33.1147 28.3684 33.5538 29.3101 34.0759 30.1641C34.7883 31.3303 35.3934 31.4571 36.989 30.652C36.3254 29.0125 35.5349 27.4022 35.0177 25.709C34.2077 23.0399 33.4855 20.3318 32.9244 17.5993C32.7048 16.516 32.8853 15.2961 33.1244 14.1884C33.7588 11.2509 34.2565 8.22566 36.1546 5.75174C36.8817 4.80511 37.6917 3.77063 38.7066 3.23388C41.161 1.93593 43.7033 0.935628 46.5431 0.433036C50.681 -0.303773 54.7017 0.0328834 58.7761 0.462282C61.5623 0.755054 64.3632 0.911221 67.1397 1.27719C69.9893 1.64803 72.2046 3.19483 73.971 5.41502C74.1515 5.63948 74.2735 5.90789 74.4346 6.18114C75.0445 5.92252 75.4788 5.83954 75.7862 5.59556C79.7142 2.46778 84.3888 1.78469 89.1707 1.55535C91.3226 1.45288 93.4842 1.64315 95.641 1.7017C98.5882 1.77977 101.531 1.95054 104.478 1.92614C110.065 1.88711 113.456 4.80999 115.52 9.66025C116.701 12.4465 117.121 15.4522 116.735 18.5459C116.408 21.1808 116.33 23.8499 116.052 26.4946C115.935 27.612 116.233 28.466 117.072 29.1637C117.184 29.2564 117.257 29.3882 117.374 29.4711C120.858 31.8719 121.849 35.4681 122.088 39.401C122.2 41.265 122.273 43.1387 122.283 45.0027C122.293 47.9499 122.337 50.8532 122.918 53.7907C123.523 56.8746 123.591 60.0707 123.791 63.2229C124.025 66.8825 123.869 70.5861 124.396 74.1969C125.006 78.3543 124.928 82.5068 124.996 86.6641C125.074 91.3387 123.928 95.7791 121.786 99.9267C121.39 100.693 120.6 101.425 119.814 101.776C118.253 102.484 116.603 103.191 114.925 103.401C111.368 103.85 107.772 103.986 104.19 104.226C103.331 104.284 102.463 104.187 101.604 104.245C95.5629 104.655 89.5221 104.479 83.5105 103.986C78.0747 103.538 72.6779 102.63 67.2616 101.952C65.3391 101.713 63.4068 101.405 61.4794 101.371C57.9564 101.308 54.4285 101.474 50.9054 101.459C47.0945 101.444 43.5569 102.64 39.9558 103.645C36.4328 104.631 32.8902 105.826 29.2842 106.192C24.7512 106.651 20.2425 105.968 16.3242 103.211C15.4996 102.63 14.5968 102.166 13.782 101.576C10.3663 99.1069 7.96556 92.2317 9.1952 88.1426C9.87833 85.8785 10.6786 83.6242 11.674 81.4772C13.4502 77.6419 13.8064 73.6212 13.699 69.498C13.6307 66.8435 13.2403 64.15 13.5575 61.5394C13.8161 59.3924 14.7383 57.2649 15.6606 55.2692C17.7051 50.8337 19.9351 46.491 22.0869 42.1043C22.1796 41.9188 22.1943 41.6992 22.3309 41.1478L22.326 41.143ZM21.111 28.7099C21.1696 29.6273 21.6087 30.1591 22.4383 30.3104C22.5456 30.1884 22.6578 30.0664 22.7652 29.9396C22.1992 29.5443 21.6331 29.1491 21.0671 28.7539C20.789 27.1339 19.2763 26.602 18.276 25.6212C15.9729 23.3668 13.6941 21.093 11.3373 18.8923C10.7225 18.3165 9.91737 17.8969 9.12689 17.5748C8.02411 17.1259 7.38977 17.4919 6.66272 18.7557C10.1565 21.2491 13.6356 23.7621 17.1488 26.2214C18.4224 27.1143 19.7838 27.8804 21.1061 28.705L21.111 28.7099ZM119.478 61.959C119.624 61.9444 119.77 61.9347 119.912 61.92C119.531 56.4062 119.238 50.8825 118.741 45.3784C118.472 42.3824 117.843 39.4254 117.418 36.444C117.106 34.2385 115.769 33.1698 113.661 32.9795C109.445 32.5891 105.229 32.0671 101.004 31.9158C94.7529 31.6913 88.4925 31.6279 82.2418 31.6962C73.5416 31.7938 64.8414 32.0475 56.1461 32.2964C52.34 32.4038 48.5291 32.594 44.7328 32.8917C43.6349 32.9795 42.5468 33.4919 41.5123 33.9359C40.3998 34.4092 39.4093 35.2241 38.2723 35.551C33.4855 36.9075 30.0894 39.9865 27.7472 44.1878C25.1952 48.7599 22.7847 53.4247 20.5792 58.1774C18.9787 61.6272 17.8417 65.2479 18.0076 69.1954C18.154 72.6501 17.6758 76.0707 16.7634 79.4278C16.5877 80.0768 16.6219 80.8233 16.7341 81.4967C17.0805 83.5461 17.627 85.5711 17.8808 87.6303C18.1589 89.909 18.3882 92.1146 19.33 94.3006C20.6914 97.4625 24.434 100.488 27.9131 100.473C33.6905 100.449 39.3458 99.3314 44.9915 98.253C46.8847 97.8919 48.7389 96.9697 50.6224 96.9307C54.1308 96.8575 57.6636 97.1161 61.1573 97.4772C66.4468 98.0237 71.5703 99.5314 76.8743 100.136C82.8908 100.82 88.9024 101.381 94.9383 101.322C101.043 101.259 107.152 100.893 113.246 100.454C116.335 100.234 118.99 98.8971 120.117 95.7254C120.585 94.4031 120.61 92.9294 120.976 91.5583C121.976 87.7767 121.503 83.9852 121.171 80.1938C120.639 74.114 120.053 68.0438 119.492 61.9688L119.478 61.959ZM73.6148 28.0122C73.6929 27.8609 73.7709 27.7145 73.8539 27.5632C72.351 26.7971 72.473 25.6797 72.7755 24.372C73.1268 22.8398 73.2879 21.2491 73.4098 19.6731C73.4586 19.0631 73.2244 18.4141 73.0439 17.8042C72.6633 16.5062 72.1461 15.2473 71.8435 13.9347C71.4434 12.1927 70.6578 10.8069 69.2818 9.58216C66.8566 7.42541 63.8557 6.85451 60.9036 6.5471C56.5511 6.09819 52.1497 6.16159 47.7679 6.02985C47.2751 6.01521 46.7774 6.17135 46.2845 6.26894C42.1418 7.0643 39.3849 9.61145 37.516 13.2516C36.7158 14.813 36.3352 16.4916 36.5303 18.258C36.9597 22.0591 38.6334 25.3919 40.4096 28.6953C40.7707 29.3687 41.2684 29.637 41.9808 29.5346C43.469 29.3248 44.9671 28.8319 46.4309 28.9246C50.8664 29.2028 55.2092 27.2656 59.6642 28.422C60.0058 28.5099 60.3815 28.4806 60.7377 28.4757C64.3339 28.4171 67.935 28.3586 71.5312 28.2708C72.2241 28.2562 72.9121 28.0951 73.605 28.0024L73.6148 28.0122ZM77.4452 27.978C79.4995 27.7828 81.6221 27.5974 83.7447 27.3729C87.9557 26.9338 92.1619 26.4507 96.3729 26.031C99.4422 25.7236 102.521 25.4553 105.6 25.2357C106.947 25.1381 108.313 25.1186 109.66 25.2259C111.524 25.3772 111.934 25.1235 111.748 23.3181C111.27 18.7606 110.85 14.1836 109.04 9.89934C108.508 8.63554 107.898 7.36684 106.469 6.88376C105.249 6.47388 104.014 6.08351 102.755 5.83465C99.1152 5.11736 95.4653 5.61022 91.8057 5.80052C87.3263 6.03474 83.4666 7.60105 80.0216 10.4214C78.0942 11.9975 77.2403 13.8224 77.3915 16.3842C77.6062 20.078 77.4452 23.7913 77.4452 27.9731V27.978ZM32.1827 32.4184C30.0259 29.0906 27.3129 26.4653 24.5657 23.8889C21.9552 21.4394 19.208 19.1363 17.1098 16.1793C16.373 15.14 15.4605 14.1982 14.5139 13.3394C13.3818 12.3049 12.1522 12.6221 11.1031 14.0811C10.5224 14.8911 10.6347 15.1156 12.1376 16.1354C12.3132 16.2574 12.5084 16.3647 12.6645 16.5062C18.3004 21.5858 24.0827 26.5092 29.0891 32.2476C30.0845 33.3845 30.4358 33.4089 32.1778 32.4232L32.1827 32.4184ZM23.9802 38.5617C24.5169 38.0591 24.9024 37.698 25.4489 37.1856C23.6874 35.634 22.3407 34.3751 20.9207 33.204C18.5444 31.2473 16.1339 29.3198 13.7039 27.4315C11.7814 25.9335 9.8149 24.494 7.83869 23.0643C7.20435 22.6056 6.51146 22.186 5.78441 21.903C5.39405 21.7517 4.67675 21.7517 4.45717 21.9957C3.9497 22.5666 4.45718 23.0643 4.95001 23.3913C6.08694 24.1427 7.29218 24.7917 8.39984 25.5822C12.362 28.4172 16.6267 30.8618 20.0717 34.3799C21.272 35.6047 22.4187 36.8831 23.9802 38.5617ZM19.1202 100.029C18.0808 97.7504 17.022 95.9059 16.3925 93.9249C15.7631 91.9486 15.7728 89.787 14.9531 87.4302C12.9622 92.8612 14.5383 97.3357 19.1202 100.029Z" fill="black"/>
<path d="M119.477 61.9591C120.038 68.0341 120.624 74.1091 121.156 80.1841C121.488 83.9755 121.966 87.7669 120.961 91.5485C120.6 92.9197 120.575 94.3933 120.102 95.7157C118.975 98.8874 116.32 100.219 113.231 100.444C107.137 100.883 101.033 101.249 94.9235 101.312C88.8875 101.376 82.8759 100.815 76.8594 100.127C71.5554 99.5217 66.4319 98.0139 61.1425 97.4674C57.6438 97.1063 54.1159 96.8477 50.6076 96.9209C48.7241 96.96 46.8747 97.8822 44.9766 98.2433C39.331 99.3216 33.6805 100.439 27.8982 100.463C24.424 100.478 20.6765 97.4528 19.3151 94.2908C18.3734 92.1048 18.144 89.8993 17.8659 87.6206C17.6122 85.5614 17.0657 83.5364 16.7192 81.487C16.607 80.8136 16.5679 80.067 16.7485 79.418C17.661 76.0609 18.144 72.6404 17.9928 69.1857C17.822 65.243 18.9589 61.6175 20.5643 58.1677C22.7698 53.4199 25.1803 48.7551 27.7323 44.1781C30.0745 39.9768 33.4658 36.8978 38.2575 35.5413C39.3993 35.2192 40.3898 34.3995 41.4975 33.9262C42.5368 33.4821 43.6249 32.9698 44.718 32.8819C48.5142 32.5843 52.3252 32.394 56.1312 32.2867C64.8265 32.0378 73.5267 31.7841 82.2269 31.6865C88.4825 31.6182 94.7429 31.6816 100.989 31.906C105.214 32.0573 109.43 32.5794 113.646 32.9698C115.759 33.165 117.091 34.2336 117.403 36.4343C117.828 39.4157 118.457 42.3775 118.726 45.3686C119.219 50.8728 119.516 56.3964 119.897 61.9103C119.751 61.9249 119.604 61.9347 119.463 61.9493L119.477 61.9591ZM70.355 64.6819C70.3453 64.5696 70.3404 64.4623 70.3306 64.35C66.0318 64.6087 61.728 64.8575 57.4291 65.1356C52.9253 65.4235 48.402 65.5016 44.0787 67.146C39.5408 68.8734 36.2813 71.8109 34.3929 76.3195C33.6414 78.1103 33.7781 79.9792 33.539 81.8139C32.7046 88.1475 36.2325 91.2509 41.5902 92.1927C45.0937 92.8075 48.7582 92.705 52.3398 92.6025C59.8836 92.383 67.4176 91.8853 74.9613 91.6315C79.4114 91.4803 83.8713 91.49 88.3215 91.5827C92.1177 91.6657 95.914 91.9975 99.7103 92.1731C102.394 92.2951 104.57 90.8898 105.966 88.938C107.732 86.469 108.967 83.5803 109.05 80.4037C109.157 76.1097 108.127 71.9914 106.825 67.9658C106.405 66.6678 105.834 65.2332 104.473 64.4671C102.692 63.4668 100.779 62.8032 98.7344 62.8764C95.2894 63.0033 91.8494 63.2765 88.4093 63.501C82.3928 63.8914 76.3715 64.2866 70.355 64.677V64.6819Z" fill="#FF9439"/>
<path d="M73.615 28.0171C72.9221 28.1098 72.2341 28.2659 71.5412 28.2854C67.945 28.3732 64.3439 28.4269 60.7477 28.4904C60.3866 28.4952 60.0109 28.5245 59.6742 28.4367C55.2192 27.2802 50.8764 29.2174 46.4409 28.9393C44.977 28.8466 43.4741 29.3394 41.9908 29.5492C41.2783 29.6517 40.7806 29.3833 40.4195 28.7099C38.6434 25.4065 36.9697 22.0689 36.5403 18.2726C36.3403 16.5062 36.7209 14.8277 37.526 13.2662C39.3948 9.63099 42.1518 7.08385 46.2945 6.2836C46.7873 6.19089 47.285 6.02987 47.7779 6.04451C52.1597 6.17138 56.5659 6.10792 60.9136 6.56171C63.8608 6.86912 66.8666 7.44007 69.2917 9.59683C70.6678 10.8216 71.4534 12.2073 71.8535 13.9493C72.156 15.2619 72.6733 16.5258 73.0539 17.8188C73.2344 18.4288 73.4686 19.0777 73.4198 19.6877C73.2978 21.2638 73.1368 22.8496 72.7855 24.3867C72.4878 25.6895 72.361 26.8069 73.8639 27.5779C73.7858 27.7292 73.7077 27.8756 73.6248 28.0268L73.615 28.0171ZM55.1948 17.1454C55.2289 15.6328 54.7946 15.0912 53.4723 15.0326C51.6034 14.9497 50.5885 15.5743 50.6129 16.799C50.6422 18.0189 52.1548 19.595 53.3747 19.6682C54.658 19.7463 55.146 19.0631 55.1948 17.1503V17.1454Z" fill="white"/>
<path d="M77.4452 27.9828C77.4452 23.7961 77.6063 20.0828 77.3916 16.3939C77.2403 13.8321 78.0942 12.0072 80.0216 10.4311C83.4666 7.61072 87.3263 6.0444 91.8057 5.81018C95.4653 5.61988 99.1152 5.12702 102.755 5.84432C104.014 6.09317 105.254 6.48355 106.469 6.89343C107.898 7.3765 108.508 8.64521 109.04 9.909C110.851 14.1932 111.27 18.7751 111.748 23.3277C111.939 25.1331 111.524 25.3868 109.66 25.2356C108.313 25.1282 106.947 25.1477 105.6 25.2453C102.521 25.4649 99.447 25.7333 96.3729 26.0407C92.1619 26.4603 87.9557 26.9434 83.7447 27.3826C81.6221 27.6022 79.4995 27.7925 77.4452 27.9876V27.9828ZM98.6712 17.2039C98.3345 16.4768 98.1881 15.7254 97.7343 15.2911C97.0414 14.6275 95.1335 14.969 94.3772 15.7156C93.7575 16.3304 93.4745 18.2383 94.0308 18.8971C94.2894 19.1996 94.9091 19.4534 95.275 19.3607C96.1485 19.1508 97.0024 18.7848 97.7929 18.3554C98.154 18.1603 98.3443 17.6577 98.6761 17.2039H98.6712Z" fill="white"/>
<path d="M32.1826 32.4233C30.4358 33.4089 30.0844 33.3845 29.0939 32.2476C24.0875 26.5142 18.3053 21.5858 12.6694 16.5062C12.5132 16.3647 12.3181 16.2574 12.1424 16.1354C10.6395 15.1156 10.5273 14.8911 11.1079 14.0811C12.1522 12.627 13.3818 12.3098 14.5187 13.3394C15.4654 14.1982 16.3778 15.14 17.1146 16.1793C19.2128 19.1315 21.96 21.4346 24.5706 23.889C27.3177 26.4654 30.0259 29.0906 32.1875 32.4184L32.1826 32.4233Z" fill="#8B9463"/>
<path d="M23.985 38.5616C22.4236 36.8879 21.2769 35.6095 20.0765 34.3798C16.6316 30.8617 12.3718 28.4171 8.4047 25.5821C7.29704 24.7916 6.0918 24.1426 4.95487 23.3912C4.46203 23.0642 3.95457 22.5665 4.46204 21.9956C4.68162 21.7516 5.39891 21.7516 5.78927 21.9029C6.51632 22.1859 7.20433 22.6055 7.84355 23.0642C9.81976 24.4939 11.7862 25.9334 13.7087 27.4314C16.1388 29.3246 18.5444 31.2472 20.9256 33.2039C22.3455 34.375 23.6972 35.6339 25.4538 37.1855C24.9073 37.6979 24.5218 38.0541 23.985 38.5616Z" fill="#8B9463"/>
<path d="M21.1109 28.7099C19.7885 27.8853 18.4272 27.1192 17.1536 26.2263C13.6403 23.767 10.1612 21.254 6.66748 18.7606C7.38965 17.4919 8.02887 17.126 9.13165 17.5798C9.91725 17.9018 10.7273 18.3214 11.3421 18.8972C13.694 21.0979 15.9776 23.3718 18.2808 25.6261C19.2811 26.6069 20.7888 27.1388 21.0719 28.7588L21.1207 28.7148L21.1109 28.7099Z" fill="#8B9463"/>
<path d="M19.1249 100.029C14.5431 97.3356 12.967 92.8611 14.9578 87.4302C15.7776 89.7821 15.7678 91.9486 16.3973 93.9248C17.0267 95.9059 18.0856 97.7504 19.1249 100.029Z" fill="white"/>
<path d="M21.0669 28.7539C21.6329 29.1492 22.1989 29.5444 22.765 29.9396C22.6576 30.0616 22.5454 30.1836 22.438 30.3105C21.6134 30.1592 21.1694 29.6273 21.1108 28.71L21.0669 28.7539Z" fill="white"/>
<path d="M70.3551 64.6819C76.3715 64.2866 82.3929 63.8914 88.4093 63.5059C91.8494 63.2814 95.2895 63.0082 98.7344 62.8813C100.779 62.8032 102.692 63.4717 104.473 64.472C105.834 65.2381 106.405 66.6727 106.825 67.9707C108.128 72.0012 109.157 76.1195 109.05 80.4086C108.972 83.5803 107.732 86.4739 105.966 88.9429C104.57 90.8947 102.394 92.3 99.7103 92.178C95.9141 92.0024 92.1227 91.6705 88.3215 91.5876C83.8714 91.49 79.4115 91.4852 74.9614 91.6364C67.4176 91.8902 59.8836 92.3879 52.3398 92.6074C48.7583 92.7099 45.0937 92.8123 41.5902 92.1975C36.2325 91.2558 32.7046 88.1476 33.539 81.8188C33.7781 79.9841 33.6464 78.1201 34.3929 76.3244C36.2813 71.8109 39.5408 68.8783 44.0788 67.1509C48.4021 65.5065 52.9254 65.4284 57.4292 65.1405C61.7281 64.8673 66.0318 64.6184 70.3307 64.3549C70.3404 64.4672 70.3453 64.5745 70.3551 64.6868V64.6819ZM38.965 83.4388C39.4286 83.0582 39.7604 82.8874 39.9507 82.6191C41.0193 81.0869 42.0294 79.5108 43.1029 77.9835C44.3472 76.2122 44.9132 76.1683 46.4795 77.637C46.6893 77.8322 46.8699 78.0567 47.0602 78.2714C49.9733 81.526 52.901 84.7709 55.7848 88.0548C56.5704 88.9478 57.4341 89.2991 58.6198 89.2308C61.4207 89.0746 64.2264 89.0356 67.0321 88.9283C71.9165 88.738 76.8009 88.5233 81.6854 88.3232C82.7881 88.2793 83.6518 88.0402 83.7348 86.6544C83.764 86.142 84.1593 85.6248 84.4618 85.1613C86.6332 81.8676 88.868 78.6129 90.976 75.2802C91.42 74.5824 91.6396 73.8261 92.6204 73.8993C93.6548 73.9773 94.3038 74.5922 94.7381 75.5047C95.4163 76.9197 96.0995 78.3299 96.8412 79.7108C97.7585 81.4138 98.8808 83.0192 98.993 85.0539C99.0467 86.0006 99.7396 86.2006 100.545 86.0835C102.926 85.7371 104.956 85.0295 105.688 82.2921C106.088 80.7941 106.371 79.3449 106.093 77.842C105.595 75.1631 105.049 72.494 104.448 69.8346C104.126 68.4001 103.204 67.551 101.73 67.0777C98.7442 66.1213 95.7726 66.4385 92.796 66.9411C92.2105 67.0387 91.5859 67.4242 91.1614 67.8536C89.8586 69.1906 88.6045 70.5812 87.4139 72.0158C85.8086 73.9481 84.291 75.9536 82.7198 77.9152C81.7097 79.1741 80.4801 79.2033 79.5042 77.9444C78.9333 77.2125 78.4649 76.3976 77.9867 75.5925C76.5082 73.1039 75.7079 73.0698 74.0001 75.4412C73.9171 75.5583 73.8488 75.6852 73.7756 75.8121C72.8534 77.3491 71.9312 78.8862 71.0089 80.4184C70.1989 81.7554 69.1498 81.8481 68.0666 80.6672C67.7787 80.3501 67.5591 79.9743 67.3054 79.623C66.0025 77.8176 64.7387 75.9877 63.3822 74.2213C62.4453 73.0015 61.6939 72.9771 60.8058 74.1726C59.3078 76.1878 57.8342 78.2275 56.4923 80.3452C55.7799 81.4675 54.9504 81.9359 53.5304 81.7895C52.2179 79.2619 51.0077 76.666 49.5439 74.2213C48.6753 72.7721 47.797 71.4547 48.5484 69.7322C43.5957 68.322 37.4085 77.0417 38.9553 83.4339L38.965 83.4388ZM52.3301 88.3817C49.3487 85.8298 47.9434 82.3116 44.4496 80.6672C43.1517 82.4287 41.9172 84.0048 40.7997 85.659C40.0629 86.752 40.3313 87.4595 41.6146 87.9865C42.4637 88.333 43.3761 88.6501 44.2789 88.7282C46.3478 88.9087 48.4265 88.9771 50.5051 89.0063C50.9833 89.0112 51.4664 88.6892 52.335 88.3817H52.3301ZM97.2559 86.3226C96.607 83.5413 94.9528 81.648 93.4597 79.6816C93.001 79.0814 92.3178 79.1302 91.825 79.7987C90.3904 81.7651 88.9412 83.7267 87.5506 85.7224C87.3407 86.0201 87.2139 86.6056 87.37 86.8593C87.5359 87.1277 88.0922 87.2838 88.4679 87.2643C90.5417 87.1423 92.6155 86.9764 94.6844 86.7764C95.5042 86.6983 96.3093 86.4934 97.2608 86.3226H97.2559ZM52.3154 69.2491C51.8324 71.6938 52.413 73.9237 53.5548 76.0414C54.0428 76.949 54.6967 77.0563 55.4432 76.2219C57.112 74.3531 58.7125 72.4208 60.2496 70.4446C60.8741 69.6395 60.4643 69.0637 59.3615 68.8685C57.0144 68.4586 54.7015 68.6245 52.3154 69.2491ZM69.0718 76.827C71.3212 74.3335 72.7509 71.9182 74.3319 69.5516C73.0827 68.9905 68.6716 68.8197 65.661 69.1564C65.295 69.1954 64.9583 69.4833 64.3923 69.7663C65.9391 72.0987 67.3786 74.2701 69.0718 76.827ZM77.7915 68.3805C77.7085 68.5709 77.6305 68.7563 77.5475 68.9466C78.4941 70.4397 79.3968 71.9621 80.402 73.4113C80.807 73.992 81.4707 73.8456 81.9001 73.3625C83.2956 71.7913 84.6472 70.1762 86.3063 68.2439C83.1785 67.9072 80.485 68.2342 77.7866 68.3854L77.7915 68.3805ZM98.8711 88.8941C98.7735 89.0551 98.6759 89.2113 98.5783 89.3723C98.7003 89.4406 98.8711 89.5919 98.9296 89.5577C99.0809 89.465 99.1785 89.2893 99.2956 89.1478C99.1785 89.0795 99.0662 89.0112 98.8759 88.8941H98.8711Z" fill="black"/>
<path d="M55.1943 17.1405C55.1504 19.0532 54.6576 19.7364 53.3742 19.6583C52.1592 19.5851 50.6417 18.0139 50.6124 16.7892C50.5832 15.5693 51.5981 14.9398 53.4718 15.0228C54.7942 15.0813 55.2285 15.6181 55.1943 17.1356V17.1405Z" fill="black"/>
<path d="M98.676 17.204C98.3442 17.6529 98.1539 18.1604 97.7928 18.3556C97.0023 18.785 96.1484 19.151 95.2749 19.3608C94.909 19.4486 94.2893 19.1997 94.0307 18.8972C93.4744 18.2384 93.7574 16.3305 94.3771 15.7157C95.1334 14.9692 97.0413 14.6276 97.7342 15.2912C98.188 15.7255 98.3344 16.4818 98.6711 17.204H98.676Z" fill="black"/>
<path d="M38.9652 83.4388C37.4233 77.0515 43.6057 68.3269 48.5584 69.7371C47.807 71.4596 48.6853 72.7721 49.5538 74.2262C51.0177 76.6709 52.2278 79.2668 53.5404 81.7944C54.9603 81.9408 55.7947 81.4724 56.5023 80.3501C57.8442 78.2324 59.3178 76.1878 60.8158 74.1774C61.7039 72.982 62.4553 73.0063 63.3922 74.2262C64.7438 75.9926 66.0125 77.8225 67.3153 79.6279C67.5691 79.9792 67.7886 80.3549 68.0765 80.6721C69.1598 81.8529 70.2089 81.7603 71.0189 80.4233C71.946 78.8911 72.8634 77.354 73.7856 75.817C73.8588 75.695 73.9271 75.5632 74.01 75.4461C75.713 73.0747 76.5132 73.1088 77.9966 75.5974C78.4748 76.3977 78.9433 77.2125 79.5142 77.9493C80.4901 79.2082 81.7197 79.179 82.7298 77.9201C84.301 75.9585 85.8185 73.953 87.4239 72.0207C88.6145 70.5812 89.8734 69.1955 91.1714 67.8585C91.591 67.4242 92.2205 67.0435 92.806 66.9459C95.7825 66.4434 98.7542 66.1262 101.74 67.0826C103.209 67.5559 104.131 68.405 104.458 69.8395C105.059 72.4989 105.605 75.168 106.103 77.8469C106.381 79.3498 106.103 80.799 105.698 82.297C104.966 85.0344 102.936 85.742 100.555 86.0884C99.7496 86.2055 99.0567 86.0055 99.003 85.0588C98.8908 83.0241 97.7685 81.4187 96.8511 79.7157C96.1094 78.3348 95.4263 76.9246 94.7481 75.5096C94.3089 74.5971 93.6648 73.9822 92.6303 73.9042C91.6544 73.831 91.43 74.5873 90.9859 75.2851C88.878 78.6178 86.6432 81.8725 84.4718 85.1662C84.1643 85.6297 83.774 86.1469 83.7447 86.6593C83.6618 88.0451 82.7981 88.2842 81.6953 88.3281C76.8109 88.5282 71.9265 88.738 67.0421 88.9331C64.2363 89.0454 61.4306 89.0795 58.6298 89.2357C57.444 89.304 56.5804 88.9526 55.7948 88.0597C52.9158 84.7758 49.9832 81.5358 47.0701 78.2763C46.8798 78.0616 46.6993 77.8371 46.4895 77.6419C44.9231 76.1732 44.3571 76.2171 43.1128 77.9883C42.0393 79.5156 41.0293 81.0917 39.9607 82.6239C39.7704 82.8971 39.4386 83.068 38.975 83.4437L38.9652 83.4388Z" fill="#ED1C24"/>
<path d="M52.3304 88.3769C51.4667 88.6843 50.9788 89.0112 50.5006 89.0015C48.4219 88.9722 46.3432 88.9087 44.2743 88.7233C43.3716 88.6452 42.4591 88.3281 41.6101 87.9817C40.3268 87.4547 40.0584 86.752 40.7952 85.6541C41.9126 83.9999 43.1471 82.4239 44.4451 80.6624C47.9437 82.3068 49.3442 85.8249 52.3255 88.3769H52.3304Z" fill="white"/>
<path d="M97.2563 86.3176C96.3097 86.4884 95.4997 86.6933 94.6799 86.7714C92.611 86.9714 90.5372 87.1373 88.4634 87.2593C88.0877 87.2788 87.5314 87.1227 87.3655 86.8543C87.2093 86.6006 87.3362 86.0151 87.546 85.7174C88.9416 83.7217 90.3859 81.7601 91.8205 79.7937C92.3084 79.1252 92.9965 79.0764 93.4551 79.6766C94.9483 81.643 96.6073 83.5363 97.2514 86.3176H97.2563Z" fill="white"/>
<path d="M52.3155 69.2442C54.7016 68.6196 57.0096 68.4537 59.3615 68.8636C60.4643 69.0539 60.8742 69.6345 60.2496 70.4397C58.7125 72.4159 57.1121 74.353 55.4433 76.217C54.6967 77.0514 54.0428 76.9441 53.5549 76.0365C52.4131 73.9188 51.8324 71.6888 52.3155 69.2442Z" fill="white"/>
<path d="M69.072 76.8222C67.3789 74.2653 65.9394 72.0939 64.3926 69.7615C64.9586 69.4785 65.2953 69.1954 65.6613 69.1515C68.6719 68.81 73.0781 68.9857 74.3322 69.5468C72.7512 71.9134 71.3215 74.3288 69.072 76.8222Z" fill="white"/>
<path d="M77.7918 68.3806C80.4902 68.2293 83.1837 67.9023 86.3115 68.239C84.6525 70.1762 83.3008 71.7864 81.9053 73.3577C81.4759 73.8407 80.8123 73.9872 80.4073 73.4065C79.4021 71.9573 78.4994 70.4348 77.5527 68.9417C77.6357 68.7514 77.7138 68.566 77.7967 68.3757L77.7918 68.3806Z" fill="white"/>
<path d="M98.8714 88.8892C99.0617 89.0063 99.1788 89.0746 99.291 89.1429C99.1739 89.2844 99.0763 89.4601 98.9251 89.5528C98.8714 89.5869 98.6957 89.4357 98.5737 89.3673C98.6713 89.2063 98.7689 89.0502 98.8665 88.8892H98.8714Z" fill="white"/>
<path d="M119.917 66.7996C119.77 66.8142 119.624 66.8239 119.482 66.8386C120.044 72.9136 120.629 78.9886 121.161 85.0636C121.268 86.2786 121.385 87.4986 121.468 88.7136C121.742 85.8737 121.41 83.0289 121.161 80.189C120.756 75.5339 120.317 70.8788 119.883 66.2286C119.897 66.4189 119.907 66.6141 119.922 66.8044L119.917 66.7996Z" fill="#FFC34F"/>
<path d="M88.3264 96.4623C92.1227 96.5452 95.9189 96.877 99.7152 97.0527C102.399 97.1747 104.575 95.7694 105.971 93.8176C107.737 91.3485 108.972 88.4598 109.055 85.2833C109.084 84.1561 109.03 83.0387 108.913 81.9359C108.542 84.5123 107.449 86.874 105.971 88.938C104.575 90.8898 102.399 92.2952 99.7152 92.1732C95.9189 91.9975 92.1276 91.6657 88.3264 91.5828C83.8763 91.4852 79.4164 91.4803 74.9662 91.6315C67.4225 91.8853 59.8885 92.383 52.3447 92.6026C48.7631 92.705 45.0986 92.8075 41.5951 92.1927C37.4768 91.4705 34.4466 89.4601 33.6415 85.6931C33.6171 86.0249 33.5829 86.3568 33.5439 86.6886C32.7095 93.0222 36.2374 96.1256 41.5951 97.0673C43.5323 97.4089 45.5231 97.526 47.5189 97.5455C48.5485 97.2284 49.5731 96.9405 50.6125 96.9209C53.3011 96.8673 56.0044 97.0088 58.693 97.2381C64.1142 96.999 69.5402 96.6916 74.9662 96.5062C79.4164 96.3549 83.8763 96.3647 88.3264 96.4574V96.4623Z" fill="#FFC34F"/>
<path d="M17.0511 83.1558C17.7733 80.1646 18.1393 77.1296 18.0075 74.0652C17.8367 70.1225 18.9737 66.497 20.579 63.0472C22.7846 58.2994 25.1951 53.6346 27.7471 49.0576C30.0892 44.8563 33.4805 41.7773 38.2722 40.4208C39.414 40.0987 40.4046 39.279 41.5122 38.8057C42.5516 38.3617 43.6397 37.8493 44.7376 37.7615C48.5339 37.4638 52.3448 37.2735 56.1508 37.1662C64.8461 36.9173 73.5463 36.6636 82.2465 36.566C88.5021 36.4977 94.7625 36.5611 101.008 36.7856C105.234 36.9368 109.45 37.459 113.666 37.8493C115.779 38.0445 117.111 39.1131 117.423 41.3138C117.848 44.2952 118.477 47.257 118.745 50.2482C119.097 54.142 119.346 58.0408 119.594 61.9396C119.702 61.9298 119.809 61.92 119.912 61.9103C119.531 56.3964 119.238 50.8728 118.741 45.3686C118.472 42.3726 117.843 39.4157 117.418 36.4343C117.106 34.2287 115.769 33.1601 113.661 32.9698C109.445 32.5794 105.229 32.0573 101.003 31.906C94.7528 31.6816 88.4924 31.6182 82.2417 31.6865C73.5415 31.7841 64.8413 32.0378 56.1459 32.2867C52.3399 32.394 48.529 32.5843 44.7327 32.8819C43.6348 32.9698 42.5467 33.4821 41.5073 33.9262C40.3997 34.3995 39.4043 35.2143 38.2673 35.5413C33.4805 36.8978 30.0844 39.9768 27.7422 44.1781C25.1902 48.7502 22.7797 53.415 20.5741 58.1677C18.9737 61.6175 17.8367 65.2381 18.0026 69.1857C18.149 72.6404 17.6708 76.0609 16.7583 79.418C16.5827 80.067 16.6168 80.8136 16.7291 81.487C16.8218 82.0432 16.934 82.5995 17.0462 83.1558H17.0511Z" fill="#FFC34F"/>
<path d="M48.5635 73.831C47.812 75.5535 48.6904 76.8661 49.5589 78.3202C50.8569 80.4916 51.9597 82.7801 53.1112 85.0344C53.3698 85.3272 53.6285 85.6151 53.8871 85.9079C55.1021 85.9469 55.8633 85.4736 56.5123 84.444C57.8541 82.3263 59.3277 80.2817 60.8258 78.2714C61.7138 77.0759 62.4653 77.1003 63.4022 78.3202C64.7538 80.0866 66.0225 81.9164 67.3253 83.7218C67.579 84.0731 67.7986 84.4488 68.0865 84.766C69.1698 85.9469 70.2189 85.8541 71.0289 84.5171C71.956 82.985 72.8733 81.448 73.7956 79.9109C73.8688 79.7889 73.9371 79.6572 74.02 79.54C75.723 77.1686 76.5232 77.2028 78.0066 79.6913C78.4848 80.4916 78.9532 81.3064 79.5241 82.0433C80.5 83.3022 81.7297 83.2729 82.7397 82.0139C84.3109 80.0524 85.8285 78.0469 87.4338 76.1146C88.6244 74.6751 89.8834 73.2893 91.1813 71.9524C91.601 71.5181 92.2304 71.1375 92.816 71.0399C95.7925 70.5373 98.7641 70.2201 101.75 71.1765C103.219 71.6498 104.141 72.4989 104.468 73.9335C105.015 76.3488 105.508 78.7789 105.971 81.2138C106.21 80.0915 106.323 78.9838 106.113 77.8469C105.615 75.168 105.068 72.4989 104.468 69.8395C104.146 68.405 103.224 67.5559 101.75 67.0826C98.7641 66.1262 95.7925 66.4434 92.816 66.9459C92.2304 67.0435 91.6059 67.4291 91.1813 67.8585C89.8785 69.1955 88.6244 70.5861 87.4338 72.0207C85.8285 73.953 84.3109 75.9585 82.7397 77.9201C81.7297 79.179 80.5 79.2082 79.5241 77.9493C78.9532 77.2174 78.4848 76.4025 78.0066 75.5974C76.5281 73.1088 75.7279 73.0747 74.02 75.4461C73.9371 75.5632 73.8688 75.6901 73.7956 75.817C72.8733 77.354 71.9511 78.8911 71.0289 80.4233C70.2189 81.7603 69.1698 81.8529 68.0865 80.6721C67.7986 80.3549 67.579 79.9792 67.3253 79.6279C66.0225 77.8225 64.7587 75.9926 63.4022 74.2262C62.4653 73.0063 61.7138 72.982 60.8258 74.1774C59.3277 76.1927 57.8541 78.2324 56.5123 80.3501C55.7998 81.4724 54.9703 81.9408 53.5504 81.7944C52.2378 79.2668 51.0277 76.6709 49.5638 74.2262C48.6952 72.777 47.8169 71.4596 48.5684 69.7371C43.6498 68.3367 37.5211 76.9246 38.9459 83.3021C39.9804 77.92 44.655 72.7185 48.5684 73.831H48.5635Z" fill="#870B20"/>
</svg>
