<svg width="125" height="131" viewBox="0 0 125 131" fill="none" xmlns="http://www.w3.org/2000/svg">
<path d="M74.0954 123.681C73.7969 123.874 73.6433 123.918 73.6038 124.01C73.0551 125.296 72.4406 126.561 72.0104 127.882C71.3652 129.853 70.3557 130.191 68.8852 128.694C66.8266 126.596 64.8514 124.414 62.8367 122.272C62.4329 121.842 62.0028 121.434 61.4234 120.854C60.3041 123.962 58.8073 126.587 57.2272 129.181C56.718 130.015 56.1825 130.48 55.1993 130.423C54.2776 130.37 53.8254 129.817 53.4085 129.067C52.8466 128.053 52.2146 127.065 51.4991 126.157C50.1384 124.427 48.6812 122.773 47.2854 121.069C46.7367 120.398 46.0783 120.323 45.3058 120.538C43.0101 121.179 40.7233 121.873 38.4057 122.421C36.5666 122.856 34.688 123.137 32.8181 123.431C31.6725 123.611 30.4742 123.563 29.3549 123.835C27.3402 124.326 25.4572 123.576 23.5347 123.352C20.866 123.04 18.1841 122.575 15.5988 121.851C12.2541 120.911 8.95771 119.854 5.94663 117.936C2.53173 115.758 1.09641 112.607 0.380954 108.845C-0.413515 104.667 0.231719 100.523 0.54775 96.3839C0.977905 90.77 1.72409 85.1779 2.29032 79.5771C2.49222 77.5668 2.48345 75.5346 2.74242 73.5331C2.90482 72.2777 3.27352 71.0179 3.74318 69.8372C4.71322 67.3924 5.65693 64.9212 6.88595 62.5992C9.05866 58.4952 11.5123 54.5404 13.6982 50.4452C16.1518 45.8495 20.0759 42.5927 23.6927 39.0417C24.6408 38.1111 25.4045 36.9875 26.2122 35.9209C27.6124 34.073 28.8502 32.0802 30.404 30.3728C31.3652 29.3193 32.7698 28.6653 33.9944 27.8577C34.4509 27.5548 34.9821 27.3661 35.4429 27.072C40.4775 23.8985 46.0037 22.3447 51.9205 22.0681C53.6762 21.9847 53.922 21.8092 54.1985 20.1105C54.6945 17.0863 55.0808 14.0444 55.647 11.0377C55.8928 9.72973 56.3976 8.45683 56.9111 7.21904C57.7802 5.12972 58.7634 3.08867 59.672 1.01252C59.9486 0.376065 60.4094 -0.0628584 61.0591 0.00737084C62.5558 0.174165 64.0526 0.218056 65.4177 1.15737C67.8669 2.84288 69.8377 5.01998 71.949 7.05224C72.8444 7.91255 72.7874 8.31637 71.9402 9.20301C71.6417 9.51465 71.3257 9.80435 71.0097 10.094C68.1127 12.7145 66.4974 16.1469 64.97 19.6365C64.8119 20.0008 64.869 20.4617 64.8075 21.063C65.9137 21.1332 66.932 21.1815 67.9459 21.2737C69.6534 21.4273 71.4135 21.4053 73.0551 21.8355C75.1093 22.3754 77.1108 23.2006 79.0553 24.0741C81.3992 25.1231 83.6817 26.3082 85.9466 27.5197C87.2941 28.2395 88.5845 29.0735 89.8355 29.9514C93.9483 32.8308 98.127 35.6751 101.485 39.4367C103.592 41.7982 105.475 44.401 107.191 47.0654C109.171 50.1423 110.953 53.3641 112.651 56.6078C115.482 62.033 118.388 67.4363 120.877 73.0239C123.322 78.5105 125.117 84.2123 124.994 90.3925C124.915 94.3736 125.069 98.3503 124.511 102.31C124.033 105.689 122.488 108.529 119.78 110.539C117.73 112.063 115.517 113.515 113.156 114.437C110.461 115.491 107.735 116.733 104.693 116.671C103.789 116.654 102.876 116.93 101.968 117.084C99.2989 117.54 96.6346 117.698 93.9176 117.444C91.1743 117.185 88.4046 117.172 85.6481 117.15C85.2179 117.15 84.6342 117.567 84.3884 117.957C83.9055 118.73 83.4798 119.586 83.2691 120.464C82.6985 122.838 81.3553 124.831 80.258 126.947C80.0649 127.316 79.784 127.671 79.4635 127.934C78.6339 128.615 77.9448 128.588 77.2601 127.754C76.369 126.67 75.5702 125.507 74.7274 124.379C74.5519 124.146 74.3456 123.944 74.0954 123.659V123.681ZM50.8319 26.3038C51.0382 26.9359 51.1172 27.3485 51.3016 27.704C52.1048 29.2842 52.9388 30.8512 53.764 32.4226C55.8182 36.3378 57.6134 40.3365 58.4386 44.7346C59.1409 48.4875 57.4203 54.0356 53.448 55.6026C53.1627 55.7124 52.9169 55.923 52.6316 56.024C51.7449 56.3356 51.363 57.0335 51.4157 57.8807C51.5079 59.395 51.6483 60.9181 51.9073 62.4149C52.2892 64.5788 52.8247 66.7164 53.2417 68.876C53.6235 70.8599 53.9659 72.8527 54.2644 74.8499C54.9755 79.5684 55.647 84.2913 56.3361 89.0142C56.5293 90.3442 56.7795 91.6698 56.8848 93.0085C57.3281 98.6181 58.0919 104.206 57.9602 109.855C57.9514 110.281 57.9997 110.711 58.0392 111.141C58.1577 112.471 58.3816 112.673 59.7554 112.655C60.0583 112.655 60.3655 112.602 60.6684 112.572C62.4373 112.401 64.2018 112.133 65.9707 112.08C68.8501 112.001 71.7339 112.067 74.6177 112.063C76.0355 112.063 76.3998 111.852 76.6017 110.684C76.8694 109.117 77.0669 107.537 77.2162 105.957C77.5717 102.178 77.6727 98.3635 78.2696 94.6282C78.7525 91.6127 78.6734 88.6367 78.511 85.652C78.2213 80.4506 77.7868 75.2624 77.3742 70.0699C77.0626 66.1677 76.6456 62.27 76.369 58.3679C76.29 57.2354 75.8028 56.8097 74.7669 56.5288C66.6335 54.3209 63.9692 48.8035 63.5303 41.8904C63.5171 41.7104 63.561 41.526 63.5917 41.3417C64.3203 36.8997 64.0965 32.4182 64.1272 27.9455C64.1272 27.4187 64.0087 26.8964 63.9385 26.317H50.8451L50.8319 26.3038ZM78.5023 57.6832C78.5023 58.2977 78.4847 58.5435 78.5023 58.7849C78.7832 61.954 79.0904 65.1231 79.3494 68.2966C79.6786 72.326 79.8673 76.373 80.3019 80.3936C81.0217 87.0215 80.4775 93.6142 80.021 100.216C79.999 100.523 79.9683 100.826 79.9288 101.133C79.5294 104.351 79.1168 107.568 78.7261 110.785C78.5725 112.036 78.7963 112.313 80.0868 112.365C83.1462 112.493 86.2099 112.624 89.2737 112.668C92.3418 112.712 95.41 112.646 98.4737 112.638C99.255 112.638 99.9705 112.589 100.115 111.597C100.405 109.662 100.774 107.735 100.976 105.79C101.182 103.78 101.213 101.756 101.349 99.7373C101.432 98.5171 101.66 97.3013 101.66 96.0854C101.678 89.8306 101.52 83.5802 100.866 77.3561C100.603 74.8674 100.291 72.3479 99.6325 69.9426C98.8073 66.9447 97.609 64.0477 96.5556 61.1156C96.2483 60.2685 95.8752 59.4433 95.4846 58.482C89.7565 59.8383 84.2435 58.324 78.5023 57.6876V57.6832ZM30.5883 63.3717C30.8034 65.2592 30.8956 67.1597 31.2599 69.0077C32.1334 73.4497 33.0683 77.8741 33.459 82.3995C33.8233 86.6088 34.4114 90.7963 34.7626 95.0056C35.2322 100.58 36.0574 106.076 37.9405 111.369C38.7349 113.599 39.4636 115.864 40.7101 118.006C42.2113 117.633 43.6642 117.369 45.0468 116.913C48.3563 115.815 51.6264 114.617 54.9228 113.485C55.6997 113.217 55.9543 112.712 55.8884 111.94C55.7963 110.842 55.6251 109.736 55.669 108.643C55.906 102.928 55.2344 97.2618 54.7999 91.5864C54.5365 88.1144 53.8825 84.6732 53.4567 81.2144C52.7237 75.2581 51.8502 69.3281 50.5422 63.4639C50.1252 61.5897 49.3791 59.6935 49.9321 57.6876C49.9541 57.6042 49.8268 57.4813 49.6512 57.174C49.085 57.332 48.4397 57.4505 47.8472 57.6919C46.0344 58.4337 44.2655 59.2897 42.4395 59.9832C40.2712 60.804 38.0809 61.5765 35.8555 62.2305C34.2403 62.7046 32.5591 62.9548 30.5839 63.3717H30.5883ZM104.733 50.3486C104.347 51.2265 103.987 51.6917 103.947 52.1877C103.737 54.8301 102.134 56.3576 99.9178 57.4242C99.5315 57.6086 99.1102 57.7183 98.7283 57.9026C97.7626 58.3679 97.6134 58.7015 97.9821 59.632C98.6581 61.3351 99.3955 63.0162 100.041 64.7324C100.624 66.2775 101.221 67.8269 101.638 69.4203C102.867 74.1212 103.425 78.9407 103.539 83.7777C103.684 89.835 104.36 95.8967 103.565 101.954C103.153 105.097 103.605 108.336 102.565 111.417C102.354 112.045 102.547 112.576 103.28 112.589C105.9 112.646 108.578 112.962 111.001 111.619C112.972 110.526 114.929 109.394 116.799 108.143C120.096 105.944 122.049 102.849 122.211 98.8463C122.352 95.4182 122.391 91.977 122.251 88.5533C122.163 86.3718 121.843 84.1596 121.311 82.0396C120.021 76.8953 117.607 72.1899 115.079 67.5811C112.577 63.025 109.798 58.6181 107.129 54.1541C106.449 53.0129 105.712 51.9024 104.729 50.3486H104.733ZM17.214 52.4423C16.4898 53.5747 15.9675 54.5097 15.331 55.3568C14.5892 56.3444 14.5058 57.3452 14.9096 58.4689C15.2783 59.5004 15.7304 60.5319 15.9148 61.6029C16.7488 66.4838 17.6266 71.3647 18.2499 76.2764C18.8205 80.7711 19.1761 85.2964 19.4745 89.8175C19.7511 93.9698 20.0232 98.1001 20.8528 102.195C21.9765 107.752 24.5486 112.638 27.27 117.519C28.3805 119.516 29.5525 120.35 31.8261 119.792C33.9418 119.274 36.1277 119.046 38.2521 118.695C38.2653 118.436 38.3179 118.291 38.2697 118.203C36.1057 114.174 34.8723 109.833 33.9681 105.386C33.6784 103.956 33.4677 102.498 33.2922 101.05C32.9674 98.3811 32.6601 95.7079 32.4099 93.0305C32.2782 91.6303 32.3528 90.2125 32.2124 88.8123C31.8832 85.4676 31.0887 82.1756 31.1546 78.7871C31.1633 78.3657 31.0492 77.9356 30.9922 77.5142C30.4786 73.8228 29.9607 70.1313 29.4515 66.4399C29.311 65.4084 29.175 64.3769 29.0521 63.3454C28.9599 62.5729 28.6175 62.134 27.7748 62.0857C24.711 61.9101 22.5251 60.2992 20.9055 57.7929C20.0715 56.5068 19.2419 55.2208 18.3904 53.9479C18.1007 53.5133 17.7495 53.1183 17.2228 52.4379L17.214 52.4423ZM95.309 54.141C95.309 54.2068 95.309 54.2726 95.3134 54.3341C96.2834 54.2244 97.2535 54.0444 98.2279 54.0269C99.7554 53.9961 100.611 53.0919 101.103 51.841C102.389 48.5753 102.49 45.3974 100.102 42.5005C97.4773 39.3138 94.5979 36.4213 90.8758 34.4899C89.6819 33.8711 88.4836 33.2522 87.3292 32.563C82.4132 29.6178 77.146 27.489 71.69 25.7991C70.8297 25.5313 69.8816 25.4216 68.9774 25.4435C67.4894 25.4786 67.1646 25.8035 67.1471 27.3353C67.0856 32.2953 67.0286 37.2596 67.0988 42.2239C67.1383 44.8971 68.0118 47.3902 69.3812 49.6902C70.2152 51.086 71.5188 51.977 73.0244 52.2667C76.391 52.912 79.7796 53.5353 83.1901 53.803C87.2107 54.119 91.262 54.0444 95.3002 54.141H95.309ZM47.202 27.0676C42.6941 27.6294 39.1475 30.1182 35.6975 32.5894C29.6358 36.9348 24.7374 42.5049 20.1768 48.3602C19.4131 49.339 19.4438 49.6244 20.2163 50.5944C20.9757 51.5513 21.735 52.5081 22.4725 53.487C23.9209 55.4139 25.6811 57.0423 27.6738 58.3547C28.6 58.9649 29.8334 59.4301 30.9219 59.417C33.8803 59.3862 36.6983 58.7761 39.2924 57.095C42.2596 55.1681 45.3189 53.386 48.747 52.2755C50.9636 51.5601 53.031 50.4013 54.3609 48.3427C55.0896 47.2146 55.8577 46.0427 55.4144 44.5942C54.8964 42.9087 54.3609 41.2232 53.7289 39.5772C52.9608 37.58 52.0434 35.6399 51.2665 33.6472C50.3008 31.1716 48.9796 28.9418 47.202 27.0676ZM13.3426 59.8954H12.8774C11.9644 62.0067 11.0207 64.1135 10.1428 66.2467C8.68996 69.7582 7.57507 73.3926 6.74548 77.0884C6.09147 80.0029 5.81056 83.0008 5.31895 85.9549C4.3533 91.7707 3.72562 97.6085 4.17772 103.517C4.21284 103.999 4.21284 104.522 4.39719 104.956C5.52086 107.607 6.60503 110.281 7.87793 112.861C8.94893 115.03 10.832 116.553 13.0442 117.33C15.8051 118.3 18.7064 118.892 21.5683 119.56C22.7973 119.845 24.079 119.902 25.6986 120.113C25.3343 119.344 25.1456 118.791 24.8339 118.322C22.8324 115.293 21.3356 112.014 20.1329 108.608C18.2236 103.187 17.5959 97.5207 17.2448 91.8322C17.0297 88.3602 17.1438 84.897 16.7137 81.4031C15.985 75.4468 15.2652 69.4948 14.26 63.5824C14.0493 62.3402 13.6499 61.1244 13.3383 59.8998L13.3426 59.8954ZM67.845 6.75377C66.8837 5.95052 66.0805 5.20872 65.2026 4.57227C64.1316 3.80414 63.4688 3.95777 62.8323 5.0946C62.4461 5.78373 62.2793 6.60452 61.8579 7.26731C59.3033 11.3011 58.0348 15.8485 56.56 20.3168C56.4283 20.7162 56.5424 21.1991 56.5424 21.7126C57.5739 21.6336 58.364 21.5634 59.1541 21.5151C61.3224 21.3746 61.5419 21.2473 62.1959 19.2985C63.64 15.0013 65.1368 10.7305 67.845 6.74938V6.75377ZM58.6581 117.527C56.0947 118.344 53.268 117.887 50.7266 119.34C51.9468 121.636 53.167 123.751 54.8043 125.634C55.8753 124.48 57.9075 120.411 58.6581 117.527ZM70.2328 117.071C68.2532 116.645 65.1368 116.72 63.6444 117.281C64.3511 118.515 65.3255 119.476 66.2253 120.499C67.1207 121.517 67.9942 122.549 69.0652 123.795C69.7324 121.328 70.6893 119.314 70.2328 117.075V117.071ZM76.5622 117.211C76.9002 119.055 77.6112 120.565 78.353 122.061C78.5154 122.066 78.6778 122.075 78.8402 122.079C79.582 120.543 80.3238 119.006 81.1929 117.211H76.5622Z" fill="black"/>
<path d="M50.8276 26.2994H63.921C63.9912 26.8788 64.1141 27.4011 64.1097 27.9279C64.0834 32.4006 64.3029 36.8821 63.5742 41.3241C63.5435 41.5041 63.504 41.6928 63.5128 41.8728C63.9517 48.7904 66.616 54.3033 74.7495 56.5112C75.7854 56.7921 76.2726 57.2179 76.3516 58.3503C76.6281 62.2568 77.0451 66.1502 77.3567 70.0523C77.7693 75.2449 78.2039 80.4374 78.4936 85.6344C78.6604 88.6191 78.7394 91.5951 78.2522 94.6106C77.6508 98.3459 77.5543 102.16 77.1987 105.939C77.0495 107.52 76.852 109.104 76.5842 110.667C76.3867 111.834 76.018 112.041 74.6002 112.045C71.7164 112.054 68.8327 111.984 65.9533 112.063C64.1844 112.111 62.4198 112.383 60.6509 112.554C60.3481 112.585 60.0408 112.633 59.738 112.638C58.3685 112.655 58.1403 112.453 58.0217 111.123C57.9822 110.697 57.934 110.267 57.9427 109.837C58.0744 104.192 57.3107 98.6005 56.8673 92.9909C56.762 91.6522 56.5118 90.3266 56.3187 88.9966C55.6339 84.2737 54.958 79.5508 54.2469 74.8322C53.9484 72.8351 53.6061 70.8423 53.2242 68.8584C52.8072 66.6988 52.2717 64.5612 51.8898 62.3973C51.6265 60.9049 51.4904 59.3818 51.3982 57.8631C51.3456 57.016 51.7274 56.3225 52.6141 56.0064C52.8994 55.9055 53.1452 55.6948 53.4305 55.585C57.4028 54.018 59.1235 48.4699 58.4212 44.717C57.596 40.3189 55.8007 36.3203 53.7465 32.405C52.9213 30.8336 52.0874 29.2666 51.2841 27.6865C51.1042 27.3265 51.0251 26.9183 50.8145 26.2863L50.8276 26.2994Z" fill="#FF9439"/>
<path d="M78.498 57.6787C84.2393 58.3152 89.7567 59.8295 95.4804 58.4732C95.8754 59.4344 96.2485 60.2552 96.5514 61.1068C97.6092 64.0388 98.8075 66.9358 99.6283 69.9337C100.291 72.3391 100.603 74.8585 100.862 77.3473C101.516 83.5714 101.678 89.8218 101.656 96.0766C101.656 97.2924 101.424 98.5083 101.344 99.7285C101.208 101.743 101.178 103.771 100.971 105.781C100.77 107.726 100.396 109.653 100.111 111.588C99.9619 112.58 99.2508 112.629 98.4695 112.629C95.4013 112.633 92.3332 112.703 89.2695 112.659C86.2057 112.616 83.1463 112.484 80.0826 112.357C78.7921 112.304 78.5683 112.027 78.7219 110.776C79.1125 107.559 79.5251 104.342 79.9246 101.124C79.9641 100.821 79.9948 100.514 80.0167 100.207C80.4732 93.6054 81.0175 87.0126 80.2977 80.3847C79.8631 76.3641 79.6744 72.3215 79.3452 68.2877C79.0862 65.1142 78.779 61.9495 78.498 58.776C78.4761 58.5346 78.498 58.2888 78.498 57.6743V57.6787Z" fill="#FFC34F"/>
<path d="M30.584 63.3674C32.5592 62.9504 34.2403 62.7002 35.8556 62.2262C38.0766 61.5722 40.2712 60.7997 42.4396 59.9789C44.2699 59.2853 46.0388 58.4294 47.8472 57.6876C48.4398 57.4462 49.0806 57.3277 49.6512 57.1697C49.8224 57.4769 49.9541 57.5998 49.9322 57.6832C49.3791 59.6891 50.1209 61.581 50.5423 63.4596C51.8503 69.3237 52.7238 75.2537 53.4568 81.2101C53.8826 84.6688 54.5366 88.1101 54.7999 91.582C55.2345 97.2574 55.906 102.928 55.669 108.639C55.6251 109.732 55.7963 110.838 55.8885 111.935C55.9543 112.708 55.6997 113.213 54.9228 113.48C51.6264 114.613 48.352 115.811 45.0468 116.908C43.6598 117.369 42.2113 117.633 40.7102 118.001C39.4636 115.859 38.735 113.599 37.9405 111.365C36.0575 106.071 35.2323 100.576 34.7626 95.0013C34.4115 90.792 33.8189 86.6045 33.459 82.3952C33.0684 77.8698 32.1334 73.4453 31.2599 69.0033C30.8956 67.1554 30.8035 65.2548 30.5884 63.3674H30.584Z" fill="#FFC34F"/>
<path d="M104.728 50.3442C105.712 51.8981 106.445 53.0086 107.129 54.1498C109.798 58.6137 112.577 63.0206 115.078 67.5768C117.611 72.1856 120.025 76.8909 121.311 82.0352C121.842 84.1553 122.158 86.3631 122.251 88.549C122.391 91.977 122.352 95.4183 122.211 98.8419C122.049 102.845 120.095 105.935 116.799 108.139C114.925 109.39 112.972 110.522 111.001 111.615C108.578 112.958 105.896 112.642 103.28 112.585C102.547 112.567 102.354 112.041 102.564 111.413C103.6 108.332 103.148 105.097 103.565 101.95C104.364 95.8879 103.684 89.8263 103.539 83.7734C103.425 78.9363 102.867 74.1169 101.638 69.4159C101.221 67.8226 100.62 66.2731 100.041 64.7281C99.391 63.0119 98.658 61.3307 97.982 59.6277C97.6133 58.7015 97.7669 58.3636 98.7282 57.8983C99.1145 57.7139 99.5358 57.6042 99.9177 57.4198C102.134 56.3532 103.736 54.8257 103.947 52.1834C103.987 51.6874 104.347 51.2221 104.733 50.3442H104.728Z" fill="#FF9439"/>
<path d="M17.2094 52.438C17.7405 53.1183 18.0873 53.5134 18.377 53.9479C19.2285 55.2208 20.0581 56.5069 20.8921 57.7929C22.5117 60.2949 24.6976 61.9058 27.7614 62.0857C28.6041 62.134 28.9509 62.5729 29.0387 63.3455C29.1616 64.377 29.2933 65.4128 29.4381 66.4399C29.9473 70.1314 30.4652 73.8228 30.9788 77.5142C31.0358 77.94 31.1499 78.3657 31.1412 78.7871C31.0753 82.1757 31.8698 85.4721 32.199 88.8124C32.3394 90.2126 32.2648 91.6303 32.3965 93.0305C32.6467 95.708 32.954 98.3811 33.2788 101.05C33.4543 102.503 33.6606 103.956 33.9547 105.386C34.8589 109.833 36.0923 114.174 38.2563 118.203C38.3046 118.291 38.2519 118.432 38.2387 118.695C36.1143 119.046 33.9284 119.274 31.8127 119.792C29.5391 120.345 28.3671 119.516 27.2566 117.519C24.5396 112.638 21.9675 107.752 20.8394 102.195C20.0098 98.0958 19.7333 93.9654 19.4612 89.8175C19.1627 85.2965 18.8071 80.7711 18.2365 76.2764C17.6089 71.3648 16.7354 66.4838 15.9014 61.6029C15.7171 60.5319 15.265 59.5048 14.8963 58.4689C14.4924 57.3453 14.5758 56.3445 15.3176 55.3569C15.9585 54.5097 16.4808 53.5748 17.2007 52.4424L17.2094 52.438Z" fill="#FF9439"/>
<path d="M95.309 54.1367C91.2708 54.0401 87.2195 54.1104 83.1988 53.7987C79.7883 53.531 76.3998 52.9077 73.0331 52.2624C71.5276 51.9727 70.224 51.0861 69.39 49.6859C68.0205 47.3815 67.1427 44.8884 67.1076 42.2197C67.0373 37.2597 67.0944 32.2954 67.1558 27.3311C67.1734 25.7992 67.4982 25.4788 68.9862 25.4393C69.8904 25.4173 70.8385 25.527 71.6988 25.7948C77.1547 27.4803 82.4219 29.6091 87.338 32.5587C88.4924 33.2479 89.6863 33.8668 90.8846 34.4857C94.6067 36.4126 97.4817 39.3051 100.111 42.4962C102.494 45.3931 102.393 48.571 101.112 51.8367C100.62 53.0877 99.7642 53.9918 98.2367 54.0226C97.2623 54.0401 96.2922 54.2201 95.3222 54.3298C95.3222 54.264 95.3222 54.1981 95.3178 54.1367H95.309ZM79.0992 46.9162C79.762 46.8241 80.4467 46.7933 81.0876 46.6222C82.3605 46.2798 82.7116 45.6302 82.6282 44.3134C82.5536 43.0931 81.8118 42.2855 81.0349 41.513C79.8059 40.2927 77.8351 39.6212 76.5666 42.1055C75.9257 43.3609 76.2154 44.6206 76.7729 45.8145C77.225 46.7846 78.0765 47.0435 79.0992 46.9206V46.9162Z" fill="white"/>
<path d="M47.2019 27.0632C48.9796 28.9375 50.3007 31.1673 51.2664 33.6428C52.0433 35.6356 52.9607 37.5757 53.7288 39.5728C54.3609 41.2188 54.8964 42.9043 55.4143 44.5898C55.8576 46.0339 55.0895 47.2103 54.3609 48.3383C53.0309 50.3969 50.9635 51.5557 48.7469 52.2712C45.3189 53.3817 42.2595 55.1637 39.2923 57.0906C36.7026 58.7718 33.8803 59.3819 30.9218 59.4126C29.8333 59.4258 28.6043 58.9605 27.6737 58.3504C25.681 57.038 23.9209 55.4139 22.4724 53.4826C21.7394 52.5038 20.98 51.5469 20.2163 50.59C19.4437 49.62 19.413 49.3347 20.1768 48.3559C24.7373 42.4961 29.6358 36.9305 35.6974 32.585C39.1474 30.1094 42.694 27.6251 47.2019 27.0632ZM44.8668 47.9213C45.4637 47.6711 46.0958 47.5482 46.5391 47.1883C48.128 45.9066 48.2026 43.6856 46.8112 42.2064C45.8939 41.232 44.7614 41.1925 43.5982 41.4602C42.4965 41.7148 42.3648 42.7727 42.2288 43.6286C42.0005 45.0332 42.5228 46.2841 43.55 47.2585C43.8748 47.5658 44.3839 47.6887 44.8668 47.9213Z" fill="white"/>
<path d="M13.3385 59.891C13.6501 61.12 14.0496 62.3315 14.2603 63.5736C15.2654 69.4905 15.9853 75.4424 16.7139 81.3943C17.144 84.8926 17.0299 88.3514 17.245 91.8234C17.5961 97.5119 18.2238 103.179 20.1332 108.599C21.3359 112.006 22.8326 115.284 24.8342 118.313C25.1458 118.783 25.3301 119.336 25.6989 120.104C24.0792 119.898 22.7975 119.836 21.5685 119.551C18.7066 118.884 15.8053 118.291 13.0444 117.321C10.8322 116.544 8.94477 115.017 7.87817 112.853C6.60526 110.272 5.52109 107.599 4.39742 104.947C4.21307 104.513 4.21307 103.991 4.17796 103.508C3.72586 97.5997 4.35353 91.7619 5.31919 85.9461C5.81079 82.992 6.09171 79.9941 6.74572 77.0796C7.5753 73.3838 8.6902 69.7494 10.1431 66.238C11.0253 64.1048 11.9646 61.9979 12.8776 59.8822H13.3429L13.3385 59.891Z" fill="#FF9439"/>
<path d="M67.8406 6.7494C65.1324 10.7305 63.6356 15.0013 62.1915 19.2985C61.5375 21.2474 61.3225 21.3747 59.1497 21.5151C58.3597 21.5678 57.574 21.6336 56.5381 21.7126C56.5381 21.1991 56.424 20.7163 56.5556 20.3168C58.0305 15.8529 59.299 11.3011 61.8536 7.26734C62.2749 6.60455 62.4417 5.78815 62.828 5.09463C63.4644 3.95341 64.1228 3.79978 65.1982 4.5723C66.0805 5.20436 66.8793 5.95055 67.8406 6.7538V6.7494Z" fill="#8B9463"/>
<path d="M58.6537 117.523C57.9031 120.407 55.8709 124.471 54.7999 125.63C53.1626 123.747 51.938 121.636 50.7222 119.336C53.2636 117.883 56.0903 118.344 58.6537 117.523Z" fill="white"/>
<path d="M70.2285 117.066C70.685 119.309 69.7281 121.32 69.061 123.786C67.99 122.544 67.1165 121.508 66.2211 120.49C65.3256 119.467 64.3468 118.506 63.6401 117.273C65.1325 116.711 68.2489 116.636 70.2285 117.062V117.066Z" fill="white"/>
<path d="M76.5576 117.203H81.1884C80.3193 118.998 79.5775 120.534 78.8357 122.07C78.6733 122.066 78.5109 122.057 78.3485 122.053C77.6067 120.556 76.8956 119.05 76.5576 117.203Z" fill="white"/>
<path d="M79.0991 46.9118C78.0764 47.0391 77.2292 46.7757 76.7727 45.8056C76.2153 44.6117 75.9256 43.352 76.5664 42.0967C77.8393 39.6123 79.8058 40.2839 81.0348 41.5041C81.8117 42.2766 82.5535 43.0887 82.6281 44.3045C82.7115 45.6257 82.3603 46.2753 81.0874 46.6133C80.4422 46.7845 79.7619 46.8152 79.0991 46.9074V46.9118Z" fill="black"/>
<path d="M44.867 47.9212C44.3842 47.6842 43.8794 47.5657 43.5502 47.2584C42.5187 46.284 42.0008 45.0331 42.229 43.6285C42.3695 42.7682 42.4968 41.7147 43.5985 41.4601C44.7616 41.1924 45.8941 41.2319 46.8115 42.2063C48.2029 43.6855 48.1283 45.9109 46.5393 47.1882C46.096 47.5438 45.4639 47.6666 44.867 47.9212Z" fill="black"/>
</svg>
