<svg width="125" height="143" viewBox="0 0 125 143" fill="none" xmlns="http://www.w3.org/2000/svg">
<path d="M68.2747 22.5245C68.6138 22.6313 68.7583 22.7318 68.8902 22.713C72.7843 22.1917 76.7036 22.4303 80.6103 22.3047C82.3627 22.2482 84.1213 22.2042 85.8737 22.2608C87.0671 22.2984 88.2856 22.4052 89.4412 22.6816C92.4058 23.3976 95.452 23.8561 98.1214 25.5142C101.143 27.386 104.377 28.931 107.153 31.1984C110.413 33.8678 112.454 37.4605 114.54 41.0029C115.45 42.5543 116.229 44.181 117.077 45.7701C118.823 49.0424 119.684 52.5848 120.305 56.2152C120.651 58.2376 121.21 60.2287 121.53 62.2574C121.989 65.178 122.347 68.1175 122.698 71.0506C123.314 76.2324 124.017 81.4078 124.445 86.6084C124.947 92.7071 125.267 98.8184 124.696 104.955C124.275 109.471 123.144 113.836 122.322 118.27C121.606 122.146 119.847 125.474 117.467 128.483C116.336 129.915 114.847 131.115 113.359 132.208C111.632 133.476 109.76 134.569 107.882 135.606C106.846 136.177 105.684 136.617 104.522 136.855C102.669 137.239 100.766 137.615 98.8814 137.634C90.2954 137.735 81.7032 137.653 73.1172 137.772C71.3397 137.798 69.5685 138.357 67.8036 138.721C64.2172 139.462 60.6246 140.165 57.0696 141.026C50.6254 142.59 44.0996 143.048 37.4984 142.791C37.3476 142.791 37.1969 142.803 37.0461 142.778C32.4925 142.1 27.8698 141.61 23.7244 139.418C21.9218 138.463 20.2762 137.182 18.6432 135.945C17.1295 134.795 15.7288 133.501 14.2842 132.27C12.5947 130.838 11.1878 129.186 9.84993 127.396C8.22318 125.223 7.2308 122.799 6.20702 120.362C5.10786 117.73 4.00871 115.092 3.07914 112.398C2.40081 110.425 1.96742 108.365 1.49636 106.33C1.13835 104.773 0.912238 103.184 0.591913 101.613C-0.0298941 98.5923 -0.161793 95.5335 0.196217 92.4873C0.416048 90.603 0.912238 88.7565 1.28909 86.891C1.35818 86.5456 1.47124 86.2064 1.49008 85.861C1.6157 83.6564 1.6785 81.4518 1.83553 79.2472C2.05536 76.0942 2.34428 72.9475 2.56411 69.7945C2.62064 69.0093 2.62692 68.1803 2.45105 67.4203C1.75388 64.3615 1.45239 61.3027 1.84809 58.1623C2.09932 56.1398 2.87815 54.3812 3.96474 52.7544C6.62784 48.7472 9.39771 44.8028 12.1048 40.827C15.4839 35.8589 19.5665 31.5125 24.0133 27.5053C24.5974 26.9777 25.3135 26.5506 26.0358 26.2303C28.8936 24.9741 31.9209 24.2455 34.9672 23.63C35.8465 23.4541 36.7635 23.4667 37.6679 23.4604C41.179 23.4541 44.7025 23.2217 48.1696 24.0194C48.9358 24.1953 49.3001 23.7933 49.4509 23.1087C49.7649 21.6892 50.0036 20.2446 50.3867 18.844C51.1656 15.9924 52.026 13.166 52.8426 10.3208C53.3262 8.63752 53.791 6.95426 54.2809 5.27099C54.5321 4.40423 54.8336 3.55632 55.0974 2.69584C55.4617 1.53388 56.2594 0.836697 57.4213 0.5729C58.1059 0.415878 58.8031 0.258832 59.494 0.233708C62.2513 0.139495 65.0212 0.189751 67.7722 0.00760587C69.1854 -0.0866073 70.0459 0.711081 70.9252 1.47735C71.5156 1.9861 71.2644 2.77119 71.0257 3.4558C70.429 5.20817 69.7381 6.93542 69.2922 8.72547C68.4568 12.0606 68.4882 15.49 68.5008 18.9068C68.5008 19.7484 68.4129 20.5963 68.3626 21.438C68.3438 21.7771 68.3124 22.1163 68.281 22.5183L68.2747 22.5245ZM87.1424 134.318C87.9841 134.437 88.4928 134.569 89.0016 134.575C91.0115 134.619 93.0213 134.601 95.0249 134.651C99.0761 134.751 103.058 134.331 106.827 132.767C110.419 131.272 113.422 129.004 115.595 125.707C116.43 124.444 117.083 123.1 117.529 121.662C118.164 119.608 118.848 117.567 119.363 115.482C119.696 114.125 119.803 112.712 119.954 111.317C120.167 109.333 120.387 107.342 120.5 105.351C120.594 103.705 120.481 102.041 120.557 100.395C120.827 94.8363 121.537 89.284 121.141 83.7066C121.028 82.0924 120.362 80.5159 119.922 78.9331C119.885 78.8075 119.64 78.7447 119.294 78.5249C119.25 79.8941 119.332 81.0875 119.137 82.2369C118.955 83.336 119.112 84.6362 117.837 85.5846C117.781 85.013 117.718 84.6299 117.711 84.2531C117.68 83.2544 117.705 82.2557 117.642 81.2634C117.41 77.5325 116.82 73.8142 116.989 70.0583C116.995 69.8573 116.983 69.6563 116.97 69.4553C116.87 67.86 116.694 66.2646 116.688 64.6693C116.681 62.4584 116.738 60.2538 116.298 58.0681C116.235 57.7415 116.349 57.3771 116.355 57.0317C116.361 56.4978 116.43 55.9388 116.33 55.4238C115.406 50.7006 113.497 46.3479 111.248 42.1272C110.777 41.2479 110.419 40.2994 109.892 39.4578C108.02 36.4367 105.388 34.0688 102.826 31.6947C98.4292 27.6184 92.8518 26.4124 87.1362 25.9916C82.0926 25.6147 77.0114 25.7027 71.949 25.9853C70.9315 26.0418 68.8211 26.6008 68.0611 27.0468C68.394 27.2478 68.6641 27.455 68.9656 27.5932C72.7467 29.3267 76.5843 30.9535 80.3088 32.8064C84.0899 34.6906 87.5947 37.0459 90.8984 39.6776C91.4763 40.1361 92.0667 40.6323 91.9285 41.6059C91.3758 41.7315 90.8482 41.8257 90.3331 41.9764C88.9325 42.391 88.0846 41.1537 86.9226 40.8396C86.8158 40.8082 86.7342 40.3811 86.7719 40.155C86.8786 39.5395 86.5395 39.2066 86.0998 38.9302C84.9127 38.1765 83.7005 37.4668 82.5386 36.688C77.6709 33.4156 72.1877 31.4309 66.874 29.0692C63.3693 27.5116 60.1347 28.6924 56.9251 29.3079C57.0884 31.8831 57.2455 34.3201 57.3962 36.7633C57.459 37.7683 57.4841 38.7669 57.5532 39.7719C57.6663 41.5117 56.8121 42.1083 55.0409 41.4991C55.3047 37.2155 54.9404 31.0226 54.3248 29.3456C53.7156 29.3456 53.1189 29.3519 52.5222 29.3456C49.3629 29.3016 46.2037 29.2765 43.0444 29.1886C42.1902 29.1635 41.5118 29.3958 40.8209 29.8858C39.3889 30.9033 38.3714 32.2725 37.536 33.7548C36.707 35.2308 35.9344 36.7759 35.388 38.3775C34.8855 39.8535 33.868 41.2541 34.3265 42.9877C34.3893 43.2201 34.1004 43.6849 33.8492 43.8356C33.0578 44.3067 32.2036 44.5328 31.2489 43.7853C31.8393 42.0895 32.3606 40.3685 33.0389 38.7167C33.7047 37.0962 34.4647 35.5071 35.3001 33.9746C36.148 32.4295 37.1404 30.9661 38.183 29.2891C35.9972 29.4838 34.069 29.6973 32.1282 29.823C29.5028 29.9925 26.9528 30.3694 24.7419 31.9584C23.85 32.6054 22.9142 33.2021 22.06 33.893C20.6216 35.0549 19.0703 36.1352 17.8581 37.5108C15.9989 39.6148 14.3345 41.8948 12.7015 44.181C11.954 45.2237 11.2568 46.4108 10.9554 47.6355C10.7293 48.5839 10.4026 49.4193 9.97555 50.2672C9.11507 51.9505 8.644 53.7217 8.86383 55.6374C9.02086 56.9815 9.09622 58.3381 9.27209 59.676C9.45423 61.0578 9.24697 62.3642 8.75078 63.6518C8.24831 64.9645 7.70815 66.2709 7.37526 67.6338C6.80998 69.9703 6.32008 72.3319 5.95579 74.7061C5.74852 76.0753 5.85529 77.4948 5.79876 78.8892C5.74224 80.2835 5.74223 81.6905 5.55381 83.0722C5.26489 85.258 4.6682 87.4123 4.51118 89.5981C4.28507 92.7951 4.30391 96.0109 4.26623 99.2204C4.25367 100.42 4.24738 101.639 4.45465 102.813C4.86291 105.131 5.36538 107.429 5.92438 109.716C6.62784 112.58 7.15543 115.488 8.38649 118.22C10.076 121.982 11.8724 125.675 14.5292 128.866C15.2578 129.745 16.1371 130.512 17.0101 131.253C17.6948 131.837 18.4547 132.333 19.2147 132.817C21.1115 134.029 22.9832 135.298 24.9554 136.378C27.5306 137.791 30.4449 138.225 33.2525 138.972C34.829 139.393 36.4055 139.537 38.0134 139.544C39.1816 139.544 40.3499 139.468 41.5181 139.424C41.537 139.305 41.5558 139.179 41.5747 139.06C41.1287 138.909 40.6828 138.777 40.2431 138.608C39.5899 138.357 38.9053 138.156 38.3149 137.804C35.947 136.397 33.5791 134.977 31.274 133.483C29.6347 132.421 27.964 131.353 26.5257 130.047C24.3399 128.062 22.3175 125.889 20.2762 123.747C19.7988 123.251 19.2964 122.629 19.7172 121.662C21.2058 122.686 22.732 123.49 23.9505 124.627C26.0797 126.618 28.2529 128.546 30.6585 130.185C33.5603 132.164 36.506 134.073 39.4392 136.001C39.6841 136.165 39.9856 136.259 40.2745 136.34C41.5244 136.68 42.7743 137 44.0933 137.345C44.2377 137.76 44.3948 138.212 44.6146 138.834C49.9596 138.099 54.9906 136.177 60.3922 135.398C58.5896 134.18 57.0947 132.735 55.8699 131.039C54.6389 129.325 53.4706 127.553 52.2773 125.807C52.7609 125.688 53.1126 125.732 53.3325 125.92C54.0862 126.58 54.8336 127.258 55.5056 127.993C57.5344 130.223 59.5254 132.453 62.3958 133.702C64.0665 134.437 65.6493 134.996 67.4205 134.136C67.7722 133.966 68.1993 133.96 68.595 133.885C70.2846 133.564 71.2078 132.327 71.0069 130.593C70.9315 129.946 70.7493 129.312 70.6677 128.665C70.6363 128.408 70.7493 128.131 70.8561 127.541C71.346 128.006 71.7417 128.232 71.9301 128.577C72.6964 129.972 72.9414 131.466 72.3761 132.993C73.2994 133.552 74.1599 133.351 74.9889 133.307C76.4963 133.219 77.9472 133.282 79.4484 133.64C81.1191 134.035 82.9594 134.362 84.5798 133.37C87.2367 131.755 89.8621 130.097 92.4498 128.376C93.4422 127.717 94.2336 126.762 95.1883 126.04C98.7307 123.37 101.023 119.897 102.022 115.576C102.154 114.998 102.38 114.433 102.989 114.382C103.422 114.345 103.981 114.533 104.302 114.822C104.748 115.218 104.647 115.789 104.383 116.348C103.981 117.209 103.705 118.126 103.309 118.993C102.204 121.411 101.105 123.841 99.0196 125.631C95.5902 128.571 92.1671 131.51 88.072 133.533C87.8271 133.652 87.6386 133.878 87.1236 134.305L87.1424 134.318ZM61.931 3.31764C61.9938 4.59266 62.0566 5.67296 62.1069 6.75955C62.1822 8.40514 62.2011 10.0633 62.333 11.7026C62.5591 14.4913 62.8543 17.2737 63.1118 20.0625C63.206 21.0611 63.2877 22.0598 63.363 23.0522C63.4007 23.5546 63.5703 23.944 64.1293 23.988C65.2222 24.0697 66.0073 23.2783 65.9382 22.1728C65.8314 20.4833 65.6116 18.7875 65.6179 17.0979C65.6241 15.0566 65.7498 13.0028 65.957 10.974C66.1957 8.6878 66.5726 6.4204 66.9117 4.14672C67.0059 3.51235 66.8929 2.94705 66.1769 2.94705C64.7448 2.94705 63.2814 2.7712 61.931 3.31135V3.31764ZM57.5344 4.39165C57.4276 4.36652 57.3208 4.34769 57.214 4.32257C56.0458 5.77973 51.5927 21.7332 51.756 23.9566C52.8049 24.4025 53.9166 24.591 55.0848 24.5281C55.782 24.4905 56.0521 24.1513 56.0521 23.473C56.0521 21.7206 56.0144 19.9619 56.1149 18.2096C56.3033 14.8053 56.5734 11.4011 56.8246 8.00315C56.856 7.60746 57.0382 7.23062 57.1135 6.84121C57.2706 6.03097 57.4025 5.20816 57.5407 4.39165H57.5344ZM61.0454 24.4779C60.4613 18.5551 59.7452 12.8018 59.7955 6.99194C59.7955 6.93541 59.6573 6.87889 59.3872 6.68418C59.2114 8.02829 58.9601 9.26564 58.9099 10.5093C58.7152 15.1885 58.2001 19.8615 58.533 24.7103C59.4563 24.6287 60.1786 24.5596 61.0517 24.4842L61.0454 24.4779Z" fill="black"/>
<path d="M87.1423 134.318C87.6574 133.891 87.8521 133.665 88.0907 133.545C92.1796 131.523 95.6089 128.583 99.0383 125.644C101.124 123.854 102.223 121.423 103.328 119.005C103.724 118.138 104 117.221 104.402 116.361C104.666 115.802 104.766 115.23 104.321 114.835C103.994 114.546 103.435 114.357 103.008 114.395C102.399 114.445 102.172 115.011 102.041 115.588C101.048 119.91 98.7557 123.383 95.207 126.052C94.2523 126.775 93.4609 127.729 92.4685 128.389C89.8871 130.11 87.2554 131.768 84.5986 133.382C82.9718 134.374 81.1315 134.048 79.4671 133.652C77.9597 133.294 76.5088 133.231 75.0077 133.319C74.1786 133.363 73.3181 133.564 72.3948 133.005C72.9601 131.479 72.7089 129.99 71.9489 128.59C71.7605 128.244 71.371 128.018 70.8748 127.553C70.7743 128.138 70.655 128.414 70.6864 128.678C70.7681 129.325 70.9502 129.959 71.0256 130.606C71.2266 132.346 70.3033 133.583 68.6137 133.897C68.218 133.972 67.7909 133.972 67.4392 134.148C65.6617 135.009 64.0789 134.45 62.4145 133.715C59.5504 132.459 57.5531 130.229 55.5244 128.006C54.8523 127.264 54.1049 126.592 53.3512 125.933C53.1314 125.738 52.7796 125.701 52.296 125.82C53.4894 127.566 54.6513 129.331 55.8887 131.052C57.1072 132.748 58.6083 134.186 60.4109 135.411C55.0093 136.19 49.9784 138.112 44.6333 138.846C44.4135 138.218 44.2565 137.766 44.112 137.358C42.793 137.012 41.5369 136.692 40.2932 136.353C40.0043 136.278 39.7028 136.177 39.4579 136.014C36.5247 134.086 33.579 132.176 30.6772 130.198C28.2716 128.558 26.0985 126.63 23.9692 124.639C22.7507 123.502 21.2182 122.692 19.7359 121.675C19.3151 122.635 19.8176 123.257 20.2949 123.76C22.3425 125.895 24.3586 128.075 26.5444 130.059C27.9827 131.366 29.6534 132.434 31.2927 133.495C33.6041 134.996 35.9657 136.409 38.3336 137.816C38.9303 138.168 39.6149 138.369 40.2618 138.62C40.7015 138.79 41.1474 138.922 41.5934 139.073C41.5745 139.192 41.5557 139.317 41.5369 139.437C40.3686 139.481 39.2004 139.562 38.0321 139.556C36.4242 139.556 34.8477 139.405 33.2712 138.985C30.4637 138.237 27.5493 137.804 24.9742 136.391C23.002 135.31 21.1303 134.042 19.2334 132.829C18.4735 132.346 17.7135 131.843 17.0289 131.265C16.1558 130.524 15.2765 129.758 14.5479 128.879C11.8911 125.688 10.1011 121.995 8.40521 118.233C7.17416 115.5 6.64657 112.592 5.94311 109.728C5.38411 107.442 4.88164 105.143 4.47338 102.826C4.26611 101.651 4.2724 100.433 4.28496 99.2329C4.32264 96.0234 4.3038 92.8076 4.52991 89.6106C4.68693 87.4186 5.27734 85.2643 5.57254 83.0848C5.75468 81.703 5.75468 80.2961 5.81749 78.9017C5.87402 77.5073 5.76724 76.0879 5.97451 74.7187C6.3388 72.3445 6.82871 69.9829 7.39399 67.6464C7.7206 66.2897 8.26704 64.977 8.76951 63.6643C9.2657 62.3704 9.47297 61.0703 9.29082 59.6885C9.11496 58.3444 9.0333 56.994 8.88256 55.6499C8.66273 53.7342 9.1338 51.963 9.99428 50.2797C10.4277 49.4381 10.748 48.5964 10.9741 47.648C11.2693 46.4233 11.9728 45.2362 12.7202 44.1936C14.3532 41.9073 16.0176 39.6274 17.8768 37.5233C19.089 36.1477 20.6404 35.0737 22.0787 33.9055C22.9329 33.2146 23.8625 32.6116 24.7606 31.971C26.9652 30.3819 29.5215 30.0051 32.1469 29.8355C34.0815 29.7099 36.0097 29.4963 38.2017 29.3016C37.1591 30.9786 36.1604 32.442 35.3188 33.9871C34.4771 35.5197 33.7172 37.115 33.0577 38.7292C32.3793 40.3811 31.858 42.1021 31.2676 43.7979C32.2223 44.539 33.0702 44.3192 33.8679 43.8481C34.1191 43.6974 34.4081 43.2326 34.3452 43.0002C33.8867 41.2667 34.9042 39.866 35.4067 38.39C35.9532 36.7884 36.7257 35.2496 37.5548 33.7673C38.3901 32.285 39.4014 30.9158 40.8397 29.8983C41.5306 29.4084 42.2089 29.176 43.0631 29.2011C46.2224 29.289 49.3817 29.3141 52.541 29.3581C53.1376 29.3644 53.7406 29.3581 54.3436 29.3581C54.9591 31.0414 55.3234 37.2281 55.0596 41.5116C56.8308 42.1146 57.685 41.5242 57.5719 39.7844C57.5091 38.7795 57.4777 37.7808 57.4149 36.7758C57.2642 34.3326 57.1072 31.8893 56.9439 29.3204C60.1534 28.7049 63.388 27.5241 66.8928 29.0818C72.2064 31.4434 77.6896 33.4281 82.5573 36.7005C83.7192 37.4856 84.9377 38.189 86.1185 38.9427C86.5582 39.2254 86.8974 39.5583 86.7906 40.1675C86.7529 40.3874 86.8283 40.8208 86.9413 40.8522C88.1033 41.1599 88.9512 42.3973 90.3518 41.989C90.8669 41.8383 91.3945 41.744 91.9472 41.6184C92.0854 40.6386 91.4887 40.1487 90.9171 39.6902C87.6134 37.0585 84.1024 34.7032 80.3276 32.8189C76.603 30.966 72.7654 29.3393 68.9843 27.6058C68.6828 27.4676 68.4065 27.2603 68.0799 27.0593C68.8461 26.6071 70.9565 26.0544 71.9677 25.9979C77.0301 25.7215 82.1113 25.6336 87.1549 26.0041C92.8705 26.425 98.4479 27.6309 102.845 31.7072C105.413 34.0877 108.039 36.4555 109.911 39.4704C110.438 40.3183 110.796 41.2604 111.267 42.1397C113.516 46.3605 115.425 50.7131 116.348 55.4363C116.449 55.9577 116.386 56.5104 116.374 57.0442C116.374 57.3897 116.254 57.7477 116.317 58.0806C116.757 60.2664 116.694 62.471 116.706 64.6818C116.713 66.2772 116.889 67.8725 116.989 69.4678C117.002 69.6688 117.02 69.8698 117.008 70.0708C116.838 73.8268 117.429 77.5388 117.661 81.2759C117.724 82.2683 117.699 83.2732 117.73 84.2656C117.743 84.6487 117.799 85.0256 117.856 85.5971C119.131 84.6487 118.974 83.3549 119.156 82.2494C119.344 81.1 119.263 79.9067 119.313 78.5374C119.658 78.751 119.903 78.8201 119.941 78.9457C120.381 80.5285 121.04 82.105 121.16 83.7192C121.562 89.2903 120.846 94.8426 120.575 100.407C120.494 102.059 120.613 103.717 120.519 105.363C120.406 107.354 120.186 109.345 119.972 111.33C119.822 112.724 119.715 114.144 119.382 115.494C118.867 117.579 118.182 119.621 117.548 121.675C117.102 123.113 116.449 124.457 115.614 125.719C113.44 129.017 110.438 131.284 106.845 132.779C103.077 134.343 99.0948 134.77 95.0437 134.663C93.0338 134.613 91.0239 134.632 89.0203 134.588C88.5116 134.575 88.0028 134.45 87.1612 134.33L87.1423 134.318ZM101.971 87.1422C102.028 85.4715 101.934 83.8197 101.281 82.262C100.69 80.8676 100.2 80.5285 98.7557 80.6855C98.0208 80.7671 97.3111 81.0623 96.5825 81.2382C93.8063 81.8977 91.0051 82.463 88.2603 83.2292C85.704 83.9453 83.2293 84.9251 80.6919 85.7165C78.3051 86.4576 75.9812 87.3809 73.4437 87.6447C70.5545 87.9399 67.6904 88.4612 64.8138 88.8946C62.4396 89.2526 60.078 89.7299 57.6913 89.9686C56.3723 90.1005 54.9654 89.6232 53.6841 89.8681C52.3588 90.1194 51.065 90.4837 49.702 90.5025C48.3956 90.5214 47.0829 90.5339 45.7953 90.6909C42.4476 91.1055 39.0999 91.3064 35.7333 91.2688C34.0815 91.2499 32.4233 91.4007 30.7651 91.4132C28.8118 91.4321 26.8522 91.4195 24.8988 91.3441C23.3914 91.2876 22.7821 91.9471 23.1841 93.4545C23.4291 94.3715 23.8687 95.2445 24.0634 96.1678C24.5408 98.4729 25.5771 100.539 26.8647 102.449C29.509 106.355 32.3542 110.099 35.8024 113.365C39.5961 116.964 43.8231 119.834 48.7096 121.725C49.5952 122.07 50.4557 122.497 51.3602 122.774C53.1753 123.32 55.0156 123.791 56.8559 124.275C59.1359 124.871 61.4284 125.405 63.8151 125.311C64.4683 125.286 65.1278 125.273 65.7685 125.361C69.2544 125.826 72.69 125.399 76.0817 124.689C79.9319 123.885 83.6313 122.617 86.8848 120.324C88.0719 119.489 89.1459 118.496 90.289 117.598C90.7538 117.234 91.3065 116.983 91.7713 116.618C92.2298 116.26 92.726 115.884 93.0275 115.406C93.7687 114.219 94.4093 112.963 95.0939 111.744C96.9845 108.384 99.076 105.118 99.6978 101.193C99.9616 99.5155 100.294 97.8386 100.709 96.193C101.456 93.2158 101.821 90.1885 101.978 87.136L101.971 87.1422ZM54.0672 65.1968C53.973 65.1968 53.8725 65.1968 53.7783 65.2031C53.659 64.9582 53.4391 64.7195 53.4266 64.4683C53.3009 61.8868 52.6289 59.431 51.7872 57.0129C51.4606 56.0833 51.0775 55.116 50.4934 54.3435C48.6845 51.9442 46.1721 50.7069 43.2201 50.3488C42.077 50.2107 40.9151 49.9971 39.7719 50.0411C37.4229 50.129 35.0424 50.1541 32.7562 50.6126C30.5139 51.0649 28.504 52.2457 26.5067 53.4453C23.762 55.1035 22.0787 57.6284 20.3829 60.1407C19.2083 61.8805 18.7059 63.9909 18.3667 66.0887C18.2222 66.9743 18.0526 67.885 18.1029 68.7706C18.3164 72.6397 19.0953 76.4145 20.2447 80.1077C20.8853 82.1741 21.6893 84.1839 23.1402 85.8232C24.3524 87.1988 25.8284 88.166 27.7378 88.411C31.9962 88.9574 36.1165 88.4173 40.1613 87.048C45.387 85.2768 49.4131 82.1489 51.6993 77.0112C52.0448 76.2323 52.3148 75.4033 52.7608 74.6873C54.3059 72.2 54.9151 69.4113 55.3925 66.5975C55.5935 65.423 55.5369 64.1982 55.5118 62.9985C55.5118 62.7661 55.1224 62.54 54.9151 62.3076C54.733 62.5086 54.4629 62.6845 54.3813 62.9231C54.2745 63.2435 54.3373 63.6203 54.2933 63.9658C54.2368 64.374 54.1426 64.7823 54.0672 65.1906V65.1968ZM63.8214 48.3766C63.589 48.7284 63.4948 48.9733 63.3189 49.1241C62.5338 49.8024 62 50.6377 61.7236 51.6238C61.3216 53.0684 60.7438 54.5005 60.6119 55.9765C60.4235 58.112 60.4988 60.2789 60.6119 62.427C60.6559 63.3503 60.9385 64.3112 61.3216 65.1591C62.6218 68.0232 64.6128 70.4288 66.7923 72.6397C68.8336 74.7061 71.0507 76.6029 73.2679 78.4872C74.6559 79.6617 76.2199 80.585 78.1418 80.585C80.3967 80.585 82.6578 80.5661 84.9126 80.5473C85.1073 80.5473 85.3146 80.4908 85.4967 80.4217C87.5192 79.6931 89.5542 78.9959 91.5578 78.2171C94.0701 77.2373 96.1994 75.642 98.159 73.8268C98.6238 73.3997 99.0195 72.8218 99.2456 72.2314C99.8297 70.6863 100.351 69.1161 100.784 67.5207C100.979 66.8173 101.111 65.9757 100.916 65.3036C100.031 62.3328 99.5659 59.2363 98.0585 56.4476C96.8023 54.1173 95.5336 51.8751 92.9019 50.8324C92.3994 50.6315 91.9346 50.2986 91.495 49.9657C89.7677 48.6718 87.7704 48.0563 85.704 47.5538C84.2029 47.1896 82.7269 46.6745 81.2634 46.1658C78.9269 45.3492 76.5653 44.6584 74.0593 44.8782C71.616 45.0917 69.179 45.4686 66.7295 45.613C64.2548 45.7638 62.2638 46.9886 60.235 48.1756C59.9461 48.3452 59.7703 48.6907 59.4374 49.0738C61.1081 49.5386 62.2198 48.3452 63.8214 48.3829V48.3766ZM106.99 125.795C106.971 125.16 106.205 124.47 105.577 124.526C105.118 124.57 104.591 125.28 104.591 125.851C104.591 126.41 105.175 127.013 105.727 127.026C106.337 127.038 107.002 126.391 106.99 125.795ZM27.0971 34.3577C27.6624 34.3577 28.504 33.5098 28.4538 32.9948C28.4161 32.5425 27.6812 31.927 27.1788 31.9144C26.5381 31.9019 25.9728 32.5111 25.998 33.1769C26.0231 33.8364 26.513 34.364 27.0971 34.3577ZM109.025 122.906C109.772 122.893 110.187 122.516 110.174 121.85C110.162 121.134 109.647 120.557 109.019 120.538C108.447 120.519 107.844 121.197 107.844 121.85C107.844 122.478 108.328 122.912 109.025 122.906ZM25.2317 36.8387C25.1877 36.2545 24.4654 35.6076 23.8939 35.6516C23.3411 35.6893 22.8952 36.3236 22.9769 36.9768C23.0522 37.63 23.5735 38.0257 24.2393 37.9504C24.8297 37.8813 25.2757 37.3851 25.238 36.845L25.2317 36.8387Z" fill="#FF9439"/>
<path d="M61.9248 3.31129C63.2752 2.77113 64.7386 2.95327 66.1707 2.94699C66.8867 2.94699 66.9998 3.51229 66.9055 4.14666C66.5664 6.42034 66.1832 8.69401 65.9509 10.974C65.7373 13.009 65.618 15.0565 65.6117 17.0978C65.6054 18.7874 65.8252 20.4832 65.932 22.1728C66.0011 23.2782 65.216 24.0696 64.1231 23.9879C63.5641 23.944 63.3945 23.5546 63.3568 23.0521C63.2815 22.0534 63.1998 21.0548 63.1056 20.0624C62.8481 17.2737 62.5529 14.4912 62.3268 11.7025C62.1949 10.0569 62.176 8.40508 62.1007 6.75949C62.0504 5.67289 61.9876 4.59259 61.9248 3.31758V3.31129Z" fill="#8B9463"/>
<path d="M57.5283 4.3854C57.3901 5.20192 57.2582 6.01841 57.1012 6.83492C57.0258 7.22434 56.8437 7.60749 56.8123 7.99691C56.5548 11.4011 56.291 14.7991 56.1026 18.2033C56.0021 19.9557 56.0397 21.7143 56.0397 23.4667C56.0397 24.145 55.7697 24.4779 55.0725 24.5219C53.9042 24.5847 52.7925 24.3963 51.7436 23.9503C51.5803 21.7269 56.0397 5.77973 57.2017 4.31628C57.3085 4.34141 57.4153 4.36028 57.522 4.3854H57.5283Z" fill="#8B9463"/>
<path d="M61.0391 24.4717C60.1661 24.5533 59.4501 24.6161 58.5205 24.6978C58.1876 19.8489 58.7027 15.176 58.8974 10.4967C58.9476 9.25309 59.2051 8.01574 59.3747 6.67163C59.6385 6.87262 59.783 6.92914 59.783 6.97939C59.7327 12.7829 60.4487 18.5425 61.0329 24.4654L61.0391 24.4717Z" fill="#6C7249"/>
<path d="M101.972 87.1359C101.814 90.1947 101.45 93.2158 100.703 96.1929C100.288 97.8385 99.9554 99.5155 99.6916 101.193C99.0698 105.112 96.9719 108.378 95.0877 111.744C94.4031 112.969 93.7624 114.219 93.0213 115.406C92.7198 115.883 92.2236 116.26 91.7651 116.618C91.3003 116.983 90.7476 117.24 90.2828 117.598C89.1334 118.49 88.0594 119.489 86.8786 120.324C83.6251 122.617 79.9256 123.885 76.0754 124.689C72.6838 125.393 69.2481 125.82 65.7622 125.361C65.1216 125.273 64.4558 125.286 63.8089 125.311C61.4222 125.405 59.1296 124.871 56.8497 124.275C55.0157 123.797 53.1754 123.32 51.3539 122.774C50.4495 122.504 49.589 122.07 48.7034 121.725C43.8231 119.834 39.5898 116.97 35.7962 113.365C32.348 110.093 29.5027 106.355 26.8585 102.449C25.5709 100.539 24.5345 98.4729 24.0572 96.1678C23.8625 95.2445 23.4228 94.3715 23.1779 93.4545C22.7759 91.9471 23.3851 91.2813 24.8926 91.3441C26.8459 91.4195 28.8055 91.4258 30.7589 91.4132C32.4171 91.4006 34.0689 91.2436 35.7271 91.2687C39.0999 91.3064 42.4476 91.1054 45.789 90.6909C47.0829 90.5339 48.3956 90.5213 49.6957 90.5025C51.065 90.4836 52.3526 90.113 53.6778 89.8681C54.9591 89.6294 56.366 90.1068 57.685 89.9686C60.0718 89.7236 62.4334 89.2526 64.8075 88.8946C67.6842 88.4612 70.5483 87.9399 73.4375 87.6447C75.975 87.3872 78.2989 86.4639 80.6856 85.7164C83.2231 84.9251 85.704 83.9452 88.2541 83.2292C90.9988 82.4567 93.8001 81.8977 96.5762 81.2382C97.3048 81.0623 98.0146 80.7671 98.7494 80.6855C100.194 80.5284 100.69 80.8676 101.274 82.262C101.934 83.8259 102.028 85.4715 101.965 87.1422L101.972 87.1359ZM49.1305 103.341C48.7913 102.87 48.4835 102.417 48.1507 101.99C46.2475 99.5344 44.2691 97.1476 42.0708 94.9368C41.2354 94.0951 40.4252 93.7245 39.2883 93.8627C37.3538 94.0951 35.413 94.2898 33.4722 94.472C31.3367 94.673 29.2326 95.3011 27.0532 95.0435C26.9778 95.0373 26.8899 95.1378 26.7768 95.2068C26.7517 95.3325 26.67 95.4958 26.7077 95.6151C27.675 98.7304 29.2012 101.513 31.5377 103.824C32.0088 104.289 32.4233 104.371 32.9949 104.025C34.1883 103.303 35.4256 102.65 36.6127 101.927C38.3211 100.885 39.3135 101.211 39.8976 103.058C39.929 103.152 39.9541 103.253 39.9729 103.347C40.1928 104.528 40.4126 105.708 40.6262 106.896C40.802 107.85 40.9653 108.805 41.1977 110.118C41.9828 109.132 42.6298 108.459 43.1134 107.687C43.5405 107.002 44.1623 106.581 44.8343 106.77C45.2866 106.896 45.7451 107.555 45.9021 108.064C46.279 109.301 46.4799 110.595 46.75 111.864C46.8254 112.203 46.9133 112.542 47.0766 113.227C47.7801 112.102 48.3328 111.336 48.7536 110.513C49.1305 109.772 49.5764 109.219 50.462 109.333C51.2471 109.433 51.3853 110.168 51.6365 110.758C51.6931 110.896 51.7496 111.041 51.781 111.185C51.9757 112.115 52.1202 113.057 52.3714 113.968C52.5598 114.646 52.8802 115.293 53.2507 116.235C54.1175 114.891 54.7958 113.848 55.4679 112.812C55.8259 112.259 55.8636 111.393 56.8183 111.405C57.7667 111.418 57.9928 112.228 58.4073 112.831C58.5518 113.038 58.6711 113.258 58.7905 113.478C59.8582 115.557 61.441 117.24 62.9547 118.974C63.1682 119.219 63.4823 119.369 63.9533 119.715C64.079 119.47 64.1418 119.263 64.2674 119.106C65.4294 117.655 66.5034 116.172 67.0938 114.357C67.5963 112.818 68.4316 112.731 69.4554 113.943C69.5496 114.056 69.6375 114.181 69.738 114.294C70.9377 115.639 72.1311 116.995 73.3495 118.327C73.5254 118.521 73.8269 118.597 74.1786 118.785C74.2791 118.44 74.3608 118.22 74.4047 117.988C74.7502 116.166 75.0642 114.338 75.4536 112.53C75.5353 112.146 75.8179 111.65 76.1383 111.506C76.691 111.261 77.1935 111.562 77.5138 112.109C77.7148 112.454 77.9346 112.793 78.1795 113.114C79.0337 114.225 79.8817 115.343 80.7735 116.424C80.9117 116.593 81.2509 116.606 81.6152 116.731C81.7408 115.243 81.9229 113.911 81.9418 112.573C81.9606 111.173 81.8413 109.766 81.7534 108.365C81.7031 107.561 81.8915 106.902 82.6892 106.368C85.2141 108.284 86.8848 111.204 89.9562 112.511C90.0567 112.209 90.1697 112.052 90.1383 111.933C89.5103 109.615 88.857 107.304 88.2415 104.986C88.0908 104.415 87.984 103.805 87.984 103.215C87.984 102.034 88.229 101.821 89.3972 101.839C91.1558 101.871 92.9082 101.909 94.6669 101.94C95.2384 101.952 95.8163 101.921 96.0738 101.306C96.7395 99.6914 97.5749 98.1086 97.9643 96.4253C98.8374 92.6631 98.3537 88.8443 97.9769 85.0507C97.8575 83.8385 97.4304 83.6123 96.281 83.9515C93.8441 84.6801 91.4071 85.4087 88.9638 86.1059C87.582 86.5015 87.5757 86.4764 87.5757 87.8959C87.5757 90.9547 87.5318 94.0197 87.5946 97.0785C87.6197 98.184 87.3119 99.0256 86.263 99.8107C84.9566 98.5043 83.7256 97.0848 82.2998 95.8914C80.8175 94.6541 79.5237 93.1467 77.6268 92.1983C77.3505 92.7573 77.0427 93.1718 76.9359 93.6366C76.4586 95.6779 76.0315 97.7317 75.6169 99.7919C75.5165 100.301 75.2715 100.564 74.7753 100.715C74.0656 100.929 73.5945 100.828 73.1297 100.15C71.4339 97.6564 69.3863 95.4832 66.8111 93.555C64.9269 96.6577 64.3742 100.2 62.8354 103.586C62.0565 103.064 61.3217 102.782 60.882 102.254C58.9915 99.9803 57.2014 97.6313 55.3485 95.3262C55.0847 94.9996 54.6953 94.7797 54.2808 94.4468C52.585 97.223 52.1641 100.307 50.9771 103.083C50.3238 103.184 49.746 103.271 49.1305 103.366V103.341ZM61.8367 99.3836C62.9107 96.6263 63.7649 94.2082 64.5186 91.7272C62.7411 91.4383 57.8295 92.1104 56.6298 92.8138C58.0619 95.144 59.9524 97.0848 61.843 99.3836H61.8367ZM78.4622 89.039C78.4245 89.1709 78.3805 89.3091 78.3428 89.441C79.442 90.3517 80.4909 91.3315 81.6529 92.1543C82.796 92.9646 83.6753 94.1454 85.2267 94.9745C85.2581 93.2786 85.3021 91.9031 85.2895 90.5276C85.2895 89.8806 85.2267 89.2274 85.0948 88.5993C84.8687 87.4939 84.5295 87.3055 83.399 87.5253C83.2042 87.563 83.0095 87.6195 82.8211 87.6761C81.722 88.0027 80.6291 88.323 79.5362 88.6622C79.1719 88.7752 78.8202 88.9134 78.4622 89.0453V89.039ZM68.3374 90.8039C68.3123 90.9358 68.2809 91.074 68.2558 91.2059C70.027 92.9709 71.7982 94.7358 73.7641 96.6891C74.5241 94.271 75.0203 92.1103 75.1836 89.7676C72.7905 90.1319 70.5671 90.4711 68.3374 90.8039ZM49.3252 99.5155C50.4181 97.223 51.222 95.1629 51.8501 92.7761C49.3629 93.153 47.1708 93.4922 44.7401 93.8627C46.2978 95.7847 47.6984 97.5119 49.3252 99.5155ZM88.8319 114.998C87.4438 113.943 86.2316 112.994 84.9817 112.084C84.7808 111.933 84.3662 111.845 84.1903 111.952C84.0019 112.071 83.9203 112.454 83.9014 112.724C83.8135 114.024 83.7632 115.318 83.7004 116.618C83.6753 117.14 83.6502 117.661 83.6125 118.396C85.9804 117.937 87.4941 116.706 88.8256 114.992L88.8319 114.998ZM54.0798 119.665C55.2669 120.425 60.1409 121.266 61.5352 120.94C59.5881 119.407 58.5581 117.19 56.6927 115.557C55.7568 117.027 54.9214 118.346 54.0798 119.665ZM33.7926 106.324C35.5135 107.995 36.9833 109.42 38.453 110.846C38.5535 110.783 38.654 110.721 38.7545 110.658C38.3525 108.522 38.4907 106.274 37.3224 104.094C36.1605 104.829 35.1304 105.482 33.7926 106.324ZM68.5384 116.97C67.0121 119.093 66.3212 120.406 66.2836 121.272C68.2432 121.455 70.1714 121.367 72.4074 120.776C70.9879 119.382 69.8134 118.22 68.5384 116.97ZM91.941 110.124C92.0854 110.13 92.2362 110.136 92.3806 110.143C93.059 108.673 93.7624 107.21 94.4156 105.727C94.6669 105.162 94.4282 104.741 93.7875 104.66C93.2976 104.597 92.7952 104.597 92.299 104.584C90.7099 104.54 90.5529 104.754 90.9988 106.255C91.0993 106.588 91.1056 106.94 91.1935 107.279C91.4322 108.233 91.696 109.176 91.9472 110.13L91.941 110.124ZM77.0992 115.965C76.8103 117.498 76.5591 118.641 76.3895 119.79C76.3204 120.268 76.647 120.538 77.1369 120.45C78.1481 120.268 79.1468 120.054 80.4784 119.784C79.3038 118.459 78.324 117.347 77.0992 115.959V115.965ZM47.6984 117.535C48.8101 118.063 49.7648 118.521 50.7572 118.999C50.9645 117.686 50.3427 115.243 49.589 114.213C48.5338 114.973 48.383 116.229 47.6922 117.535H47.6984ZM44.0492 110.909C43.9362 110.878 43.8231 110.846 43.7101 110.815C43.195 111.525 42.6423 112.215 42.1964 112.963C42.0582 113.195 42.0582 113.717 42.2215 113.892C42.9124 114.627 43.6724 115.299 44.8218 115.695C44.5454 113.974 44.3005 112.442 44.0555 110.909H44.0492Z" fill="black"/>
<path d="M54.0676 65.1968C54.1429 64.7886 54.2372 64.3804 54.2937 63.9721C54.3377 63.6267 54.2811 63.2498 54.3816 62.9295C54.457 62.6908 54.7271 62.5149 54.9155 62.3139C55.1228 62.5463 55.5122 62.7724 55.5122 63.0048C55.5373 64.2045 55.5938 65.4293 55.3928 66.6038C54.9155 69.4176 54.3063 72.2063 52.7612 74.6935C52.3152 75.4095 52.0451 76.2386 51.6997 77.0175C49.4134 82.1552 45.3874 85.2831 40.1617 87.0543C36.1168 88.4236 31.9966 88.9637 27.7381 88.4173C25.8287 88.1723 24.3527 87.1988 23.1405 85.8296C21.6896 84.1902 20.8857 82.1741 20.245 80.1139C19.0956 76.4208 18.3168 72.646 18.1033 68.7769C18.053 67.8913 18.2226 66.9806 18.3671 66.095C18.7062 64.0035 19.2087 61.8868 20.3832 60.147C22.0791 57.641 23.7623 55.1098 26.5071 53.4516C28.5044 52.2457 30.5143 51.0712 32.7566 50.6189C35.0428 50.1604 37.4295 50.1353 39.7723 50.0474C40.9154 50.0034 42.0711 50.2169 43.2205 50.3551C46.1788 50.7131 48.6911 51.9505 50.4938 54.3498C51.0779 55.1286 51.461 56.0896 51.7876 57.0192C52.6293 59.431 53.3076 61.8931 53.4269 64.4746C53.4395 64.7258 53.653 64.9645 53.7787 65.2094C53.8729 65.2094 53.9734 65.2094 54.0676 65.2031V65.1968ZM37.8127 54.3058C35.451 54.6513 32.3734 55.0595 29.3083 55.5557C26.9405 55.9388 25.4016 57.4525 24.3339 59.5064C22.8453 62.3767 22.4119 65.4858 22.2989 68.6513C22.2361 70.4477 22.3994 72.2189 22.7888 74.0152C23.2724 76.2198 24.0701 78.1229 25.8727 79.4858C27.6188 80.8111 29.4402 82.0359 31.2429 83.2858C31.4815 83.4491 31.7956 83.5559 32.0845 83.5747C33.4349 83.6689 34.7978 83.738 36.0854 83.1665C37.7373 82.4379 39.4143 81.7721 41.0222 80.9619C43.3524 79.7873 45.2618 78.1166 46.4991 75.7676C47.705 73.4688 48.9235 71.1762 50.0918 68.8586C50.3807 68.287 50.5691 67.6527 50.6947 67.0246C51.26 64.1605 50.6633 61.4409 49.4511 58.8469C48.6032 57.0317 47.5606 55.3736 45.1927 55.3987C45.0985 55.3987 44.998 55.3484 44.9038 55.3107C42.8625 54.4503 40.683 54.5508 37.8064 54.3058H37.8127ZM27.7318 84.8874C28.1087 85.2329 28.3599 85.5469 28.6865 85.729C28.831 85.8044 29.2204 85.6725 29.3146 85.5218C29.4088 85.3773 29.3146 85.0507 29.2016 84.8623C29.1136 84.7115 28.8687 84.6613 28.7054 84.5482C27.2922 83.5433 25.8853 82.5321 24.4784 81.5271C24.2271 81.345 23.9759 81.1566 23.7246 80.9682C23.6556 81.0498 23.5865 81.1252 23.5174 81.2068C24.3653 82.4944 24.9369 84.052 26.8714 84.1651C26.7834 84.5357 26.7206 84.7995 26.6201 85.2266C27.0849 85.0884 27.3927 84.9942 27.7193 84.9L27.7318 84.8874Z" fill="black"/>
<path d="M63.8216 48.3767C62.2199 48.339 61.1082 49.5324 59.4375 49.0676C59.7704 48.6845 59.9462 48.339 60.2352 48.1694C62.2639 46.9824 64.2612 45.7576 66.7296 45.6068C69.1791 45.4561 71.6098 45.0855 74.0594 44.872C76.5655 44.6522 78.9271 45.343 81.2636 46.1596C82.727 46.6746 84.1967 47.1834 85.7041 47.5476C87.7705 48.0501 89.7616 48.6657 91.4951 49.9595C91.9348 50.2924 92.3996 50.6253 92.902 50.8262C95.54 51.8689 96.8024 54.1174 98.0586 56.4414C99.566 59.2301 100.031 62.3266 100.916 65.2974C101.117 65.9695 100.979 66.8111 100.785 67.5145C100.351 69.1036 99.8298 70.6801 99.2457 72.2252C99.0259 72.8156 98.6239 73.3935 98.1591 73.8206C96.1995 75.6358 94.0703 77.2311 91.5579 78.2109C89.5543 78.9897 87.5193 79.6869 85.4969 80.4155C85.3084 80.4846 85.1075 80.5348 84.9127 80.5411C82.6579 80.56 80.3968 80.5788 78.142 80.5788C76.22 80.5788 74.6498 79.6555 73.268 78.481C71.0508 76.5967 68.8274 74.6999 66.7924 72.6335C64.6129 70.4226 62.6219 68.0171 61.3218 65.153C60.9386 64.3051 60.656 63.3441 60.612 62.4208C60.5052 60.2727 60.4299 58.1058 60.612 55.9703C60.7439 54.5006 61.3218 53.0622 61.7237 51.6176C62.0001 50.6315 62.534 49.7899 63.3191 49.1179C63.4949 48.9671 63.5892 48.7285 63.8216 48.3704V48.3767ZM81.1945 77.6519C82.1366 77.5074 83.7696 77.2185 85.4089 77.0238C87.2367 76.8103 88.9011 76.1696 90.4713 75.2526C92.5503 74.0341 94.5036 72.6712 96.1367 70.8309C96.8276 70.052 97.4808 69.3423 97.6504 68.3311C97.9833 66.3652 98.4543 64.3867 97.7257 62.4019C97.418 61.5603 97.1165 60.7124 96.8401 59.8582C96.1178 57.6096 94.6984 55.8698 92.7262 54.6639C89.2466 52.5347 85.5848 50.8137 81.4708 50.2547C80.0325 50.06 78.6193 49.6141 77.1747 49.5073C74.0029 49.2749 70.8561 48.3579 67.6278 49.256C66.6542 49.5261 66.0638 49.9846 65.599 50.8262C64.7825 52.3023 64.4371 53.8976 64.1733 55.5369C63.5829 59.2175 64.412 62.6783 66.1266 65.8376C67.9481 69.1978 70.6677 71.93 73.2052 74.7752C75.1774 76.9798 77.6521 77.7273 81.1945 77.6519Z" fill="black"/>
<path d="M106.99 125.795C107.009 126.385 106.337 127.038 105.728 127.026C105.181 127.013 104.597 126.41 104.591 125.851C104.591 125.28 105.112 124.57 105.577 124.526C106.205 124.469 106.971 125.154 106.99 125.795Z" fill="black"/>
<path d="M27.097 34.3578C26.5192 34.3578 26.023 33.8365 25.9979 33.177C25.9728 32.5049 26.538 31.9019 27.1787 31.9145C27.6812 31.9208 28.416 32.5426 28.4537 32.9948C28.4977 33.5161 27.6623 34.3515 27.097 34.3578Z" fill="black"/>
<path d="M109.031 122.906C108.334 122.918 107.844 122.479 107.851 121.85C107.851 121.197 108.46 120.519 109.025 120.538C109.66 120.557 110.168 121.141 110.181 121.85C110.193 122.51 109.773 122.893 109.031 122.906Z" fill="black"/>
<path d="M25.2383 36.845C25.276 37.3851 24.83 37.8813 24.2396 37.9504C23.5739 38.032 23.0526 37.6301 22.9772 36.9769C22.9018 36.3237 23.3415 35.6893 23.8942 35.6516C24.4658 35.6139 25.1943 36.2546 25.232 36.8387L25.2383 36.845Z" fill="black"/>
<path d="M49.1308 103.347C49.7463 103.253 50.3241 103.165 50.9773 103.064C52.1644 100.288 52.5852 97.198 54.2811 94.4281C54.6956 94.761 55.085 94.9808 55.3488 95.3074C57.2017 97.6125 58.9917 99.9616 60.8823 102.235C61.322 102.763 62.0505 103.052 62.8356 103.567C64.3745 100.188 64.9272 96.6453 66.8114 93.5362C69.3866 95.4645 71.4404 97.6314 73.13 100.131C73.5948 100.809 74.0596 100.91 74.7756 100.696C75.2718 100.546 75.5167 100.282 75.6172 99.7732C76.0318 97.7193 76.4652 95.6655 76.9362 93.6179C77.043 93.1531 77.3508 92.7386 77.6271 92.1796C79.5239 93.128 80.8178 94.6354 82.3001 95.8727C83.7259 97.0661 84.9569 98.4856 86.2633 99.792C87.3185 99.0069 87.62 98.159 87.5949 97.0598C87.5321 94.001 87.576 90.936 87.576 87.8772C87.576 86.4577 87.5823 86.4828 88.9641 86.0871C91.4074 85.3837 93.8443 84.6551 96.2813 83.9328C97.4307 83.5873 97.8578 83.8197 97.9772 85.0319C98.354 88.8256 98.8377 92.6443 97.9646 96.4066C97.5752 98.0899 96.7336 99.6727 96.0741 101.287C95.8228 101.909 95.2387 101.934 94.6671 101.921C92.9085 101.89 91.1561 101.852 89.3975 101.821C88.2292 101.802 87.978 102.015 87.9843 103.196C87.9843 103.787 88.0911 104.396 88.2418 104.967C88.8573 107.285 89.5168 109.596 90.1386 111.914C90.17 112.033 90.057 112.19 89.9565 112.492C86.8914 111.186 85.2144 108.265 82.6895 106.349C81.8856 106.883 81.6971 107.543 81.7537 108.347C81.8416 109.747 81.9609 111.154 81.9421 112.555C81.9232 113.893 81.7411 115.23 81.6155 116.713C81.2512 116.587 80.912 116.581 80.7738 116.405C79.8819 115.325 79.034 114.207 78.1798 113.095C77.9349 112.775 77.7151 112.442 77.5141 112.09C77.1937 111.544 76.6913 111.236 76.1386 111.487C75.8182 111.631 75.5356 112.128 75.4539 112.511C75.0645 114.32 74.7505 116.147 74.405 117.969C74.3611 118.201 74.2794 118.421 74.1789 118.767C73.8272 118.578 73.5257 118.503 73.3498 118.308C72.1313 116.976 70.938 115.626 69.7383 114.276C69.6378 114.163 69.5562 114.037 69.4557 113.924C68.4319 112.712 67.5965 112.8 67.0941 114.339C66.5037 116.154 65.4296 117.636 64.2677 119.087C64.1421 119.244 64.0793 119.445 63.9536 119.696C63.4763 119.351 63.1623 119.2 62.955 118.955C61.435 117.221 59.8522 115.538 58.7908 113.459C58.6777 113.239 58.5521 113.02 58.4076 112.812C57.9931 112.209 57.767 111.405 56.8186 111.387C55.8639 111.374 55.8262 112.241 55.4682 112.793C54.7898 113.836 54.1178 114.879 53.251 116.217C52.8805 115.274 52.5601 114.627 52.3717 113.949C52.1205 113.038 51.976 112.096 51.7813 111.167C51.7499 111.022 51.6996 110.878 51.6368 110.74C51.3793 110.149 51.2474 109.421 50.4623 109.314C49.5767 109.201 49.1308 109.753 48.7539 110.495C48.3331 111.324 47.7804 112.084 47.0769 113.208C46.9136 112.523 46.8257 112.184 46.7503 111.845C46.474 110.576 46.2792 109.282 45.9024 108.045C45.7454 107.536 45.2869 106.877 44.8346 106.751C44.1626 106.563 43.5471 106.99 43.1137 107.668C42.6238 108.441 41.9831 109.119 41.198 110.099C40.9656 108.793 40.8023 107.832 40.6265 106.877C40.4129 105.696 40.1931 104.509 39.9732 103.328C39.9544 103.228 39.9293 103.133 39.8979 103.039C39.3137 101.193 38.3214 100.866 36.613 101.909C35.4196 102.637 34.1886 103.29 32.9952 104.006C32.4236 104.352 32.0091 104.27 31.538 103.805C29.2015 101.494 27.6753 98.7117 26.708 95.5964C26.6703 95.4708 26.752 95.3137 26.7771 95.1881C26.8839 95.119 26.9781 95.0123 27.0535 95.0248C29.2329 95.2886 31.337 94.6542 33.4725 94.4533C35.4133 94.2711 37.3541 94.0764 39.2886 93.844C40.4255 93.7121 41.2357 94.0827 42.0711 94.918C44.2694 97.1289 46.2478 99.5157 48.1509 101.971C48.4838 102.399 48.7853 102.851 49.1308 103.322V103.347Z" fill="#ED1C24"/>
<path d="M61.8372 99.39C59.9466 97.0912 58.0623 95.1567 56.624 92.8202C57.8237 92.1167 62.7416 91.4384 64.5128 91.7336C63.7591 94.2145 62.9049 96.6327 61.8309 99.39H61.8372Z" fill="white"/>
<path d="M78.4621 89.0454C78.8201 88.9198 79.1719 88.7753 79.5361 88.6623C80.629 88.3294 81.7282 88.0028 82.821 87.6762C83.0095 87.6197 83.2042 87.5631 83.3989 87.5254C84.5294 87.3056 84.8686 87.494 85.0947 88.5995C85.2266 89.2275 85.2831 89.887 85.2894 90.5277C85.302 91.9032 85.2517 93.2787 85.2266 94.9746C83.6752 94.1455 82.7959 92.9647 81.6528 92.1545C80.4908 91.3317 79.4419 90.3518 78.3428 89.4411C78.3805 89.3092 78.4244 89.171 78.4621 89.0391V89.0454Z" fill="white"/>
<path d="M68.3434 90.8041C70.5668 90.4649 72.7965 90.132 75.1895 89.7677C75.0262 92.1105 74.53 94.2711 73.7701 96.6892C71.8104 94.7359 70.0329 92.971 68.2617 91.206C68.2868 91.0741 68.3182 90.936 68.3434 90.8041Z" fill="white"/>
<path d="M49.3253 99.5156C47.6985 97.5057 46.2979 95.7785 44.7402 93.8628C47.1709 93.4923 49.363 93.1594 51.8502 92.7762C51.2221 95.163 50.4182 97.2231 49.3253 99.5156Z" fill="white"/>
<path d="M88.8323 115.004C87.4944 116.719 85.987 117.95 83.6191 118.408C83.6568 117.667 83.6819 117.146 83.7071 116.631C83.7699 115.331 83.8201 114.031 83.9081 112.737C83.9269 112.46 84.0086 112.084 84.197 111.964C84.3666 111.857 84.7811 111.945 84.9884 112.096C86.232 113.007 87.4505 113.955 88.8386 115.01L88.8323 115.004Z" fill="white"/>
<path d="M54.0801 119.665C54.9154 118.346 55.7571 117.027 56.6929 115.557C58.5583 117.19 59.5947 119.407 61.5355 120.94C60.1411 121.266 55.2672 120.418 54.0801 119.665Z" fill="white"/>
<path d="M33.7988 106.324C35.1304 105.482 36.1667 104.829 37.3287 104.094C38.4969 106.274 38.3587 108.522 38.7607 110.658C38.6602 110.721 38.5597 110.783 38.4592 110.846C36.9895 109.421 35.5198 107.995 33.7988 106.324Z" fill="white"/>
<path d="M68.5449 116.964C69.8199 118.214 70.9944 119.376 72.4139 120.77C70.1779 121.36 68.2497 121.448 66.29 121.266C66.3277 120.399 67.0186 119.093 68.5449 116.964Z" fill="white"/>
<path d="M91.9469 110.118C91.6956 109.169 91.4381 108.221 91.1932 107.266C91.1052 106.933 91.099 106.575 90.9985 106.242C90.5525 104.741 90.7095 104.528 92.2986 104.572C92.7948 104.584 93.2973 104.584 93.7872 104.647C94.4278 104.729 94.6665 105.149 94.4153 105.715C93.762 107.197 93.0649 108.661 92.3803 110.13C92.2358 110.124 92.0851 110.118 91.9406 110.111L91.9469 110.118Z" fill="white"/>
<path d="M77.1051 115.959C78.3299 117.347 79.3097 118.459 80.4843 119.784C79.1527 120.048 78.154 120.268 77.1428 120.45C76.6529 120.538 76.32 120.268 76.3954 119.79C76.565 118.635 76.8162 117.498 77.1051 115.965V115.959Z" fill="white"/>
<path d="M47.7051 117.529C48.396 116.216 48.5467 114.967 49.6019 114.207C50.3556 115.237 50.9711 117.68 50.7702 118.993C49.7715 118.515 48.8231 118.063 47.7114 117.529H47.7051Z" fill="white"/>
<path d="M44.0555 110.903C44.3005 112.435 44.5454 113.968 44.8218 115.689C43.6724 115.293 42.9124 114.621 42.2215 113.886C42.0582 113.71 42.0582 113.189 42.1964 112.957C42.6486 112.209 43.2013 111.518 43.7101 110.809C43.8231 110.84 43.9362 110.871 44.0493 110.903H44.0555Z" fill="white"/>
<path d="M37.8126 54.3059C40.6892 54.5571 42.8687 54.4566 44.91 55.3108C45.0042 55.3485 45.0984 55.3988 45.1989 55.3988C47.5731 55.3737 48.6094 57.0318 49.4573 58.847C50.6633 61.441 51.2599 64.1543 50.7009 67.0247C50.5753 67.6528 50.3869 68.2934 50.098 68.8587C48.9297 71.1763 47.7112 73.4689 46.5053 75.7677C45.268 78.1167 43.3586 79.7874 41.0284 80.962C39.4205 81.7722 37.7372 82.438 36.0916 83.1666C34.804 83.7381 33.4474 83.6627 32.0907 83.5748C31.8018 83.556 31.4877 83.4492 31.2491 83.2859C29.4464 82.036 27.625 80.8049 25.8789 79.4859C24.0826 78.123 23.2786 76.2199 22.795 74.0153C22.4056 72.219 22.2423 70.454 22.3051 68.6514C22.4181 65.4859 22.8515 62.3705 24.3401 59.5065C25.4078 57.4463 26.9466 55.9389 29.3145 55.5558C32.3796 55.0596 35.4572 54.6514 37.8189 54.3059H37.8126ZM29.3271 65.6115C28.3473 65.4859 27.5433 65.6366 26.9027 66.4783C25.9103 67.791 26.1615 70.0709 27.4805 71.0759C27.9956 71.4653 28.6299 71.7102 29.1073 72.131C30.4263 73.3181 32.1284 72.847 33.5102 71.8735C34.2073 71.3836 34.5528 69.2732 34.0378 68.2432C33.5981 67.3639 33.127 66.3715 32.097 66.0574C31.2114 65.7873 30.2567 65.7434 29.3271 65.6052V65.6115Z" fill="white"/>
<path d="M27.7253 84.8874C27.3987 84.9816 27.091 85.0758 26.6262 85.214C26.7267 84.7869 26.7895 84.5231 26.8774 84.1526C24.9366 84.0395 24.3651 82.4755 23.5234 81.1942C23.5925 81.1126 23.6616 81.0372 23.7307 80.9556C23.9819 81.144 24.2332 81.3324 24.4844 81.5146C25.8913 82.5258 27.2982 83.5307 28.7114 84.5357C28.8747 84.6487 29.1197 84.699 29.2076 84.8497C29.3207 85.0381 29.4086 85.3647 29.3207 85.5092C29.2265 85.6599 28.8308 85.7981 28.6926 85.7165C28.366 85.5343 28.1148 85.2266 27.7379 84.8748L27.7253 84.8874Z" fill="white"/>
<path d="M81.1948 77.6582C77.6524 77.7335 75.1778 76.9861 73.2056 74.7815C70.6681 71.9363 67.9485 69.2041 66.127 65.8438C64.4123 62.6846 63.5833 59.2175 64.1737 55.5432C64.4375 53.8976 64.7766 52.3085 65.5994 50.8325C66.0642 49.9972 66.6483 49.5324 67.6281 49.2623C70.8565 48.3641 74.0032 49.2812 77.1751 49.5136C78.6197 49.6203 80.0329 50.06 81.4712 50.261C85.5852 50.82 89.2469 52.541 92.7265 54.6702C94.6987 55.8761 96.1182 57.6222 96.8405 59.8644C97.1169 60.7186 97.4121 61.5665 97.7261 62.4082C98.461 64.3929 97.9836 66.3714 97.6507 68.3373C97.4812 69.3486 96.828 70.0583 96.1371 70.8372C94.504 72.6774 92.5569 74.0404 90.4717 75.2589C88.9078 76.1759 87.2433 76.8228 85.4093 77.0301C83.77 77.2185 82.137 77.5137 81.1948 77.6582ZM88.4995 65.3916C86.1316 65.58 85.2523 66.0951 85.0827 69.2858C85.0136 70.5922 86.1819 71.7102 87.4318 71.6599C89.316 71.5846 91.4578 69.9013 91.4327 68.5132C91.4013 66.6604 90.1953 65.379 88.5058 65.3979L88.4995 65.3916Z" fill="white"/>
<path d="M29.3269 65.6051C30.2502 65.7496 31.2049 65.7872 32.0968 66.0573C33.1268 66.3714 33.5979 67.3575 34.0375 68.2431C34.5526 69.2732 34.2071 71.3835 33.51 71.8734C32.1282 72.847 30.426 73.318 29.1071 72.131C28.6297 71.7039 27.9953 71.4652 27.4803 71.0758C26.1613 70.0708 25.9101 67.7846 26.9025 66.4782C27.5431 65.6365 28.3533 65.4858 29.3269 65.6114V65.6051Z" fill="black"/>
<path d="M88.4992 65.3852C90.1888 65.3664 91.3947 66.6476 91.4261 68.5005C91.4513 69.8886 89.3095 71.5718 87.4252 71.6472C86.1753 71.6975 85.0071 70.5795 85.0762 69.2731C85.2457 66.0824 86.1251 65.5673 88.493 65.3789L88.4992 65.3852ZM88.7065 68.1739C88.1035 67.9918 87.576 67.8975 87.2242 68.4691C87.1614 68.5696 87.3498 68.9967 87.4817 69.0281C88.0533 69.1663 88.5683 69.0846 88.7065 68.1739Z" fill="black"/>
<path d="M88.7067 68.1741C88.5622 69.0785 88.0472 69.1664 87.4819 69.0283C87.35 68.9969 87.1616 68.5697 87.2244 68.4693C87.5761 67.8977 88.11 67.9919 88.7067 68.1741Z" fill="white"/>
<path d="M87.5763 90.2197C87.5763 88.8003 87.5826 88.8254 88.9644 88.4297C91.4077 87.7262 93.8447 86.9976 96.2816 86.2753C97.431 85.9299 97.8581 86.1623 97.9775 87.3745C98.1533 89.1645 98.3543 90.9671 98.4234 92.7635C98.5239 90.1883 98.235 87.6006 97.9775 85.0254C97.8581 83.8132 97.431 83.5871 96.2816 83.9263C93.8447 84.6549 91.4077 85.3834 88.9644 86.0806C87.5826 86.4763 87.5763 86.4512 87.5763 87.8707C87.5763 89.8994 87.5575 91.9281 87.5638 93.9569C87.5638 92.7132 87.5763 91.4633 87.5763 90.2197Z" fill="#870B20"/>
<path d="M27.3549 97.4114C29.4276 97.581 31.4312 97.0094 33.4725 96.821C35.4133 96.6388 37.354 96.4441 39.2886 96.2117C40.4254 96.0798 41.2356 96.4504 42.071 97.2857C44.2693 99.4966 46.2478 101.883 48.1509 104.339C48.4838 104.766 48.7853 105.218 49.1307 105.69C49.7462 105.595 50.3241 105.507 50.9773 105.407C52.1644 102.631 52.5852 99.5406 54.281 96.7707C54.6956 97.1036 55.085 97.3234 55.3488 97.65C57.2016 99.9551 58.9917 102.304 60.8822 104.578C61.3219 105.105 62.0505 105.394 62.8293 105.909C64.3681 102.53 64.9208 98.9879 66.8051 95.8788C69.3803 97.8071 71.4341 99.974 73.1237 102.474C73.5884 103.152 74.0532 103.253 74.7692 103.039C75.2654 102.888 75.5104 102.624 75.6109 102.116C76.0254 100.062 76.4588 98.0081 76.9299 95.9605C77.0366 95.4957 77.3444 95.0811 77.6208 94.5221C79.5176 95.4706 80.8115 96.978 82.2937 98.2153C83.7195 99.4087 84.9506 100.828 86.257 102.135C87.3122 101.349 87.6136 100.502 87.5885 99.4024C87.576 98.7994 87.5697 98.1965 87.5634 97.5872C87.4818 98.4351 87.13 99.1323 86.2507 99.7855C84.9443 98.4791 83.7132 97.0596 82.2875 95.8663C80.8052 94.6289 79.5113 93.1215 77.6145 92.1731C77.3381 92.7321 77.0304 93.1467 76.9236 93.6114C76.4462 95.6527 76.0191 97.7066 75.6046 99.7667C75.5041 100.275 75.2592 100.539 74.763 100.69C74.0532 100.904 73.5822 100.803 73.1174 100.125C71.4215 97.6312 69.374 95.458 66.7988 93.5298C64.9145 96.6325 64.3618 100.175 62.823 103.56C62.0442 103.039 61.3093 102.756 60.8759 102.229C58.9854 99.9551 57.1953 97.6061 55.3425 95.301C55.0787 94.9744 54.6893 94.7545 54.2747 94.4217C52.5789 97.1978 52.1581 100.282 50.971 103.058C50.3178 103.158 49.7399 103.246 49.1244 103.341C48.7852 102.869 48.4775 102.417 48.1446 101.99C46.2415 99.5343 44.263 97.1476 42.0647 94.9367C41.2294 94.0951 40.4191 93.7245 39.2823 93.8627C37.3478 94.095 35.407 94.2898 33.4662 94.4719C31.3307 94.6729 29.2266 95.301 27.0471 95.0435C26.9718 95.0372 26.8838 95.1377 26.7708 95.2068C26.7456 95.3324 26.664 95.4957 26.7017 95.615C26.8901 96.2306 27.1099 96.8272 27.3486 97.4114H27.3549Z" fill="#870B20"/>
<path d="M81.7598 110.689C81.8163 111.556 81.8791 112.423 81.9168 113.289C81.9294 113.038 81.9419 112.793 81.9482 112.542C81.9608 111.612 81.9105 110.683 81.854 109.753C81.7661 110.042 81.7409 110.35 81.7598 110.689Z" fill="#870B20"/>
<path d="M88.1478 104.546C88.0285 104.754 87.9845 105.068 87.9908 105.539C87.9908 106.129 88.0976 106.738 88.2483 107.31C88.6943 108.981 89.1591 110.651 89.6176 112.316C89.7369 112.372 89.85 112.429 89.9693 112.479C90.0698 112.178 90.1828 112.021 90.1514 111.901C89.5234 109.584 88.8701 107.272 88.2546 104.955C88.2169 104.817 88.1855 104.678 88.1541 104.54L88.1478 104.546Z" fill="#870B20"/>
<path d="M101.193 117.887C101.105 118.27 100.992 118.635 100.885 119.005C101.186 118.327 101.45 117.623 101.67 116.895C101.412 117.121 101.28 117.498 101.186 117.881L101.193 117.887Z" fill="#FFC34F"/>
<path d="M61.3842 52.7482C61.177 53.1125 61.0011 53.5019 60.8818 53.9227C60.4798 55.3673 59.9019 56.7993 59.77 58.2753C59.5816 60.4108 59.657 62.5777 59.77 64.7258C59.814 65.6491 60.0966 66.6101 60.4798 67.458C61.7799 70.3221 63.771 72.7276 65.9504 74.9385C67.9917 77.0049 70.2089 78.9017 72.426 80.786C73.8141 81.9605 75.378 82.8838 77.3 82.8838C79.5548 82.8838 81.8159 82.865 84.0708 82.8461C84.2655 82.8461 84.4727 82.7896 84.6549 82.7205C86.6773 81.9919 88.7123 81.2947 90.7159 80.5159C93.2283 79.5361 95.3575 77.9408 97.3171 76.1256C97.7819 75.6985 98.1776 75.1207 98.4037 74.5303C98.655 73.8645 98.8874 73.1987 99.1135 72.5204C98.8811 73.004 98.5419 73.4688 98.1588 73.8268C96.1991 75.642 94.0699 77.2373 91.5576 78.2171C89.554 78.996 87.519 79.6931 85.4965 80.4217C85.3081 80.4908 85.1071 80.541 84.9061 80.5473C82.6513 80.5662 80.3902 80.585 78.1353 80.585C76.2134 80.585 74.6432 79.6617 73.2551 78.4872C71.0379 76.6029 68.8145 74.7061 66.7795 72.6397C64.6 70.4288 62.609 68.0232 61.3089 65.1592C60.9257 64.3112 60.6431 63.3503 60.5991 62.427C60.4923 60.2789 60.417 58.112 60.5991 55.9765C60.6933 54.8899 61.0388 53.8159 61.3717 52.7482H61.3842Z" fill="#FFC34F"/>
<path d="M54.0801 64.6001C53.9545 64.7383 53.7912 64.8702 53.6719 65.0083C53.7096 65.0711 53.7472 65.1339 53.7786 65.1968C53.8729 65.1968 53.9734 65.1968 54.0676 65.1905C54.099 65.0209 54.1367 64.8576 54.1681 64.688C54.1367 64.6566 54.1053 64.6315 54.0801 64.6001Z" fill="#FFC34F"/>
<path d="M104.893 129.318C105.502 129.331 106.168 128.684 106.155 128.087C106.136 127.453 105.37 126.762 104.742 126.819C104.283 126.863 103.756 127.572 103.756 128.144C103.756 128.703 104.34 129.306 104.893 129.318Z" fill="#FFC34F"/>
<path d="M58.5961 51.3664C59.9214 51.7307 60.9012 51.0587 62.0443 50.7823C62.3458 50.1542 62.7604 49.5952 63.3131 49.1241C63.4889 48.9734 63.5831 48.7347 63.8155 48.3767C63.7276 48.3767 63.6397 48.3767 63.5517 48.3767C62.082 48.8729 60.7379 49.6706 59.3875 50.462C59.0986 50.6315 58.9227 50.977 58.5898 51.3601L58.5961 51.3664Z" fill="#FFC34F"/>
<path d="M7.91548 65.9381C8.01597 65.6743 8.1039 65.4105 8.17927 65.1404C8.01597 65.5675 7.86523 65.9946 7.72705 66.428C7.78986 66.2647 7.85267 66.1014 7.91548 65.9381Z" fill="#FFC34F"/>
<path d="M102.487 121.298C102.882 120.431 103.159 119.514 103.561 118.653C103.68 118.396 103.768 118.132 103.781 117.887C103.636 118.264 103.492 118.635 103.328 118.999C102.223 121.417 101.124 123.848 99.0386 125.638C95.6092 128.577 92.1861 131.517 88.091 133.539C87.846 133.658 87.6576 133.885 87.1426 134.312C87.9842 134.431 88.493 134.563 89.0017 134.569C89.1713 134.569 89.3472 134.569 89.5168 134.569C92.6446 132.679 95.4271 130.304 98.2032 127.924C100.288 126.134 101.388 123.703 102.493 121.285L102.487 121.298Z" fill="#FFC34F"/>
<path d="M70.6049 28.3156C70.787 28.2905 70.9629 28.2653 71.1073 28.259C76.1697 27.9827 81.251 27.8948 86.2945 28.2653C92.0101 28.6861 97.5875 29.8921 101.984 33.9684C104.553 36.3488 107.178 38.7167 109.056 41.7315C109.584 42.5795 109.942 43.5216 110.413 44.4009C112.662 48.6217 114.571 52.9743 115.494 57.6975C115.595 58.2188 115.532 58.7715 115.519 59.3054C115.519 59.6509 115.4 60.0089 115.463 60.3418C115.903 62.5275 115.84 64.7321 115.852 66.943C115.859 68.5383 116.034 70.1337 116.135 71.729C116.148 71.93 116.166 72.131 116.154 72.332C115.984 76.088 116.575 79.7999 116.807 83.5371C116.87 84.5295 116.845 85.5344 116.876 86.5268C116.889 86.9099 116.945 87.2868 117.008 87.8583C118.013 87.1109 118.126 86.1436 118.22 85.2329C118.113 85.346 117.994 85.459 117.85 85.5658C117.793 84.9943 117.73 84.6111 117.724 84.2342C117.693 83.2356 117.718 82.237 117.655 81.2446C117.423 77.5137 116.832 73.7954 117.002 70.0395C117.008 69.8385 116.995 69.6375 116.983 69.4365C116.882 67.8411 116.707 66.2458 116.7 64.6505C116.694 62.4396 116.75 60.235 116.311 58.0492C116.248 57.7226 116.361 57.3584 116.367 57.0129C116.374 56.4791 116.443 55.9201 116.342 55.405C115.419 50.6818 113.51 46.3292 111.261 42.1084C110.79 41.2291 110.432 40.2807 109.904 39.439C108.033 36.4179 105.401 34.05 102.832 31.6758C98.4354 27.5995 92.858 26.3936 87.1424 25.9728C82.0989 25.596 77.0176 25.6839 71.9552 25.9665C70.9377 26.0231 68.8274 26.5821 68.0674 27.028C68.4003 27.229 68.6703 27.4363 68.9718 27.5744C69.5183 27.8257 70.0647 28.0706 70.6174 28.3156H70.6049Z" fill="#FFC34F"/>
<path d="M30.395 46.0653C31.3496 46.8065 32.1976 46.5866 32.9952 46.1155C33.2465 45.9648 33.5354 45.5 33.4726 45.2676C33.3595 44.8468 33.3407 44.4386 33.3721 44.0491C32.7126 44.3318 32.0029 44.3695 31.2303 43.7665C31.5192 42.9374 31.7893 42.1084 32.0719 41.2793C31.4501 42.8432 30.9477 44.4574 30.3887 46.059L30.395 46.0653Z" fill="#FFC34F"/>
<path d="M86.0309 122.623C87.218 121.788 88.292 120.795 89.4351 119.897C89.8999 119.533 90.4526 119.282 90.9174 118.917C91.3759 118.559 91.8721 118.182 92.1736 117.705C92.9147 116.518 93.5554 115.262 94.24 114.043C95.7788 111.305 97.437 108.629 98.3414 105.614C97.4181 107.731 96.2122 109.722 95.0753 111.751C94.3907 112.976 93.7501 114.225 93.0089 115.413C92.7075 115.89 92.2113 116.267 91.7528 116.625C91.288 116.989 90.7353 117.247 90.2705 117.605C89.1211 118.496 88.047 119.495 86.8662 120.33C83.6127 122.623 79.9133 123.892 76.0631 124.696C72.6714 125.399 69.2358 125.826 65.7499 125.368C65.1093 125.28 64.4435 125.292 63.7966 125.317C61.4098 125.412 59.1173 124.878 56.8374 124.281C55.0033 123.804 53.163 123.326 51.3416 122.78C50.4371 122.51 49.5767 122.077 48.6911 121.731C43.8108 119.841 39.5775 116.976 35.7838 113.371C32.3356 110.099 29.4904 106.362 26.8462 102.455C25.5586 100.546 24.5222 98.4793 24.0449 96.1742C23.869 95.3326 23.4922 94.5349 23.2409 93.7058C22.3365 93.9005 22.0099 94.5537 22.3239 95.7534C22.5689 96.6704 23.0085 97.5434 23.2032 98.4667C23.6806 100.772 24.7169 102.838 26.0045 104.748C28.6488 108.654 31.494 112.398 34.9422 115.664C38.7359 119.263 42.9629 122.133 47.8494 124.024C48.735 124.369 49.5955 124.796 50.4999 125.073C51.2976 125.311 52.0953 125.531 52.8992 125.751C53.006 125.763 53.094 125.789 53.1756 125.833C54.1115 126.084 55.0536 126.329 55.9894 126.574C58.2694 127.17 60.5619 127.704 62.9487 127.61C63.6019 127.585 64.2614 127.572 64.902 127.66C66.893 127.924 68.8652 127.893 70.8249 127.692C70.8312 127.648 70.8437 127.61 70.85 127.56C70.894 127.604 70.9379 127.635 70.9819 127.679C72.4014 127.528 73.8146 127.29 75.2152 126.994C79.0654 126.191 82.7648 124.922 86.0183 122.629L86.0309 122.623Z" fill="#FFC34F"/>
<path d="M25.1629 35.4758C25.188 36.1353 25.6779 36.6628 26.262 36.6566C26.8273 36.6566 27.6689 35.8087 27.6187 35.2936C27.581 34.8414 26.8461 34.2259 26.3374 34.2133C25.6967 34.2008 25.1314 34.81 25.1566 35.4758H25.1629Z" fill="#FFC34F"/>
<path d="M39.4392 138.633C39.1503 138.558 38.8488 138.457 38.6038 138.294C36.349 136.818 34.0942 135.335 31.8582 133.841C31.6635 133.715 31.4688 133.602 31.2803 133.476C29.641 132.415 27.9703 131.347 26.532 130.041C26.2054 129.745 25.8913 129.438 25.5773 129.136C24.7482 128.414 23.9254 127.673 23.1215 126.919C21.903 125.782 20.3704 124.972 18.8882 123.954C18.4673 124.915 18.9698 125.537 19.4472 126.04C21.4947 128.175 23.5109 130.355 25.6966 132.339C27.135 133.646 28.8057 134.714 30.445 135.775C32.4235 137.063 34.4522 138.281 36.4809 139.493C36.9959 139.531 37.511 139.55 38.0323 139.556C39.2005 139.556 40.3688 139.481 41.537 139.437C41.5496 139.361 41.5621 139.28 41.5747 139.204C40.8587 139.016 40.1489 138.834 39.4518 138.639L39.4392 138.633Z" fill="#FFC34F"/>
<path d="M9.14004 52.5472C9.56086 51.7307 9.86863 50.9141 10.0947 50.0034C10.0571 50.0851 10.0194 50.1667 9.9754 50.2484C9.56086 51.0586 9.24054 51.8877 9.03955 52.7482C9.07096 52.6791 9.10236 52.61 9.14004 52.5409V52.5472Z" fill="#FFC34F"/>
<path d="M121.141 83.6941C121.028 82.0799 120.362 80.5034 119.923 78.9206C119.885 78.795 119.64 78.7322 119.295 78.5123C119.257 79.6554 119.295 80.6667 119.207 81.6402C119.64 83.0848 120.193 84.5232 120.299 85.9929C120.701 91.564 119.985 97.1163 119.715 102.681C119.634 104.333 119.753 105.991 119.659 107.637C119.546 109.628 119.326 111.619 119.112 113.604C118.962 114.998 118.855 116.417 118.522 117.768C118.057 119.658 117.448 121.511 116.87 123.37C117.121 122.811 117.347 122.246 117.53 121.656C118.164 119.602 118.849 117.561 119.364 115.475C119.697 114.119 119.803 112.705 119.954 111.311C120.168 109.326 120.387 107.335 120.5 105.344C120.595 103.699 120.482 102.034 120.557 100.389C120.827 94.8301 121.537 89.2778 121.141 83.7003V83.6941Z" fill="#FFC34F"/>
<path d="M11.8663 46.4611C13.4993 44.1749 15.1638 41.8949 17.0229 39.7908C18.2351 38.4153 19.7865 37.3413 21.2248 36.173C22.079 35.4821 23.0086 34.8791 23.9067 34.2385C24.5788 33.7549 25.2822 33.3969 26.0108 33.1079C26.0234 32.4673 26.5635 31.902 27.1854 31.9146C27.5057 31.9146 27.9202 32.1721 28.1903 32.4736C29.2015 32.2726 30.2379 32.1658 31.2931 32.0967C33.0329 31.9837 34.7727 31.8015 36.6883 31.6194C37.1657 30.8594 37.6681 30.0868 38.1832 29.264C35.9974 29.4587 34.0692 29.6723 32.1284 29.7979C29.503 29.9675 26.953 30.3443 24.7421 31.9334C23.8502 32.5803 22.9144 33.177 22.0602 33.8679C20.6218 35.0299 19.0705 36.1102 17.8582 37.4857C15.9991 39.5898 14.3347 41.8697 12.7016 44.156C11.9542 45.1986 11.257 46.3857 10.9556 47.6105C10.9116 47.78 10.8676 47.9497 10.8174 48.113C11.1251 47.5351 11.4832 46.9761 11.86 46.4485L11.8663 46.4611Z" fill="#FFC34F"/>
<path d="M70.0275 129.852C69.927 130.436 69.8077 130.713 69.8391 130.977C69.9208 131.624 70.1029 132.258 70.1783 132.905C70.1908 132.993 70.1783 133.068 70.1908 133.156C70.8001 132.597 71.0953 131.781 71.0262 130.794C70.8189 130.506 70.4672 130.273 70.0275 129.859V129.852Z" fill="#FFC34F"/>
<path d="M18.8883 63.5953C18.1723 65.0776 17.7954 66.7295 17.5316 68.3814C17.3871 69.267 17.2176 70.1777 17.2678 71.0633C17.4814 74.9323 18.2602 78.7071 19.4096 82.4003C20.0502 84.4667 20.8542 86.4766 22.3051 88.1159C23.5173 89.4914 24.9933 90.4587 26.9027 90.7036C31.1611 91.2501 35.2814 90.7099 39.3263 89.3407C44.552 87.5695 48.578 84.4416 50.8642 79.3038C51.2097 78.525 51.4798 77.6959 51.9257 76.9799C52.7171 75.7112 53.2573 74.3608 53.6655 72.9664C53.4017 73.5505 53.1128 74.1284 52.7611 74.6811C52.3151 75.3971 52.045 76.2262 51.6996 77.005C49.4134 82.1428 45.3873 85.2707 40.1616 87.0419C36.1167 88.4111 31.9965 88.9513 27.738 88.4048C25.8286 88.1599 24.3526 87.1926 23.1404 85.8171C21.6895 84.1778 20.8856 82.1616 20.2449 80.1015C19.0955 76.4084 18.3167 72.6336 18.1032 68.7645C18.0529 67.8789 18.2225 66.9682 18.367 66.0826C18.5051 65.2472 18.6684 64.4119 18.8883 63.5953Z" fill="#FFC34F"/>
<path d="M22.1415 39.2757C22.2169 39.9289 22.7382 40.3246 23.404 40.2492C23.9944 40.1802 24.4403 39.684 24.4026 39.1438C24.3587 38.5597 23.6364 37.9127 23.0585 37.9567C22.5058 37.9944 22.0599 38.6288 22.1415 39.282V39.2757Z" fill="#FFC34F"/>
<path d="M35.3757 38.3587C35.0428 39.3323 34.4963 40.2744 34.2891 41.2982C34.377 41.0846 34.4649 40.8711 34.5403 40.6513C35.0867 39.0497 35.8593 37.5108 36.6884 36.0285C37.5237 34.5462 38.5349 33.177 39.9733 32.1595C40.6642 31.6696 41.3425 31.4372 42.1967 31.4623C45.356 31.5503 48.5153 31.5754 51.6745 31.6194C52.2712 31.6256 52.8742 31.6194 53.4834 31.6194C54.099 33.3026 54.4632 39.4893 54.1995 43.7729C55.9707 44.3758 56.8249 43.7854 56.7118 42.0456C56.7055 41.9074 56.6992 41.7693 56.693 41.6374C56.2847 41.7693 55.732 41.719 55.0411 41.4804C55.3049 37.1968 54.9406 31.0038 54.3251 29.3268C53.7158 29.3268 53.1191 29.3331 52.5162 29.3268C49.3569 29.2829 46.1976 29.2577 43.0383 29.1698C42.1841 29.1447 41.5058 29.3771 40.8149 29.867C39.3829 30.8845 38.3654 32.2537 37.53 33.736C36.7009 35.212 35.9284 36.7571 35.3819 38.3587H35.3757Z" fill="#FFC34F"/>
<path d="M54.6708 130.292C53.9987 129.551 53.2513 128.879 52.4976 128.219C52.2777 128.025 51.926 127.987 51.4424 128.106C52.6358 129.852 53.7977 131.617 55.035 133.338C55.7197 134.293 56.5048 135.16 57.3715 135.957C58.3639 135.744 59.3626 135.549 60.3738 135.405C58.119 134.104 56.4043 132.208 54.6708 130.298V130.292Z" fill="#FFC34F"/>
<path d="M107.009 124.149C107.009 124.777 107.492 125.211 108.19 125.204C108.937 125.192 109.352 124.815 109.339 124.149C109.326 123.433 108.811 122.855 108.183 122.837C107.612 122.818 107.009 123.496 107.009 124.149Z" fill="#FFC34F"/>
<path d="M66.0325 31.3493C71.3461 33.7109 76.8293 35.6957 81.697 38.968C82.859 39.7531 84.0775 40.4565 85.2583 41.2103C85.6979 41.4929 86.0371 41.8258 85.9303 42.435C85.8926 42.6549 85.968 43.0883 86.0811 43.1197C87.243 43.4274 88.091 44.6648 89.4916 44.2565C90.0066 44.1058 90.5342 44.0115 91.0869 43.8859C91.2188 42.9501 90.6787 42.4539 90.1197 42.0142C88.8384 42.2529 88.0156 41.1286 86.9164 40.8334C86.8097 40.802 86.728 40.3749 86.7657 40.1488C86.8222 39.8347 86.7531 39.5898 86.6212 39.3888C84.3413 37.7872 81.9608 36.33 79.461 35.0801C75.7365 33.2273 71.8988 31.6005 68.1178 29.867C67.8163 29.7288 67.5399 29.5215 67.2133 29.3206C67.2447 29.3017 67.295 29.2766 67.3389 29.2578C67.1819 29.1887 67.0249 29.1196 66.8679 29.0505C63.3631 27.4928 60.1285 28.6736 56.9189 29.2892C56.9629 29.9989 57.0069 30.6898 57.0508 31.3807C59.9463 30.7526 62.8795 29.9424 66.0262 31.343L66.0325 31.3493Z" fill="#FFC34F"/>
</svg>
