<svg width="100" height="98" viewBox="0 0 100 98" fill="none" xmlns="http://www.w3.org/2000/svg">
<g clip-path="url(#clip0_299353_1833)">
<path d="M99.6679 24.4616C96.6663 25.4632 93.7719 26.7151 90.8775 28.0672C90.8775 27.967 90.8239 27.8168 90.6631 27.7667C88.0367 26.4647 85.0887 25.7136 82.4623 24.4116C79.8895 23.1596 77.424 21.6073 75.28 19.7044C73.2968 17.9016 71.6352 15.8485 70.456 13.4949C69.0624 10.7907 68.848 8.13665 68.6872 5.18213C69.4912 3.5296 70.2416 1.827 70.992 0.174468C71.0456 0.0242381 70.7776 -0.0759152 70.6704 0.0743148C69.5984 1.77692 68.6872 3.57968 67.776 5.38244C67.6152 5.28229 67.3472 5.28229 67.1864 5.43252C64.6136 7.63589 62.3624 9.98949 59.468 11.8423C56.7881 13.5449 53.8937 14.9471 50.7849 15.7483C47.7833 16.5495 44.5673 16.85 41.4049 16.4995C38.2426 16.1489 35.509 15.0973 32.7218 13.7452C31.6498 9.88934 30.8458 5.93328 30.4706 1.87707C30.417 1.57661 29.9882 1.57661 29.9882 1.87707C30.0954 5.6829 30.6314 9.43865 31.5962 13.1443L31.5426 13.1944C31.3282 13.1944 31.1138 13.4949 31.3282 13.6451C30.4706 16.2991 29.7738 19.0534 28.7554 21.6573C27.5762 24.6119 26.1826 27.4662 24.521 30.2205C21.4122 35.4284 17.3387 39.6849 13.3187 44.2419C8.9771 42.6395 4.63552 40.9869 0.186743 39.6349C0.0259434 39.5848 -0.0812561 39.8352 0.0795431 39.9353C3.99232 41.8382 8.0659 43.4407 12.1931 44.8929C12.8899 47.1464 13.8011 49.2997 14.2835 51.6533C14.8195 54.1571 15.0339 56.711 14.9803 59.315C14.8731 64.3727 13.3723 68.8796 11.8179 73.6369C8.7627 74.6384 5.60032 75.4397 2.59873 76.6415C2.43793 76.6916 2.49153 76.992 2.70593 76.992C6.08271 76.6916 9.3523 75.4897 12.5147 74.3881C12.5147 74.3881 12.5683 74.4381 12.6219 74.4381C14.3371 74.8387 15.9987 74.8387 17.6603 75.5398C19.3754 76.291 20.8762 77.3927 22.0554 78.6946C24.6818 81.549 25.4858 84.9042 26.9866 88.2593C26.9866 88.3094 27.0402 88.3094 27.0402 88.3094C24.789 90.4627 22.377 92.5659 19.8578 94.5189C19.5898 94.7192 19.965 95.1198 20.233 94.9696C23.0738 93.1167 25.6466 90.9634 28.0586 88.6599C33.2042 86.8571 38.8322 86.2562 44.2993 86.9573C46.8185 87.3078 49.2841 87.9087 51.6961 88.7601C54.2689 89.6614 56.5737 91.0636 58.9856 92.2153C59.2536 94.0682 59.5216 95.921 59.8432 97.7738C59.8968 98.0743 60.4328 98.0242 60.3792 97.7238C60.2184 96.1213 60.1112 94.4688 59.8968 92.8163C60.004 92.7662 60.1112 92.666 60.1648 92.4657C60.808 87.8086 66.6504 85.9558 70.8848 84.804C74.744 83.7524 78.5496 83.6022 82.5159 83.4019C85.6247 87.7084 88.4119 92.2153 91.0919 96.8224C91.1991 97.0227 91.6279 96.8725 91.5207 96.6722C89.5375 92.015 86.9111 87.5582 83.9095 83.3518C83.9095 83.3017 83.9631 83.3017 83.9631 83.2516C84.2311 81.3988 84.0167 79.546 84.3383 77.643C84.6599 75.64 85.1959 73.687 85.9463 71.7841C86.6967 69.9312 87.7151 68.1285 88.8943 66.4759C89.8055 65.224 90.8775 64.1223 91.8959 62.9205C93.0215 63.4713 94.1471 64.0222 95.3263 64.523C95.7551 64.7233 96.0767 64.1724 95.7015 63.922C94.9511 63.3712 94.1471 62.8704 93.3431 62.4197C93.3431 62.3697 93.3431 62.3196 93.3431 62.3196C91.3599 56.8612 89.7519 51.3528 89.2159 45.5439C88.9479 42.7897 88.8943 39.9854 89.0015 37.1811C89.1087 34.6272 89.5911 32.1234 89.7519 29.6195C93.1287 27.967 96.5055 26.4146 99.9359 24.8623C100.097 24.7621 99.9359 24.4116 99.6679 24.4616ZM50.5169 16.85C56.5737 15.3477 62.952 11.6921 66.972 7.03497C65.4712 10.29 64.1312 13.6952 62.8448 17.0503C62.7376 17.0503 62.684 17.0503 62.5768 17.1505C58.7177 19.8546 54.6441 21.9077 49.9273 23.0094C47.4617 23.5603 44.8889 23.8607 42.3161 23.9609C40.3329 24.011 38.2426 23.7105 36.2594 23.8106C36.2058 23.7606 36.2058 23.6604 36.1522 23.6103C34.973 20.756 33.9546 17.9016 33.097 14.9972C38.0282 18.0518 45.0497 18.2021 50.5169 16.85ZM79.3 46.6957C79.8896 50.802 81.3367 55.1586 83.8559 58.664C82.2479 58.2133 80.6935 57.7626 79.1927 57.4121C77.9064 57.0615 76.5664 56.8112 75.28 56.5107C74.476 55.2588 73.5648 54.107 72.9752 52.7549C72.2248 51.1024 71.7424 49.3497 71.5816 47.5971C71.26 44.5424 72.064 41.8883 72.9752 39.0339C74.5832 38.0324 76.2448 36.9808 77.9064 35.9793C78.6032 35.5286 79.3535 35.128 80.0503 34.7274C78.6032 38.3329 78.764 43.0401 79.3 46.6957ZM77.5848 75.4897C77.5848 75.4897 77.5848 75.4397 77.5848 75.4897C76.5664 74.3881 75.548 73.2864 74.5296 72.1847C73.3504 70.9328 72.1176 69.6809 70.8312 68.479C70.7776 67.6778 70.6168 66.9266 70.6168 66.0753C70.6168 64.8234 70.8848 63.6216 71.3136 62.4698C72.1176 60.4167 73.6184 58.9144 75.2264 57.4121C75.28 57.4121 75.3336 57.4121 75.3872 57.4622C78.2816 58.0631 81.1759 58.8142 83.9631 59.7156C81.5511 60.9675 79.7287 64.4729 78.8176 66.6262C77.7992 69.0799 76.6736 72.7355 77.5848 75.4897ZM23.6098 57.2118C23.181 54.0069 22.0018 50.2511 19.8042 47.4969C22.3234 48.3482 24.8426 49.0994 27.4154 49.8004C27.469 49.8505 27.5762 49.9006 27.6834 49.9006C27.6834 49.9507 27.6834 50.0007 27.737 50.0508C28.2194 51.0023 29.1306 51.7033 29.7202 52.6548C30.417 53.9067 30.8458 55.2588 31.0066 56.6108C31.3818 59.5153 30.5778 62.3196 30.417 65.1739C28.7554 66.0753 27.0938 66.9266 25.3786 67.7779C24.253 68.3288 23.1274 68.8796 22.0018 69.3804C21.8946 69.3804 21.841 69.3804 21.7338 69.4305C23.7706 65.875 24.1458 61.1177 23.6098 57.2118ZM70.5632 48.0477C70.8848 50.7018 71.8496 53.9067 73.7256 56.1602C71.5816 55.7595 69.4376 55.409 67.24 55.0585C66.2216 53.1055 65.1496 51.503 64.9888 49.1494C64.8816 47.0462 65.5784 45.2434 66.2216 43.3405C67.9904 42.1888 69.7592 41.037 71.528 39.8852C70.4024 42.4392 70.2416 45.4438 70.5632 48.0477ZM65.0424 63.3211C64.4528 62.8204 63.8096 62.3196 63.22 61.8188C62.0944 60.9174 60.9152 60.0161 59.736 59.1147C59.6824 57.5122 60.004 56.2603 61.1832 55.2087C63.0056 55.409 64.828 55.6594 66.6504 55.9098C65.096 57.7626 64.4528 60.9675 65.0424 63.3211ZM31.8642 55.6093C31.5962 54.0069 30.7922 51.6032 29.345 50.3012C31.2746 50.802 33.1506 51.2526 35.1338 51.6533C35.4554 53.4059 36.045 55.1085 36.1522 56.9614C36.1522 57.4622 35.8306 60.9675 35.4018 62.3697C33.9546 63.221 32.561 64.0222 31.1138 64.8234C32.025 61.919 32.4002 58.5638 31.8642 55.6093ZM65.6856 54.8582C64.5064 54.7079 63.3272 54.5577 62.0944 54.4075C62.148 54.2572 62.0408 54.107 61.9336 54.0069C61.88 53.0053 61.2904 52.0539 61.076 51.0523C60.808 49.6001 61.0224 48.2981 61.2904 46.8459C61.2904 46.7457 61.2904 46.6957 61.2904 46.6456C62.416 45.8944 63.5952 45.0932 64.7208 44.3421C63.2736 47.4969 63.5952 52.0539 65.6856 54.8582ZM58.8249 58.5138C56.6273 56.9113 54.3761 55.409 51.9641 54.2072C54.5905 54.5076 57.2705 54.8081 59.8968 55.1085C59.1465 56.06 58.6641 57.362 58.8249 58.5138ZM35.8842 51.8536C36.2058 51.9036 36.4738 52.0038 36.7954 52.0539C37.7602 52.2542 38.6714 52.4044 39.6361 52.5546C40.1185 53.6563 40.3329 54.758 40.3865 56.0099C40.4401 57.3119 40.1185 58.4637 39.5825 59.7657C39.0466 60.3666 37.7066 60.9675 36.6882 61.5684C36.849 60.7171 36.9562 59.9159 37.0098 59.4151C37.2778 57.0115 37.1706 54.0569 35.8842 51.8536ZM49.1233 52.9052C46.3361 52.5546 43.6025 52.2041 40.8689 51.7534C43.1737 50.7018 45.5857 48.5986 46.0145 46.245C47.0865 48.4484 48.1049 50.6517 49.1233 52.9052ZM46.2289 44.3921C48.6409 44.7928 51.7497 43.7912 53.7329 42.2389C52.5537 45.5439 51.2673 48.849 49.9273 52.1039C48.7481 49.55 47.5153 46.9461 46.2289 44.3921ZM49.0161 53.8566C46.3897 55.6093 43.7097 57.3119 41.0297 58.9645C41.9945 57.1617 41.5121 54.5577 40.5473 52.7049C43.3881 53.1556 46.1753 53.5061 49.0161 53.8566ZM48.6409 55.1085C47.4617 57.8127 46.2289 60.4667 44.9425 63.0707C44.7281 62.4197 44.2457 61.7687 43.8705 61.3181C43.3345 60.617 42.5305 59.9159 41.6729 59.5654C44.0313 58.1632 46.3361 56.6609 48.6409 55.1085ZM49.8201 54.5577C50.0345 55.1085 50.3025 55.6594 50.5169 56.2102C51.3745 58.4136 52.1785 60.617 52.9289 62.8204C51.1065 61.5684 48.0513 62.0191 45.9609 63.0207C47.3009 60.2164 48.5873 57.4121 49.8201 54.5577ZM50.4633 52.9052C51.9105 49.3998 53.2505 45.8944 54.5369 42.3891C55.4481 44.3421 58.2889 46.2951 60.4328 46.2951C57.1097 48.4484 53.7865 50.7018 50.4633 52.9052ZM54.1617 41.0871C54.1617 41.1372 54.1081 41.1872 54.1081 41.1872C52.7145 41.9384 51.4281 42.6895 49.8737 43.0902C48.4801 43.4407 47.1401 43.3405 45.7465 43.4407C44.8353 41.5879 43.8705 39.7851 42.9593 37.9323C42.9593 37.8321 42.9593 37.782 42.9057 37.6819C44.5673 39.2843 47.7297 39.5848 49.9809 39.2843C52.0713 39.0339 54.0545 38.1826 55.6089 36.8306C55.1265 38.2828 54.6441 39.6849 54.1617 41.0871ZM42.9593 40.1857C43.7097 41.6379 44.4065 43.0401 45.1033 44.4923C44.7817 46.5955 44.4601 48.3983 42.3697 49.8505C41.6729 50.3012 40.1721 50.6517 39.5825 51.3528C39.5825 51.3027 39.5289 51.3027 39.5289 51.2526C39.3681 51.0523 39.1001 51.2526 39.1001 51.503C38.0818 51.3027 37.117 51.1525 36.0986 50.9522C39.5289 48.7488 42.4233 44.1918 42.9593 40.1857ZM41.0833 59.966C41.8337 60.5669 42.6377 61.1177 43.2273 61.919C43.5489 62.3697 43.8169 62.8704 44.0313 63.3712C44.1385 63.6717 44.1921 63.922 44.3529 64.1724C43.6561 65.5245 42.9593 66.8766 42.2089 68.1785C42.2089 66.6262 40.8689 64.6732 39.9041 63.8219C39.2073 63.1709 38.189 62.5199 37.1706 62.3196C38.5106 61.5684 39.7969 60.7672 41.0833 59.966ZM45.2641 64.2726C45.3713 64.1223 45.4249 63.922 45.5321 63.7718C46.8185 63.4213 48.0513 62.9706 49.3913 62.9205C50.9993 62.9205 52.0713 63.5715 53.3577 64.2726C53.8401 65.7749 54.2153 67.2772 54.6441 68.8295C51.2673 66.526 46.5505 66.2256 43.1201 68.4289C43.8169 67.0268 44.5673 65.6246 45.2641 64.2726ZM52.8753 59.315C52.2857 57.6625 51.6425 56.06 50.9457 54.4576C53.3577 56.2102 55.8769 57.8127 58.3425 59.4652C57.3241 59.6154 56.3593 60.0161 55.5017 60.617C54.9657 61.0176 54.3225 61.5184 53.8937 62.1193C53.5185 61.2179 53.1969 60.2664 52.8753 59.315ZM51.5353 53.2056C54.4297 51.2526 57.3241 49.3497 60.1648 47.3967C59.5752 49.4499 59.736 52.6548 61.4512 53.9568C61.2368 54.0569 61.076 54.1571 60.9152 54.2572C57.8065 53.9067 54.6441 53.5562 51.5353 53.2056ZM62.0944 45.1433C61.7192 45.3937 61.2904 45.6441 60.9152 45.9445C59.7896 45.1934 58.4497 44.8428 57.3241 43.9915C56.3593 43.2404 55.7697 42.1888 54.9121 41.3375C55.4481 39.8352 55.9841 38.3829 56.5201 36.8806C57.5385 40.1857 60.9152 44.5925 64.3992 43.641C63.5952 44.0917 62.8448 44.6425 62.0944 45.1433ZM56.2521 35.178C56.1449 35.178 56.0377 35.2281 55.9841 35.3283C54.2689 36.8806 52.2857 38.0324 49.8201 38.3329C47.2473 38.6834 45.3177 37.6819 42.9057 37.2312C42.7449 37.1811 42.6913 37.2813 42.6913 37.3814C41.7265 35.4284 40.7081 33.4754 39.7969 31.5224C42.7985 32.3738 46.2825 32.2736 49.2841 31.7728C51.2137 31.4724 53.0361 30.9215 54.8049 30.2205C56.0913 29.7197 57.6993 29.0687 58.7713 28.1172C57.9137 30.4708 57.0561 32.8244 56.2521 35.178ZM41.6729 37.6819C41.7801 37.9323 41.8873 38.1326 42.0481 38.3829C41.5121 40.6865 41.2977 42.8398 40.0649 45.0431C38.8322 47.2465 37.117 48.9491 35.2946 50.7519C33.2042 50.3012 31.1138 49.8004 29.0234 49.2496C32.1858 47.4969 34.705 44.3421 36.3666 41.3875C37.3314 39.6349 38.0818 37.732 38.5106 35.779C38.725 34.8275 39.0465 33.5756 39.1001 32.4238C39.9577 34.2266 40.8153 35.9292 41.6729 37.6819ZM34.705 63.8219C34.7586 63.872 34.8122 63.922 34.8658 63.922C35.241 63.9721 35.5626 63.922 35.8306 63.7217C35.8842 63.7217 35.9378 63.6717 35.9914 63.6216C37.2242 62.1193 40.0113 65.2741 40.4937 66.0253C40.8689 66.6762 41.1369 67.3773 41.2441 68.1285C41.2977 68.6292 41.2977 69.0299 41.5121 69.4805C40.4401 71.2833 39.3681 73.0861 38.189 74.8888C38.1354 72.385 37.1706 69.9312 35.5626 67.9282C34.8658 67.0769 33.5794 65.7248 32.293 65.224C33.097 64.7233 33.901 64.2726 34.705 63.8219ZM42.4769 69.4805C44.1921 68.479 46.0681 67.828 48.1585 67.7779C49.3913 67.7779 50.6241 67.9782 51.8033 68.4289C52.6609 68.7294 54.5369 69.5306 55.0193 70.3819C55.4481 72.0345 55.8233 73.7371 56.1449 75.3896C56.2521 75.7902 56.3057 76.1908 56.3593 76.5914C52.2857 72.6354 43.6025 72.0344 39.3145 75.5398C39.0466 75.5899 38.8322 75.69 38.5642 75.8403C39.9577 73.7371 41.2441 71.6338 42.4769 69.4805ZM55.8233 68.8796C55.3409 66.9266 54.7513 65.0237 54.1617 63.1208C54.6977 62.4698 55.1801 61.8188 55.9305 61.3181C57.0025 60.617 58.1281 60.3165 59.4144 60.2164C59.468 60.2664 59.5216 60.2664 59.5216 60.3165L59.5752 60.3666C60.4864 61.0176 61.3976 61.6686 62.2552 62.3196C62.8984 62.8204 63.5416 63.3211 64.1312 63.8219C62.0408 63.9721 59.9504 64.573 58.3425 65.7248C57.3777 66.4759 56.1985 67.6277 55.8233 68.8796ZM66.2216 42.3891C66.168 42.3891 66.168 42.3891 66.1144 42.3891C66.0608 42.1888 65.8464 42.0886 65.632 42.1888C61.0224 44.5424 58.2353 38.9338 56.8953 35.6788C57.6993 33.3252 58.5569 30.9716 59.3608 28.618C60.1112 31.1719 62.0944 33.5255 64.1848 35.178C65.5248 36.2297 66.972 37.131 68.58 37.782C69.4912 38.1326 70.724 38.6834 71.796 38.7836C69.92 39.9854 68.0976 41.1872 66.2216 42.3891ZM59.1465 27.0156C59.0929 27.0156 59.0929 27.0156 59.1465 27.0156C57.5921 27.4162 56.2521 28.5179 54.8049 29.1188C53.0361 29.8699 51.1601 30.4208 49.2841 30.7713C45.8537 31.3722 42.6913 31.0217 39.3681 30.6211C38.4034 28.618 37.4922 26.5649 36.581 24.5117C38.4034 25.0125 40.4937 24.9624 42.3161 24.9624C44.9425 24.9123 47.6225 24.5618 50.1953 24.011C54.4833 23.0094 58.7713 21.2567 62.2552 18.6027C62.0944 19.0534 61.88 19.5541 61.7192 20.0048C60.808 22.3083 59.9504 24.6619 59.1465 27.0156ZM38.189 30.5209C37.9746 30.5209 37.921 30.8214 38.0818 30.9215C38.1354 30.9215 38.189 30.9716 38.2426 30.9716C37.653 32.3237 37.8674 34.1264 37.5458 35.5286C37.117 37.4816 36.3666 39.3845 35.3482 41.1372C33.5258 44.3921 30.8994 46.5955 28.0586 48.9992C25.7538 48.3983 23.5026 47.6972 21.1978 46.9961C20.3938 46.7457 19.6434 46.4954 18.8931 46.245C23.3954 45.9445 27.3082 40.8868 29.6666 37.8822C31.3818 35.7289 32.829 33.3753 33.901 30.8715C34.6514 29.1188 35.6162 26.8653 35.6162 24.8623C36.4202 26.7151 37.2778 28.618 38.189 30.5209ZM30.8458 65.9752C33.0434 65.8249 35.0266 68.7294 35.8842 70.2317C36.9026 72.0345 37.3314 73.8873 37.4386 75.8403C36.9562 76.5413 36.4738 77.2424 35.9378 77.9435C35.2946 78.7948 34.6514 79.6461 34.0082 80.4974C33.365 77.7933 31.3282 74.8387 29.4522 72.9358C28.005 71.4836 25.9146 70.0314 23.717 69.5807C26.129 68.4289 28.541 67.2271 30.8458 65.9752ZM37.2242 77.7933C37.2778 77.7432 37.385 77.6931 37.385 77.5429C37.4922 77.4427 37.5458 77.2925 37.653 77.1923C37.7066 77.1423 37.7602 77.0922 37.8138 77.0421C37.921 77.0421 37.9746 76.992 37.9746 76.8919C38.1354 76.7917 38.3498 76.6415 38.5106 76.5914C38.5642 76.6916 38.725 76.7417 38.8857 76.6415C40.5473 75.9404 42.0481 75.0391 43.8705 74.6384C45.6929 74.2378 47.5689 74.1877 49.3913 74.4882C52.3393 74.989 54.3761 76.5414 56.6273 78.1438C56.9489 79.9466 57.2705 81.7493 57.5385 83.5521C54.7513 80.9481 50.8385 79.3957 46.9793 78.895C44.7281 78.5945 42.4233 78.6946 40.1721 79.0953C38.5106 79.3957 36.4202 79.8965 34.9194 80.7979C35.7234 79.8464 36.4738 78.7948 37.2242 77.7933ZM56.2521 70.4821C56.3057 70.4821 56.3593 70.432 56.3593 70.3819C56.7345 69.7309 56.8417 68.9798 57.2169 68.3288C57.8065 67.3773 58.7177 66.5761 59.7896 66.0253C61.3976 65.1739 63.22 64.9236 64.9888 64.523C66.5968 65.875 68.2048 67.2772 69.7056 68.7294C67.0256 68.479 64.024 69.8812 62.0944 71.3334C60.3256 72.6854 58.2353 74.989 57.7529 77.2925C57.2705 75.039 56.7881 72.7355 56.2521 70.4821ZM69.5984 67.2772C68.5264 66.2756 67.4008 65.2741 66.2216 64.3226V64.2726C66.3824 64.1724 66.3824 63.9721 66.2216 63.872C66.1144 62.4698 65.8464 61.1177 66.1144 59.6154C66.3288 58.4637 66.8112 57.4121 67.24 56.3605C67.4008 56.4105 67.5616 56.2603 67.6152 56.1101C69.8128 56.4606 72.064 56.8112 74.2616 57.2618C72.4928 58.3635 71.2064 60.2164 70.456 62.0191C69.8128 63.4213 69.3304 65.4744 69.5984 67.2772ZM73.1896 37.9323C73.0824 37.782 72.8144 37.782 72.6536 37.9323C71.5816 37.4315 70.1344 37.3313 69.0624 36.8806C67.508 36.2297 66.0072 35.3783 64.7208 34.3267C62.3624 32.4238 61.076 30.0702 59.736 27.5664C60.1648 26.3646 60.5936 25.1126 61.0224 23.9108C61.7192 22.058 62.3624 20.2051 63.0592 18.3022C63.756 21.8577 66.3824 25.3129 69.0624 27.7667C72.1712 30.6211 76.1376 32.7744 80.4255 33.6257C80.3719 33.6257 80.3183 33.6757 80.3183 33.6757C77.96 35.0278 75.548 36.43 73.1896 37.9323ZM25.3786 30.7212C28.273 25.9139 31.0066 20.3554 32.0786 14.8469C32.8826 17.7514 33.901 20.5557 35.0266 23.36C34.973 23.41 34.8658 23.4601 34.8658 23.5102C34.437 24.5117 34.3834 25.7136 34.1154 26.8152C33.8474 27.9169 33.4722 28.9685 33.0434 30.0201C32.1322 32.2736 30.8458 34.3768 29.3986 36.3799C26.5578 40.2358 22.6986 44.8428 17.4459 45.6441C17.3923 45.6441 17.3923 45.6441 17.3387 45.6941C16.2131 45.2935 15.0339 44.8929 13.9083 44.4422C18.6251 40.7866 22.4306 35.6287 25.3786 30.7212ZM12.5683 73.2864C15.0875 69.13 15.9987 63.872 16.0523 59.2148C16.1595 54.8081 15.5699 49.5 13.5331 45.3436C14.8731 45.8444 16.2667 46.2951 17.6067 46.7457C17.8747 46.8459 18.1963 46.9461 18.4643 47.0462C19.3218 48.4484 20.233 49.7503 20.9298 51.3027C21.841 53.3559 22.377 55.5592 22.645 57.7626C23.1274 62.1694 21.9482 65.875 20.3938 69.9312C20.3402 70.0314 20.3402 70.1315 20.3938 70.2317C18.3035 71.1831 16.1595 72.0345 13.9619 72.8858C13.4795 72.9859 12.9971 73.1361 12.5683 73.2864ZM27.469 87.7585C27.4154 87.7585 27.3618 87.8086 27.3618 87.8086C27.0402 84.2031 25.1106 80.2971 22.5914 77.643C20.8762 75.7902 17.6603 73.687 14.7123 73.4867C17.2315 72.5352 19.697 71.4836 22.109 70.3819C25.1106 71.083 27.4154 72.0345 29.5058 74.4882C30.4706 75.64 31.2746 76.8919 32.025 78.1939C32.561 79.1453 32.9898 80.1969 33.633 81.0983C31.7034 83.4018 29.613 85.6052 27.469 87.7585ZM44.1921 85.9558C39.2609 85.3048 34.2762 85.7054 29.5058 87.0574C31.0602 85.455 32.561 83.7524 33.9546 82.0498C34.0618 82.0999 34.169 82.1499 34.2762 82.0999C36.313 81.6492 38.1354 80.5976 40.1721 80.1969C42.3697 79.7463 44.6209 79.6962 46.8185 79.9466C50.9993 80.4473 54.4297 82.3002 57.6993 84.6037C58.0745 86.8571 58.3961 89.1106 58.7177 91.4141C54.9657 88.2092 49.0697 86.5567 44.1921 85.9558ZM58.7713 83.8525C58.5569 82.2 58.2889 80.5976 57.9673 78.9951C58.0209 78.9951 58.0745 78.945 58.1281 78.8449C58.7713 77.7933 59.0393 76.6415 59.6288 75.5899C60.3256 74.3881 61.2368 73.3364 62.3088 72.4351C63.488 71.4335 64.9352 70.6824 66.436 70.1816C67.6688 69.781 69.0088 69.6308 70.2952 69.3303C70.2952 69.3804 70.3488 69.3804 70.3488 69.4305C70.4024 69.4805 70.456 69.5306 70.5096 69.5306C71.4744 70.4821 72.4392 71.4335 73.404 72.4351C74.3688 73.4366 75.2264 74.4381 76.1376 75.4397C74.5296 75.5398 72.9216 75.8403 71.4208 76.1407C69.1696 76.5914 66.972 77.2925 64.9888 78.294C62.952 79.3957 59.9504 81.4989 58.7713 83.8525ZM68.312 84.5536C65.4712 85.5551 60.9152 87.2077 59.5752 90.1622C59.4145 88.7601 59.2537 87.3579 59.0393 85.9558C59.8968 84.7539 60.3792 83.3518 61.5048 82.2C62.7376 80.898 64.3456 79.8464 66.0072 79.0452C67.9904 78.0937 70.188 77.4928 72.332 77.0421C73.7792 76.7417 75.3336 76.5914 76.7808 76.2409C78.5496 78.3441 80.2647 80.4473 81.8191 82.6507C77.3704 82.1499 72.4392 83.1515 68.312 84.5536ZM85.0887 71.0329C84.1775 73.0861 83.5879 75.2394 83.2127 77.4928C82.9983 78.945 82.7303 80.5976 82.9447 82.1499C81.4439 80.0968 79.8359 78.0937 78.1744 76.1908C78.228 76.1407 78.3352 76.0907 78.3352 76.0406C78.6032 74.7386 78.4424 73.4366 78.5496 72.1346C78.7104 70.5322 79.0856 68.9798 79.6751 67.4274C80.2647 65.9251 81.0687 64.4729 82.0335 63.1208C82.7839 62.0191 84.0167 61.0677 84.6599 59.9159C84.8743 59.966 85.0887 60.0661 85.3031 60.1162C87.2863 60.8173 89.1087 61.6185 90.9847 62.4698C88.2511 64.7233 86.3215 68.1285 85.0887 71.0329ZM88.1439 46.1949C88.6799 51.453 89.8591 56.7611 92.0031 61.7187C92.0031 61.7187 91.9495 61.7187 91.9495 61.7687C89.8591 60.7171 87.6615 59.8658 85.4103 59.1648C83.0519 55.2087 81.1223 51.3027 80.4255 46.7457C80.0503 44.5424 79.9967 42.2389 80.1575 39.9854C80.3183 37.9823 80.8543 36.0794 81.1223 34.1264C83.6951 32.6742 86.3215 31.3221 88.9479 30.0201C87.3399 35.0278 87.6079 41.037 88.1439 46.1949ZM89.5911 28.7182C89.4839 28.6681 89.3231 28.7182 89.3231 28.8183C89.3231 28.8183 89.3231 28.8183 89.3231 28.8684C86.6431 30.2205 84.0167 31.6226 81.4439 33.1249C81.4439 32.9747 81.3367 32.8244 81.1223 32.7744C76.888 31.7228 73.0824 29.92 69.92 27.0656C66.8112 24.2613 65.3104 21.0564 63.488 17.5511C64.1848 15.7483 64.8816 13.9455 65.632 12.1929C66.3288 10.4903 67.0792 8.78765 67.8832 7.13512C67.6152 11.6921 70.5632 16.5996 73.7256 19.7044C75.9232 21.8577 78.6032 23.6604 81.3903 25.0626C84.0167 26.4146 87.1255 27.9169 90.1271 28.5178C89.8591 28.5679 89.6983 28.618 89.5911 28.7182Z" fill="white"/>
</g>
<defs>
<clipPath id="clip0_299353_1833">
<rect width="100" height="98" fill="white"/>
</clipPath>
</defs>
</svg>
