<svg width="28" height="24" viewBox="0 0 28 24" fill="none" xmlns="http://www.w3.org/2000/svg">
<path d="M20.25 0C17.6688 0 15.4088 1.11 14 2.98625C12.5912 1.11 10.3313 0 7.75 0C5.69528 0.00231592 3.72539 0.819575 2.27248 2.27248C0.819575 3.72539 0.00231592 5.69528 0 7.75C0 16.5 12.9738 23.5825 13.5262 23.875C13.6719 23.9533 13.8346 23.9943 14 23.9943C14.1654 23.9943 14.3281 23.9533 14.4737 23.875C15.0262 23.5825 28 16.5 28 7.75C27.9977 5.69528 27.1804 3.72539 25.7275 2.27248C24.2746 0.819575 22.3047 0.00231592 20.25 0ZM14 21.85C11.7175 20.52 2 14.4613 2 7.75C2.00198 6.22561 2.60842 4.76423 3.68633 3.68633C4.76423 2.60842 6.22561 2.00198 7.75 2C10.1812 2 12.2225 3.295 13.075 5.375C13.1503 5.55841 13.2785 5.71528 13.4432 5.82569C13.6079 5.93609 13.8017 5.99503 14 5.99503C14.1983 5.99503 14.3921 5.93609 14.5568 5.82569C14.7215 5.71528 14.8497 5.55841 14.925 5.375C15.7775 3.29125 17.8188 2 20.25 2C21.7744 2.00198 23.2358 2.60842 24.3137 3.68633C25.3916 4.76423 25.998 6.22561 26 7.75C26 14.4513 16.28 20.5188 14 21.85Z" fill="#E07B67"/>
</svg>
