<svg width="1280" height="720" viewBox="0 0 1280 720" fill="none" xmlns="http://www.w3.org/2000/svg">
<g clip-path="url(#clip0_121830_1294)">
<rect width="1280" height="720" fill="#F24E1E"/>
<path d="M899.536 335.737C899.536 185.408 779.087 63.614 630.595 63.614C482.102 63.614 361.653 185.408 361.653 335.737C361.653 486.066 482.102 607.86 630.595 607.86C779.087 607.86 899.536 486.066 899.536 335.737Z" fill="#FFC700" stroke="#09090B" stroke-width="7.22561"/>
<path d="M838.026 397.247C838.026 246.918 717.577 125.124 569.085 125.124C420.592 125.124 300.143 246.918 300.143 397.247C300.143 547.576 420.592 669.371 569.085 669.371C717.577 669.371 838.026 547.576 838.026 397.247Z" fill="#FFC700" stroke="#09090B" stroke-width="7.22561"/>
<path d="M776.516 458.758C776.516 308.429 656.067 186.635 507.574 186.635C359.081 186.635 238.632 308.429 238.632 458.758C238.632 609.087 359.081 730.881 507.574 730.881C656.067 730.881 776.516 609.087 776.516 458.758Z" fill="#FFC700" stroke="#09090B" stroke-width="7.22561"/>
<path d="M715.006 520.268C715.006 369.939 594.557 248.145 446.064 248.145C297.571 248.145 177.122 369.939 177.122 520.268C177.122 670.597 297.571 792.391 446.064 792.391C594.557 792.391 715.006 670.597 715.006 520.268Z" fill="#FFC700" stroke="#09090B" stroke-width="7.22561"/>
<path d="M653.495 583.899C653.495 433.57 533.046 311.776 384.553 311.776C236.061 311.776 115.612 433.57 115.612 583.899C115.612 734.228 236.061 856.022 384.553 856.022C533.046 856.022 653.495 734.228 653.495 583.899Z" fill="#FFC700" stroke="#09090B" stroke-width="7.22561"/>
<path fill-rule="evenodd" clip-rule="evenodd" d="M598.852 678.967C577.011 638.587 592.263 588.23 632.92 566.49C665.457 549.093 704.402 555.296 729.856 579.163C723.861 544.89 740.129 509.165 772.665 491.767C813.322 470.028 863.987 485.14 885.828 525.519L1047.37 824.173C1069.21 864.553 1053.96 914.91 1013.3 936.65C980.762 954.047 941.816 947.844 916.363 923.977C922.357 958.25 906.089 993.976 873.554 1011.37C832.897 1033.11 782.232 1018 760.391 977.62L598.852 678.967Z" fill="#09090B"/>
<path d="M864.195 6.40972C864.195 -160.515 999.237 -295.833 1165.82 -295.833C1332.4 -295.833 1467.45 -160.515 1467.45 6.4097C1467.45 173.334 1332.4 308.653 1165.82 308.653C999.237 308.653 864.195 173.334 864.195 6.40972Z" fill="#C7B9FF"/>
<circle cx="181.849" cy="-61.1512" r="290.872" transform="rotate(3.27291 181.849 -61.1512)" fill="#0FA958" stroke="#09090B" stroke-width="7.22561"/>
<mask id="mask0_121830_1294" style="mask-type:alpha" maskUnits="userSpaceOnUse" x="-113" y="-356" width="590" height="590">
<circle cx="181.849" cy="-61.1512" r="294.502" transform="rotate(3.27291 181.849 -61.1512)" fill="#0FA958"/>
</mask>
<g mask="url(#mask0_121830_1294)">
<path d="M293.933 -522.442L-310.235 16.3651" stroke="#09090B" stroke-width="7.22561"/>
<path d="M321.394 -491.649L-282.775 47.1579" stroke="#09090B" stroke-width="7.22561"/>
<path d="M347.908 -461.919L-256.26 76.8884" stroke="#09090B" stroke-width="7.22561"/>
<path d="M375.37 -431.127L-228.798 107.68" stroke="#09090B" stroke-width="7.22561"/>
<path d="M401.884 -401.396L-202.284 137.411" stroke="#09090B" stroke-width="7.22561"/>
<path d="M429.345 -370.603L-174.824 168.204" stroke="#09090B" stroke-width="7.22561"/>
<path d="M455.859 -340.873L-148.309 197.934" stroke="#09090B" stroke-width="7.22561"/>
<path d="M483.32 -310.081L-120.848 228.726" stroke="#09090B" stroke-width="7.22561"/>
<path d="M509.835 -280.35L-94.333 258.457" stroke="#09090B" stroke-width="7.22561"/>
<path d="M537.296 -249.557L-66.8724 289.25" stroke="#09090B" stroke-width="7.22561"/>
<path d="M563.81 -219.827L-40.3579 318.98" stroke="#09090B" stroke-width="7.22561"/>
<path d="M591.271 -189.034L-12.8973 349.773" stroke="#09090B" stroke-width="7.22561"/>
<path d="M617.786 -159.304L13.6178 379.503" stroke="#09090B" stroke-width="7.22561"/>
<path d="M645.247 -128.512L41.0784 410.295" stroke="#09090B" stroke-width="7.22561"/>
<path d="M671.761 -98.7812L67.5922 440.026" stroke="#09090B" stroke-width="7.22561"/>
<path d="M699.221 -67.9884L95.0529 470.819" stroke="#09090B" stroke-width="7.22561"/>
</g>
<path d="M162.894 244.449C171.101 244.915 178.173 238.677 178.646 230.466C179.118 222.255 172.808 215.256 164.6 214.79C156.393 214.323 149.32 220.562 148.848 228.772C148.376 236.983 154.686 243.982 162.894 244.449Z" fill="white" stroke="#09090B" stroke-width="7.22561"/>
<path d="M1048.68 452.566C1121.33 499.898 1193.19 547.232 1274.74 578.415C1312.95 593.03 1366.27 603.006 1395.58 565.941C1412.93 544.002 1404.02 519.752 1390.96 498.354C1371.32 466.146 1337.22 464.502 1303.38 468.777C1210.75 480.476 1110.03 556.542 1137.55 661.746C1146.61 696.372 1184.8 739.671 1223.62 741.569C1240.51 742.395 1253.78 735.173 1269.85 733.296" stroke="#0FA958" stroke-width="156.572" stroke-linecap="round" stroke-linejoin="round"/>
<path d="M1048.68 452.566C1121.33 499.898 1193.19 547.232 1274.74 578.415C1312.95 593.03 1366.27 603.006 1395.58 565.941C1412.93 544.002 1404.02 519.752 1390.96 498.354C1371.32 466.146 1337.22 464.502 1303.38 468.777C1210.75 480.476 1110.03 556.542 1137.55 661.746C1146.61 696.372 1184.8 739.671 1223.62 741.569C1240.51 742.395 1253.78 735.173 1269.85 733.296" stroke="#09090B" stroke-width="12.6464" stroke-linecap="round" stroke-linejoin="round"/>
<path d="M1016.26 455.86C1022.42 464.136 1034.12 465.851 1042.4 459.69C1050.68 453.53 1052.39 441.826 1046.23 433.549C1040.07 425.273 1028.37 423.558 1020.09 429.718C1011.81 435.879 1010.1 447.583 1016.26 455.86ZM1388.15 535.594C1394.31 543.87 1406.01 545.585 1414.29 539.424C1422.57 533.264 1424.28 521.56 1418.12 513.283C1411.96 505.007 1400.26 503.292 1391.98 509.452C1383.7 515.613 1381.99 527.317 1388.15 535.594ZM1259.58 741.345C1265.74 749.622 1277.45 751.337 1285.72 745.176C1294 739.015 1295.71 727.312 1289.55 719.035C1283.39 710.759 1271.69 709.043 1263.41 715.204C1255.13 721.365 1253.42 733.069 1259.58 741.345Z" fill="white" stroke="#09090B" stroke-width="12.6464"/>
<path d="M994.877 363.627C991.297 346.253 975.913 333.189 957.478 333.189C953.296 333.189 949.272 333.861 945.506 335.103L927.775 317.372L903.228 341.919L921.086 359.776C919.921 363.434 919.292 367.331 919.292 371.375C919.292 389.144 931.429 404.078 947.865 408.34L1013.02 426.918L994.877 363.627Z" fill="white"/>
<path d="M927.775 327.19L940.597 340.012L943.621 343.036L947.681 341.697C950.936 340.602 953.87 340.108 957.478 340.132C972.553 340.132 985.148 350.815 988.077 365.029L988.131 365.287L988.203 365.541L1002.9 416.813L949.769 401.663L949.689 401.641L949.608 401.62C936.158 398.132 926.235 385.903 926.235 371.375C926.213 367.885 926.675 365.044 927.701 361.883L928.984 357.855L925.995 354.867L913.047 341.919L927.775 327.19ZM994.877 363.627C991.297 346.253 975.913 333.189 957.478 333.189C953.296 333.189 949.272 333.861 945.506 335.103L932.684 322.281L927.775 317.372L922.866 322.281L908.138 337.01L903.228 341.919L908.138 346.828L921.086 359.776C919.921 363.434 919.292 367.331 919.292 371.375C919.292 389.144 931.429 404.078 947.865 408.34L1005.16 424.675L1013.02 426.918L1010.77 419.055L994.877 363.627Z" fill="#09090B"/>
<path d="M1003.62 422.429L1006.08 424.884L1010.99 419.974L1008.53 417.52L959.931 368.92L957.477 366.465L952.567 371.374L955.022 373.829L1003.62 422.429Z" fill="#09090B"/>
<path d="M947.064 371.374C947.064 365.622 951.726 360.96 957.478 360.96C963.23 360.96 967.892 365.622 967.892 371.374C967.892 377.126 963.23 381.788 957.478 381.788C951.726 381.788 947.064 377.126 947.064 371.374Z" fill="#09090B"/>
<mask id="path-36-inside-1_121830_1294" fill="white">
<path fill-rule="evenodd" clip-rule="evenodd" d="M-9.63424 361.744L-58.1075 406.43L89.3966 566.436L-134.053 557.351L-136.701 622.49L86.7427 631.574L-73.2535 779.069L-28.5676 827.542L131.388 680.085L122.3 903.621L187.475 906.271L196.565 682.687L344.066 842.689L392.539 798.003L245.046 638.01L468.634 647.1L471.282 581.961L247.689 572.871L407.692 425.369L363.006 376.896L203 524.4L212.084 300.962L146.909 298.313L137.827 521.703L-9.63424 361.744Z"/>
</mask>
<path fill-rule="evenodd" clip-rule="evenodd" d="M-9.63424 361.744L-58.1075 406.43L89.3966 566.436L-134.053 557.351L-136.701 622.49L86.7427 631.574L-73.2535 779.069L-28.5676 827.542L131.388 680.085L122.3 903.621L187.475 906.271L196.565 682.687L344.066 842.689L392.539 798.003L245.046 638.01L468.634 647.1L471.282 581.961L247.689 572.871L407.692 425.369L363.006 376.896L203 524.4L212.084 300.962L146.909 298.313L137.827 521.703L-9.63424 361.744Z" fill="white"/>
<path d="M-58.1075 406.43L-63.005 401.117L-68.3176 406.015L-63.4201 411.327L-58.1075 406.43ZM-9.63424 361.744L-4.32163 356.847L-9.21915 351.534L-14.5318 356.431L-9.63424 361.744ZM89.3966 566.436L89.103 573.655L106.533 574.364L94.7092 561.538L89.3966 566.436ZM-134.053 557.351L-133.759 550.132L-140.979 549.838L-141.272 557.058L-134.053 557.351ZM-136.701 622.49L-143.92 622.196L-144.214 629.416L-136.994 629.71L-136.701 622.49ZM86.7427 631.574L91.6402 636.887L104.466 625.063L87.0362 624.354L86.7427 631.574ZM-73.2535 779.069L-78.151 773.757L-83.4636 778.654L-78.5661 783.967L-73.2535 779.069ZM-28.5676 827.542L-33.8802 832.44L-28.9827 837.753L-23.6701 832.855L-28.5676 827.542ZM131.388 680.085L138.608 680.378L139.316 662.948L126.49 674.772L131.388 680.085ZM122.3 903.621L115.08 903.328L114.787 910.548L122.007 910.841L122.3 903.621ZM187.475 906.271L187.182 913.491L194.401 913.784L194.695 906.565L187.475 906.271ZM196.565 682.687L201.877 677.789L190.054 664.964L189.345 682.393L196.565 682.687ZM344.066 842.689L338.753 847.587L343.651 852.899L348.963 848.002L344.066 842.689ZM392.539 798.003L397.436 803.316L402.749 798.418L397.851 793.106L392.539 798.003ZM245.046 638.01L245.34 630.79L227.91 630.081L239.733 642.907L245.046 638.01ZM468.634 647.1L468.34 654.319L475.56 654.613L475.853 647.393L468.634 647.1ZM471.282 581.961L478.502 582.255L478.795 575.035L471.575 574.741L471.282 581.961ZM247.689 572.871L242.791 567.558L229.965 579.382L247.395 580.091L247.689 572.871ZM407.692 425.369L412.589 430.682L417.902 425.784L413.004 420.472L407.692 425.369ZM363.006 376.896L368.318 371.999L363.421 366.686L358.108 371.584L363.006 376.896ZM203 524.4L195.78 524.107L195.072 541.537L207.897 529.713L203 524.4ZM212.084 300.962L219.303 301.256L219.597 294.036L212.377 293.743L212.084 300.962ZM146.909 298.313L147.202 291.093L139.982 290.799L139.689 298.019L146.909 298.313ZM137.827 521.703L132.514 526.601L144.338 539.426L145.046 521.997L137.827 521.703ZM-53.21 411.743L-4.73672 367.057L-14.5318 356.431L-63.005 401.117L-53.21 411.743ZM94.7092 561.538L-52.7949 401.532L-63.4201 411.327L84.084 571.333L94.7092 561.538ZM-134.346 564.571L89.103 573.655L89.6901 559.216L-133.759 550.132L-134.346 564.571ZM-129.481 622.783L-126.833 557.645L-141.272 557.058L-143.92 622.196L-129.481 622.783ZM87.0362 624.354L-136.407 615.27L-136.994 629.71L86.4492 638.794L87.0362 624.354ZM-68.356 784.382L91.6402 636.887L81.8452 626.261L-78.151 773.757L-68.356 784.382ZM-23.255 822.645L-67.9409 774.172L-78.5661 783.967L-33.8802 832.44L-23.255 822.645ZM126.49 674.772L-33.4651 822.23L-23.6701 832.855L136.285 685.397L126.49 674.772ZM129.52 903.915L138.608 680.378L124.168 679.791L115.08 903.328L129.52 903.915ZM187.769 899.051L122.594 896.402L122.007 910.841L187.182 913.491L187.769 899.051ZM189.345 682.393L180.255 905.978L194.695 906.565L203.784 682.98L189.345 682.393ZM349.378 837.792L201.877 677.789L191.252 687.584L338.753 847.587L349.378 837.792ZM387.641 792.691L339.168 837.377L348.963 848.002L397.436 803.316L387.641 792.691ZM239.733 642.907L387.226 802.901L397.851 793.106L250.359 633.112L239.733 642.907ZM468.927 639.88L245.34 630.79L244.753 645.229L468.34 654.319L468.927 639.88ZM464.062 581.667L461.414 646.806L475.853 647.393L478.502 582.255L464.062 581.667ZM247.395 580.091L470.988 589.181L471.575 574.741L247.982 565.651L247.395 580.091ZM402.794 420.057L242.791 567.558L252.586 578.184L412.589 430.682L402.794 420.057ZM357.693 381.794L402.379 430.267L413.004 420.472L368.318 371.999L357.693 381.794ZM207.897 529.713L367.903 382.209L358.108 371.584L198.102 519.088L207.897 529.713ZM204.864 300.669L195.78 524.107L210.219 524.694L219.303 301.256L204.864 300.669ZM146.615 305.532L211.79 308.182L212.377 293.743L147.202 291.093L146.615 305.532ZM145.046 521.997L154.128 298.606L139.689 298.019L130.607 521.41L145.046 521.997ZM-14.9468 366.642L132.514 526.601L143.139 516.806L-4.32163 356.847L-14.9468 366.642Z" fill="#09090B" mask="url(#path-36-inside-1_121830_1294)"/>
<path d="M1143 99.5972H127V610.403H1143V99.5972Z" fill="white" stroke="#09090B" stroke-width="5"/>
<rect x="108.5" y="81.5" width="39" height="39" fill="white" stroke="#09090B" stroke-width="5"/>
<rect x="108.5" y="599.5" width="39" height="39" fill="white" stroke="#09090B" stroke-width="5"/>
<path d="M1132.5 599.5H1171.5V638.5H1132.5V599.5Z" fill="white" stroke="#09090B" stroke-width="5"/>
<path d="M1132.5 81.5H1171.5V120.5H1132.5V81.5Z" fill="white" stroke="#09090B" stroke-width="5"/>
<path d="M452.423 552V527.232H460.523C462.611 527.232 464.315 527.34 465.635 527.556C466.979 527.748 468.035 528.108 468.803 528.636C469.571 529.164 470.123 529.896 470.459 530.832C470.819 531.768 471.047 532.956 471.143 534.396C471.239 535.836 471.287 537.576 471.287 539.616C471.287 541.656 471.239 543.396 471.143 544.836C471.047 546.276 470.819 547.464 470.459 548.4C470.123 549.336 469.571 550.068 468.803 550.596C468.035 551.124 466.979 551.496 465.635 551.712C464.315 551.904 462.611 552 460.523 552H452.423ZM456.491 548.544H460.163C461.507 548.544 462.611 548.52 463.475 548.472C464.363 548.4 465.059 548.232 465.563 547.968C466.067 547.68 466.439 547.224 466.679 546.6C466.919 545.976 467.063 545.1 467.111 543.972C467.183 542.82 467.219 541.368 467.219 539.616C467.219 537.864 467.183 536.424 467.111 535.296C467.063 534.168 466.907 533.292 466.643 532.668C466.403 532.02 466.019 531.564 465.491 531.3C464.987 531.012 464.303 530.844 463.439 530.796C462.575 530.724 461.483 530.688 460.163 530.688H456.491V548.544ZM477.103 552V527.232H493.591V530.688H481.171V537.78H491.899V541.236H481.171V548.544H493.591V552H477.103ZM507.359 552.288C506.471 552.288 505.487 552.264 504.407 552.216C503.351 552.168 502.307 552.096 501.275 552C500.267 551.928 499.343 551.844 498.503 551.748V548.4C499.367 548.472 500.267 548.544 501.203 548.616C502.163 548.688 503.075 548.748 503.939 548.796C504.803 548.82 505.547 548.832 506.171 548.832C507.443 548.832 508.439 548.772 509.159 548.652C509.879 548.532 510.455 548.34 510.887 548.076C511.175 547.884 511.379 547.644 511.499 547.356C511.643 547.068 511.727 546.732 511.751 546.348C511.799 545.94 511.823 545.496 511.823 545.016C511.823 544.368 511.799 543.828 511.751 543.396C511.703 542.964 511.595 542.628 511.427 542.388C511.259 542.148 510.995 541.98 510.635 541.884C510.275 541.764 509.807 541.668 509.231 541.596L503.327 540.912C502.175 540.768 501.227 540.528 500.483 540.192C499.763 539.832 499.199 539.364 498.791 538.788C498.407 538.212 498.143 537.528 497.999 536.736C497.855 535.944 497.783 535.068 497.783 534.108C497.783 532.5 497.999 531.228 498.431 530.292C498.863 529.356 499.475 528.648 500.267 528.168C501.083 527.664 502.043 527.34 503.147 527.196C504.251 527.028 505.475 526.944 506.819 526.944C507.755 526.944 508.715 526.98 509.699 527.052C510.683 527.1 511.607 527.172 512.471 527.268C513.359 527.34 514.091 527.448 514.667 527.592V530.868C514.067 530.772 513.359 530.688 512.543 530.616C511.751 530.544 510.923 530.496 510.059 530.472C509.195 530.424 508.391 530.4 507.647 530.4C506.399 530.4 505.391 530.46 504.623 530.58C503.879 530.676 503.303 530.844 502.895 531.084C502.415 531.348 502.127 531.72 502.031 532.2C501.935 532.656 501.887 533.232 501.887 533.928C501.887 534.744 501.935 535.38 502.031 535.836C502.151 536.268 502.403 536.568 502.787 536.736C503.195 536.904 503.807 537.036 504.623 537.132L510.527 537.816C511.271 537.888 511.943 538.008 512.543 538.176C513.143 538.32 513.671 538.572 514.127 538.932C514.607 539.292 514.979 539.808 515.243 540.48C515.411 540.816 515.531 541.2 515.603 541.632C515.699 542.064 515.771 542.544 515.819 543.072C515.891 543.576 515.927 544.152 515.927 544.8C515.927 546.168 515.783 547.308 515.495 548.22C515.231 549.132 514.847 549.864 514.343 550.416C513.863 550.944 513.263 551.352 512.543 551.64C511.823 551.904 511.031 552.072 510.167 552.144C509.303 552.24 508.367 552.288 507.359 552.288ZM518.88 552L527.736 527.232H533.064L541.92 552H537.708L535.548 545.88H525.108L522.984 552H518.88ZM526.26 542.424H534.36L530.4 531.156H530.22L526.26 542.424ZM546.009 552V527.232H561.777V530.688H550.077V538.356H560.445V541.812H550.077V552H546.009ZM566.47 552V527.232H570.538V552H566.47ZM586.591 552.288C584.623 552.288 583.003 552.18 581.731 551.964C580.459 551.724 579.451 551.328 578.707 550.776C577.963 550.224 577.423 549.468 577.087 548.508C576.751 547.548 576.535 546.348 576.439 544.908C576.343 543.444 576.295 541.68 576.295 539.616C576.295 537.552 576.343 535.8 576.439 534.36C576.535 532.896 576.751 531.684 577.087 530.724C577.423 529.764 577.963 529.008 578.707 528.456C579.451 527.904 580.459 527.52 581.731 527.304C583.003 527.064 584.623 526.944 586.591 526.944C588.559 526.944 590.179 527.064 591.451 527.304C592.747 527.52 593.767 527.904 594.511 528.456C595.255 529.008 595.795 529.764 596.131 530.724C596.491 531.684 596.719 532.896 596.815 534.36C596.911 535.8 596.959 537.552 596.959 539.616C596.959 541.68 596.911 543.444 596.815 544.908C596.719 546.348 596.491 547.548 596.131 548.508C595.795 549.468 595.255 550.224 594.511 550.776C593.767 551.328 592.747 551.724 591.451 551.964C590.179 552.18 588.559 552.288 586.591 552.288ZM586.591 548.832C587.791 548.832 588.775 548.796 589.543 548.724C590.335 548.652 590.947 548.472 591.379 548.184C591.835 547.896 592.171 547.428 592.387 546.78C592.603 546.108 592.735 545.208 592.783 544.08C592.855 542.928 592.891 541.44 592.891 539.616C592.891 537.792 592.855 536.316 592.783 535.188C592.735 534.036 592.603 533.136 592.387 532.488C592.171 531.816 591.835 531.336 591.379 531.048C590.947 530.76 590.335 530.58 589.543 530.508C588.775 530.436 587.791 530.4 586.591 530.4C585.415 530.4 584.443 530.436 583.675 530.508C582.907 530.58 582.295 530.76 581.839 531.048C581.383 531.336 581.047 531.816 580.831 532.488C580.639 533.136 580.507 534.036 580.435 535.188C580.387 536.316 580.363 537.792 580.363 539.616C580.363 541.44 580.387 542.928 580.435 544.08C580.507 545.208 580.639 546.108 580.831 546.78C581.047 547.428 581.383 547.896 581.839 548.184C582.295 548.472 582.907 548.652 583.675 548.724C584.443 548.796 585.415 548.832 586.591 548.832ZM611.175 552.288C610.287 552.288 609.303 552.264 608.223 552.216C607.167 552.168 606.123 552.096 605.091 552C604.083 551.928 603.159 551.844 602.319 551.748V548.4C603.183 548.472 604.083 548.544 605.019 548.616C605.979 548.688 606.891 548.748 607.755 548.796C608.619 548.82 609.363 548.832 609.987 548.832C611.259 548.832 612.255 548.772 612.975 548.652C613.695 548.532 614.271 548.34 614.703 548.076C614.991 547.884 615.195 547.644 615.315 547.356C615.459 547.068 615.543 546.732 615.567 546.348C615.615 545.94 615.639 545.496 615.639 545.016C615.639 544.368 615.615 543.828 615.567 543.396C615.519 542.964 615.411 542.628 615.243 542.388C615.075 542.148 614.811 541.98 614.451 541.884C614.091 541.764 613.623 541.668 613.047 541.596L607.143 540.912C605.991 540.768 605.043 540.528 604.299 540.192C603.579 539.832 603.015 539.364 602.607 538.788C602.223 538.212 601.959 537.528 601.815 536.736C601.671 535.944 601.599 535.068 601.599 534.108C601.599 532.5 601.815 531.228 602.247 530.292C602.679 529.356 603.291 528.648 604.083 528.168C604.899 527.664 605.859 527.34 606.963 527.196C608.067 527.028 609.291 526.944 610.635 526.944C611.571 526.944 612.531 526.98 613.515 527.052C614.499 527.1 615.423 527.172 616.287 527.268C617.175 527.34 617.907 527.448 618.483 527.592V530.868C617.883 530.772 617.175 530.688 616.359 530.616C615.567 530.544 614.739 530.496 613.875 530.472C613.011 530.424 612.207 530.4 611.463 530.4C610.215 530.4 609.207 530.46 608.439 530.58C607.695 530.676 607.119 530.844 606.711 531.084C606.231 531.348 605.943 531.72 605.847 532.2C605.751 532.656 605.703 533.232 605.703 533.928C605.703 534.744 605.751 535.38 605.847 535.836C605.967 536.268 606.219 536.568 606.603 536.736C607.011 536.904 607.623 537.036 608.439 537.132L614.343 537.816C615.087 537.888 615.759 538.008 616.359 538.176C616.959 538.32 617.487 538.572 617.943 538.932C618.423 539.292 618.795 539.808 619.059 540.48C619.227 540.816 619.347 541.2 619.419 541.632C619.515 542.064 619.587 542.544 619.635 543.072C619.707 543.576 619.743 544.152 619.743 544.8C619.743 546.168 619.599 547.308 619.311 548.22C619.047 549.132 618.663 549.864 618.159 550.416C617.679 550.944 617.079 551.352 616.359 551.64C615.639 551.904 614.847 552.072 613.983 552.144C613.119 552.24 612.183 552.288 611.175 552.288ZM633.9 552V527.232H649.668V530.688H637.968V538.356H648.336V541.812H637.968V552H633.9ZM654.361 552V527.232H665.917C667.477 527.232 668.737 527.412 669.697 527.772C670.657 528.132 671.377 528.66 671.857 529.356C672.337 530.028 672.661 530.844 672.829 531.804C672.997 532.74 673.081 533.772 673.081 534.9C673.081 535.716 672.997 536.616 672.829 537.6C672.685 538.56 672.349 539.448 671.821 540.264C671.317 541.056 670.513 541.632 669.409 541.992L673.477 552H669.157L665.197 541.884L666.241 542.424C666.073 542.496 665.869 542.544 665.629 542.568C665.413 542.568 665.149 542.568 664.837 542.568H658.429V552H654.361ZM658.429 539.112H664.189C665.317 539.112 666.205 539.04 666.853 538.896C667.501 538.728 667.981 538.476 668.293 538.14C668.605 537.804 668.797 537.372 668.869 536.844C668.965 536.316 669.013 535.668 669.013 534.9C669.013 534.108 668.965 533.448 668.869 532.92C668.797 532.368 668.617 531.936 668.329 531.624C668.041 531.288 667.573 531.048 666.925 530.904C666.301 530.76 665.437 530.688 664.333 530.688H658.429V539.112ZM688.262 552.288C686.294 552.288 684.674 552.18 683.402 551.964C682.13 551.724 681.122 551.328 680.378 550.776C679.634 550.224 679.094 549.468 678.758 548.508C678.422 547.548 678.206 546.348 678.11 544.908C678.014 543.444 677.966 541.68 677.966 539.616C677.966 537.552 678.014 535.8 678.11 534.36C678.206 532.896 678.422 531.684 678.758 530.724C679.094 529.764 679.634 529.008 680.378 528.456C681.122 527.904 682.13 527.52 683.402 527.304C684.674 527.064 686.294 526.944 688.262 526.944C690.23 526.944 691.85 527.064 693.122 527.304C694.418 527.52 695.438 527.904 696.182 528.456C696.926 529.008 697.466 529.764 697.802 530.724C698.162 531.684 698.39 532.896 698.486 534.36C698.582 535.8 698.63 537.552 698.63 539.616C698.63 541.68 698.582 543.444 698.486 544.908C698.39 546.348 698.162 547.548 697.802 548.508C697.466 549.468 696.926 550.224 696.182 550.776C695.438 551.328 694.418 551.724 693.122 551.964C691.85 552.18 690.23 552.288 688.262 552.288ZM688.262 548.832C689.462 548.832 690.446 548.796 691.214 548.724C692.006 548.652 692.618 548.472 693.05 548.184C693.506 547.896 693.842 547.428 694.058 546.78C694.274 546.108 694.406 545.208 694.454 544.08C694.526 542.928 694.562 541.44 694.562 539.616C694.562 537.792 694.526 536.316 694.454 535.188C694.406 534.036 694.274 533.136 694.058 532.488C693.842 531.816 693.506 531.336 693.05 531.048C692.618 530.76 692.006 530.58 691.214 530.508C690.446 530.436 689.462 530.4 688.262 530.4C687.086 530.4 686.114 530.436 685.346 530.508C684.578 530.58 683.966 530.76 683.51 531.048C683.054 531.336 682.718 531.816 682.502 532.488C682.31 533.136 682.178 534.036 682.106 535.188C682.058 536.316 682.034 537.792 682.034 539.616C682.034 541.44 682.058 542.928 682.106 544.08C682.178 545.208 682.31 546.108 682.502 546.78C682.718 547.428 683.054 547.896 683.51 548.184C683.966 548.472 684.578 548.652 685.346 548.724C686.114 548.796 687.086 548.832 688.262 548.832ZM704.423 552V527.232H708.635L719.975 544.368H720.119V527.232H724.007V552H720.119L708.455 534.324H708.311V552H704.423ZM735.727 552V530.796H728.203V527.232H747.283V530.796H739.795V552H735.727ZM751.498 552V527.232H767.986V530.688H755.566V537.78H766.294V541.236H755.566V548.544H767.986V552H751.498ZM773.33 552V527.232H777.542L788.882 544.368H789.026V527.232H792.914V552H789.026L777.362 534.324H777.218V552H773.33ZM799.521 552V527.232H807.621C809.709 527.232 811.413 527.34 812.733 527.556C814.077 527.748 815.133 528.108 815.901 528.636C816.669 529.164 817.221 529.896 817.557 530.832C817.917 531.768 818.145 532.956 818.241 534.396C818.337 535.836 818.385 537.576 818.385 539.616C818.385 541.656 818.337 543.396 818.241 544.836C818.145 546.276 817.917 547.464 817.557 548.4C817.221 549.336 816.669 550.068 815.901 550.596C815.133 551.124 814.077 551.496 812.733 551.712C811.413 551.904 809.709 552 807.621 552H799.521ZM803.589 548.544H807.261C808.605 548.544 809.709 548.52 810.573 548.472C811.461 548.4 812.157 548.232 812.661 547.968C813.165 547.68 813.537 547.224 813.777 546.6C814.017 545.976 814.161 545.1 814.209 543.972C814.281 542.82 814.317 541.368 814.317 539.616C814.317 537.864 814.281 536.424 814.209 535.296C814.161 534.168 814.005 533.292 813.741 532.668C813.501 532.02 813.117 531.564 812.589 531.3C812.085 531.012 811.401 530.844 810.537 530.796C809.673 530.724 808.581 530.688 807.261 530.688H803.589V548.544Z" fill="#282828"/>
<path d="M459.285 382.632C455.282 382.632 451.938 382.369 449.252 381.842C446.566 381.315 444.38 380.42 442.695 379.156C441.01 377.892 439.719 376.207 438.824 374.1C437.981 371.993 437.402 369.36 437.086 366.2C436.77 363.04 436.612 359.248 436.612 354.824C436.612 350.4 436.77 346.608 437.086 343.448C437.402 340.288 437.981 337.655 438.824 335.548C439.719 333.441 441.01 331.756 442.695 330.492C444.38 329.228 446.566 328.333 449.252 327.806C451.938 327.279 455.282 327.016 459.285 327.016C460.812 327.016 462.392 327.069 464.025 327.174C465.71 327.279 467.317 327.437 468.844 327.648C470.371 327.859 471.662 328.096 472.715 328.359V336.97C471.293 336.812 469.924 336.68 468.607 336.575C467.29 336.417 466.053 336.312 464.894 336.259C463.788 336.206 462.84 336.18 462.05 336.18C459.364 336.18 457.152 336.285 455.414 336.496C453.676 336.707 452.28 337.154 451.227 337.839C450.226 338.471 449.489 339.472 449.015 340.841C448.541 342.158 448.225 343.948 448.067 346.213C447.909 348.478 447.83 351.348 447.83 354.824C447.83 358.247 447.909 361.118 448.067 363.435C448.225 365.7 448.541 367.517 449.015 368.886C449.489 370.203 450.226 371.203 451.227 371.888C452.28 372.52 453.676 372.941 455.414 373.152C457.152 373.363 459.364 373.468 462.05 373.468C463.788 373.468 465.684 373.389 467.738 373.231C469.792 373.073 471.556 372.889 473.031 372.678V381.447C471.872 381.658 470.503 381.842 468.923 382C467.343 382.211 465.71 382.369 464.025 382.474C462.392 382.579 460.812 382.632 459.285 382.632ZM499.519 382.632C496.043 382.632 493.146 382.421 490.829 382C488.511 381.579 486.694 380.894 485.378 379.946C484.061 378.998 483.087 377.734 482.455 376.154C481.875 374.574 481.48 372.599 481.27 370.229C481.112 367.859 481.033 365.041 481.033 361.776C481.033 358.511 481.112 355.719 481.27 353.402C481.48 351.032 481.875 349.057 482.455 347.477C483.087 345.897 484.061 344.633 485.378 343.685C486.694 342.737 488.511 342.079 490.829 341.71C493.146 341.289 496.043 341.078 499.519 341.078C502.995 341.078 505.865 341.289 508.13 341.71C510.447 342.079 512.264 342.737 513.581 343.685C514.95 344.633 515.924 345.897 516.504 347.477C517.136 349.057 517.531 351.032 517.689 353.402C517.899 355.719 518.005 358.511 518.005 361.776C518.005 365.041 517.899 367.859 517.689 370.229C517.531 372.599 517.136 374.574 516.504 376.154C515.924 377.734 514.95 378.998 513.581 379.946C512.264 380.894 510.447 381.579 508.13 382C505.865 382.421 502.995 382.632 499.519 382.632ZM499.519 374.179C501.467 374.179 502.995 374.047 504.101 373.784C505.259 373.521 506.049 372.994 506.471 372.204C506.945 371.361 507.234 370.097 507.34 368.412C507.445 366.727 507.498 364.515 507.498 361.776C507.498 359.037 507.445 356.852 507.34 355.219C507.234 353.534 506.945 352.296 506.471 351.506C506.049 350.663 505.259 350.137 504.101 349.926C502.995 349.663 501.467 349.531 499.519 349.531C497.517 349.531 495.964 349.663 494.858 349.926C493.752 350.137 492.962 350.663 492.488 351.506C492.014 352.296 491.724 353.534 491.619 355.219C491.566 356.852 491.54 359.037 491.54 361.776C491.54 364.515 491.566 366.727 491.619 368.412C491.724 370.097 492.014 371.361 492.488 372.204C492.962 372.994 493.752 373.521 494.858 373.784C495.964 374.047 497.517 374.179 499.519 374.179ZM540.142 382.632C537.667 382.632 535.56 382.316 533.822 381.684C532.084 380.999 530.662 379.893 529.556 378.366C528.45 376.786 527.634 374.653 527.107 371.967C526.633 369.281 526.396 365.937 526.396 361.934C526.396 357.931 526.633 354.587 527.107 351.901C527.581 349.215 528.345 347.082 529.398 345.502C530.504 343.922 531.9 342.79 533.585 342.105C535.323 341.42 537.43 341.078 539.905 341.078C541.643 341.078 543.249 341.236 544.724 341.552C546.251 341.815 547.594 342.316 548.753 343.053C549.964 343.738 550.965 344.765 551.755 346.134H552.387V323.303H562.815V382H553.019L552.703 377.023H552.15C551.36 378.603 550.307 379.788 548.99 380.578C547.726 381.368 546.33 381.895 544.803 382.158C543.276 382.474 541.722 382.632 540.142 382.632ZM544.645 373.626C546.594 373.626 548.068 373.389 549.069 372.915C550.122 372.388 550.886 371.572 551.36 370.466C551.781 369.413 552.045 368.175 552.15 366.753C552.308 365.331 552.387 363.698 552.387 361.855C552.387 359.959 552.308 358.326 552.15 356.957C552.045 355.588 551.781 354.429 551.36 353.481C550.886 352.27 550.122 351.427 549.069 350.953C548.068 350.426 546.594 350.163 544.645 350.163C542.907 350.163 541.511 350.295 540.458 350.558C539.405 350.769 538.615 351.269 538.088 352.059C537.614 352.796 537.298 353.955 537.14 355.535C536.982 357.062 536.903 359.169 536.903 361.855C536.903 364.541 536.982 366.674 537.14 368.254C537.298 369.834 537.614 371.019 538.088 371.809C538.615 372.546 539.405 373.047 540.458 373.31C541.511 373.521 542.907 373.626 544.645 373.626ZM591.963 382.632C588.382 382.632 585.406 382.395 583.036 381.921C580.666 381.447 578.77 380.71 577.348 379.709C575.979 378.656 574.925 377.339 574.188 375.759C573.503 374.126 573.056 372.178 572.845 369.913C572.687 367.596 572.608 364.936 572.608 361.934C572.608 358.353 572.792 355.245 573.161 352.612C573.53 349.979 574.293 347.819 575.452 346.134C576.663 344.396 578.507 343.132 580.982 342.342C583.51 341.499 586.854 341.078 591.015 341.078C594.386 341.078 597.124 341.341 599.231 341.868C601.338 342.395 602.997 343.185 604.208 344.238C605.472 345.291 606.367 346.661 606.894 348.346C607.473 349.979 607.842 351.927 608 354.192C608.158 356.457 608.237 359.037 608.237 361.934V365.015H583.036C583.036 367.016 583.115 368.649 583.273 369.913C583.484 371.124 583.931 372.046 584.616 372.678C585.353 373.31 586.486 373.731 588.013 373.942C589.593 374.153 591.726 374.258 594.412 374.258C595.518 374.258 596.756 374.232 598.125 374.179C599.547 374.126 600.995 374.047 602.47 373.942C603.997 373.837 605.393 373.731 606.657 373.626V381.368C605.498 381.631 604.076 381.842 602.391 382C600.758 382.211 599.02 382.369 597.177 382.474C595.386 382.579 593.648 382.632 591.963 382.632ZM598.283 359.801V358.537C598.283 356.483 598.151 354.85 597.888 353.639C597.677 352.375 597.282 351.427 596.703 350.795C596.176 350.163 595.439 349.768 594.491 349.61C593.543 349.399 592.332 349.294 590.857 349.294C589.119 349.294 587.75 349.426 586.749 349.689C585.748 349.9 584.985 350.347 584.458 351.032C583.931 351.664 583.563 352.612 583.352 353.876C583.141 355.087 583.036 356.641 583.036 358.537H599.705L598.283 359.801ZM618.005 382V323.303H628.512V382H618.005ZM649.635 382.632C647.055 382.632 644.869 382.263 643.078 381.526C641.288 380.736 639.918 379.472 638.97 377.734C638.075 375.943 637.627 373.6 637.627 370.703C637.627 367.596 637.996 365.147 638.733 363.356C639.471 361.513 640.761 360.196 642.604 359.406C644.448 358.563 647.002 358.142 650.267 358.142C650.794 358.142 651.531 358.168 652.479 358.221C653.427 358.221 654.507 358.247 655.718 358.3C656.93 358.3 658.141 358.326 659.352 358.379C660.564 358.379 661.67 358.405 662.67 358.458V356.878C662.67 355.14 662.539 353.771 662.275 352.77C662.012 351.769 661.512 351.032 660.774 350.558C660.037 350.084 658.957 349.794 657.535 349.689C656.113 349.584 654.27 349.531 652.005 349.531C650.847 349.531 649.504 349.557 647.976 349.61C646.449 349.663 644.974 349.742 643.552 349.847C642.13 349.952 640.998 350.058 640.155 350.163V342.263C642.42 341.894 644.869 341.605 647.502 341.394C650.136 341.183 652.795 341.078 655.481 341.078C658.641 341.078 661.275 341.289 663.381 341.71C665.541 342.079 667.252 342.684 668.516 343.527C669.833 344.37 670.807 345.449 671.439 346.766C672.124 348.03 672.572 349.557 672.782 351.348C672.993 353.086 673.098 355.087 673.098 357.352V382H663.381L663.065 377.102H662.433C661.538 378.735 660.353 379.946 658.878 380.736C657.456 381.526 655.929 382.026 654.296 382.237C652.716 382.5 651.163 382.632 649.635 382.632ZM654.612 374.574C655.771 374.574 656.772 374.495 657.614 374.337C658.51 374.179 659.273 373.916 659.905 373.547C660.59 373.126 661.117 372.599 661.485 371.967C661.854 371.282 662.144 370.44 662.354 369.439C662.565 368.438 662.67 367.227 662.67 365.805V364.62H653.111C651.637 364.62 650.504 364.725 649.714 364.936C648.924 365.147 648.398 365.621 648.134 366.358C647.871 367.095 647.739 368.201 647.739 369.676C647.739 371.045 647.897 372.099 648.213 372.836C648.529 373.521 649.188 373.995 650.188 374.258C651.189 374.469 652.664 374.574 654.612 374.574ZM643.868 336.022V335.469L651.452 324.646H661.564L669.227 335.469V336.022H662.275L656.508 329.307L650.741 336.022H643.868ZM684.429 382V341.71H694.225L694.541 346.766H695.173C695.911 345.449 696.806 344.37 697.859 343.527C698.965 342.684 700.308 342.079 701.888 341.71C703.521 341.289 705.364 341.078 707.418 341.078C710.157 341.078 712.343 341.42 713.975 342.105C715.661 342.79 716.951 343.79 717.846 345.107C718.742 346.424 719.321 348.056 719.584 350.005C719.9 351.954 720.058 354.218 720.058 356.799V382H709.63V360.67C709.63 358.247 709.551 356.325 709.393 354.903C709.235 353.481 708.919 352.428 708.445 351.743C707.971 351.058 707.26 350.637 706.312 350.479C705.364 350.268 704.1 350.163 702.52 350.163C700.835 350.163 699.466 350.374 698.412 350.795C697.412 351.164 696.648 351.796 696.121 352.691C695.647 353.534 695.305 354.666 695.094 356.088C694.936 357.457 694.857 359.143 694.857 361.144V382H684.429ZM743.582 382.632C741.107 382.632 739 382.316 737.262 381.684C735.524 380.999 734.102 379.893 732.996 378.366C731.89 376.786 731.074 374.653 730.547 371.967C730.073 369.281 729.836 365.937 729.836 361.934C729.836 357.931 730.073 354.587 730.547 351.901C731.021 349.215 731.785 347.082 732.838 345.502C733.944 343.922 735.34 342.79 737.025 342.105C738.763 341.42 740.87 341.078 743.345 341.078C745.083 341.078 746.69 341.236 748.164 341.552C749.692 341.815 751.035 342.316 752.193 343.053C753.405 343.738 754.405 344.765 755.195 346.134H755.827V323.303H766.255V382H756.459L756.143 377.023H755.59C754.8 378.603 753.747 379.788 752.43 380.578C751.166 381.368 749.771 381.895 748.243 382.158C746.716 382.474 745.162 382.632 743.582 382.632ZM748.085 373.626C750.034 373.626 751.509 373.389 752.509 372.915C753.563 372.388 754.326 371.572 754.8 370.466C755.222 369.413 755.485 368.175 755.59 366.753C755.748 365.331 755.827 363.698 755.827 361.855C755.827 359.959 755.748 358.326 755.59 356.957C755.485 355.588 755.222 354.429 754.8 353.481C754.326 352.27 753.563 351.427 752.509 350.953C751.509 350.426 750.034 350.163 748.085 350.163C746.347 350.163 744.952 350.295 743.898 350.558C742.845 350.769 742.055 351.269 741.528 352.059C741.054 352.796 740.738 353.955 740.58 355.535C740.422 357.062 740.343 359.169 740.343 361.855C740.343 364.541 740.422 366.674 740.58 368.254C740.738 369.834 741.054 371.019 741.528 371.809C742.055 372.546 742.845 373.047 743.898 373.31C744.952 373.521 746.347 373.626 748.085 373.626ZM777.312 332.625V323.303H788.135V332.625H777.312ZM777.47 382V341.71H787.977V382H777.47ZM809.101 382.632C806.521 382.632 804.335 382.263 802.544 381.526C800.754 380.736 799.384 379.472 798.436 377.734C797.541 375.943 797.093 373.6 797.093 370.703C797.093 367.596 797.462 365.147 798.199 363.356C798.937 361.513 800.227 360.196 802.07 359.406C803.914 358.563 806.468 358.142 809.733 358.142C810.26 358.142 810.997 358.168 811.945 358.221C812.893 358.221 813.973 358.247 815.184 358.3C816.396 358.3 817.607 358.326 818.818 358.379C820.03 358.379 821.136 358.405 822.136 358.458V356.878C822.136 355.14 822.005 353.771 821.741 352.77C821.478 351.769 820.978 351.032 820.24 350.558C819.503 350.084 818.423 349.794 817.001 349.689C815.579 349.584 813.736 349.531 811.471 349.531C810.313 349.531 808.97 349.557 807.442 349.61C805.915 349.663 804.44 349.742 803.018 349.847C801.596 349.952 800.464 350.058 799.621 350.163V342.263C801.886 341.894 804.335 341.605 806.968 341.394C809.602 341.183 812.261 341.078 814.947 341.078C818.107 341.078 820.741 341.289 822.847 341.71C825.007 342.079 826.718 342.684 827.982 343.527C829.299 344.37 830.273 345.449 830.905 346.766C831.59 348.03 832.038 349.557 832.248 351.348C832.459 353.086 832.564 355.087 832.564 357.352V382H822.847L822.531 377.102H821.899C821.004 378.735 819.819 379.946 818.344 380.736C816.922 381.526 815.395 382.026 813.762 382.237C812.182 382.5 810.629 382.632 809.101 382.632ZM814.078 374.574C815.237 374.574 816.238 374.495 817.08 374.337C817.976 374.179 818.739 373.916 819.371 373.547C820.056 373.126 820.583 372.599 820.951 371.967C821.32 371.282 821.61 370.44 821.82 369.439C822.031 368.438 822.136 367.227 822.136 365.805V364.62H812.577C811.103 364.62 809.97 364.725 809.18 364.936C808.39 365.147 807.864 365.621 807.6 366.358C807.337 367.095 807.205 368.201 807.205 369.676C807.205 371.045 807.363 372.099 807.679 372.836C807.995 373.521 808.654 373.995 809.654 374.258C810.655 374.469 812.13 374.574 814.078 374.574Z" fill="#282828"/>
</g>
<rect x="2.5" y="2.5" width="1275" height="715" stroke="#09090B" stroke-width="5"/>
<defs>
<clipPath id="clip0_121830_1294">
<rect width="1280" height="720" fill="white"/>
</clipPath>
</defs>
</svg>
