<svg width="500" height="421" viewBox="0 0 500 421" fill="none" xmlns="http://www.w3.org/2000/svg">
<mask id="mask0_257087_980" style="mask-type:luminance" maskUnits="userSpaceOnUse" x="0" y="4" width="500" height="417">
<path fill-rule="evenodd" clip-rule="evenodd" d="M172.704 129.866C172.704 129.866 225.881 122.538 232.492 93.8064C239.104 65.0749 287.698 -21.4955 394.15 11.6987C521.761 51.4989 445.085 161.164 429.585 178.88C414.085 196.595 406.332 264.575 467.232 286.125C528.132 307.675 511.497 430.364 354.556 420.429C197.616 410.493 215.881 307.752 126.758 307.164C37.6345 306.577 -26.0416 219.255 10.4994 147.694C47.0404 76.1318 156.099 138.298 172.704 129.866Z" fill="white"/>
</mask>
<g mask="url(#mask0_257087_980)">
<path d="M172.704 129.866C172.704 129.866 225.881 122.538 232.492 93.8064C239.104 65.0749 287.698 -21.4955 394.15 11.6987C521.761 51.4989 445.085 161.164 429.585 178.88C414.085 196.595 406.332 264.575 467.232 286.125C528.132 307.675 511.497 430.364 354.556 420.429C197.616 410.493 215.881 307.752 126.758 307.164C37.6345 306.577 -26.0416 219.255 10.4994 147.694C47.0404 76.1318 156.099 138.298 172.704 129.866Z" fill="#42CF96"/>
<g opacity="0.37">
<path d="M461.129 336.519C462.343 335.725 463.972 336.065 464.768 337.277C465.564 338.49 465.225 340.116 464.011 340.91L453.149 348.014C451.935 348.808 450.306 348.468 449.51 347.256C448.714 346.043 449.053 344.417 450.267 343.623L461.129 336.519Z" fill="white"/>
<path d="M424.846 367.39C424.627 365.954 425.614 364.614 427.05 364.396C428.485 364.178 429.826 365.166 430.045 366.601L431.994 379.405C432.212 380.84 431.226 382.181 429.79 382.399C428.354 382.616 427.013 381.629 426.795 380.194L424.846 367.39Z" fill="white"/>
<path d="M445.985 296.247C446.887 295.11 448.541 294.919 449.679 295.819C450.817 296.719 451.009 298.37 450.106 299.507L442.046 309.663C441.143 310.8 439.489 310.991 438.351 310.091C437.213 309.191 437.022 307.539 437.924 306.403L445.985 296.247Z" fill="white"/>
<path d="M491.616 347.016C491.397 345.58 492.384 344.24 493.82 344.022C495.255 343.804 496.596 344.792 496.815 346.227L498.764 359.031C498.982 360.466 497.996 361.807 496.56 362.025C495.124 362.242 493.783 361.255 493.565 359.819L491.616 347.016Z" fill="white"/>
<path d="M428.239 410.878C429.219 409.807 430.882 409.732 431.954 410.71C433.026 411.687 433.101 413.348 432.122 414.418L423.367 423.986C422.387 425.056 420.724 425.132 419.652 424.154C418.58 423.176 418.504 421.516 419.484 420.446L428.239 410.878Z" fill="white"/>
<path d="M479.317 389.842C479.581 388.415 480.953 387.471 482.381 387.735C483.809 387.998 484.752 389.369 484.488 390.797L482.128 403.532C481.864 404.96 480.491 405.903 479.064 405.64C477.636 405.376 476.692 404.005 476.957 402.577L479.317 389.842Z" fill="white"/>
<path d="M384.887 389.837C385.151 388.409 386.523 387.465 387.951 387.729C389.379 387.993 390.322 389.364 390.058 390.792L387.698 403.527C387.433 404.954 386.061 405.898 384.633 405.634C383.205 405.371 382.262 403.999 382.527 402.572L384.887 389.837Z" fill="white"/>
<path d="M409.021 319.565C408.06 318.478 408.163 316.819 409.252 315.86C410.341 314.901 412.002 315.004 412.964 316.091L421.555 325.805C422.516 326.892 422.413 328.551 421.324 329.51C420.236 330.47 418.574 330.366 417.613 329.279L409.021 319.565Z" fill="white"/>
<path d="M123.693 237.835C124.912 237.038 126.548 237.379 127.347 238.597C128.145 239.815 127.805 241.448 126.586 242.245L115.677 249.374C114.458 250.171 112.823 249.83 112.024 248.612C111.225 247.394 111.566 245.761 112.785 244.965L123.693 237.835Z" fill="white"/>
<path d="M88.0085 267.8C87.7899 266.364 88.7767 265.024 90.2124 264.806C91.648 264.589 92.9891 265.576 93.2076 267.011L95.1565 279.815C95.375 281.251 94.3883 282.591 92.9526 282.809C91.5169 283.026 90.1759 282.039 89.9574 280.604L88.0085 267.8Z" fill="white"/>
<path d="M109.125 196.686C110.027 195.549 111.681 195.357 112.819 196.258C113.957 197.158 114.149 198.809 113.247 199.946L105.186 210.102C104.284 211.238 102.63 211.43 101.491 210.53C100.353 209.63 100.162 207.978 101.064 206.842L109.125 196.686Z" fill="white"/>
<path d="M154.767 247.427C154.548 245.991 155.535 244.651 156.971 244.433C158.406 244.216 159.747 245.203 159.966 246.638L161.915 259.442C162.133 260.878 161.147 262.218 159.711 262.436C158.275 262.653 156.934 261.666 156.716 260.231L154.767 247.427Z" fill="white"/>
<path d="M91.4051 311.301C92.3846 310.231 94.0479 310.155 95.1201 311.133C96.1923 312.111 96.2674 313.771 95.2878 314.842L86.5328 324.409C85.5532 325.48 83.8899 325.555 82.8177 324.577C81.7455 323.6 81.6704 321.939 82.65 320.869L91.4051 311.301Z" fill="white"/>
<path d="M142.482 290.249C142.747 288.821 144.119 287.878 145.547 288.141C146.975 288.405 147.918 289.776 147.653 291.204L145.294 303.939C145.029 305.366 143.657 306.31 142.229 306.046C140.801 305.783 139.858 304.412 140.123 302.984L142.482 290.249Z" fill="white"/>
<path d="M48.0581 290.244C48.3226 288.816 49.6947 287.872 51.1226 288.136C52.5506 288.4 53.4937 289.771 53.2291 291.199L50.8693 303.933C50.6047 305.361 49.2327 306.305 47.8047 306.041C46.3768 305.777 45.4337 304.406 45.6983 302.978L48.0581 290.244Z" fill="white"/>
<path d="M72.1801 219.999C71.2188 218.912 71.322 217.253 72.4106 216.294C73.4992 215.334 75.161 215.438 76.1223 216.525L84.7137 226.239C85.675 227.326 85.5718 228.985 84.4832 229.944C83.3945 230.904 81.7327 230.8 80.7714 229.713L72.1801 219.999Z" fill="white"/>
<path d="M53.9144 118.908C55.1283 118.114 56.7574 118.453 57.5532 119.666C58.349 120.879 58.0101 122.505 56.7962 123.299L45.9338 130.403C44.7199 131.197 43.0908 130.857 42.295 129.645C41.4992 128.432 41.8381 126.805 43.0519 126.012L53.9144 118.908Z" fill="white"/>
<path d="M17.6353 149.962C17.4171 148.525 18.4057 147.183 19.8433 146.966C21.281 146.748 22.6233 147.737 22.8415 149.175L24.7875 161.996C25.0057 163.433 24.0172 164.775 22.5795 164.993C21.1418 165.21 19.7995 164.221 19.5813 162.783L17.6353 149.962Z" fill="white"/>
<path d="M38.7468 78.6446C39.649 77.5079 41.3031 77.3162 42.4413 78.2164C43.5795 79.1167 43.7709 80.7679 42.8687 81.9046L34.8079 92.0605C33.9057 93.1972 32.2516 93.3889 31.1134 92.4887C29.9752 91.5884 29.7838 89.9372 30.686 88.8005L38.7468 78.6446Z" fill="white"/>
<path d="M84.4937 129.576C84.2755 128.138 85.2641 126.797 86.7017 126.579C88.1394 126.362 89.4817 127.351 89.6999 128.788L91.6459 141.609C91.8641 143.047 90.8756 144.389 89.4379 144.606C88.0002 144.824 86.6579 143.834 86.4397 142.397L84.4937 129.576Z" fill="white"/>
<path d="M21.0369 193.257C22.0165 192.186 23.6797 192.111 24.7519 193.089C25.8241 194.066 25.8992 195.727 24.9197 196.797L16.1646 206.365C15.185 207.436 13.5218 207.511 12.4496 206.533C11.3774 205.556 11.3023 203.895 12.2818 202.825L21.0369 193.257Z" fill="white"/>
<path d="M72.1235 172.208C72.3881 170.78 73.7601 169.837 75.1881 170.1C76.616 170.364 77.5591 171.735 77.2946 173.163L74.9348 185.898C74.6702 187.325 73.2981 188.269 71.8702 188.005C70.4422 187.742 69.4991 186.371 69.7637 184.943L72.1235 172.208Z" fill="white"/>
<path d="M1.81287 101.963C0.851563 100.876 0.954768 99.2174 2.04339 98.258C3.13201 97.2985 4.79381 97.4019 5.75512 98.4889L14.3465 108.203C15.3078 109.29 15.2046 110.949 14.116 111.908C13.0274 112.868 11.3656 112.764 10.4042 111.677L1.81287 101.963Z" fill="white"/>
<path d="M53.5685 264.956C55.0179 264.981 56.1723 266.177 56.147 267.626C56.1216 269.076 54.9261 270.23 53.4767 270.205L40.4872 269.979C39.0378 269.953 37.8833 268.758 37.9087 267.309C37.934 265.859 39.1295 264.705 40.5789 264.73L53.5685 264.956Z" fill="white"/>
<path d="M6.19116 270.09C6.81909 268.781 8.38987 268.228 9.6996 268.854C11.0093 269.48 11.562 271.048 10.9341 272.357L5.3292 284.04C4.70127 285.349 3.13049 285.903 1.82076 285.276C0.511034 284.65 -0.0416749 283.082 0.586254 281.773L6.19116 270.09Z" fill="white"/>
<path d="M63.7012 223.123C65.0851 222.691 66.5585 223.462 66.992 224.845C67.4255 226.229 66.6551 227.701 65.2711 228.133L52.8736 232.004C51.4897 232.436 50.0163 231.665 49.5828 230.282C49.1493 228.898 49.9197 227.426 51.3037 226.994L63.7012 223.123Z" fill="white"/>
<path d="M72.8665 290.731C73.4944 289.422 75.0652 288.868 76.3749 289.494C77.6846 290.12 78.2373 291.689 77.6094 292.998L72.0045 304.681C71.3766 305.99 69.8058 306.543 68.4961 305.917C67.1863 305.291 66.6336 303.722 67.2615 302.413L72.8665 290.731Z" fill="white"/>
<path d="M38.5823 319.24C39.6039 318.21 41.2688 318.202 42.3008 319.222C43.3328 320.241 43.3412 321.903 42.3196 322.934L33.1864 332.143C32.1647 333.174 30.4999 333.182 29.4678 332.162C28.4358 331.142 28.4274 329.481 29.4491 328.45L38.5823 319.24Z" fill="white"/>
<path d="M20.9884 221.126C20.7993 219.689 21.8114 218.371 23.2491 218.182C24.6868 217.994 26.0055 219.006 26.1946 220.444L27.8811 233.265C28.0702 234.703 27.0581 236.021 25.6204 236.209C24.1828 236.398 22.864 235.385 22.6749 233.947L20.9884 221.126Z" fill="white"/>
<path d="M252.965 172.163C254.179 171.369 255.808 171.709 256.604 172.921C257.4 174.134 257.061 175.76 255.847 176.554L244.985 183.658C243.771 184.452 242.142 184.112 241.346 182.9C240.55 181.687 240.889 180.061 242.103 179.267L252.965 172.163Z" fill="white"/>
<path d="M216.692 203.02C216.474 201.584 217.46 200.244 218.896 200.026C220.332 199.808 221.673 200.796 221.891 202.231L223.84 215.035C224.059 216.47 223.072 217.811 221.636 218.028C220.201 218.246 218.86 217.259 218.641 215.823L216.692 203.02Z" fill="white"/>
<path d="M237.811 131.89C238.713 130.753 240.368 130.561 241.506 131.462C242.644 132.362 242.835 134.013 241.933 135.15L233.872 145.306C232.97 146.442 231.316 146.634 230.178 145.734C229.04 144.834 228.848 143.182 229.75 142.046L237.811 131.89Z" fill="white"/>
<path d="M283.456 182.647C283.238 181.211 284.224 179.871 285.66 179.653C287.096 179.435 288.437 180.423 288.655 181.858L290.604 194.662C290.823 196.097 289.836 197.438 288.4 197.655C286.965 197.873 285.624 196.886 285.405 195.45L283.456 182.647Z" fill="white"/>
<path d="M220.09 246.516C221.07 245.446 222.733 245.37 223.805 246.348C224.877 247.326 224.952 248.986 223.973 250.057L215.218 259.624C214.238 260.695 212.575 260.77 211.503 259.792C210.431 258.815 210.356 257.154 211.335 256.084L220.09 246.516Z" fill="white"/>
<path d="M271.169 225.47C271.434 224.042 272.806 223.099 274.234 223.362C275.662 223.626 276.605 224.997 276.34 226.425L273.981 239.16C273.716 240.588 272.344 241.531 270.916 241.268C269.488 241.004 268.545 239.633 268.81 238.205L271.169 225.47Z" fill="white"/>
<path d="M176.739 225.465C177.003 224.037 178.375 223.093 179.803 223.357C181.231 223.621 182.174 224.992 181.91 226.42L179.55 239.154C179.285 240.582 177.913 241.526 176.485 241.262C175.057 240.999 174.114 239.627 174.379 238.2L176.739 225.465Z" fill="white"/>
<path d="M200.862 155.209C199.901 154.122 200.004 152.463 201.093 151.503C202.181 150.544 203.843 150.647 204.804 151.734L213.396 161.448C214.357 162.535 214.254 164.194 213.165 165.154C212.077 166.113 210.415 166.01 209.454 164.923L200.862 155.209Z" fill="white"/>
<path d="M314.313 393.326C315.215 392.19 316.869 391.998 318.007 392.898C319.145 393.798 319.337 395.45 318.435 396.586L310.374 406.742C309.472 407.879 307.818 408.071 306.679 407.17C305.541 406.27 305.35 404.619 306.252 403.482L314.313 393.326Z" fill="white"/>
<path d="M277.345 416.638C276.384 415.552 276.487 413.893 277.576 412.933C278.664 411.974 280.326 412.077 281.287 413.164L289.879 422.878C290.84 423.965 290.737 425.624 289.648 426.584C288.56 427.543 286.898 427.44 285.936 426.353L277.345 416.638Z" fill="white"/>
<path d="M449.526 208.493C450.861 209.058 451.483 210.597 450.917 211.93C450.351 213.264 448.81 213.887 447.475 213.323L435.526 208.266C434.191 207.701 433.569 206.162 434.135 204.829C434.701 203.495 436.242 202.872 437.577 203.436L449.526 208.493Z" fill="white"/>
<path d="M403.079 195.377C404.152 194.4 405.814 194.476 406.793 195.547C407.772 196.618 407.696 198.278 406.624 199.255L397.033 207.991C395.961 208.968 394.298 208.892 393.319 207.821C392.34 206.75 392.416 205.09 393.488 204.113L403.079 195.377Z" fill="white"/>
<path d="M474.01 173.387C475.455 173.505 476.531 174.771 476.413 176.216C476.295 177.661 475.028 178.737 473.583 178.619L460.635 177.566C459.19 177.448 458.114 176.181 458.232 174.737C458.35 173.292 459.617 172.216 461.062 172.333L474.01 173.387Z" fill="white"/>
<path d="M457.135 239.479C458.207 238.502 459.87 238.578 460.849 239.649C461.828 240.72 461.752 242.38 460.679 243.357L451.089 252.093C450.016 253.07 448.353 252.994 447.374 251.923C446.396 250.852 446.472 249.192 447.544 248.215L457.135 239.479Z" fill="white"/>
<path d="M368.727 222.37C370.16 222.588 371.145 223.927 370.926 225.36C370.707 226.793 369.368 227.778 367.935 227.559L355.092 225.605C353.659 225.386 352.674 224.048 352.893 222.615C353.112 221.182 354.451 220.197 355.885 220.415L368.727 222.37Z" fill="white"/>
<path d="M414.636 253.083C415.969 252.511 417.514 253.127 418.087 254.459C418.661 255.791 418.045 257.334 416.713 257.906L404.78 263.026C403.447 263.598 401.902 262.981 401.329 261.65C400.755 260.318 401.371 258.775 402.703 258.203L414.636 253.083Z" fill="white"/>
<path d="M362.189 174.69C363.521 174.118 365.066 174.734 365.64 176.066C366.213 177.398 365.598 178.941 364.266 179.513L352.333 184.633C351 185.205 349.455 184.589 348.881 183.257C348.308 181.925 348.923 180.382 350.256 179.81L362.189 174.69Z" fill="white"/>
<path d="M434.111 155.669C434.483 154.265 435.923 153.428 437.327 153.799C438.73 154.169 439.567 155.608 439.195 157.011L435.876 169.532C435.504 170.935 434.065 171.773 432.661 171.402C431.257 171.031 430.42 169.593 430.792 168.189L434.111 155.669Z" fill="white"/>
<path d="M429.003 79.5391C430.337 80.1055 430.959 81.6462 430.391 82.9803C429.823 84.3144 428.28 84.9367 426.945 84.3703L414.992 79.2979C413.657 78.7314 413.035 77.1908 413.604 75.8567C414.172 74.5226 415.714 73.9003 417.049 74.4667L429.003 79.5391Z" fill="white"/>
<path d="M383.155 66.5433C384.228 65.5664 385.891 65.6425 386.869 66.7133C387.848 67.7841 387.772 69.4442 386.7 70.4211L377.109 79.1569C376.037 80.1339 374.374 80.0578 373.395 78.987C372.416 77.9161 372.492 76.2561 373.565 75.2791L383.155 66.5433Z" fill="white"/>
<path d="M454.085 44.5601C455.53 44.6776 456.606 45.9442 456.488 47.389C456.37 48.8339 455.103 49.9098 453.658 49.7923L440.709 48.7387C439.264 48.6211 438.189 47.3545 438.307 45.9097C438.425 44.4649 439.692 43.3889 441.137 43.5065L454.085 44.5601Z" fill="white"/>
<path d="M437.204 110.651C438.277 109.674 439.94 109.75 440.919 110.821C441.898 111.892 441.822 113.552 440.749 114.529L431.159 123.265C430.086 124.242 428.423 124.166 427.444 123.095C426.465 122.024 426.541 120.364 427.614 119.387L437.204 110.651Z" fill="white"/>
<path d="M348.803 93.534C350.236 93.7521 351.22 95.0907 351.002 96.5237C350.783 97.9568 349.443 98.9417 348.01 98.7235L335.168 96.7686C333.734 96.5505 332.75 95.2119 332.969 93.7789C333.188 92.3458 334.527 91.3609 335.96 91.5791L348.803 93.534Z" fill="white"/>
<path d="M394.711 124.245C396.044 123.673 397.589 124.289 398.162 125.621C398.736 126.952 398.121 128.496 396.788 129.067L384.855 134.188C383.522 134.759 381.977 134.143 381.404 132.811C380.83 131.48 381.446 129.937 382.778 129.365L394.711 124.245Z" fill="white"/>
<path d="M342.264 45.8519C343.597 45.2802 345.142 45.8963 345.715 47.2281C346.289 48.5599 345.673 50.103 344.341 50.6748L332.408 55.795C331.075 56.3668 329.53 55.7507 328.957 54.4189C328.383 53.0871 328.999 51.5439 330.331 50.9722L342.264 45.8519Z" fill="white"/>
<path d="M415.409 28.6507C415.787 27.2425 417.235 26.4064 418.644 26.7833C420.052 27.1602 420.888 28.6073 420.51 30.0156L417.136 42.5785C416.758 43.9868 415.31 44.8229 413.901 44.446C412.492 44.0691 411.657 42.6219 412.035 41.2136L415.409 28.6507Z" fill="white"/>
<path d="M213.282 124.473C213.529 125.91 212.564 127.275 211.126 127.522C209.689 127.768 208.323 126.803 208.076 125.365L205.87 112.544C205.623 111.107 206.588 109.741 208.025 109.495C209.463 109.249 210.829 110.214 211.076 111.652L213.282 124.473Z" fill="white"/>
<path d="M200.079 79.9945C201.481 80.3613 202.32 81.7955 201.952 83.1978C201.584 84.6001 200.148 85.4395 198.746 85.0727L186.18 81.7865C184.777 81.4197 183.938 79.9856 184.306 78.5833C184.674 77.181 186.11 76.3415 187.512 76.7083L200.079 79.9945Z" fill="white"/>
<path d="M257.128 127.472C257.817 128.75 257.338 130.343 256.059 131.03C254.781 131.717 253.186 131.237 252.497 129.96L246.349 118.551C245.66 117.274 246.138 115.681 247.417 114.994C248.696 114.307 250.291 114.786 250.98 116.064L257.128 127.472Z" fill="white"/>
<path d="M192.386 149.268C193.789 149.635 194.627 151.069 194.259 152.471C193.891 153.874 192.456 154.713 191.053 154.346L178.487 151.06C177.085 150.693 176.246 149.259 176.614 147.857C176.982 146.454 178.417 145.615 179.82 145.982L192.386 149.268Z" fill="white"/>
<path d="M158.695 65.8818C159.293 67.2048 158.704 68.7604 157.38 69.3562C156.057 69.9521 154.499 69.3626 153.901 68.0395L148.568 56.231C147.97 54.908 148.559 53.3524 149.883 52.7566C151.206 52.1607 152.764 52.7502 153.362 54.0733L158.695 65.8818Z" fill="white"/>
<path d="M157.404 120.486C158.609 121.297 158.926 122.93 158.112 124.134C157.299 125.337 155.664 125.655 154.459 124.843L143.681 117.584C142.476 116.773 142.159 115.14 142.972 113.937C143.786 112.733 145.421 112.416 146.626 113.227L157.404 120.486Z" fill="white"/>
<path d="M195.24 34.4881C196.446 35.294 196.768 36.9238 195.961 38.1284C195.153 39.333 193.52 39.6563 192.314 38.8504L181.523 31.6391C180.317 30.8333 179.995 29.2034 180.803 27.9988C181.61 26.7942 183.243 26.471 184.449 27.2769L195.24 34.4881Z" fill="white"/>
<path d="M250.286 84.3914C251.664 83.9414 253.147 84.6936 253.599 86.0714C254.05 87.4492 253.299 88.9309 251.92 89.3809L239.574 93.4115C238.196 93.8615 236.713 93.1093 236.261 91.7315C235.81 90.3537 236.561 88.872 237.939 88.422L250.286 84.3914Z" fill="white"/>
<path d="M352.839 12.0925C352.185 13.3885 350.604 13.9106 349.307 13.2586C348.01 12.6066 347.489 11.0274 348.142 9.7313L353.979 -1.83832C354.633 -3.13438 356.214 -3.65649 357.511 -3.00447C358.808 -2.35245 359.33 -0.773211 358.676 0.522855L352.839 12.0925Z" fill="white"/>
<path d="M386.167 39.3891C385.956 40.8258 384.62 41.8198 383.183 41.6093C381.746 41.3988 380.753 40.0635 380.964 38.6268L382.848 25.8135C383.059 24.3769 384.395 23.3829 385.832 23.5934C387.269 23.8039 388.262 25.1392 388.051 26.5759L386.167 39.3891Z" fill="white"/>
<path d="M321.2 18.3162C322.108 19.4481 321.925 21.1003 320.792 22.0065C319.658 22.9126 318.003 22.7296 317.095 21.5977L308.981 11.4839C308.073 10.352 308.256 8.69983 309.389 7.79366C310.523 6.88749 312.178 7.0705 313.086 8.20242L321.2 18.3162Z" fill="white"/>
<path d="M406.432 0.740938C407.807 1.20074 408.548 2.68778 408.087 4.06233C407.625 5.43688 406.137 6.17842 404.762 5.71862L392.445 1.5999C391.07 1.14009 390.329 -0.346944 390.79 -1.72149C391.252 -3.09604 392.74 -3.83759 394.115 -3.37778L406.432 0.740938Z" fill="white"/>
<path d="M369.35 313.938C370.791 314.096 371.831 315.392 371.672 316.833C371.514 318.274 370.217 319.314 368.776 319.157L355.862 317.743C354.421 317.585 353.382 316.289 353.54 314.848C353.698 313.407 354.995 312.367 356.436 312.524L369.35 313.938Z" fill="white"/>
<path d="M321.76 314.747C322.505 313.501 324.12 313.094 325.367 313.837C326.614 314.58 327.021 316.192 326.276 317.438L319.623 328.561C318.877 329.807 317.263 330.214 316.016 329.471C314.769 328.728 314.362 327.116 315.107 325.87L321.76 314.747Z" fill="white"/>
<path d="M383.309 273.259C384.727 272.955 386.123 273.857 386.428 275.275C386.733 276.692 385.831 278.087 384.413 278.391L371.712 281.114C370.295 281.418 368.898 280.515 368.594 279.098C368.289 277.681 369.191 276.285 370.608 275.981L383.309 273.259Z" fill="white"/>
<path d="M386.263 341.393C387.008 340.147 388.623 339.74 389.87 340.483C391.117 341.226 391.524 342.838 390.778 344.084L384.125 355.207C383.38 356.453 381.766 356.86 380.519 356.117C379.272 355.374 378.865 353.762 379.61 352.516L386.263 341.393Z" fill="white"/>
<path d="M296.665 350.508C298.101 350.304 299.43 351.302 299.635 352.737C299.84 354.172 298.843 355.501 297.407 355.705L284.546 357.534C283.111 357.739 281.781 356.741 281.576 355.306C281.372 353.87 282.369 352.541 283.804 352.337L296.665 350.508Z" fill="white"/>
<path d="M349.508 366.663C350.62 365.731 352.278 365.875 353.212 366.984C354.146 368.094 354.003 369.75 352.891 370.682L342.951 379.02C341.839 379.952 340.181 379.808 339.247 378.699C338.313 377.589 338.456 375.933 339.568 375.001L349.508 366.663Z" fill="white"/>
<path d="M276.623 306.717C277.734 305.785 279.393 305.929 280.327 307.039C281.261 308.149 281.117 309.804 280.006 310.736L270.066 319.074C268.954 320.007 267.296 319.863 266.362 318.753C265.427 317.643 265.571 315.988 266.682 315.055L276.623 306.717Z" fill="white"/>
<path d="M339.936 267.832C339.886 266.381 341.023 265.164 342.474 265.115C343.925 265.065 345.142 266.202 345.192 267.653L345.633 280.596C345.683 282.047 344.546 283.264 343.095 283.313C341.643 283.363 340.427 282.226 340.377 280.775L339.936 267.832Z" fill="white"/>
<path d="M232 331.698C233.441 331.856 234.481 333.152 234.323 334.593C234.164 336.034 232.868 337.074 231.427 336.916L218.513 335.502C217.072 335.345 216.032 334.048 216.19 332.607C216.349 331.167 217.645 330.126 219.086 330.284L232 331.698Z" fill="white"/>
<path d="M184.389 332.511C185.134 331.265 186.749 330.858 187.995 331.601C189.242 332.344 189.649 333.956 188.904 335.202L182.251 346.325C181.506 347.571 179.891 347.978 178.644 347.235C177.397 346.492 176.991 344.88 177.736 343.634L184.389 332.511Z" fill="white"/>
<path d="M245.948 291.012C247.366 290.708 248.762 291.611 249.067 293.028C249.372 294.446 248.47 295.841 247.052 296.145L234.351 298.868C232.933 299.172 231.537 298.269 231.232 296.852C230.927 295.434 231.829 294.039 233.247 293.735L245.948 291.012Z" fill="white"/>
<path d="M248.898 359.157C249.643 357.911 251.257 357.504 252.504 358.247C253.751 358.99 254.158 360.602 253.413 361.848L246.76 372.971C246.015 374.217 244.4 374.624 243.153 373.881C241.906 373.138 241.499 371.526 242.245 370.28L248.898 359.157Z" fill="white"/>
<path d="M159.295 368.266C160.73 368.061 162.06 369.059 162.264 370.495C162.469 371.93 161.472 373.259 160.037 373.463L147.175 375.292C145.74 375.496 144.411 374.498 144.206 373.063C144.001 371.628 144.998 370.299 146.434 370.095L159.295 368.266Z" fill="white"/>
<path d="M212.138 384.421C213.249 383.489 214.908 383.633 215.842 384.742C216.776 385.852 216.632 387.508 215.521 388.44L205.581 396.778C204.469 397.71 202.811 397.566 201.877 396.457C200.942 395.347 201.086 393.691 202.198 392.759L212.138 384.421Z" fill="white"/>
<path d="M139.257 324.486C140.368 323.554 142.026 323.698 142.961 324.807C143.895 325.917 143.751 327.573 142.64 328.505L132.699 336.843C131.588 337.775 129.93 337.631 128.995 336.522C128.061 335.412 128.205 333.756 129.316 332.824L139.257 324.486Z" fill="white"/>
<path d="M202.574 285.582C202.525 284.131 203.661 282.914 205.113 282.865C206.564 282.815 207.781 283.952 207.83 285.403L208.272 298.346C208.321 299.797 207.185 301.014 205.733 301.063C204.282 301.113 203.065 299.976 203.016 298.525L202.574 285.582Z" fill="white"/>
</g>
</g>
<path d="M143.993 395.567C143.993 395.567 131.858 375.121 125.216 384.24C118.575 393.359 129.646 408.556 113.034 406.342C96.4225 404.128 90.6343 409.542 89.5049 419.425C103.987 420.1 146.228 419.12 146.228 419.12C146.228 419.12 148.375 396.395 143.993 395.567Z" fill="#1E9E6A" stroke="#232323" stroke-width="1.41"/>
<path d="M137.811 397.71C137.811 397.71 151.928 397.434 149.71 384.998C147.493 372.561 173.075 365.379 177.587 379.472C182.099 393.565 167.981 412.907 137.811 397.71H137.811Z" fill="#09683D" stroke="#232323" stroke-width="1.41"/>
<path d="M193.586 366.278C193.586 366.278 206.039 354.399 218.221 365.174C230.404 375.949 213.31 389.214 228.221 388.11C243.133 387.006 250.733 407.834 243.751 419.818C235.104 419.073 181.986 419.818 181.986 419.818C181.986 419.818 181.957 367.106 193.586 366.278Z" fill="#232323" stroke="#232323" stroke-width="1.41"/>
<path d="M121.063 419.12C121.063 419.12 135.734 419.12 134.905 407.452C131.028 390.87 144.316 388.11 154.281 392.255C164.246 396.401 176.493 394.358 174.434 377.611C172.375 360.864 194.522 354.293 204.022 368.715C213.522 383.136 189.71 401.369 214.898 397.487C240.086 393.606 221.822 419.801 221.822 419.801L121.063 419.12Z" fill="#21D855" stroke="#232323" stroke-width="1.41"/>
<path d="M434.567 419.801H21.5698" stroke="#232323" stroke-width="1.41"/>
<path d="M167.328 393.418C167.328 393.418 157.057 347.54 137.811 334.698" stroke="#232323" stroke-width="1.41"/>
<path d="M161.209 346.484C163.661 340.872 164.571 335.853 163.24 335.273C161.909 334.693 158.841 338.773 156.389 344.385C153.936 349.997 153.027 355.016 154.358 355.596C155.689 356.175 158.756 352.096 161.209 346.484Z" fill="#21D855" stroke="#232323" stroke-width="1.41"/>
<path d="M171.32 372.764C173.772 367.152 174.681 362.133 173.35 361.553C172.019 360.974 168.952 365.053 166.499 370.665C164.047 376.277 163.138 381.297 164.469 381.876C165.8 382.456 168.867 378.376 171.32 372.764Z" fill="#21D855" stroke="#232323" stroke-width="1.41"/>
<path d="M158.38 366.869C158.481 365.423 153.602 363.907 147.483 363.483C141.364 363.059 136.323 363.888 136.222 365.334C136.122 366.78 141 368.296 147.119 368.72C153.238 369.144 158.28 368.315 158.38 366.869Z" fill="#21D855" stroke="#232323" stroke-width="1.41"/>
<path d="M138.784 346.981C143.308 346.487 146.881 345.218 146.763 344.148C146.646 343.077 142.883 342.611 138.359 343.105C133.834 343.6 130.262 344.869 130.379 345.939C130.497 347.009 134.259 347.476 138.784 346.981Z" fill="#21D855" stroke="#232323" stroke-width="1.41"/>
<path d="M148.237 332.426C149.124 327.97 148.986 324.187 147.928 323.977C146.87 323.767 145.293 327.21 144.406 331.666C143.519 336.122 143.657 339.905 144.715 340.115C145.773 340.325 147.35 336.882 148.237 332.426Z" fill="#21D855" stroke="#232323" stroke-width="1.41"/>
<path d="M140.802 336.674C141.345 335.901 139.132 333.418 135.86 331.129C132.588 328.839 129.495 327.609 128.953 328.382C128.41 329.155 130.623 331.637 133.895 333.927C137.167 336.217 140.259 337.446 140.802 336.674Z" fill="#21D855" stroke="#232323" stroke-width="1.41"/>
<path d="M153.205 47.1094C174.654 44.3704 191.636 38.9894 191.137 35.0907C190.637 31.1919 172.844 30.2518 151.396 32.9908C129.947 35.7298 112.964 41.1108 113.464 45.0095C113.964 48.9082 131.756 49.8484 153.205 47.1094Z" fill="#232323" stroke="#232323" stroke-width="1.41"/>
<path d="M184.734 298.483C200.276 296.498 212.582 292.6 212.22 289.776C211.858 286.951 198.965 286.271 183.423 288.255C167.881 290.24 155.576 294.138 155.937 296.963C156.299 299.787 169.192 300.468 184.734 298.483Z" fill="#232323" stroke="#232323" stroke-width="1.41"/>
<path d="M286.051 274.904C288.909 275.562 291.65 276.319 294.286 277.147C303.615 263.777 359.409 219.608 354.221 208.897C348.409 196.877 312.492 182.996 307.927 198.95C307.927 198.95 303.497 204.27 291.527 206.689C281.051 208.803 249.174 214.464 237.045 241.962C264.704 243.06 286.051 274.904 286.051 274.904Z" fill="#3674D8"/>
<path d="M327.227 202.174C327.227 202.174 301.345 213.395 276.922 251.451" stroke="white" stroke-linecap="round"/>
<path d="M316.368 199.755C311.201 205.402 304.561 209.501 297.192 211.593C284.215 215.116 267.545 220.559 258.569 239.191" stroke="white" stroke-linecap="round"/>
<path fill-rule="evenodd" clip-rule="evenodd" d="M286.051 274.904C288.91 275.562 291.651 276.319 294.286 277.147C303.615 263.777 359.409 219.608 354.221 208.897C348.409 196.877 312.492 182.996 307.927 198.95C307.927 198.95 303.498 204.27 291.527 206.689C281.051 208.803 249.174 214.464 237.045 241.962C264.704 243.06 286.051 274.904 286.051 274.904Z" stroke="#232323"/>
<path d="M332.174 344.822C321.251 326.196 296.721 284.611 293.186 280.606C292.674 280.019 293.121 278.844 294.292 277.147C291.651 276.319 288.91 275.562 286.057 274.904C286.057 274.904 264.716 243.06 237.051 241.962C235.217 246.168 233.921 250.587 233.192 255.116C226.757 294.076 265.775 318.691 321.692 350.653C323.361 351.825 324.764 353.336 325.809 355.086L332.174 344.822Z" fill="#F97450" stroke="#232323"/>
<path d="M349.309 211.052C339.486 204.37 322.545 211.252 314.709 216.29C306.68 221.457 298.798 217.394 289.104 222.368C282.292 225.861 278.31 235.08 283.81 246.965C288.545 257.141 280.51 255.873 276.28 263.137C279.833 266.79 283.092 270.717 286.027 274.881C288.886 275.538 291.627 276.296 294.263 277.124C300.562 268.087 328.068 244.975 343.674 227.647C345.698 214.716 355.18 215.045 349.309 211.052Z" fill="#232323"/>
<path d="M339.78 202.473C310.751 213.36 294.739 242.443 286.051 274.904C292.521 276.9 318.233 285.784 329.986 304.334C330.44 303.698 330.992 303.137 331.621 302.672C370.762 273.354 388.68 230.629 388.68 230.629C389.809 212.602 381.915 185.344 339.78 202.473Z" fill="#3674D8"/>
<path d="M341.586 208.41C341.586 208.41 311.91 219.519 295.804 269.96" stroke="white" stroke-width="1.41" stroke-linecap="round"/>
<path d="M351.203 215.391C351.203 215.391 318.886 233.113 307.386 274.904" stroke="white" stroke-width="1.41" stroke-linecap="round"/>
<path d="M363.627 222.367C363.627 222.367 326.468 243.63 318.692 282.59" stroke="white" stroke-width="1.41" stroke-linecap="round"/>
<path d="M371.868 232.526C371.868 232.526 336.798 263.183 325.633 288.797" stroke="white" stroke-width="1.41" stroke-linecap="round"/>
<path d="M329.998 295.532C329.998 295.532 375.827 244.205 376.468 242.714" stroke="white" stroke-width="1.41" stroke-linecap="round"/>
<path d="M342.515 201.404C341.615 201.739 340.709 202.091 339.78 202.467C338.08 203.107 336.433 203.812 334.821 204.569C337.809 206.014 368.003 221.287 376.544 252.995C384.779 240.007 388.703 230.623 388.703 230.623C389.032 225.245 388.562 219.05 386.621 213.454C374.303 207.276 353.868 201.164 342.515 201.404Z" fill="#232323"/>
<path d="M325.985 378.626C334.291 362.878 337.403 353.758 337.403 353.758C337.403 353.758 335.368 350.27 332.174 344.821L325.827 355.085C328.821 360.059 329.621 367.745 325.985 378.626Z" fill="#7F0E0E" stroke="#232323" stroke-width="1.41"/>
<path d="M321.856 212.614C303.357 224.857 291.368 255.027 286.051 274.904C292.521 276.9 318.233 285.784 329.986 304.334C330.44 303.698 330.992 303.137 331.621 302.672C370.762 273.354 388.68 230.629 388.68 230.629C389.785 212.602 381.891 185.344 339.756 202.473" stroke="#232323" stroke-width="1.41" stroke-linecap="round"/>
<path d="M334.703 108.422C329.297 109.511 323.968 110.953 318.751 112.738C318.751 112.738 295.004 118.968 294.362 137.136C293.915 149.89 288.48 164.934 282.045 164.951C285.186 171.152 289.198 183.336 283.81 199.085C295.951 198.14 304.351 193.137 309.627 186.719C309.109 191.17 308.451 195.333 307.904 198.962C336.968 199.584 383.056 226.319 387.209 233.783C427.921 150.042 334.703 108.422 334.703 108.422Z" fill="#F9B01C"/>
<g opacity="0.6">
<path d="M358.821 141.34C358.821 141.34 352.415 149.966 358.821 154.669C365.227 159.373 365.227 132.702 358.821 141.34Z" fill="white"/>
<path d="M397.492 190.911C394.421 189.837 391.28 189.778 391.174 193.976C390.968 202.267 382.663 202.444 377.892 199.261C373.121 196.078 364.51 199.619 368.545 211.005C372.174 221.222 386.192 217.928 390.674 226.031C395.78 213.272 397.757 201.575 397.492 190.911Z" fill="white"/>
<path d="M350.28 184.652C350.28 184.652 340.327 198.421 327.968 190.295C315.609 182.168 319.904 193.876 314.78 190.295C309.657 186.713 314.686 170.33 320.662 173.671C326.639 177.012 333.445 182.168 339.792 176.049C346.139 169.931 354.639 178.228 350.28 184.652Z" fill="white"/>
<path d="M327.427 147.142C327.427 147.142 333.933 141.751 332.451 137.605C330.968 133.46 332.921 128.692 337.404 129.972C341.886 131.252 343.674 143.237 337.404 147.171C331.133 151.105 323.657 151.34 327.427 147.142Z" fill="white"/>
<path d="M354.469 212.614C355.057 209.378 354.592 206.343 353.457 207.564C351.027 210.165 349.033 202.062 343.633 202.062C341.169 202.062 339.48 203.859 338.375 205.802C343.863 207.828 349.304 210.159 354.469 212.614Z" fill="white"/>
<path d="M292.939 147.969C291.763 153.107 289.933 157.829 287.745 160.976C290.098 162.491 292.969 165.762 297.157 163.759C302.233 161.328 296.28 152.379 292.939 147.969Z" fill="white"/>
<path d="M305.616 190.776C305.28 186.131 294.345 188.78 291.939 181.968C290.763 178.545 288.41 178.392 286.222 179.273C286.878 185.962 286.063 192.714 283.833 199.056C293.251 198.339 300.416 195.157 305.616 190.776Z" fill="white"/>
<path d="M302.939 169.854C302.939 169.854 294.051 170.559 295.798 174.499C297.545 178.439 304.698 176.331 301.221 180.494C297.745 184.657 314.568 178.269 302.939 169.854Z" fill="white"/>
<path d="M362.027 191.763C362.027 191.763 367.716 187.23 372.91 190.295C378.104 193.36 381.298 185.679 375.445 181.956C369.592 178.234 351.557 190.788 362.027 191.763Z" fill="white"/>
</g>
<path d="M282.045 164.939C280.804 164.939 279.528 164.399 278.239 163.178C268.998 154.37 233.328 117.106 230.281 119.59C229.104 120.906 235.787 126.325 232.045 127.365C228.304 128.404 224.916 134.411 230.14 137.829C235.363 141.246 235.057 134.411 240.663 140.624C246.269 146.836 249.863 199.643 280.38 199.244C281.557 199.244 282.733 199.161 283.833 199.073C289.198 183.325 285.186 171.14 282.045 164.939Z" fill="#F97450"/>
<path fill-rule="evenodd" clip-rule="evenodd" d="M334.704 108.422C329.297 109.511 323.968 110.953 318.751 112.738C318.751 112.738 295.004 118.968 294.363 137.136C293.827 152.344 286.228 170.812 278.239 163.178C268.998 154.37 233.328 117.107 230.281 119.59C229.104 120.906 235.787 126.326 232.045 127.365C228.304 128.404 224.916 134.411 230.14 137.829C235.363 141.246 235.057 134.411 240.663 140.624C246.269 146.836 249.863 199.643 280.38 199.244C294.404 199.056 303.91 193.724 309.651 186.707C309.133 191.158 308.474 195.321 307.927 198.95C336.992 199.572 383.08 226.307 387.233 233.771C427.921 150.042 334.704 108.422 334.704 108.422Z" stroke="#232323" stroke-width="1.41"/>
<path d="M403.403 163.783C413.703 153.654 417.579 135.633 402.874 120.407C380.45 97.2005 338.327 107.635 338.327 107.635C327.033 109.432 323.704 132.567 337.403 126.214C340.686 124.693 349.992 128.809 353.227 129.32C363.503 130.935 372.509 140.753 373.668 145.691C388.28 149.179 398.944 159.026 403.403 163.783Z" fill="#F9B01C"/>
<g opacity="0.6">
<path d="M399.709 117.465C394.768 118.962 388.038 121.88 390.344 126.214C393.874 132.843 404.88 135.022 398.856 140.671C393.562 145.644 402.927 153.154 412.05 147.758C413.697 139.103 411.462 129.285 402.874 120.406C401.87 119.373 400.813 118.391 399.709 117.465V117.465Z" fill="white"/>
<path d="M371.797 119.637C371.797 119.637 365.209 124.734 373.72 129.913C382.232 135.092 373.603 139.972 378.538 140.847C383.473 141.722 382.938 112.884 371.797 119.637Z" fill="white"/>
<path d="M343.333 106.66C341.897 110.26 341.103 114.576 345.65 114.358C353.391 113.982 354.909 107.312 358.821 114.358C361.838 119.819 370.685 111.422 369.897 105.815C361.044 104.924 352.111 105.208 343.333 106.66Z" fill="white"/>
</g>
<path d="M365.327 152.221C365.327 152.221 364.497 135.779 353.286 129.737C358.168 129.737 373.527 137.089 374.362 149.625C372.18 159.267 365.327 152.221 365.327 152.221Z" fill="#232323"/>
<path d="M311.974 136.201C311.592 135.314 312.001 134.286 312.889 133.904C313.777 133.523 314.807 133.933 315.189 134.821L334.44 179.483C334.822 180.371 334.412 181.399 333.525 181.781C332.637 182.162 331.607 181.752 331.225 180.864L311.974 136.201Z" fill="white" stroke="#232323" stroke-width="1.41" stroke-linecap="round"/>
<path d="M325.78 160.06C318.003 166.519 320.103 166.965 325.227 163.789C321.627 167.658 321.174 171.587 328.503 176.049C340.685 153.254 362.732 170.007 383.632 171.663C390.82 172.25 397.997 169.091 403.403 163.783C398.944 159.026 388.279 149.179 373.668 145.691C356.503 143.894 332.35 154.593 325.78 160.06Z" fill="#F97450"/>
<path d="M338.327 107.635C338.327 107.635 380.45 97.2005 402.874 120.407C417.58 135.633 413.703 153.654 403.403 163.783C397.997 169.068 390.821 172.238 383.633 171.663C362.733 170.007 340.692 153.254 328.504 176.049C321.38 171.716 321.61 167.881 324.927 164.123C324.945 164.109 324.954 164.086 324.95 164.063C324.946 164.04 324.93 164.021 324.909 164.013C324.887 164.005 324.863 164.009 324.845 164.023C320.004 166.959 318.198 166.372 325.78 160.06C332.362 154.593 356.503 143.894 373.668 145.691C372.492 140.753 363.503 130.935 353.227 129.32" stroke="#232323" stroke-width="1.41" stroke-linecap="round"/>
<path d="M331.922 89.0971C331.922 89.0971 333.31 101.334 338.327 107.635C338.876 108.318 339.107 109.202 338.963 110.066C336.751 123.249 321.48 136.208 316.375 137.605C316.063 134.605 324.61 110.324 318.31 103.83C316.21 101.663 325.398 82.8552 331.922 89.0971Z" fill="#F97450" stroke="#232323" stroke-width="1.41"/>
<path d="M314.051 73.8828C314.051 73.8828 305.957 82.8963 307.927 98.0577C309.898 113.219 329.41 109.214 332.01 99.1675C334.61 89.1205 325.468 59.7901 314.051 73.8828Z" fill="#F97450"/>
<path d="M314.051 73.8828C314.051 73.8828 305.957 82.8963 307.927 98.0577C309.404 109.402 320.751 110.025 327.427 105.386" stroke="#232323" stroke-width="1.41" stroke-linecap="round"/>
<path d="M333.709 97.7349C333.709 97.7349 350.139 70.1366 335.333 66.3199C326.233 63.9711 320.903 68.287 321.315 61.0351C321.727 53.7832 312.939 48.1872 305.021 55.4391C297.104 62.691 300.727 87.9405 323.703 85.0397C323.009 89.0972 322.598 95.6445 326.197 97.7349C325.503 93.0373 326.609 88.052 330.068 87.8582C333.527 87.6645 329.603 96.4724 333.709 97.7349Z" fill="#232323"/>
<path d="M304.192 144.863C304.192 144.863 313.451 165.139 309.651 186.707" stroke="#232323" stroke-width="1.41" stroke-linecap="round"/>
<path d="M304.192 144.863C304.051 150.665 319.804 188.38 285.563 192.667C285.127 194.832 284.549 196.966 283.833 199.056C295.975 198.11 304.375 193.107 309.651 186.689C313.41 165.133 304.192 144.863 304.192 144.863V144.863Z" fill="#232323"/>
<path d="M326.033 60.1014C314.486 22.3094 290.368 -3.8032 272.168 1.75756C269.502 2.59365 267.068 4.04159 265.063 5.98538C267.015 4.72507 269.198 3.86479 271.486 3.45456C290.227 0.18387 310.956 29.0681 317.774 67.9699C323.262 99.2733 318.074 127.512 306.074 139.068C308.714 139.489 311.415 139.317 313.98 138.563C332.18 133.002 337.574 97.8817 326.033 60.1014Z" fill="#57B5E5"/>
<path d="M317.774 67.9521C310.957 29.0504 290.228 0.166143 271.486 3.43683C269.198 3.84706 267.015 4.70735 265.063 5.96765C252.763 17.5707 250.251 47.8935 260.116 80.1776C270.057 112.691 289.298 136.548 306.075 139.05C318.074 127.494 323.263 99.2321 317.774 67.9521Z" fill="#93D2F9"/>
<path fill-rule="evenodd" clip-rule="evenodd" d="M272.168 1.75749C273.804 1.2561 275.505 1.0008 277.215 1C294.609 0.994129 315.521 25.7269 326.039 60.119C337.58 97.8992 332.186 133.019 313.986 138.563C312.35 139.058 310.649 139.307 308.939 139.302C291.539 139.302 270.627 114.57 260.115 80.1952C248.574 42.4209 253.968 7.30062 272.168 1.75749ZM301.016 20.307C292.881 10.5302 284.428 5.13973 277.222 5.13973L277.239 5.11625C275.939 5.12249 274.647 5.32036 273.404 5.70344C266.316 7.86433 261.104 16.5372 259.116 29.4967C256.934 43.7362 258.71 61.2816 264.116 78.968C268.981 94.975 276.469 109.537 285.139 120.007C293.269 129.784 301.722 135.169 308.933 135.169C310.234 135.162 311.526 134.965 312.769 134.581C319.857 132.421 325.069 123.748 327.057 110.782C329.239 96.5722 327.469 79.0032 322.057 61.311C317.169 45.3099 309.692 30.7474 301.016 20.307Z" fill="white"/>
<path d="M277.215 1L277.215 0.295001L277.215 0.295001L277.215 1ZM272.168 1.75749L272.374 2.4319L272.375 2.43152L272.168 1.75749ZM326.039 60.119L326.713 59.913L326.713 59.9128L326.039 60.119ZM313.986 138.563L314.19 139.237L314.191 139.237L313.986 138.563ZM308.939 139.302L308.941 138.597H308.939V139.302ZM260.115 80.1952L259.441 80.4012L259.441 80.4014L260.115 80.1952ZM277.222 5.13973L276.658 4.71626L275.81 5.84473H277.222V5.13973ZM301.016 20.307L301.558 19.8564L301.558 19.8561L301.016 20.307ZM277.239 5.11625L277.803 5.53972L278.656 4.40443L277.236 4.41125L277.239 5.11625ZM273.404 5.70344L273.61 6.37781L273.612 6.37715L273.404 5.70344ZM259.116 29.4967L258.419 29.3898L258.419 29.3899L259.116 29.4967ZM264.116 78.968L264.791 78.763L264.79 78.7619L264.116 78.968ZM285.139 120.007L284.596 120.457L284.597 120.458L285.139 120.007ZM308.933 135.169V135.874L308.937 135.874L308.933 135.169ZM312.769 134.581L312.563 133.907L312.561 133.908L312.769 134.581ZM327.057 110.782L326.36 110.675L326.36 110.675L327.057 110.782ZM322.057 61.311L321.383 61.517L321.383 61.5172L322.057 61.311ZM277.215 0.295001C275.434 0.295837 273.664 0.56157 271.962 1.08345L272.375 2.43152C273.943 1.95064 275.575 1.70577 277.216 1.705L277.215 0.295001ZM326.713 59.9128C321.432 42.6433 313.534 27.7747 304.748 17.2095C295.987 6.67467 286.23 0.291958 277.215 0.295001L277.216 1.705C285.595 1.70217 294.991 7.68289 303.664 18.111C312.311 28.5087 320.128 43.2026 325.364 60.3252L326.713 59.9128ZM314.191 139.237C323.698 136.342 329.67 125.803 331.862 111.537C334.062 97.2153 332.507 78.8817 326.713 59.913L325.364 60.3249C331.111 79.1365 332.63 97.2531 330.468 111.323C328.298 125.447 322.474 135.24 313.78 137.888L314.191 139.237ZM308.937 140.007C310.716 140.013 312.487 139.753 314.19 139.237L313.781 137.888C312.212 138.363 310.581 138.602 308.941 138.597L308.937 140.007ZM259.441 80.4014C264.72 97.6622 272.615 112.526 281.402 123.09C290.163 133.623 299.921 140.007 308.939 140.007V138.597C300.557 138.597 291.159 132.615 282.486 122.188C273.839 111.792 266.023 97.1028 260.79 79.9891L259.441 80.4014ZM271.963 1.08307C262.456 3.9785 256.484 14.5168 254.292 28.7826C252.092 43.1033 253.647 61.4355 259.441 80.4012L260.79 79.9892C255.043 61.1806 253.524 43.0655 255.686 28.9967C257.856 14.873 263.68 5.07961 272.374 2.4319L271.963 1.08307ZM277.222 5.84473C284.103 5.84473 292.375 11.0251 300.474 20.758L301.558 19.8561C293.386 10.0353 284.752 4.43473 277.222 4.43473V5.84473ZM276.676 4.69277L276.658 4.71626L277.785 5.56321L277.803 5.53972L276.676 4.69277ZM273.612 6.37715C274.788 6.01448 276.012 5.82715 277.243 5.82124L277.236 4.41125C275.866 4.41783 274.505 4.62624 273.196 5.02974L273.612 6.37715ZM259.813 29.6036C260.798 23.1855 262.575 17.8716 264.952 13.9136C267.329 9.95586 270.28 7.39285 273.61 6.3778L273.199 5.02908C269.44 6.17492 266.241 9.0288 263.743 13.1876C261.246 17.3461 259.423 22.8484 258.419 29.3898L259.813 29.6036ZM264.79 78.7619C259.407 61.1489 257.65 43.7129 259.813 29.6035L258.419 29.3899C256.217 43.7595 258.014 61.4143 263.442 79.1741L264.79 78.7619ZM285.682 119.558C277.083 109.174 269.634 94.6993 264.791 78.763L263.441 79.173C268.328 95.2507 275.855 109.901 284.596 120.457L285.682 119.558ZM308.933 134.464C302.046 134.464 293.774 129.289 285.681 119.556L284.597 120.458C292.764 130.279 301.397 135.874 308.933 135.874V134.464ZM312.561 133.908C311.385 134.27 310.161 134.458 308.93 134.464L308.937 135.874C310.306 135.867 311.668 135.659 312.976 135.255L312.561 133.908ZM326.36 110.675C325.375 117.096 323.598 122.412 321.221 126.371C318.844 130.329 315.893 132.892 312.563 133.907L312.974 135.256C316.733 134.11 319.932 131.256 322.43 127.096C324.927 122.937 326.75 117.434 327.754 110.889L326.36 110.675ZM321.383 61.5172C326.772 79.1359 328.522 96.5953 326.36 110.675L327.754 110.889C329.956 96.549 328.165 78.8706 322.731 61.1048L321.383 61.5172ZM300.474 20.7576C309.078 31.1115 316.516 45.5853 321.383 61.517L322.731 61.105C317.822 45.0344 310.306 30.3833 301.558 19.8564L300.474 20.7576Z" fill="#232323"/>
<path d="M299.834 91.1217C315.843 86.2943 326.286 74.0069 323.16 63.677C320.034 53.3472 304.523 48.8866 288.514 53.714C272.505 58.5414 262.062 70.8288 265.188 81.1587C268.314 91.4886 283.826 95.9492 299.834 91.1217Z" fill="white" stroke="#232323" stroke-width="1.41401"/>
<path d="M299.695 91.0188C306.962 88.8275 310.294 78.5964 307.138 68.1669C303.982 57.7374 295.533 51.059 288.266 53.2503C280.999 55.4416 277.667 65.6728 280.823 76.1023C283.979 86.5318 292.429 93.2101 299.695 91.0188Z" fill="#232323"/>
<path d="M150.241 33.8162L154.363 33.3131L186.749 297.75L182.626 298.253L150.241 33.8162Z" fill="white" stroke="#232323" stroke-width="1.41" stroke-linecap="round"/>
<path d="M303.792 66.3843C306.658 66.3843 308.98 64.0655 308.98 61.2052C308.98 58.3449 306.658 56.0261 303.792 56.0261C300.927 56.0261 298.604 58.3449 298.604 61.2052C298.604 64.0655 300.927 66.3843 303.792 66.3843Z" fill="white"/>
<path d="M168.422 219.742C199.383 219.742 224.481 194.688 224.481 163.783C224.481 132.877 199.383 107.823 168.422 107.823C137.462 107.823 112.364 132.877 112.364 163.783C112.364 194.688 137.462 219.742 168.422 219.742Z" fill="#93D2F9"/>
<path d="M224.116 157.459C223.145 148.903 222.257 144.452 217.975 137.605C212.757 138.475 197.481 123.307 199.739 144.863C200.751 154.388 184.128 150.089 184.545 159.355C184.934 168.058 216.486 179.232 204.628 206.484C218.925 194.422 226.238 176.025 224.116 157.459Z" fill="#1E9E6A" stroke="#232323" stroke-width="1.41"/>
<path d="M152.81 171.005C152.81 171.005 165.334 167.776 167.363 175.403C169.392 183.031 176.939 181.539 176.387 184.863C175.834 188.187 164.228 195.538 155.757 185.791C147.287 176.043 148.01 171.669 152.81 171.005Z" fill="#1E9E6A" stroke="#232323" stroke-width="1.41"/>
<path d="M174.91 115.351C174.91 115.351 162.069 111.082 156.134 117.347C150.199 123.613 162.605 123.055 161.858 125.092C161.111 127.13 154.616 143.472 164.605 140.312C174.593 137.153 188.769 121.546 174.91 115.351Z" fill="#1E9E6A" stroke="#232323" stroke-width="1.41"/>
<path d="M142.463 187.153C149.734 189.12 144.334 177.447 139.352 173.648C134.369 169.848 135.616 162.544 141.428 156.46C147.24 150.377 147.446 126.049 134.993 127.042C127.758 127.629 121.081 135.527 116.758 142.062C109.086 160.252 111.59 181.132 123.346 197C127.205 197.071 127.846 190.477 127.522 186.149C127.105 180.623 135.199 185.186 142.463 187.153Z" fill="#1E9E6A" stroke="#232323" stroke-width="1.41"/>
<g opacity="0.65">
<path fill-rule="evenodd" clip-rule="evenodd" d="M175.666 209.936C206.295 205.345 227.877 180.023 223.869 153.379C219.861 126.735 191.781 108.858 161.151 113.449C130.521 118.041 108.94 143.362 112.948 170.006C116.956 196.65 145.036 214.528 175.666 209.936Z" stroke="white" stroke-width="0.71"/>
<path fill-rule="evenodd" clip-rule="evenodd" d="M172.49 194.385C203.234 190.578 226.335 172.822 224.086 154.726C221.838 136.629 195.092 125.044 164.348 128.851C133.604 132.657 110.503 150.413 112.752 168.51C115 186.606 141.746 198.191 172.49 194.385Z" stroke="white" stroke-width="0.71"/>
<path fill-rule="evenodd" clip-rule="evenodd" d="M170.344 177.267C201.079 173.592 225.133 163.446 224.072 154.603C223.012 145.761 197.237 141.572 166.503 145.247C135.768 148.922 111.714 159.069 112.774 167.911C113.835 176.753 139.61 180.942 170.344 177.267Z" stroke="white" stroke-width="0.71"/>
<path d="M112.758 167.87L224.075 154.669" stroke="white" stroke-width="0.71"/>
<path fill-rule="evenodd" clip-rule="evenodd" d="M174.754 219.347C200.448 216.429 218.442 189.178 214.943 158.48C211.445 127.782 187.78 105.262 162.086 108.18C136.392 111.098 118.398 138.349 121.897 169.047C125.395 199.745 149.06 222.265 174.754 219.347Z" stroke="white" stroke-width="0.71"/>
<path fill-rule="evenodd" clip-rule="evenodd" d="M174.833 219.368C192.218 217.394 203.475 190.9 199.976 160.192C196.476 129.484 179.546 106.191 162.16 108.166C144.775 110.14 133.518 136.634 137.017 167.341C140.517 198.049 157.447 221.342 174.833 219.368Z" stroke="white" stroke-width="0.71"/>
<path fill-rule="evenodd" clip-rule="evenodd" d="M175.149 219.32C183.641 218.355 187.691 192.698 184.194 162.013C180.698 131.328 170.978 107.235 162.486 108.199C153.993 109.164 149.943 134.821 153.44 165.506C156.937 196.191 166.656 220.284 175.149 219.32Z" stroke="white" stroke-width="0.71"/>
<path d="M162.481 108.205L175.146 219.326" stroke="white" stroke-width="0.71"/>
</g>
<path fill-rule="evenodd" clip-rule="evenodd" d="M168.422 219.742C199.382 219.742 224.481 194.688 224.481 163.783C224.481 132.877 199.382 107.823 168.422 107.823C137.462 107.823 112.364 132.877 112.364 163.783C112.364 194.688 137.462 219.742 168.422 219.742Z" stroke="#232323" stroke-width="1.41"/>
<path d="M184.558 188.797C184.558 188.797 190.44 189.972 191.028 191.763C191.616 193.553 176.811 198.333 177.175 193.671C177.54 189.009 174.993 188.592 184.558 188.797Z" fill="#1E9E6A" stroke="#232323" stroke-width="1.41"/>
<path d="M202.163 128.105C202.163 128.105 192.645 128.404 190.657 124.804C188.669 121.205 196.91 124.575 196.881 121.692C196.851 118.809 207.687 128.492 202.163 128.105Z" fill="#1E9E6A" stroke="#232323" stroke-width="1.41"/>
<path opacity="0.28" d="M224.116 157.459C222.264 141.081 213.267 126.354 199.53 117.21C185.793 108.067 168.715 105.44 152.857 110.031C154.104 109.925 155.352 109.855 156.622 109.831C184.689 109.422 208.732 129.798 212.883 157.511C217.033 185.223 200.011 211.728 173.051 219.531C173.64 219.484 174.187 219.443 174.757 219.378C189.528 217.701 203.027 210.235 212.283 198.623C221.54 187.011 225.796 172.203 224.116 157.459Z" fill="#232323" stroke="#232323" stroke-width="1.41"/>
<path d="M241.627 233.771C241.627 233.771 276.586 239.273 288.033 267.986C288.033 267.986 319.309 272.561 333.268 301.416" stroke="#232323" stroke-width="1.41" stroke-linecap="round"/>
<path d="M373.668 145.691C373.668 145.691 389.674 149.02 403.403 163.782" stroke="#232323" stroke-width="1.41"/>
<path d="M283.834 199.055C283.834 199.055 290.628 181.375 282.069 164.922" stroke="#232323" stroke-width="1.41"/>
<path d="M233.857 138.703C233.857 138.703 240.039 136.261 234.639 128.903" stroke="#232323" stroke-width="1.41" stroke-linecap="round"/>
<path d="M329.997 304.334C318.233 285.785 292.55 276.9 286.062 274.904C272.698 324.816 276.651 382.766 277.351 394.657C277.542 396.801 277.29 398.962 276.609 401.004C280.103 402.959 283.828 404.468 287.698 405.496C302.55 379.613 323.297 326.888 329.062 306.26C329.258 305.568 329.574 304.916 329.997 304.334Z" fill="#F97450" stroke="#232323" stroke-width="1.41"/>
<path d="M276.598 401.004C272.78 411.38 256.01 402.878 256.01 402.878C256.01 402.878 269.569 413.999 276.768 419.801C279.574 418.233 283.38 412.983 287.68 405.496C283.811 404.468 280.085 402.959 276.592 401.004L276.598 401.004Z" fill="#7F0E0E" stroke="#232323" stroke-width="1.41"/>
<path d="M172.987 219.608C172.987 219.608 177.105 222.649 178.028 226.619C177.481 222.144 176.852 219.103 176.852 219.103L172.987 219.608Z" fill="#232323" stroke="#232323" stroke-width="1.41" stroke-linecap="round"/>
<path opacity="0.61" d="M264.116 29.2793C262.68 36.7778 262.086 46.5488 263.822 58.6391" stroke="white" stroke-width="4.24"/>
<path opacity="0.61" d="M271.386 10.3657C271.386 10.3657 269.227 13.1255 267.062 18.7509" stroke="white" stroke-width="4.24"/>
<path d="M393.796 58.6509H412.349C421.289 58.6509 428.537 65.8858 428.537 74.8105C428.539 79.0974 426.834 83.2091 423.798 86.2409C420.762 89.2727 416.643 90.9761 412.349 90.9761H393.796V58.6802L393.796 58.6509Z" fill="#232323" stroke="#232323" stroke-width="1.41"/>
<path d="M394.456 90.9702C403.397 90.9702 410.644 83.7353 410.644 74.8105C410.644 65.8858 403.397 58.6509 394.456 58.6509C385.516 58.6509 378.268 65.8858 378.268 74.8105C378.268 83.7353 385.516 90.9702 394.456 90.9702Z" fill="white" stroke="#232323" stroke-width="1.41"/>
<path d="M70.8467 258.879H52.2938C43.3534 258.879 36.1057 251.644 36.1057 242.719C36.1057 233.795 43.3534 226.56 52.2938 226.56H70.8467L70.8467 258.855L70.8467 258.879Z" fill="#232323" stroke="#232323" stroke-width="1.41"/>
<path d="M70.1872 258.873C79.1276 258.873 86.3753 251.638 86.3753 242.714C86.3753 233.789 79.1276 226.554 70.1872 226.554C61.2467 226.554 53.999 233.789 53.999 242.714C53.999 251.638 61.2467 258.873 70.1872 258.873Z" fill="white" stroke="#232323" stroke-width="1.41"/>
<path d="M368.51 277.153C360.157 287.669 350.21 298.063 339.78 304.34" stroke="#232323" stroke-width="1.41" stroke-linecap="round"/>
<path d="M373.98 269.959C372.95 271.363 371.891 272.784 370.803 274.205" stroke="#232323" stroke-width="1.41" stroke-linecap="round"/>
<path d="M391.797 241.962C391.797 241.962 386.968 251.046 379.156 262.584" stroke="#232323" stroke-width="1.41" stroke-linecap="round"/>
<path d="M193.316 111.698L197.899 109.755" stroke="#232323" stroke-width="1.41" stroke-linecap="round"/>
<path d="M205.857 106.378L249.604 87.8286" stroke="#232323" stroke-width="1.41" stroke-linecap="round" stroke-dasharray="14.69"/>
<path d="M253.58 86.1433L258.168 84.1938" stroke="#232323" stroke-width="1.41" stroke-linecap="round"/>
<path d="M224.545 251.451C224.417 253.221 224.395 254.998 224.481 256.771" stroke="#232323" stroke-width="1.41" stroke-linecap="round"/>
<path d="M244.398 219.102C236.887 223.856 231 230.775 227.516 238.944C226.679 240.952 226.008 243.026 225.51 245.144" stroke="#232323" stroke-width="1.41" stroke-linecap="round"/>
<path d="M100.322 165.785C100.322 165.785 81.1579 165.961 76.9344 171.269C72.7109 176.578 110.081 174.704 110.081 174.704" stroke="#232323" stroke-width="1.41" stroke-linecap="round"/>
<path d="M399.868 332.032H418.832V350.963H399.868V332.032Z" fill="white"/>
<path d="M227.463 186.513C227.463 186.513 241.91 184.164 244.398 188.756C246.886 193.348 217.41 197.042 217.41 197.042" stroke="#232323" stroke-width="1.41" stroke-linecap="round"/>
<path fill-rule="evenodd" clip-rule="evenodd" d="M391.797 323.976H410.762V342.907H391.797V323.976Z" stroke="#232323" stroke-width="1.41" stroke-linecap="round"/>
</svg>
