<svg width="20" height="20" viewBox="0 0 20 20" fill="none" xmlns="http://www.w3.org/2000/svg">
<path d="M10 1.875C8.39303 1.875 6.82214 2.35152 5.486 3.24431C4.14985 4.1371 3.10844 5.40605 2.49348 6.8907C1.87852 8.37535 1.71762 10.009 2.03112 11.5851C2.34463 13.1612 3.11846 14.6089 4.25476 15.7452C5.39106 16.8815 6.8388 17.6554 8.41489 17.9689C9.99099 18.2824 11.6247 18.1215 13.1093 17.5065C14.594 16.8916 15.8629 15.8502 16.7557 14.514C17.6485 13.1779 18.125 11.607 18.125 10C18.1227 7.84581 17.266 5.78051 15.7427 4.25727C14.2195 2.73403 12.1542 1.87727 10 1.875ZM10.625 16.8461V11.875H12.5C12.6658 11.875 12.8247 11.8092 12.9419 11.6919C13.0592 11.5747 13.125 11.4158 13.125 11.25C13.125 11.0842 13.0592 10.9253 12.9419 10.8081C12.8247 10.6908 12.6658 10.625 12.5 10.625H10.625V8.75C10.625 8.41848 10.7567 8.10054 10.9911 7.86612C11.2255 7.6317 11.5435 7.5 11.875 7.5H13.125C13.2908 7.5 13.4497 7.43415 13.5669 7.31694C13.6842 7.19973 13.75 7.04076 13.75 6.875C13.75 6.70924 13.6842 6.55027 13.5669 6.43306C13.4497 6.31585 13.2908 6.25 13.125 6.25H11.875C11.212 6.25 10.5761 6.51339 10.1072 6.98223C9.6384 7.45107 9.375 8.08696 9.375 8.75V10.625H7.5C7.33424 10.625 7.17527 10.6908 7.05806 10.8081C6.94085 10.9253 6.875 11.0842 6.875 11.25C6.875 11.4158 6.94085 11.5747 7.05806 11.6919C7.17527 11.8092 7.33424 11.875 7.5 11.875H9.375V16.8461C7.61312 16.6853 5.98107 15.8514 4.81831 14.5179C3.65556 13.1845 3.05162 11.4541 3.13212 9.68674C3.21263 7.91936 3.97137 6.25106 5.25053 5.02883C6.52969 3.80661 8.2308 3.12456 10 3.12456C11.7692 3.12456 13.4703 3.80661 14.7495 5.02883C16.0286 6.25106 16.7874 7.91936 16.8679 9.68674C16.9484 11.4541 16.3444 13.1845 15.1817 14.5179C14.0189 15.8514 12.3869 16.6853 10.625 16.8461Z" fill="white"/>
</svg>
