<svg width="20" height="20" viewBox="0 0 20 20" fill="none" xmlns="http://www.w3.org/2000/svg">
<path d="M18 9.99958C18.0001 11.8833 17.3355 13.7066 16.1233 15.1484C14.911 16.5902 13.2289 17.5579 11.3731 17.8813C9.5174 18.2046 7.60709 17.8627 5.97868 16.9158C4.35026 15.969 3.10819 14.4779 2.47124 12.7051C1.83428 10.9324 1.8433 8.99176 2.4967 7.22502C3.1501 5.45829 4.40598 3.97878 6.04312 3.04709C7.68027 2.1154 9.59367 1.79129 11.4463 2.13184C13.299 2.4724 14.972 3.45577 16.1708 4.90876C16.2303 4.97573 16.2758 5.054 16.3043 5.1389C16.3329 5.22381 16.3441 5.31361 16.3372 5.40293C16.3303 5.49225 16.3055 5.57927 16.2642 5.65879C16.2229 5.7383 16.1661 5.80868 16.097 5.86572C16.0279 5.92275 15.948 5.96528 15.8621 5.99076C15.7762 6.01624 15.6861 6.02415 15.5971 6.01401C15.5081 6.00387 15.422 5.97589 15.344 5.93175C15.2661 5.88761 15.1978 5.82821 15.1433 5.75709C14.1628 4.56819 12.8007 3.75571 11.2887 3.45786C9.77665 3.16001 8.20814 3.39519 6.84997 4.12339C5.4918 4.85159 4.42785 6.02783 3.83913 7.45202C3.25041 8.87621 3.17328 10.4604 3.62086 11.935C4.06843 13.4097 5.01307 14.6837 6.29407 15.5404C7.57508 16.3971 9.11332 16.7835 10.6471 16.634C12.1809 16.4844 13.6155 15.8081 14.7069 14.7201C15.7983 13.6321 16.479 12.1996 16.6333 10.6662H10C9.82319 10.6662 9.65362 10.596 9.5286 10.471C9.40357 10.346 9.33333 10.1764 9.33333 9.99958C9.33333 9.82277 9.40357 9.6532 9.5286 9.52818C9.65362 9.40316 9.82319 9.33292 10 9.33292H17.3333C17.5101 9.33292 17.6797 9.40316 17.8047 9.52818C17.9298 9.6532 18 9.82277 18 9.99958Z" fill="white"/>
</svg>
