<svg width="20" height="20" viewBox="0 0 20 20" fill="none" xmlns="http://www.w3.org/2000/svg">
<path d="M19.3272 5.38576C19.2799 5.27155 19.1999 5.17393 19.0971 5.10523C18.9943 5.03653 18.8735 4.99985 18.7499 4.99983H16.3725C16.0401 4.43434 15.5671 3.96448 14.9994 3.63592C14.4317 3.30737 13.7886 3.1313 13.1327 3.12483C12.644 3.11842 12.159 3.20981 11.7062 3.39362C11.2534 3.57743 10.8419 3.84995 10.496 4.19514C10.1399 4.54453 9.85734 4.96158 9.66482 5.42177C9.47229 5.88196 9.37371 6.37599 9.37488 6.87483V7.35061C6.22956 6.52092 3.65691 3.96233 3.62956 3.93498C3.54571 3.85039 3.43944 3.79152 3.32325 3.7653C3.20706 3.73908 3.0858 3.74661 2.97375 3.787C2.8617 3.82739 2.76352 3.89895 2.69078 3.99327C2.61804 4.08758 2.57376 4.20072 2.56316 4.31936C2.22644 8.05295 3.31082 10.5514 4.28191 11.9897C4.75541 12.7007 5.33143 13.3378 5.99128 13.8803C4.80144 15.2498 2.928 15.9694 2.90769 15.9772C2.8195 16.0102 2.73991 16.0627 2.67487 16.1308C2.60984 16.199 2.56104 16.2809 2.53211 16.3705C2.50319 16.4601 2.49489 16.5551 2.50785 16.6484C2.5208 16.7417 2.55466 16.8308 2.60691 16.9092C2.6655 16.9967 2.89988 17.3037 3.47253 17.5905C4.18035 17.9451 5.1155 18.1248 6.24988 18.1248C11.771 18.1248 16.3843 13.8733 16.8553 8.40295L19.1921 6.06701C19.2794 5.97956 19.3389 5.86815 19.363 5.74689C19.387 5.62563 19.3746 5.49995 19.3272 5.38576ZM15.8116 7.68342C15.7044 7.79084 15.64 7.93357 15.6303 8.08498C15.3124 13.0139 11.1936 16.8748 6.24988 16.8748C5.42488 16.8748 4.84363 16.7655 4.43581 16.6342C5.33503 16.1459 6.58894 15.3061 7.39519 14.0967C7.44251 14.0256 7.47475 13.9455 7.48992 13.8615C7.5051 13.7774 7.50288 13.6911 7.4834 13.608C7.46393 13.5248 7.42761 13.4465 7.3767 13.3779C7.32578 13.3093 7.26135 13.2519 7.18738 13.2092C7.15066 13.1881 3.75691 11.1514 3.74988 5.7092C4.99988 6.72483 7.28503 8.30061 9.89597 8.73967C9.98545 8.75476 10.0771 8.75018 10.1647 8.72625C10.2522 8.70232 10.3335 8.65962 10.4029 8.60111C10.4722 8.5426 10.528 8.46968 10.5664 8.38743C10.6047 8.30518 10.6247 8.21557 10.6249 8.12483V6.87483C10.6242 6.54143 10.6902 6.21126 10.819 5.90374C10.9478 5.59623 11.1368 5.31758 11.3749 5.0842C11.6031 4.85553 11.8749 4.67493 12.1741 4.55309C12.4734 4.43125 12.794 4.37063 13.1171 4.37483C14.1061 4.38733 15.0303 4.99045 15.4171 5.87561C15.4658 5.98689 15.5459 6.08156 15.6476 6.14802C15.7494 6.21448 15.8682 6.24986 15.9897 6.24983H17.2397L15.8116 7.68342Z" fill="white"/>
</svg>
