<svg width="24" height="24" viewBox="0 0 24 24" fill="none" xmlns="http://www.w3.org/2000/svg">
<path d="M21.9834 10.4127L8.47594 2.15051C8.19267 1.97782 7.86865 1.88338 7.53696 1.87683C7.20526 1.87028 6.87777 1.95186 6.58791 2.11323C6.29804 2.27461 6.05618 2.51 5.88702 2.79539C5.71785 3.08078 5.62744 3.40594 5.625 3.73769V20.2621C5.62744 20.5938 5.71785 20.919 5.88702 21.2044C6.05618 21.4898 6.29804 21.7252 6.58791 21.8865C6.87777 22.0479 7.20526 22.1295 7.53696 22.1229C7.86865 22.1164 8.19267 22.0219 8.47594 21.8493L21.9834 13.5871C22.2558 13.4213 22.4809 13.1882 22.6371 12.9102C22.7934 12.6322 22.8754 12.3187 22.8754 11.9999C22.8754 11.681 22.7934 11.3675 22.6371 11.0896C22.4809 10.8116 22.2558 10.5785 21.9834 10.4127ZM7.875 19.5796V4.42019L20.265 11.9999L7.875 19.5796Z" fill="#0B0A0A"/>
</svg>
