<svg width="203" height="48" viewBox="0 0 203 48" fill="none" xmlns="http://www.w3.org/2000/svg">
<path d="M26.0999 8.28V8.16C26.0999 7.6 26.2799 7.1 26.6399 6.66C26.9999 6.22 27.4599 6 28.0199 6C28.5799 6 29.0799 6.18 29.5199 6.54C29.9599 6.9 30.1999 7.38 30.2399 7.98C30.2799 8.58 30.0999 9.08 29.6999 9.48C29.2999 9.88 28.8199 10.08 28.2599 10.08L27.8999 10.2L28.0199 10.38L27.8999 11.04L27.6599 12.96C27.7399 13.04 27.7799 13.12 27.7799 13.2L27.5399 14.4C27.4599 14.56 27.3799 14.68 27.2999 14.76L27.1799 15.24C27.0199 15.88 26.8799 16.4 26.7599 16.8C26.6399 17.2 26.5399 17.52 26.4599 17.76V18C26.3799 18.4 26.3199 18.72 26.2799 18.96C26.2399 19.2 26.0999 19.6 25.8599 20.16C25.6999 20.48 25.6999 21 25.8599 21.72L25.9799 21.84C25.9799 22.08 26.0799 22.36 26.2799 22.68C26.4799 23 26.5799 23.28 26.5799 23.52C26.6599 25.12 26.5399 26.48 26.2199 27.6L26.4599 28.32C27.4199 28.8 27.6999 29.32 27.2999 29.88L27.8999 30.12C28.8599 30.6 29.5399 31.02 29.9399 31.38C30.3399 31.74 30.7399 32.12 31.1399 32.52C31.4599 32.6 31.6999 32.72 31.8599 32.88L32.2199 33C33.8999 34.12 35.5799 35.48 37.2599 37.08L37.7399 37.44V37.56L37.6199 37.8L37.9799 38.04H38.0999C38.3399 38.2 38.4999 38.28 38.5799 38.28H38.6999C38.7799 38.28 38.8599 38.24 38.9399 38.16L39.1799 38.04C39.3399 37.88 39.4999 37.76 39.6599 37.68H40.1399C40.2199 37.68 40.2199 37.72 40.1399 37.8L39.6599 38.04L39.0599 38.76H39.8999L40.7399 38.88C40.9799 38.8 41.1799 38.72 41.3399 38.64L41.9399 38.28C42.1799 38.2 42.4199 38.28 42.6599 38.52H42.7799C42.8599 38.6 42.8199 38.72 42.6599 38.88L41.2199 40.2C40.8199 40.52 40.4599 40.72 40.1399 40.8L38.5799 41.88C38.4999 41.96 38.4199 41.96 38.3399 41.88L37.9799 41.4L37.7399 40.92L37.4399 40.5L37.0799 40.02L36.7799 39.66L36.5399 39.36L36.0599 39C35.8999 39 35.7399 38.96 35.5799 38.88L34.0199 37.68C33.7799 37.68 33.4999 37.56 33.1799 37.32C31.9799 36.28 31.1799 35.64 30.7799 35.4L30.0599 34.92L28.6199 34.68C28.1399 34.6 27.4999 34.36 26.6999 33.96L25.7399 33.48C25.0999 33.16 24.6599 33 24.4199 33L23.9399 32.76C23.6199 32.68 23.3799 32.6 23.2199 32.52L22.9799 32.28C22.8199 32.28 22.6599 32.32 22.4999 32.4L20.0999 33.6L17.0999 34.92C16.2999 35.56 15.5399 36.08 14.8199 36.48L13.4999 37.08L11.4599 38.52C11.2999 38.68 11.1399 38.68 10.9799 38.52L10.7399 38.76C10.4999 38.84 10.3399 38.88 10.2599 38.88L9.77992 39.12V39.36H9.53992L9.29992 39.72C9.13992 40.04 8.97992 40.22 8.81992 40.26C8.65992 40.3 8.55992 40.36 8.51992 40.44C8.47992 40.52 8.43992 40.58 8.39992 40.62L8.15992 40.86L7.79992 41.1L7.25992 41.04L6.53992 41.16L6.05992 41.28C5.65992 41.36 5.33992 41.3 5.09992 41.1C4.85992 40.9 4.65992 40.6 4.49992 40.2C4.33992 39.96 4.41992 39.76 4.73992 39.6L4.85992 39.48C4.93992 39.4 5.05992 39.36 5.21992 39.36H5.93992L6.89992 39L7.37992 38.88C7.37992 38.72 7.41992 38.6 7.49992 38.52C7.57992 38.44 7.69992 38.4 7.85992 38.4V38.28C7.77992 38.12 7.73992 37.96 7.73992 37.8C7.65992 37.64 7.63992 37.52 7.67992 37.44C7.71992 37.36 7.75992 37.32 7.79992 37.32H7.85992L7.97992 37.68C8.05992 38.08 8.17992 38.2 8.33992 38.04L8.45992 37.8C8.53992 37.64 8.65992 37.56 8.81992 37.56L9.05992 37.8L9.29992 37.56L9.17992 37.44C9.17992 37.36 9.21992 37.32 9.29992 37.32L9.77992 36.84C10.1799 36.36 10.6599 35.92 11.2199 35.52C12.3399 34.64 13.5399 33.96 14.8199 33.48C15.2199 33.08 15.6599 32.88 16.1399 32.88C16.4599 32.32 16.9399 31.72 17.5799 31.08C18.1399 30.68 18.5399 30.4 18.7799 30.24C18.9399 29.92 19.1399 29.76 19.3799 29.76H19.4999L19.7399 29.52C19.8999 29.44 20.0199 29.36 20.0999 29.28V28.68C20.0999 28.28 20.1399 27.96 20.2199 27.72C20.2999 27.48 20.4999 27.36 20.8199 27.36L21.2999 26.88C21.1399 26.56 21.0599 26.2 21.0599 25.8H20.9399C20.7799 25.56 20.6999 25.32 20.6999 25.08C20.4599 24.68 20.2999 24.36 20.2199 24.12H19.8599C19.7799 24.36 19.5799 24.52 19.2599 24.6L19.1399 24.84C18.8199 25.4 18.5399 25.82 18.2999 26.1C18.0599 26.38 17.6199 26.72 16.9799 27.12C16.5799 27.52 16.2999 27.96 16.1399 28.44C16.0599 28.68 16.0599 28.92 16.1399 29.16L16.0199 29.4H16.1399C16.1399 29.56 16.1799 29.64 16.2599 29.64H16.3799C16.5399 29.72 16.6199 29.82 16.6199 29.94C16.6199 30.06 16.4999 30.1 16.2599 30.06C16.0199 30.02 15.8399 29.94 15.7199 29.82C15.5999 29.7 15.4999 29.64 15.4199 29.64L15.0599 30C14.8999 30.24 14.7399 30.34 14.5799 30.3C14.4199 30.26 14.3799 30.2 14.4599 30.12L14.5799 30C14.6599 29.84 14.6599 29.76 14.5799 29.76L13.6199 30C13.5399 30.08 13.4399 30.08 13.3199 30C13.1999 29.92 13.2199 29.84 13.3799 29.76L13.9799 29.52C13.9799 29.44 13.9399 29.4 13.8599 29.4C13.5399 29.56 13.2199 29.6 12.8999 29.52L12.2999 29.4L12.1799 29.28C12.1799 29.2 12.2199 29.16 12.2999 29.16C12.6199 29.24 13.0199 29.2 13.4999 29.04L14.3399 28.68L15.2999 27.6L15.4199 27.36C15.7399 26.72 16.0799 26.14 16.4399 25.62C16.7999 25.1 17.1799 24.68 17.5799 24.36L17.6999 23.88C17.8599 23.56 18.0199 23.28 18.1799 23.04C18.3399 22.8 18.5399 22.48 18.7799 22.08L19.1399 21.6C19.4599 21.12 19.8199 20.88 20.2199 20.88L20.5799 20.52C20.6599 20.44 20.6999 20.32 20.6999 20.16L20.9399 19.92L20.8199 19.8C20.3399 19.4 20.0999 19.04 20.0999 18.72C20.0199 18.16 20.1999 17.68 20.6399 17.28C21.0799 16.88 21.5199 16.7 21.9599 16.74C22.3999 16.78 22.7399 16.92 22.9799 17.16L23.2199 17.4C23.2999 17.4 23.3399 17.44 23.3399 17.52L23.8199 17.76V18.12C23.9799 18.28 24.0599 18.4 24.0599 18.48C24.2199 18.24 24.4599 17.96 24.7799 17.64L25.3799 15.72C25.3799 15.4 25.4599 15.08 25.6199 14.76L25.8599 14.4V14.16L26.2199 12.72H26.4599L26.8199 11.28C26.8999 11.04 26.8999 10.76 26.8199 10.44L26.3399 9.24L26.0999 8.28Z" fill="white"/>
<path d="M62.336 32.288C61.168 32.288 60.176 32.104 59.36 31.736C58.544 31.368 57.92 30.832 57.488 30.128C57.056 29.424 56.84 28.544 56.84 27.488V26.696H59.504V27.56C59.504 28.344 59.744 28.952 60.224 29.384C60.704 29.8 61.408 30.008 62.336 30.008C63.248 30.008 63.944 29.704 64.424 29.096C64.904 28.488 65.144 27.616 65.144 26.48V15.536H67.832V26.432C67.832 27.728 67.616 28.816 67.184 29.696C66.752 30.56 66.128 31.208 65.312 31.64C64.496 32.072 63.504 32.288 62.336 32.288ZM76.6949 32.288C75.3829 32.288 74.2709 32.056 73.3589 31.592C72.4629 31.112 71.7829 30.384 71.3189 29.408C70.8709 28.432 70.6469 27.192 70.6469 25.688C70.6469 24.168 70.8709 22.928 71.3189 21.968C71.7829 20.992 72.4629 20.272 73.3589 19.808C74.2709 19.328 75.3829 19.088 76.6949 19.088C78.0389 19.088 79.1589 19.328 80.0549 19.808C80.9509 20.272 81.6229 20.992 82.0709 21.968C82.5349 22.928 82.7669 24.168 82.7669 25.688C82.7669 27.192 82.5349 28.432 82.0709 29.408C81.6229 30.384 80.9509 31.112 80.0549 31.592C79.1589 32.056 78.0389 32.288 76.6949 32.288ZM76.6949 30.224C77.4949 30.224 78.1509 30.072 78.6629 29.768C79.1749 29.448 79.5509 28.968 79.7909 28.328C80.0469 27.688 80.1749 26.88 80.1749 25.904V25.472C80.1749 24.496 80.0469 23.688 79.7909 23.048C79.5509 22.408 79.1749 21.936 78.6629 21.632C78.1509 21.312 77.4949 21.152 76.6949 21.152C75.9109 21.152 75.2629 21.312 74.7509 21.632C74.2389 21.936 73.8549 22.408 73.5989 23.048C73.3589 23.688 73.2389 24.496 73.2389 25.472V25.904C73.2389 26.88 73.3589 27.688 73.5989 28.328C73.8549 28.968 74.2389 29.448 74.7509 29.768C75.2629 30.072 75.9109 30.224 76.6949 30.224ZM85.3111 32V19.376H87.3751L87.5911 21.416H87.7351C87.8791 21.016 88.0631 20.64 88.2871 20.288C88.5271 19.936 88.8311 19.648 89.1991 19.424C89.5831 19.2 90.0471 19.088 90.5911 19.088C90.8471 19.088 91.0711 19.112 91.2631 19.16C91.4711 19.208 91.6311 19.248 91.7431 19.28V21.632H90.9031C90.3911 21.632 89.9351 21.712 89.5351 21.872C89.1511 22.032 88.8231 22.272 88.5511 22.592C88.2951 22.896 88.1031 23.272 87.9751 23.72C87.8631 24.168 87.8071 24.672 87.8071 25.232V32H85.3111ZM97.7176 32.288C96.6936 32.288 95.8056 32.056 95.0536 31.592C94.3016 31.128 93.7176 30.408 93.3016 29.432C92.9016 28.456 92.7016 27.192 92.7016 25.64C92.7016 24.12 92.9096 22.88 93.3256 21.92C93.7416 20.96 94.3176 20.248 95.0536 19.784C95.7896 19.32 96.6376 19.088 97.5976 19.088C98.1576 19.088 98.6776 19.152 99.1576 19.28C99.6376 19.408 100.062 19.608 100.43 19.88C100.814 20.152 101.134 20.496 101.39 20.912H101.558V14.648H104.054V32H102.014L101.774 30.272H101.606C101.19 30.944 100.638 31.448 99.9496 31.784C99.2776 32.12 98.5336 32.288 97.7176 32.288ZM98.4136 30.128C99.1496 30.128 99.7416 29.968 100.19 29.648C100.654 29.312 100.998 28.832 101.222 28.208C101.446 27.568 101.558 26.792 101.558 25.88V25.544C101.558 24.776 101.486 24.12 101.342 23.576C101.198 23.032 100.99 22.592 100.718 22.256C100.446 21.904 100.118 21.648 99.7336 21.488C99.3496 21.328 98.9176 21.248 98.4376 21.248C97.7016 21.248 97.1016 21.4 96.6376 21.704C96.1736 21.992 95.8296 22.448 95.6056 23.072C95.3976 23.696 95.2936 24.504 95.2936 25.496V25.928C95.2936 26.92 95.4056 27.728 95.6296 28.352C95.8536 28.96 96.1896 29.408 96.6376 29.696C97.1016 29.984 97.6936 30.128 98.4136 30.128ZM110.464 32.288C110.064 32.288 109.632 32.24 109.168 32.144C108.704 32.048 108.264 31.872 107.848 31.616C107.448 31.36 107.12 31.008 106.864 30.56C106.608 30.096 106.48 29.496 106.48 28.76C106.48 27.896 106.68 27.184 107.08 26.624C107.48 26.064 108.04 25.624 108.76 25.304C109.48 24.984 110.336 24.76 111.328 24.632C112.336 24.504 113.432 24.44 114.616 24.44V23.192C114.616 22.776 114.544 22.408 114.4 22.088C114.272 21.768 114.024 21.52 113.656 21.344C113.304 21.168 112.792 21.08 112.12 21.08C111.448 21.08 110.92 21.168 110.536 21.344C110.168 21.504 109.904 21.712 109.744 21.968C109.6 22.208 109.528 22.472 109.528 22.76V23.12H107.128C107.112 23.04 107.104 22.96 107.104 22.88C107.104 22.8 107.104 22.704 107.104 22.592C107.104 21.84 107.312 21.208 107.728 20.696C108.16 20.168 108.76 19.768 109.528 19.496C110.296 19.224 111.184 19.088 112.192 19.088C113.28 19.088 114.184 19.248 114.904 19.568C115.64 19.872 116.192 20.312 116.56 20.888C116.928 21.464 117.112 22.16 117.112 22.976V29.384C117.112 29.688 117.184 29.904 117.328 30.032C117.488 30.16 117.672 30.224 117.88 30.224H118.744V31.904C118.552 31.984 118.312 32.064 118.024 32.144C117.736 32.224 117.4 32.264 117.016 32.264C116.584 32.264 116.216 32.184 115.912 32.024C115.624 31.88 115.384 31.672 115.192 31.4C115.016 31.112 114.896 30.792 114.832 30.44H114.688C114.4 30.808 114.048 31.136 113.632 31.424C113.232 31.696 112.768 31.904 112.24 32.048C111.712 32.208 111.12 32.288 110.464 32.288ZM111.16 30.224C111.656 30.224 112.112 30.152 112.528 30.008C112.96 29.848 113.328 29.632 113.632 29.36C113.936 29.072 114.176 28.736 114.352 28.352C114.528 27.952 114.616 27.52 114.616 27.056V26.216C113.512 26.216 112.544 26.28 111.712 26.408C110.88 26.536 110.232 26.776 109.768 27.128C109.304 27.464 109.072 27.936 109.072 28.544C109.072 28.912 109.152 29.224 109.312 29.48C109.472 29.72 109.712 29.904 110.032 30.032C110.352 30.16 110.728 30.224 111.16 30.224ZM120.467 32V19.376H122.531L122.747 21.176H122.915C123.219 20.712 123.579 20.328 123.995 20.024C124.411 19.72 124.867 19.488 125.363 19.328C125.875 19.168 126.435 19.088 127.043 19.088C127.843 19.088 128.547 19.232 129.155 19.52C129.763 19.792 130.235 20.24 130.571 20.864C130.923 21.488 131.099 22.328 131.099 23.384V32H128.603V23.768C128.603 23.288 128.539 22.888 128.411 22.568C128.299 22.248 128.131 21.992 127.907 21.8C127.683 21.608 127.419 21.472 127.115 21.392C126.811 21.312 126.475 21.272 126.107 21.272C125.531 21.272 125.003 21.416 124.523 21.704C124.059 21.976 123.683 22.36 123.395 22.856C123.107 23.352 122.963 23.936 122.963 24.608V32H120.467ZM140.657 32.288C139.761 32.288 138.897 32.192 138.065 32C137.233 31.824 136.497 31.536 135.857 31.136C135.217 30.72 134.713 30.2 134.345 29.576C133.977 28.936 133.793 28.176 133.793 27.296C133.793 27.2 133.793 27.112 133.793 27.032C133.809 26.936 133.817 26.856 133.817 26.792H136.505C136.505 26.84 136.497 26.912 136.481 27.008C136.481 27.104 136.481 27.184 136.481 27.248C136.481 27.84 136.657 28.344 137.009 28.76C137.361 29.176 137.849 29.488 138.473 29.696C139.113 29.904 139.841 30.008 140.657 30.008C141.105 30.008 141.537 29.984 141.953 29.936C142.369 29.872 142.745 29.784 143.081 29.672C143.433 29.544 143.737 29.392 143.993 29.216C144.249 29.024 144.449 28.8 144.593 28.544C144.737 28.288 144.809 27.992 144.809 27.656C144.809 27.144 144.657 26.72 144.353 26.384C144.065 26.048 143.665 25.768 143.153 25.544C142.657 25.32 142.089 25.12 141.449 24.944C140.825 24.768 140.177 24.592 139.505 24.416C138.833 24.24 138.177 24.032 137.537 23.792C136.913 23.552 136.345 23.264 135.833 22.928C135.337 22.576 134.937 22.144 134.633 21.632C134.345 21.104 134.201 20.464 134.201 19.712C134.201 18.992 134.353 18.352 134.657 17.792C134.961 17.232 135.401 16.768 135.977 16.4C136.553 16.016 137.241 15.728 138.041 15.536C138.841 15.344 139.745 15.248 140.753 15.248C141.617 15.248 142.433 15.344 143.201 15.536C143.969 15.712 144.641 15.992 145.217 16.376C145.793 16.76 146.241 17.248 146.561 17.84C146.897 18.432 147.065 19.136 147.065 19.952V20.24H144.401V19.928C144.401 19.416 144.249 18.984 143.945 18.632C143.641 18.28 143.217 18.008 142.673 17.816C142.129 17.624 141.497 17.528 140.777 17.528C139.929 17.528 139.217 17.616 138.641 17.792C138.065 17.952 137.625 18.184 137.321 18.488C137.033 18.776 136.889 19.128 136.889 19.544C136.889 20.008 137.041 20.392 137.345 20.696C137.649 20.984 138.049 21.232 138.545 21.44C139.057 21.648 139.625 21.84 140.249 22.016C140.889 22.176 141.537 22.352 142.193 22.544C142.865 22.72 143.513 22.928 144.137 23.168C144.777 23.408 145.345 23.704 145.841 24.056C146.353 24.408 146.761 24.848 147.065 25.376C147.369 25.888 147.521 26.52 147.521 27.272C147.521 28.456 147.225 29.424 146.633 30.176C146.041 30.912 145.225 31.448 144.185 31.784C143.161 32.12 141.985 32.288 140.657 32.288ZM150.303 32V14.648H152.799V20.888H152.967C153.271 20.504 153.615 20.184 153.999 19.928C154.383 19.656 154.815 19.448 155.295 19.304C155.775 19.16 156.303 19.088 156.879 19.088C157.679 19.088 158.383 19.232 158.991 19.52C159.599 19.792 160.071 20.24 160.407 20.864C160.759 21.488 160.935 22.328 160.935 23.384V32H158.439V23.768C158.439 23.288 158.375 22.888 158.247 22.568C158.135 22.248 157.967 21.992 157.743 21.8C157.519 21.608 157.255 21.472 156.951 21.392C156.647 21.312 156.311 21.272 155.943 21.272C155.367 21.272 154.839 21.408 154.359 21.68C153.895 21.952 153.519 22.336 153.231 22.832C152.943 23.328 152.799 23.92 152.799 24.608V32H150.303ZM169.437 32.288C168.125 32.288 167.013 32.056 166.101 31.592C165.205 31.112 164.525 30.384 164.061 29.408C163.613 28.432 163.389 27.192 163.389 25.688C163.389 24.168 163.613 22.928 164.061 21.968C164.525 20.992 165.205 20.272 166.101 19.808C167.013 19.328 168.125 19.088 169.437 19.088C170.781 19.088 171.901 19.328 172.797 19.808C173.693 20.272 174.365 20.992 174.813 21.968C175.277 22.928 175.509 24.168 175.509 25.688C175.509 27.192 175.277 28.432 174.813 29.408C174.365 30.384 173.693 31.112 172.797 31.592C171.901 32.056 170.781 32.288 169.437 32.288ZM169.437 30.224C170.237 30.224 170.893 30.072 171.405 29.768C171.917 29.448 172.293 28.968 172.533 28.328C172.789 27.688 172.917 26.88 172.917 25.904V25.472C172.917 24.496 172.789 23.688 172.533 23.048C172.293 22.408 171.917 21.936 171.405 21.632C170.893 21.312 170.237 21.152 169.437 21.152C168.653 21.152 168.005 21.312 167.493 21.632C166.981 21.936 166.597 22.408 166.341 23.048C166.101 23.688 165.981 24.496 165.981 25.472V25.904C165.981 26.88 166.101 27.688 166.341 28.328C166.597 28.968 166.981 29.448 167.493 29.768C168.005 30.072 168.653 30.224 169.437 30.224ZM183.285 32.288C181.989 32.288 180.901 32.056 180.021 31.592C179.157 31.112 178.501 30.384 178.053 29.408C177.605 28.432 177.381 27.192 177.381 25.688C177.381 24.168 177.605 22.928 178.053 21.968C178.501 20.992 179.165 20.272 180.045 19.808C180.925 19.328 182.021 19.088 183.333 19.088C184.533 19.088 185.533 19.32 186.333 19.784C187.149 20.232 187.765 20.92 188.181 21.848C188.597 22.776 188.805 23.944 188.805 25.352V26.312H179.949C179.981 27.208 180.117 27.96 180.357 28.568C180.597 29.16 180.957 29.6 181.437 29.888C181.933 30.16 182.557 30.296 183.309 30.296C183.773 30.296 184.189 30.24 184.557 30.128C184.925 30 185.237 29.824 185.493 29.6C185.749 29.36 185.949 29.08 186.093 28.76C186.237 28.424 186.309 28.048 186.309 27.632H188.757C188.757 28.384 188.629 29.048 188.373 29.624C188.117 30.2 187.741 30.688 187.245 31.088C186.765 31.472 186.189 31.768 185.517 31.976C184.845 32.184 184.101 32.288 183.285 32.288ZM179.997 24.488H186.189C186.189 23.864 186.117 23.344 185.973 22.928C185.845 22.496 185.653 22.144 185.397 21.872C185.141 21.6 184.837 21.408 184.485 21.296C184.133 21.168 183.733 21.104 183.285 21.104C182.613 21.104 182.037 21.224 181.557 21.464C181.093 21.704 180.733 22.08 180.477 22.592C180.221 23.088 180.061 23.72 179.997 24.488ZM195.998 32.288C195.118 32.288 194.342 32.192 193.67 32C192.998 31.808 192.438 31.544 191.99 31.208C191.542 30.872 191.198 30.472 190.958 30.008C190.734 29.528 190.622 29 190.622 28.424C190.622 28.344 190.622 28.272 190.622 28.208C190.638 28.144 190.646 28.088 190.646 28.04H193.118C193.118 28.088 193.118 28.136 193.118 28.184C193.118 28.216 193.118 28.256 193.118 28.304C193.118 28.8 193.254 29.2 193.526 29.504C193.798 29.792 194.158 30 194.606 30.128C195.07 30.24 195.574 30.296 196.118 30.296C196.598 30.296 197.038 30.24 197.438 30.128C197.854 30 198.19 29.816 198.446 29.576C198.718 29.336 198.854 29.032 198.854 28.664C198.854 28.184 198.686 27.816 198.35 27.56C198.014 27.304 197.574 27.104 197.03 26.96C196.486 26.8 195.918 26.632 195.326 26.456C194.798 26.312 194.27 26.16 193.742 26C193.23 25.824 192.766 25.6 192.35 25.328C191.934 25.056 191.598 24.712 191.342 24.296C191.086 23.88 190.958 23.36 190.958 22.736C190.958 22.144 191.086 21.624 191.342 21.176C191.598 20.728 191.95 20.352 192.398 20.048C192.862 19.744 193.406 19.512 194.03 19.352C194.67 19.192 195.366 19.112 196.118 19.112C196.902 19.112 197.598 19.2 198.206 19.376C198.814 19.536 199.326 19.768 199.742 20.072C200.174 20.376 200.502 20.744 200.726 21.176C200.95 21.592 201.062 22.04 201.062 22.52C201.062 22.616 201.054 22.72 201.038 22.832C201.038 22.928 201.038 22.992 201.038 23.024H198.59V22.808C198.59 22.488 198.502 22.2 198.326 21.944C198.15 21.688 197.87 21.48 197.486 21.32C197.118 21.16 196.622 21.08 195.998 21.08C195.582 21.08 195.214 21.12 194.894 21.2C194.574 21.264 194.31 21.36 194.102 21.488C193.894 21.616 193.734 21.768 193.622 21.944C193.526 22.12 193.478 22.32 193.478 22.544C193.478 22.912 193.606 23.2 193.862 23.408C194.134 23.6 194.486 23.768 194.918 23.912C195.35 24.04 195.814 24.184 196.31 24.344C196.886 24.504 197.47 24.672 198.062 24.848C198.654 25.008 199.198 25.216 199.694 25.472C200.206 25.728 200.614 26.08 200.918 26.528C201.238 26.976 201.398 27.576 201.398 28.328C201.398 29.016 201.262 29.616 200.99 30.128C200.718 30.64 200.334 31.056 199.838 31.376C199.358 31.68 198.79 31.904 198.134 32.048C197.478 32.208 196.766 32.288 195.998 32.288Z" fill="white"/>
</svg>
