<svg width="500" height="500" viewBox="0 0 500 500" fill="none" xmlns="http://www.w3.org/2000/svg">
<path d="M431.8 261.49C435.91 234.49 432.97 206.69 425.8 180.49C419.36 156.98 411.24 132.84 392.34 116.33C369.44 96.33 340.85 93.72 311.83 97.11C254.4 103.8 238 79.2 195.51 80.69C153.02 82.18 115.75 100.07 103.82 136.6C91.89 173.13 110.53 211.15 101.58 232.76C92.63 254.37 67.29 276 82.2 307.31C97.11 338.62 129.91 363.22 206 369.18C282.09 375.14 348.38 378.13 391.62 338.62C415 317.21 427.42 290.23 431.8 261.49Z" fill="#97EDAA"/>
<path opacity="0.7" d="M431.8 261.49C435.91 234.49 432.97 206.69 425.8 180.49C419.36 156.98 411.24 132.84 392.34 116.33C369.44 96.33 340.85 93.72 311.83 97.11C254.4 103.8 238 79.2 195.51 80.69C153.02 82.18 115.75 100.07 103.82 136.6C91.89 173.13 110.53 211.15 101.58 232.76C92.63 254.37 67.29 276 82.2 307.31C97.11 338.62 129.91 363.22 206 369.18C282.09 375.14 348.38 378.13 391.62 338.62C415 317.21 427.42 290.23 431.8 261.49Z" fill="white"/>
<path d="M394.05 350L394.12 341.8L292.07 317L114.37 376.46V385C114.362 385.411 114.501 385.811 114.76 386.13C115.071 386.495 115.475 386.768 115.93 386.92L215.83 428.15C216.647 428.469 217.5 428.687 218.37 428.8C220.311 429.077 222.285 429.026 224.21 428.65C225.091 428.486 225.95 428.221 226.77 427.86L392.86 352C393.205 351.879 393.5 351.647 393.7 351.34C393.973 350.949 394.097 350.474 394.05 350Z" fill="white"/>
<mask id="mask0_299543_136" style="mask-type:luminance" maskUnits="userSpaceOnUse" x="114" y="317" width="281" height="112">
<path d="M394.05 350L394.12 341.8L292.07 317L114.37 376.46V385C114.362 385.411 114.501 385.811 114.76 386.13C115.071 386.495 115.475 386.768 115.93 386.92L215.83 428.15C216.647 428.469 217.5 428.687 218.37 428.8C220.311 429.077 222.285 429.026 224.21 428.65C225.091 428.486 225.95 428.221 226.77 427.86L392.86 352C393.205 351.879 393.5 351.647 393.7 351.34C393.973 350.949 394.097 350.474 394.05 350Z" fill="white"/>
</mask>
<g mask="url(#mask0_299543_136)">
<path opacity="0.2" d="M393.7 351.36C393.97 350.972 394.094 350.501 394.05 350.03L394.12 341.83L292.07 317L223.31 340V428.76C223.61 428.76 223.92 428.68 224.21 428.62C225.091 428.456 225.95 428.191 226.77 427.83L392.86 352C393.202 351.884 393.497 351.659 393.7 351.36Z" fill="#0B0B0B"/>
<path opacity="0.2" d="M220.56 429.13V415.36H217.08V428.7C218.21 429.028 219.384 429.174 220.56 429.13Z" fill="#0B0B0B"/>
</g>
<path d="M394.05 350L394.12 341.8L292.07 317L114.37 376.46V385C114.362 385.411 114.501 385.811 114.76 386.13C115.071 386.495 115.475 386.768 115.93 386.92L215.83 428.15C216.647 428.469 217.5 428.687 218.37 428.8C220.311 429.077 222.285 429.026 224.21 428.65C225.091 428.486 225.95 428.221 226.77 427.86L392.86 352C393.205 351.879 393.5 351.647 393.7 351.34C393.973 350.949 394.097 350.474 394.05 350Z" stroke="#263238" stroke-miterlimit="10"/>
<path d="M341.84 331.61L328.77 328.3C328.577 328.25 328.379 328.216 328.18 328.2C327.97 328.2 327.75 328.2 327.54 328.2C327.339 328.206 327.139 328.223 326.94 328.25C326.774 328.276 326.61 328.316 326.45 328.37C326.339 328.404 326.239 328.466 326.16 328.55C326.144 328.579 326.136 328.612 326.136 328.645C326.136 328.678 326.144 328.711 326.16 328.74C326.207 328.825 326.281 328.892 326.37 328.93C326.508 329.005 326.656 329.059 326.81 329.09L339.88 332.43C340.081 332.475 340.285 332.508 340.49 332.53H341.14C341.344 332.521 341.548 332.501 341.75 332.47C341.917 332.447 342.081 332.406 342.24 332.35C342.346 332.312 342.441 332.25 342.52 332.17C342.539 332.14 342.548 332.105 342.548 332.07C342.548 332.035 342.539 332 342.52 331.97C342.467 331.884 342.391 331.815 342.3 331.77C342.156 331.701 342.005 331.648 341.85 331.61" fill="white"/>
<path d="M380.13 342.9L358.08 337.28H354.47C354.07 337.28 353.68 337.28 353.29 337.28C352.9 337.28 352.51 337.23 352.14 337.18C351.77 337.13 351.39 337.08 351.03 337.02C350.67 336.96 350.34 336.88 350.03 336.8L311.58 326.93L310.8 326.69C310.56 326.6 310.35 326.51 310.16 326.42C309.992 326.333 309.832 326.232 309.68 326.12C309.565 326.032 309.464 325.928 309.38 325.81L308.61 324.69L288.87 319.69L138.54 371.5L233.42 407.83L380.13 342.9Z" fill="#97EDAA" stroke="white" stroke-width="3" stroke-miterlimit="10"/>
<path d="M394.41 341.13C394.163 340.827 393.848 340.587 393.49 340.43C392.945 340.164 392.371 339.963 391.78 339.83L295.49 315.83C294.884 315.685 294.27 315.581 293.65 315.52C292.985 315.462 292.317 315.438 291.65 315.45C291.001 315.458 290.353 315.508 289.71 315.6C289.153 315.675 288.605 315.798 288.07 315.97L116.67 374.11C116.038 374.311 115.435 374.597 114.88 374.96C114.504 375.178 114.203 375.506 114.02 375.9C113.956 376.05 113.933 376.215 113.954 376.376C113.975 376.538 114.039 376.692 114.14 376.82C114.445 377.189 114.847 377.466 115.3 377.62L215.84 418.33C216.657 418.652 217.51 418.874 218.38 418.99C220.321 419.267 222.295 419.216 224.22 418.84C225.101 418.676 225.96 418.411 226.78 418.05L393.65 342.49C393.997 342.362 394.295 342.128 394.5 341.82C394.549 341.708 394.566 341.584 394.55 341.463C394.534 341.341 394.486 341.226 394.41 341.13ZM233.41 407.83L138.54 371.5L288.86 319.61L308.6 324.61L309.37 325.73C309.454 325.848 309.555 325.952 309.67 326.04C309.822 326.152 309.982 326.253 310.15 326.34C310.34 326.43 310.55 326.52 310.79 326.61L311.57 326.85L350 336.76C350.32 336.84 350.66 336.92 351 336.98C351.34 337.04 351.73 337.1 352.11 337.14C352.49 337.18 352.87 337.22 353.26 337.24C353.65 337.26 354.04 337.24 354.44 337.24H358.05L380.1 342.86L233.41 407.83ZM326.15 328.52C326.229 328.436 326.329 328.374 326.44 328.34C326.6 328.286 326.764 328.246 326.93 328.22C327.129 328.193 327.329 328.176 327.53 328.17C327.74 328.17 327.96 328.17 328.17 328.17C328.369 328.186 328.567 328.22 328.76 328.27L341.83 331.58C341.985 331.618 342.136 331.671 342.28 331.74C342.371 331.785 342.447 331.854 342.5 331.94C342.519 331.97 342.528 332.005 342.528 332.04C342.528 332.075 342.519 332.11 342.5 332.14C342.421 332.22 342.326 332.282 342.22 332.32C342.061 332.376 341.897 332.417 341.73 332.44C341.528 332.471 341.324 332.491 341.12 332.5H340.47C340.265 332.478 340.061 332.445 339.86 332.4L326.79 329.06C326.636 329.029 326.488 328.975 326.35 328.9C326.261 328.862 326.187 328.795 326.14 328.71C326.127 328.679 326.122 328.646 326.126 328.612C326.129 328.579 326.141 328.548 326.16 328.52H326.15ZM180.67 391.66C180.436 391.848 180.172 391.997 179.89 392.1C179.524 392.237 179.146 392.337 178.76 392.4C178.348 392.478 177.93 392.522 177.51 392.53C177.102 392.541 176.695 392.521 176.29 392.47C175.948 392.42 175.613 392.332 175.29 392.21C175.046 392.122 174.824 391.982 174.64 391.8C174.581 391.738 174.536 391.664 174.508 391.583C174.48 391.502 174.471 391.415 174.48 391.33C174.529 391.136 174.646 390.966 174.81 390.85C175.042 390.658 175.306 390.509 175.59 390.41C175.956 390.273 176.334 390.173 176.72 390.11C177.13 390.039 177.544 389.999 177.96 389.99C178.364 389.979 178.769 389.999 179.17 390.05C179.511 390.098 179.846 390.181 180.17 390.3C180.414 390.382 180.637 390.519 180.82 390.7C180.884 390.759 180.933 390.832 180.963 390.914C180.992 390.996 181.002 391.084 180.99 391.17C180.947 391.367 180.833 391.542 180.67 391.66Z" fill="#263238"/>
<path d="M180.16 390.3C179.836 390.182 179.501 390.098 179.16 390.05C178.759 390 178.354 389.979 177.95 389.99C177.534 389.999 177.12 390.039 176.71 390.11C176.324 390.173 175.946 390.274 175.58 390.41C175.296 390.509 175.032 390.658 174.8 390.85C174.636 390.966 174.519 391.136 174.47 391.33C174.461 391.415 174.471 391.502 174.498 391.583C174.526 391.664 174.571 391.738 174.63 391.8C174.814 391.982 175.036 392.122 175.28 392.21C175.603 392.333 175.938 392.42 176.28 392.47C176.685 392.521 177.092 392.541 177.5 392.53C177.92 392.522 178.338 392.478 178.75 392.4C179.136 392.337 179.514 392.237 179.88 392.1C180.162 391.997 180.426 391.848 180.66 391.66C180.82 391.54 180.93 391.366 180.97 391.17C180.982 391.084 180.972 390.996 180.943 390.914C180.913 390.832 180.864 390.759 180.8 390.7C180.617 390.519 180.394 390.382 180.15 390.3" fill="white"/>
<path d="M146.79 346.94L149.65 351.78" stroke="#263238" stroke-miterlimit="10"/>
<path d="M104.77 275.87L143.56 341.47" stroke="#263238" stroke-miterlimit="10"/>
<path d="M179.6 332.92L181.23 336.82" stroke="#263238" stroke-miterlimit="10"/>
<path d="M168.49 306.34L177.78 328.56" stroke="#263238" stroke-miterlimit="10"/>
<path d="M362.12 272.19L341.68 322.41" stroke="#263238" stroke-miterlimit="10"/>
<path d="M367.17 259.8L364.64 265.99" stroke="#263238" stroke-miterlimit="10"/>
<path d="M378.51 321.38L374.05 326.29" stroke="#263238" stroke-miterlimit="10"/>
<path d="M407.29 289.72L382.97 316.47" stroke="#263238" stroke-miterlimit="10"/>
<path d="M161.84 339.59L178.46 371.72" stroke="#263238" stroke-miterlimit="10"/>
<path d="M365.74 319.64L347.45 344.57" stroke="#263238" stroke-miterlimit="10"/>
<path d="M248.83 319.64L253.26 341.8" stroke="#263238" stroke-miterlimit="10"/>
<path d="M168.48 119.75C174.489 119.75 179.36 114.879 179.36 108.87C179.36 102.861 174.489 97.99 168.48 97.99C162.471 97.99 157.6 102.861 157.6 108.87C157.6 114.879 162.471 119.75 168.48 119.75Z" fill="white" stroke="white" stroke-width="0.5" stroke-miterlimit="10"/>
<path d="M172.09 108.13H165C164.334 108.13 163.696 108.394 163.225 108.865C162.754 109.336 162.49 109.974 162.49 110.64V116.64C164.224 117.991 166.363 118.717 168.561 118.7C170.758 118.684 172.886 117.926 174.6 116.55V110.69C174.607 110.356 174.547 110.024 174.423 109.714C174.3 109.404 174.117 109.121 173.883 108.883C173.649 108.644 173.37 108.455 173.062 108.326C172.754 108.196 172.424 108.13 172.09 108.13Z" fill="#97EDAA"/>
<path d="M168.42 107.04C170.414 107.04 172.03 105.424 172.03 103.43C172.03 101.436 170.414 99.8199 168.42 99.8199C166.426 99.8199 164.81 101.436 164.81 103.43C164.81 105.424 166.426 107.04 168.42 107.04Z" fill="#97EDAA"/>
<path d="M199.131 307.039C201.318 301.442 198.554 295.132 192.957 292.946C187.36 290.759 181.05 293.523 178.863 299.12C176.677 304.717 179.441 311.027 185.038 313.214C190.635 315.4 196.945 312.636 199.131 307.039Z" fill="white" stroke="white" stroke-width="0.5" stroke-miterlimit="10"/>
<path d="M192.61 302.35H185.51C184.847 302.35 184.211 302.613 183.742 303.082C183.273 303.551 183.01 304.187 183.01 304.85V310.8C184.742 312.15 186.88 312.875 189.076 312.859C191.272 312.843 193.398 312.086 195.11 310.71V304.85C195.11 304.187 194.847 303.551 194.378 303.082C193.909 302.613 193.273 302.35 192.61 302.35Z" fill="#97EDAA"/>
<path d="M188.94 301.25C189.654 301.25 190.352 301.038 190.946 300.642C191.539 300.245 192.002 299.681 192.275 299.021C192.548 298.362 192.62 297.636 192.481 296.936C192.341 296.235 191.998 295.592 191.493 295.087C190.988 294.582 190.345 294.239 189.644 294.099C188.944 293.96 188.218 294.032 187.559 294.305C186.899 294.578 186.335 295.041 185.938 295.634C185.542 296.228 185.33 296.926 185.33 297.64C185.33 298.114 185.423 298.583 185.605 299.021C185.786 299.459 186.052 299.857 186.387 300.193C186.723 300.528 187.121 300.794 187.559 300.975C187.997 301.157 188.466 301.25 188.94 301.25Z" fill="#97EDAA"/>
<path d="M331.09 273.506C373.528 231.068 373.528 162.262 331.09 119.823C288.652 77.3852 219.846 77.3852 177.407 119.824C134.969 162.262 134.969 231.068 177.407 273.506C219.846 315.944 288.652 315.944 331.09 273.506Z" fill="white"/>
<mask id="mask1_299543_136" style="mask-type:luminance" maskUnits="userSpaceOnUse" x="145" y="87" width="218" height="219">
<path d="M331.09 273.506C373.528 231.068 373.528 162.262 331.09 119.823C288.652 77.3852 219.846 77.3852 177.407 119.824C134.969 162.262 134.969 231.068 177.407 273.506C219.846 315.944 288.652 315.944 331.09 273.506Z" fill="white"/>
</mask>
<g mask="url(#mask1_299543_136)">
<path opacity="0.18" d="M331.09 273.506C373.528 231.068 373.528 162.262 331.09 119.823C288.652 77.3852 219.846 77.3852 177.407 119.824C134.969 162.262 134.969 231.068 177.407 273.506C219.846 315.944 288.652 315.944 331.09 273.506Z" fill="#0B0B0B"/>
<path opacity="0.86" d="M254.25 243.09C230.858 243.088 208.091 235.541 189.33 221.57C170.569 207.6 156.815 187.95 150.11 165.54C145.274 181.76 144.294 198.885 147.247 215.55C150.2 232.216 157.005 247.961 167.12 261.531C177.235 275.102 190.379 286.122 205.507 293.714C220.634 301.305 237.325 305.259 254.25 305.259C271.175 305.259 287.866 301.305 302.993 293.714C318.121 286.122 331.265 275.102 341.38 261.531C351.495 247.961 358.3 232.216 361.253 215.55C364.206 198.885 363.226 181.76 358.39 165.54C351.684 187.949 337.929 207.598 319.168 221.568C300.407 235.539 277.641 243.086 254.25 243.09Z" fill="white"/>
<path d="M250.34 146.36L260.66 151L263.49 155.64L268.14 157.45L268.65 162.35L266.85 165.19L263.24 165.96L255.5 162.86V161.86L259.88 160.06L258.33 154.64L251.33 152.06L248.24 147.94L250.34 146.36ZM315.34 265.51L307.09 262.16L297 258.55H289L281.55 257L273.29 258.81L268.65 259.06H265.81L260.4 262.16L255.24 264.22L248.24 259.84L250.04 252.62L245.66 250.81H240.5L239.73 248.49L240.24 243.85L238.44 241.27L234.83 241.78L233.83 244.36L229.45 244.62L225.58 240L224 233.79L227.87 226.57L235.35 227.08L237.41 228.89H240.51L244.38 226.57L247.73 227.57L252.37 235.57L254.18 235.32L253.66 229.38L252.12 226.29L252.63 221.39L262.17 217.26L263.46 207.72L267.59 204.37L270.94 198.44L273.52 197.92L279.45 194.05L279.71 191.99L275.58 192.25L274.81 190.18H272L267.62 191.18L269.68 187.83L278.68 185.25L280.74 182.93L284.35 188.6L286.68 190.93L290.29 189.93L288.74 186.58L283.32 182.71L277.13 175.71L270.68 171.32L264.49 170.32L261.4 167.23L257.27 166.23L256.76 167.23L256.24 174.71L257.24 177.29L255 185.56L249.84 181.43L250.62 177.82L245.2 175.24L242.88 172.41L244.17 165.96L251.65 160.54L252.17 154.35L249.33 154.61L247.52 152.29L246.75 148.42L244.94 148.16L243.94 152.29L241.11 152.81L239.82 143.81L237.75 142.52L234.14 140.97L230 143L235.15 147.91L236.15 152.29L226.87 145.29L220.42 138.29L219.91 131.29L213.2 129.23L208 132.69C206.75 133.449 205.458 134.137 204.13 134.75C202.094 135.235 200.025 135.57 197.94 135.75L196.94 140.14L191.01 140.4L191.53 143.23L201.07 144.78L205.97 150.2V159.2L203.13 167.2L203.65 175.71L196.43 188.35L194.88 207.17L197.2 218.01L200.55 226.26L204.42 226.78L203.13 222.65L201.07 219.55L199.78 213.88L202.1 213.36L205.71 222.65L208.3 231V237.71L213.2 243.64L222 250L235.41 253.61L239.54 257.48L242.63 261.6L247.27 264.44L252.95 265.99L258.62 265.73C258.62 265.73 258.36 268.31 258.36 269.6C258.36 270.89 254.75 275.27 254.75 275.27L251.92 280.43L253.98 286.1L259.65 288.43L267.65 296.68L271.26 298.23V302.09L271.71 303.9C291.773 300.655 310.518 291.828 325.8 278.43L325.94 276.56L332.94 263.92L329.59 261.6L315.34 265.51ZM342.17 163.64L339.33 158.74L335.72 153.06L334.72 145.33L339.36 146.1L339.62 143.52L336.26 143.26L339.1 141.97L342.2 140.17V137.59L339.1 133.46L338.44 127.91C323.444 109.565 302.867 96.6184 279.839 91.0391C256.81 85.4598 232.59 87.5528 210.86 96.9999L216.81 101.21L213.2 105.86L208.3 106.86L207.78 113.86L205.72 114.63L203.14 117.47L203.4 122.11L207.78 122.63L206 127H210.38L217.86 117.46L218.64 113.34L225.86 112.82L227.66 109.72L235.14 108.95L235.92 104.57L241.33 104.31C241.33 104.31 245.2 102.25 245.98 102.25C247.469 102.571 248.933 102.999 250.36 103.53L254.23 106.63H259.64L264.29 103.79L270.22 104.31C271.074 104.865 272.047 105.208 273.06 105.31C274.35 105.31 278.21 103.5 278.21 103.5L285.69 108.15L288.79 110.47V114.34L292.66 114.85L293.95 112.53L297.3 114.08L297.04 116.14L289.3 118.21L293.69 123.88L302.97 129.04L306.84 134.2L312.52 134.71L313.81 132.13L315.87 131.62L309.16 126.46L305 126L308.35 125L305.25 120.62L309.64 120.36L315.31 123.45L316.6 129.64L319.44 133L321.76 140.48L327.43 144.6V153.11L333.37 156.98L333.11 159.82L332.33 163.17L333.88 167.81L334.4 170.14L338.78 170.91L340.85 166.52L342.17 163.64ZM345.52 137.64V139.12L344.23 143.24L345 146.85L347.84 147.85V152.75L344.74 151.46L344 165.44L340.91 171.12L342.97 178.34L346.32 181.43V195.36L349.67 206.19L353.29 214.45L359.22 215.99L361.28 210.83L362.12 210.18C362.678 205.698 362.959 201.186 362.96 196.67C362.981 175.725 356.919 155.225 345.51 137.66L345.52 137.64ZM285.93 136L268.93 128.52L261.45 128.78L259.64 133.68L256.55 130.33L250.88 131.62L250.36 140.13L255 143.48L258.35 138.58L262.22 142.45L270.22 149.45L271.77 156.93L278.47 165.44L289.3 163.64L289.05 159.77L286.73 155.38L286.21 145.07L288.79 140.68L285.93 136ZM299.86 141.68L295.99 140.68L292.64 143.52L294.44 151H297.8L299.86 141.68ZM323.86 146.58L315.08 142L313.27 138.91L311.21 139.68L313.01 144.84L314.56 151.55L318.43 153.09L319.2 152.09L316.88 148.22L323.59 150.8L323.86 146.58ZM248.55 239.68L247.55 240.68L255.29 243L258.38 246.61L263.29 247.13L265.09 244.29L259.16 243.29L248.55 239.68ZM271.55 244.58L266.13 246.13L266.91 248.19H273.61L274.9 246.13L272.58 246.39L271.55 244.58Z" fill="#97EDAA"/>
<mask id="mask2_299543_136" style="mask-type:luminance" maskUnits="userSpaceOnUse" x="191" y="87" width="172" height="217">
<path d="M250.34 146.36L260.66 151L263.49 155.64L268.14 157.45L268.65 162.35L266.85 165.19L263.24 165.96L255.5 162.86V161.86L259.88 160.06L258.33 154.64L251.33 152.06L248.24 147.94L250.34 146.36ZM315.34 265.51L307.09 262.16L297 258.55H289L281.55 257L273.29 258.81L268.65 259.06H265.81L260.4 262.16L255.24 264.22L248.24 259.84L250.04 252.62L245.66 250.81H240.5L239.73 248.49L240.24 243.85L238.44 241.27L234.83 241.78L233.83 244.36L229.45 244.62L225.58 240L224 233.79L227.87 226.57L235.35 227.08L237.41 228.89H240.51L244.38 226.57L247.73 227.57L252.37 235.57L254.18 235.32L253.66 229.38L252.12 226.29L252.63 221.39L262.17 217.26L263.46 207.72L267.59 204.37L270.94 198.44L273.52 197.92L279.45 194.05L279.71 191.99L275.58 192.25L274.81 190.18H272L267.62 191.18L269.68 187.83L278.68 185.25L280.74 182.93L284.35 188.6L286.68 190.93L290.29 189.93L288.74 186.58L283.32 182.71L277.13 175.71L270.68 171.32L264.49 170.32L261.4 167.23L257.27 166.23L256.76 167.23L256.24 174.71L257.24 177.29L255 185.56L249.84 181.43L250.62 177.82L245.2 175.24L242.88 172.41L244.17 165.96L251.65 160.54L252.17 154.35L249.33 154.61L247.52 152.29L246.75 148.42L244.94 148.16L243.94 152.29L241.11 152.81L239.82 143.81L237.75 142.52L234.14 140.97L230 143L235.15 147.91L236.15 152.29L226.87 145.29L220.42 138.29L219.91 131.29L213.2 129.23L208 132.69C206.75 133.449 205.458 134.137 204.13 134.75C202.094 135.235 200.025 135.57 197.94 135.75L196.94 140.14L191.01 140.4L191.53 143.23L201.07 144.78L205.97 150.2V159.2L203.13 167.2L203.65 175.71L196.43 188.35L194.88 207.17L197.2 218.01L200.55 226.26L204.42 226.78L203.13 222.65L201.07 219.55L199.78 213.88L202.1 213.36L205.71 222.65L208.3 231V237.71L213.2 243.64L222 250L235.41 253.61L239.54 257.48L242.63 261.6L247.27 264.44L252.95 265.99L258.62 265.73C258.62 265.73 258.36 268.31 258.36 269.6C258.36 270.89 254.75 275.27 254.75 275.27L251.92 280.43L253.98 286.1L259.65 288.43L267.65 296.68L271.26 298.23V302.09L271.71 303.9C291.773 300.655 310.518 291.828 325.8 278.43L325.94 276.56L332.94 263.92L329.59 261.6L315.34 265.51ZM342.17 163.64L339.33 158.74L335.72 153.06L334.72 145.33L339.36 146.1L339.62 143.52L336.26 143.26L339.1 141.97L342.2 140.17V137.59L339.1 133.46L338.44 127.91C323.444 109.565 302.867 96.6184 279.839 91.0391C256.81 85.4598 232.59 87.5528 210.86 96.9999L216.81 101.21L213.2 105.86L208.3 106.86L207.78 113.86L205.72 114.63L203.14 117.47L203.4 122.11L207.78 122.63L206 127H210.38L217.86 117.46L218.64 113.34L225.86 112.82L227.66 109.72L235.14 108.95L235.92 104.57L241.33 104.31C241.33 104.31 245.2 102.25 245.98 102.25C247.469 102.571 248.933 102.999 250.36 103.53L254.23 106.63H259.64L264.29 103.79L270.22 104.31C271.074 104.865 272.047 105.208 273.06 105.31C274.35 105.31 278.21 103.5 278.21 103.5L285.69 108.15L288.79 110.47V114.34L292.66 114.85L293.95 112.53L297.3 114.08L297.04 116.14L289.3 118.21L293.69 123.88L302.97 129.04L306.84 134.2L312.52 134.71L313.81 132.13L315.87 131.62L309.16 126.46L305 126L308.35 125L305.25 120.62L309.64 120.36L315.31 123.45L316.6 129.64L319.44 133L321.76 140.48L327.43 144.6V153.11L333.37 156.98L333.11 159.82L332.33 163.17L333.88 167.81L334.4 170.14L338.78 170.91L340.85 166.52L342.17 163.64ZM345.52 137.64V139.12L344.23 143.24L345 146.85L347.84 147.85V152.75L344.74 151.46L344 165.44L340.91 171.12L342.97 178.34L346.32 181.43V195.36L349.67 206.19L353.29 214.45L359.22 215.99L361.28 210.83L362.12 210.18C362.678 205.698 362.959 201.186 362.96 196.67C362.981 175.725 356.919 155.225 345.51 137.66L345.52 137.64ZM285.93 136L268.93 128.52L261.45 128.78L259.64 133.68L256.55 130.33L250.88 131.62L250.36 140.13L255 143.48L258.35 138.58L262.22 142.45L270.22 149.45L271.77 156.93L278.47 165.44L289.3 163.64L289.05 159.77L286.73 155.38L286.21 145.07L288.79 140.68L285.93 136ZM299.86 141.68L295.99 140.68L292.64 143.52L294.44 151H297.8L299.86 141.68ZM323.86 146.58L315.08 142L313.27 138.91L311.21 139.68L313.01 144.84L314.56 151.55L318.43 153.09L319.2 152.09L316.88 148.22L323.59 150.8L323.86 146.58ZM248.55 239.68L247.55 240.68L255.29 243L258.38 246.61L263.29 247.13L265.09 244.29L259.16 243.29L248.55 239.68ZM271.55 244.58L266.13 246.13L266.91 248.19H273.61L274.9 246.13L272.58 246.39L271.55 244.58Z" fill="white"/>
</mask>
<g mask="url(#mask2_299543_136)">
<path opacity="0.65" d="M254.25 243.09C230.859 243.088 208.091 235.541 189.33 221.57C170.569 207.6 156.815 187.95 150.11 165.54C145.274 181.76 144.294 198.885 147.247 215.55C150.2 232.216 157.005 247.961 167.12 261.531C177.235 275.102 190.38 286.122 205.507 293.714C220.634 301.305 237.325 305.259 254.25 305.259C271.175 305.259 287.866 301.305 302.993 293.714C318.121 286.122 331.265 275.102 341.38 261.531C351.495 247.961 358.3 232.216 361.253 215.55C364.206 198.885 363.226 181.76 358.39 165.54C351.684 187.949 337.929 207.598 319.168 221.568C300.407 235.539 277.641 243.086 254.25 243.09Z" fill="white"/>
</g>
<path d="M250.34 146.36L260.66 151L263.49 155.64L268.14 157.45L268.65 162.35L266.85 165.19L263.24 165.96L255.5 162.86V161.86L259.88 160.06L258.33 154.64L251.33 152.06L248.24 147.94L250.34 146.36ZM315.34 265.51L307.09 262.16L297 258.55H289L281.55 257L273.29 258.81L268.65 259.06H265.81L260.4 262.16L255.24 264.22L248.24 259.84L250.04 252.62L245.66 250.81H240.5L239.73 248.49L240.24 243.85L238.44 241.27L234.83 241.78L233.83 244.36L229.45 244.62L225.58 240L224 233.79L227.87 226.57L235.35 227.08L237.41 228.89H240.51L244.38 226.57L247.73 227.57L252.37 235.57L254.18 235.32L253.66 229.38L252.12 226.29L252.63 221.39L262.17 217.26L263.46 207.72L267.59 204.37L270.94 198.44L273.52 197.92L279.45 194.05L279.71 191.99L275.58 192.25L274.81 190.18H272L267.62 191.18L269.68 187.83L278.68 185.25L280.74 182.93L284.35 188.6L286.68 190.93L290.29 189.93L288.74 186.58L283.32 182.71L277.13 175.71L270.68 171.32L264.49 170.32L261.4 167.23L257.27 166.23L256.76 167.23L256.24 174.71L257.24 177.29L255 185.56L249.84 181.43L250.62 177.82L245.2 175.24L242.88 172.41L244.17 165.96L251.65 160.54L252.17 154.35L249.33 154.61L247.52 152.29L246.75 148.42L244.94 148.16L243.94 152.29L241.11 152.81L239.82 143.81L237.75 142.52L234.14 140.97L230 143L235.15 147.91L236.15 152.29L226.87 145.29L220.42 138.29L219.91 131.29L213.2 129.23L208 132.69C206.75 133.449 205.458 134.137 204.13 134.75C202.094 135.235 200.025 135.57 197.94 135.75L196.94 140.14L191.01 140.4L191.53 143.23L201.07 144.78L205.97 150.2V159.2L203.13 167.2L203.65 175.71L196.43 188.35L194.88 207.17L197.2 218.01L200.55 226.26L204.42 226.78L203.13 222.65L201.07 219.55L199.78 213.88L202.1 213.36L205.71 222.65L208.3 231V237.71L213.2 243.64L222 250L235.41 253.61L239.54 257.48L242.63 261.6L247.27 264.44L252.95 265.99L258.62 265.73C258.62 265.73 258.36 268.31 258.36 269.6C258.36 270.89 254.75 275.27 254.75 275.27L251.92 280.43L253.98 286.1L259.65 288.43L267.65 296.68L271.26 298.23V302.09L271.71 303.9C291.773 300.655 310.518 291.828 325.8 278.43L325.94 276.56L332.94 263.92L329.59 261.6L315.34 265.51ZM342.17 163.64L339.33 158.74L335.72 153.06L334.72 145.33L339.36 146.1L339.62 143.52L336.26 143.26L339.1 141.97L342.2 140.17V137.59L339.1 133.46L338.44 127.91C323.444 109.565 302.867 96.6184 279.839 91.0391C256.81 85.4598 232.59 87.5528 210.86 96.9999L216.81 101.21L213.2 105.86L208.3 106.86L207.78 113.86L205.72 114.63L203.14 117.47L203.4 122.11L207.78 122.63L206 127H210.38L217.86 117.46L218.64 113.34L225.86 112.82L227.66 109.72L235.14 108.95L235.92 104.57L241.33 104.31C241.33 104.31 245.2 102.25 245.98 102.25C247.469 102.571 248.933 102.999 250.36 103.53L254.23 106.63H259.64L264.29 103.79L270.22 104.31C271.074 104.865 272.047 105.208 273.06 105.31C274.35 105.31 278.21 103.5 278.21 103.5L285.69 108.15L288.79 110.47V114.34L292.66 114.85L293.95 112.53L297.3 114.08L297.04 116.14L289.3 118.21L293.69 123.88L302.97 129.04L306.84 134.2L312.52 134.71L313.81 132.13L315.87 131.62L309.16 126.46L305 126L308.35 125L305.25 120.62L309.64 120.36L315.31 123.45L316.6 129.64L319.44 133L321.76 140.48L327.43 144.6V153.11L333.37 156.98L333.11 159.82L332.33 163.17L333.88 167.81L334.4 170.14L338.78 170.91L340.85 166.52L342.17 163.64ZM345.52 137.64V139.12L344.23 143.24L345 146.85L347.84 147.85V152.75L344.74 151.46L344 165.44L340.91 171.12L342.97 178.34L346.32 181.43V195.36L349.67 206.19L353.29 214.45L359.22 215.99L361.28 210.83L362.12 210.18C362.678 205.698 362.959 201.186 362.96 196.67C362.981 175.725 356.919 155.225 345.51 137.66L345.52 137.64ZM285.93 136L268.93 128.52L261.45 128.78L259.64 133.68L256.55 130.33L250.88 131.62L250.36 140.13L255 143.48L258.35 138.58L262.22 142.45L270.22 149.45L271.77 156.93L278.47 165.44L289.3 163.64L289.05 159.77L286.73 155.38L286.21 145.07L288.79 140.68L285.93 136ZM299.86 141.68L295.99 140.68L292.64 143.52L294.44 151H297.8L299.86 141.68ZM323.86 146.58L315.08 142L313.27 138.91L311.21 139.68L313.01 144.84L314.56 151.55L318.43 153.09L319.2 152.09L316.88 148.22L323.59 150.8L323.86 146.58ZM248.55 239.68L247.55 240.68L255.29 243L258.38 246.61L263.29 247.13L265.09 244.29L259.16 243.29L248.55 239.68ZM271.55 244.58L266.13 246.13L266.91 248.19H273.61L274.9 246.13L272.58 246.39L271.55 244.58Z" stroke="#263238" stroke-miterlimit="10"/>
</g>
<path d="M331.09 273.506C373.528 231.068 373.528 162.262 331.09 119.823C288.652 77.3852 219.846 77.3852 177.407 119.824C134.969 162.262 134.969 231.068 177.407 273.506C219.846 315.944 288.652 315.944 331.09 273.506Z" stroke="#263238" stroke-miterlimit="10"/>
<path d="M390.385 152.318C396.316 151.352 400.34 145.761 399.374 139.83C398.409 133.9 392.818 129.875 386.887 130.841C380.956 131.807 376.932 137.398 377.897 143.328C378.863 149.259 384.454 153.284 390.385 152.318Z" fill="white" stroke="white" stroke-width="0.5" stroke-miterlimit="10"/>
<path d="M392.24 140.85H385.14C384.811 140.85 384.485 140.915 384.181 141.041C383.877 141.167 383.601 141.353 383.369 141.586C383.136 141.819 382.952 142.096 382.827 142.4C382.702 142.705 382.639 143.031 382.64 143.36V149.31C384.372 150.66 386.51 151.385 388.706 151.369C390.902 151.353 393.028 150.596 394.74 149.22V143.36C394.741 143.031 394.678 142.705 394.553 142.4C394.428 142.096 394.244 141.819 394.011 141.586C393.779 141.353 393.503 141.167 393.199 141.041C392.895 140.915 392.569 140.85 392.24 140.85Z" fill="#97EDAA"/>
<path d="M388.57 139.75C389.284 139.75 389.982 139.538 390.576 139.142C391.169 138.745 391.632 138.181 391.905 137.522C392.178 136.862 392.25 136.136 392.111 135.436C391.971 134.735 391.627 134.092 391.123 133.587C390.618 133.083 389.975 132.739 389.274 132.599C388.574 132.46 387.848 132.532 387.188 132.805C386.529 133.078 385.965 133.541 385.568 134.134C385.172 134.728 384.96 135.426 384.96 136.14C384.96 136.614 385.053 137.084 385.235 137.522C385.416 137.96 385.682 138.357 386.017 138.693C386.353 139.028 386.75 139.294 387.188 139.475C387.626 139.657 388.096 139.75 388.57 139.75Z" fill="#97EDAA"/>
<path d="M311.96 108.8C317.969 108.8 322.84 103.929 322.84 97.92C322.84 91.9112 317.969 87.04 311.96 87.04C305.951 87.04 301.08 91.9112 301.08 97.92C301.08 103.929 305.951 108.8 311.96 108.8Z" fill="white" stroke="white" stroke-width="0.5" stroke-miterlimit="10"/>
<path d="M315.56 97.18H308.47C307.811 97.1905 307.183 97.4596 306.721 97.9292C306.259 98.3987 306 99.0312 306 99.69V105.69C307.734 107.041 309.873 107.767 312.071 107.75C314.268 107.734 316.396 106.976 318.11 105.6V99.69C318.11 99.357 318.044 99.0273 317.915 98.7201C317.787 98.413 317.598 98.1345 317.361 97.9009C317.123 97.6673 316.842 97.4832 316.533 97.3595C316.224 97.2357 315.893 97.1747 315.56 97.18Z" fill="#97EDAA"/>
<path d="M311.89 96.08C313.884 96.08 315.5 94.4637 315.5 92.47C315.5 90.4762 313.884 88.86 311.89 88.86C309.896 88.86 308.28 90.4762 308.28 92.47C308.28 94.4637 309.896 96.08 311.89 96.08Z" fill="#97EDAA"/>
<path d="M116.878 174.828C122.809 173.863 126.834 168.272 125.868 162.341C124.902 156.41 119.311 152.386 113.38 153.351C107.45 154.317 103.425 159.908 104.391 165.839C105.357 171.77 110.947 175.794 116.878 174.828Z" fill="white" stroke="white" stroke-width="0.5" stroke-miterlimit="10"/>
<path d="M118.74 163.35H111.64C111.311 163.35 110.985 163.415 110.681 163.541C110.377 163.667 110.101 163.853 109.869 164.086C109.636 164.319 109.452 164.596 109.327 164.9C109.202 165.205 109.139 165.531 109.14 165.86V171.81C110.872 173.16 113.01 173.885 115.206 173.869C117.402 173.853 119.528 173.096 121.24 171.72V165.86C121.241 165.531 121.178 165.205 121.053 164.9C120.928 164.596 120.744 164.319 120.511 164.086C120.279 163.853 120.003 163.667 119.699 163.541C119.395 163.415 119.069 163.35 118.74 163.35Z" fill="#97EDAA"/>
<path d="M115.07 162.25C115.784 162.25 116.482 162.038 117.076 161.642C117.669 161.245 118.132 160.681 118.405 160.022C118.678 159.362 118.75 158.636 118.611 157.936C118.471 157.235 118.128 156.592 117.623 156.087C117.118 155.583 116.475 155.239 115.774 155.099C115.074 154.96 114.348 155.032 113.689 155.305C113.029 155.578 112.465 156.041 112.068 156.634C111.672 157.228 111.46 157.926 111.46 158.64C111.46 159.597 111.84 160.516 112.517 161.193C113.194 161.87 114.113 162.25 115.07 162.25Z" fill="#97EDAA"/>
<path d="M123.888 243.323C129.819 242.357 133.843 236.766 132.877 230.835C131.912 224.904 126.321 220.88 120.39 221.845C114.459 222.811 110.435 228.402 111.4 234.333C112.366 240.264 117.957 244.288 123.888 243.323Z" fill="white" stroke="white" stroke-width="0.5" stroke-miterlimit="10"/>
<path d="M125.74 231.85H118.64C118.311 231.85 117.985 231.915 117.681 232.041C117.377 232.167 117.101 232.353 116.869 232.586C116.636 232.819 116.452 233.096 116.327 233.4C116.202 233.705 116.139 234.031 116.14 234.36V240.31C117.872 241.66 120.01 242.385 122.206 242.369C124.402 242.353 126.528 241.596 128.24 240.22V234.36C128.241 234.031 128.178 233.705 128.053 233.4C127.928 233.096 127.744 232.819 127.511 232.586C127.279 232.353 127.003 232.167 126.699 232.041C126.395 231.915 126.069 231.85 125.74 231.85Z" fill="#97EDAA"/>
<path d="M122.07 230.75C122.784 230.75 123.482 230.538 124.076 230.142C124.669 229.745 125.132 229.181 125.405 228.522C125.678 227.862 125.75 227.136 125.611 226.436C125.471 225.735 125.128 225.092 124.623 224.587C124.118 224.083 123.475 223.739 122.774 223.599C122.074 223.46 121.348 223.532 120.689 223.805C120.029 224.078 119.465 224.541 119.068 225.134C118.672 225.728 118.46 226.426 118.46 227.14C118.46 228.097 118.84 229.016 119.517 229.693C120.194 230.37 121.113 230.75 122.07 230.75Z" fill="#97EDAA"/>
<path d="M176.624 181.565C178.825 175.974 176.077 169.657 170.486 167.456C164.895 165.254 158.578 168.002 156.377 173.594C154.175 179.185 156.923 185.502 162.515 187.703C168.106 189.904 174.423 187.156 176.624 181.565Z" fill="white" stroke="white" stroke-width="0.5" stroke-miterlimit="10"/>
<path d="M170.11 176.85H163C162.337 176.85 161.701 177.113 161.232 177.582C160.763 178.051 160.5 178.687 160.5 179.35V185.35C162.232 186.7 164.37 187.425 166.566 187.409C168.762 187.393 170.888 186.636 172.6 185.26V179.4C172.607 179.068 172.547 178.739 172.425 178.43C172.303 178.122 172.121 177.841 171.889 177.603C171.657 177.366 171.381 177.177 171.075 177.048C170.77 176.918 170.442 176.851 170.11 176.85Z" fill="#97EDAA"/>
<path d="M166.44 175.75C167.154 175.75 167.852 175.538 168.446 175.142C169.039 174.745 169.502 174.181 169.775 173.522C170.048 172.862 170.12 172.136 169.981 171.436C169.841 170.735 169.498 170.092 168.993 169.587C168.488 169.083 167.845 168.739 167.144 168.599C166.444 168.46 165.718 168.532 165.059 168.805C164.399 169.078 163.835 169.541 163.438 170.134C163.042 170.728 162.83 171.426 162.83 172.14C162.83 172.614 162.923 173.084 163.105 173.522C163.286 173.96 163.552 174.357 163.887 174.693C164.223 175.028 164.621 175.294 165.059 175.475C165.497 175.657 165.966 175.75 166.44 175.75Z" fill="#97EDAA"/>
<path d="M238.27 295.21C244.279 295.21 249.15 290.339 249.15 284.33C249.15 278.321 244.279 273.45 238.27 273.45C232.261 273.45 227.39 278.321 227.39 284.33C227.39 290.339 232.261 295.21 238.27 295.21Z" fill="white" stroke="white" stroke-width="0.5" stroke-miterlimit="10"/>
<path d="M241.88 283.6H234.79C234.124 283.6 233.486 283.864 233.015 284.335C232.544 284.806 232.28 285.444 232.28 286.11V292.06C234.014 293.411 236.153 294.137 238.351 294.12C240.548 294.104 242.676 293.346 244.39 291.97V286.11C244.39 285.444 244.126 284.806 243.655 284.335C243.184 283.864 242.546 283.6 241.88 283.6Z" fill="#97EDAA"/>
<path d="M238.21 282.5C240.204 282.5 241.82 280.884 241.82 278.89C241.82 276.896 240.204 275.28 238.21 275.28C236.216 275.28 234.6 276.896 234.6 278.89C234.6 280.884 236.216 282.5 238.21 282.5Z" fill="#97EDAA"/>
<path d="M316.5 316.13C322.509 316.13 327.38 311.259 327.38 305.25C327.38 299.241 322.509 294.37 316.5 294.37C310.491 294.37 305.62 299.241 305.62 305.25C305.62 311.259 310.491 316.13 316.5 316.13Z" fill="white" stroke="white" stroke-width="0.5" stroke-miterlimit="10"/>
<path d="M320.1 304.52H313C312.336 304.52 311.699 304.783 311.229 305.252C310.758 305.72 310.493 306.356 310.49 307.02V313.02C312.224 314.371 314.363 315.097 316.561 315.08C318.758 315.064 320.886 314.306 322.6 312.93V307C322.595 306.34 322.329 305.71 321.861 305.245C321.392 304.781 320.76 304.52 320.1 304.52Z" fill="#97EDAA"/>
<path d="M316.43 303.42C318.424 303.42 320.04 301.804 320.04 299.81C320.04 297.816 318.424 296.2 316.43 296.2C314.436 296.2 312.82 297.816 312.82 299.81C312.82 301.804 314.436 303.42 316.43 303.42Z" fill="#97EDAA"/>
<path d="M381.718 246.331C383.79 240.691 380.899 234.439 375.259 232.366C369.619 230.293 363.366 233.185 361.293 238.825C359.22 244.465 362.112 250.717 367.752 252.79C373.392 254.863 379.645 251.971 381.718 246.331Z" fill="white" stroke="white" stroke-width="0.5" stroke-miterlimit="10"/>
<path d="M375.11 241.85H368C367.337 241.85 366.701 242.113 366.232 242.582C365.763 243.051 365.5 243.687 365.5 244.35V250.35C367.232 251.7 369.37 252.425 371.566 252.409C373.762 252.393 375.888 251.636 377.6 250.26V244.4C377.607 244.068 377.547 243.739 377.425 243.43C377.303 243.122 377.121 242.841 376.889 242.603C376.657 242.366 376.381 242.177 376.075 242.048C375.77 241.918 375.442 241.851 375.11 241.85Z" fill="#97EDAA"/>
<path d="M371.44 240.75C372.154 240.75 372.852 240.538 373.446 240.142C374.039 239.745 374.502 239.181 374.775 238.522C375.048 237.862 375.12 237.136 374.981 236.436C374.841 235.735 374.497 235.092 373.993 234.587C373.488 234.083 372.845 233.739 372.144 233.599C371.444 233.46 370.718 233.532 370.058 233.805C369.399 234.078 368.835 234.541 368.438 235.134C368.042 235.728 367.83 236.426 367.83 237.14C367.83 238.097 368.21 239.016 368.887 239.693C369.564 240.37 370.483 240.75 371.44 240.75Z" fill="#97EDAA"/>
<path d="M349.86 144.64C365.22 157.09 374.33 172.64 374.33 189.42C374.33 230.42 320.16 263.68 253.33 263.68C186.5 263.68 132.33 230.43 132.33 189.42C132.33 171.48 142.7 155.03 159.96 142.19" stroke="white" stroke-width="0.5" stroke-miterlimit="10"/>
<path d="M184 113.75C194.89 95.8999 210.2 83.9999 228.34 81.3499C270.96 75.2099 313.07 122.82 322.41 187.69C331.75 252.56 304.78 310.12 262.17 316.26C242.77 319.05 223.47 310.71 207.32 294.67" stroke="white" stroke-width="0.5" stroke-miterlimit="10"/>
<path d="M347.644 271.133C361.806 247.95 326.801 200.758 269.458 165.728C212.114 130.698 154.148 121.095 139.985 144.278C125.823 167.462 160.828 214.653 218.172 249.683C275.515 284.713 333.482 294.317 347.644 271.133Z" stroke="white" stroke-width="0.5" stroke-miterlimit="10"/>
<path d="M278.366 244.235C337.213 208.286 373.437 160.351 359.275 137.167C345.112 113.984 285.927 124.332 227.08 160.28C168.233 196.229 132.009 244.165 146.171 267.348C160.334 290.531 219.519 280.183 278.366 244.235Z" stroke="white" stroke-width="0.5" stroke-miterlimit="10"/>
<path d="M304.07 128C304.07 127.604 303.953 127.218 303.733 126.889C303.513 126.56 303.201 126.304 302.835 126.152C302.47 126.001 302.068 125.961 301.68 126.038C301.292 126.116 300.936 126.306 300.656 126.586C300.376 126.865 300.186 127.222 300.108 127.61C300.031 127.998 300.071 128.4 300.222 128.765C300.374 129.131 300.63 129.443 300.959 129.663C301.288 129.883 301.674 130 302.07 130C302.6 130 303.109 129.789 303.484 129.414C303.859 129.039 304.07 128.53 304.07 128Z" fill="white" stroke="white" stroke-width="0.5" stroke-miterlimit="10"/>
<path d="M326.07 209.87C326.07 209.474 325.953 209.088 325.733 208.759C325.513 208.43 325.201 208.174 324.835 208.022C324.47 207.871 324.068 207.831 323.68 207.908C323.292 207.986 322.936 208.176 322.656 208.456C322.376 208.735 322.186 209.092 322.108 209.48C322.031 209.868 322.071 210.27 322.222 210.635C322.374 211.001 322.63 211.313 322.959 211.533C323.288 211.753 323.674 211.87 324.07 211.87C324.6 211.87 325.109 211.659 325.484 211.284C325.859 210.909 326.07 210.4 326.07 209.87Z" fill="white" stroke="white" stroke-width="0.5" stroke-miterlimit="10"/>
<path d="M321.67 251.46C321.67 251.064 321.553 250.678 321.333 250.349C321.113 250.02 320.801 249.764 320.435 249.612C320.07 249.461 319.668 249.421 319.28 249.498C318.892 249.576 318.536 249.766 318.256 250.046C317.976 250.325 317.786 250.682 317.708 251.07C317.631 251.458 317.671 251.86 317.822 252.225C317.974 252.591 318.23 252.903 318.559 253.123C318.888 253.343 319.274 253.46 319.67 253.46C320.2 253.46 320.709 253.249 321.084 252.874C321.459 252.499 321.67 251.99 321.67 251.46Z" fill="white" stroke="white" stroke-width="0.5" stroke-miterlimit="10"/>
<path d="M308.91 283.14C308.91 282.744 308.793 282.358 308.573 282.029C308.353 281.7 308.041 281.444 307.675 281.292C307.31 281.141 306.908 281.101 306.52 281.178C306.132 281.256 305.776 281.446 305.496 281.726C305.216 282.006 305.026 282.362 304.948 282.75C304.871 283.138 304.911 283.54 305.062 283.905C305.214 284.271 305.47 284.583 305.799 284.803C306.128 285.023 306.514 285.14 306.91 285.14C307.44 285.14 307.949 284.929 308.324 284.554C308.699 284.179 308.91 283.67 308.91 283.14Z" fill="white" stroke="white" stroke-width="0.5" stroke-miterlimit="10"/>
<path d="M347 238C347 237.604 346.883 237.218 346.663 236.889C346.443 236.56 346.131 236.304 345.765 236.152C345.4 236.001 344.998 235.961 344.61 236.038C344.222 236.116 343.865 236.306 343.586 236.586C343.306 236.865 343.116 237.222 343.038 237.61C342.961 237.998 343.001 238.4 343.152 238.765C343.304 239.131 343.56 239.443 343.889 239.663C344.218 239.883 344.604 240 345 240C345.53 240 346.039 239.789 346.414 239.414C346.789 239.039 347 238.53 347 238Z" fill="white" stroke="white" stroke-width="0.5" stroke-miterlimit="10"/>
<path d="M244.22 263.12C244.22 262.724 244.103 262.338 243.883 262.009C243.663 261.68 243.351 261.424 242.985 261.272C242.62 261.121 242.218 261.081 241.83 261.158C241.442 261.236 241.085 261.426 240.806 261.706C240.526 261.985 240.336 262.342 240.258 262.73C240.181 263.118 240.221 263.52 240.372 263.885C240.524 264.251 240.78 264.563 241.109 264.783C241.438 265.003 241.824 265.12 242.22 265.12C242.75 265.12 243.259 264.909 243.634 264.534C244.009 264.159 244.22 263.65 244.22 263.12Z" fill="white" stroke="white" stroke-width="0.5" stroke-miterlimit="10"/>
<path d="M153.13 229.9C153.13 229.504 153.013 229.118 152.793 228.789C152.573 228.46 152.261 228.204 151.895 228.052C151.53 227.901 151.128 227.861 150.74 227.938C150.352 228.016 149.996 228.206 149.716 228.486C149.436 228.765 149.246 229.122 149.168 229.51C149.091 229.898 149.131 230.3 149.282 230.665C149.434 231.031 149.69 231.343 150.019 231.563C150.348 231.783 150.734 231.9 151.13 231.9C151.66 231.9 152.169 231.689 152.544 231.314C152.919 230.939 153.13 230.43 153.13 229.9Z" fill="white" stroke="white" stroke-width="0.5" stroke-miterlimit="10"/>
<path d="M168.53 209.21C168.53 208.814 168.413 208.428 168.193 208.099C167.973 207.77 167.661 207.514 167.295 207.362C166.93 207.211 166.528 207.171 166.14 207.248C165.752 207.326 165.395 207.516 165.116 207.796C164.836 208.075 164.646 208.432 164.568 208.82C164.491 209.208 164.531 209.61 164.682 209.975C164.834 210.341 165.09 210.653 165.419 210.873C165.748 211.093 166.134 211.21 166.53 211.21C167.06 211.21 167.569 210.999 167.944 210.624C168.319 210.249 168.53 209.74 168.53 209.21Z" fill="white" stroke="white" stroke-width="0.5" stroke-miterlimit="10"/>
<path d="M244.44 151.35C244.44 150.954 244.323 150.568 244.103 150.239C243.883 149.91 243.571 149.654 243.205 149.502C242.84 149.351 242.438 149.311 242.05 149.388C241.662 149.466 241.306 149.656 241.026 149.936C240.746 150.215 240.556 150.572 240.478 150.96C240.401 151.348 240.441 151.75 240.592 152.115C240.744 152.481 241 152.793 241.329 153.013C241.658 153.233 242.044 153.35 242.44 153.35C242.97 153.35 243.479 153.139 243.854 152.764C244.229 152.389 244.44 151.88 244.44 151.35Z" fill="white" stroke="white" stroke-width="0.5" stroke-miterlimit="10"/>
<path d="M363.25 156.41C363.25 156.014 363.133 155.628 362.913 155.299C362.693 154.97 362.381 154.714 362.015 154.562C361.65 154.411 361.248 154.371 360.86 154.448C360.472 154.526 360.115 154.716 359.836 154.996C359.556 155.275 359.366 155.632 359.288 156.02C359.211 156.408 359.251 156.81 359.402 157.175C359.554 157.541 359.81 157.853 360.139 158.073C360.468 158.293 360.854 158.41 361.25 158.41C361.78 158.41 362.289 158.199 362.664 157.824C363.039 157.449 363.25 156.94 363.25 156.41Z" fill="white" stroke="white" stroke-width="0.5" stroke-miterlimit="10"/>
<path d="M140.59 166.09C140.59 165.694 140.473 165.308 140.253 164.979C140.033 164.65 139.721 164.394 139.355 164.242C138.99 164.091 138.588 164.051 138.2 164.128C137.812 164.206 137.455 164.396 137.176 164.676C136.896 164.955 136.706 165.312 136.628 165.7C136.551 166.088 136.591 166.49 136.742 166.855C136.894 167.221 137.15 167.533 137.479 167.753C137.808 167.973 138.194 168.09 138.59 168.09C139.12 168.09 139.629 167.879 140.004 167.504C140.379 167.129 140.59 166.62 140.59 166.09Z" fill="white" stroke="white" stroke-width="0.5" stroke-miterlimit="10"/>
<path d="M363.23 155.62L378.95 147.16" stroke="white" stroke-width="0.5" stroke-miterlimit="10"/>
<path d="M136.63 166.09L126.01 164.09" stroke="white" stroke-width="0.5" stroke-miterlimit="10"/>
<path d="M166.55 207.23V188.46" stroke="white" stroke-width="0.5" stroke-miterlimit="10"/>
<path d="M149.17 229.9L133.01 232.59" stroke="white" stroke-width="0.5" stroke-miterlimit="10"/>
<path d="M241.79 265.07L240.31 273.77" stroke="white" stroke-width="0.5" stroke-miterlimit="10"/>
<path d="M307.68 285.05L312.31 295.13" stroke="white" stroke-width="0.5" stroke-miterlimit="10"/>
<path d="M346.97 238.04L360.41 240.92" stroke="white" stroke-width="0.5" stroke-miterlimit="10"/>
<path d="M318.09 250.01L305.04 237.45" stroke="white" stroke-width="0.5" stroke-miterlimit="10"/>
<path d="M302.89 126.22L308.84 108.53" stroke="white" stroke-width="0.5" stroke-miterlimit="10"/>
<path d="M176.38 116.95L178.9 118.84" stroke="white" stroke-width="0.5" stroke-miterlimit="10"/>
<path d="M195.6 294.31L198.43 290.53" stroke="white" stroke-width="0.5" stroke-miterlimit="10"/>
<path d="M307.185 233.911C309.303 228.287 306.461 222.012 300.838 219.894C295.215 217.776 288.939 220.617 286.821 226.24C284.703 231.863 287.545 238.139 293.168 240.257C298.791 242.375 305.067 239.534 307.185 233.911Z" fill="white" stroke="white" stroke-width="0.5" stroke-miterlimit="10"/>
<path d="M300.61 229.35H293.51C292.847 229.35 292.211 229.613 291.742 230.082C291.273 230.551 291.01 231.187 291.01 231.85V237.85C292.742 239.2 294.88 239.925 297.076 239.909C299.272 239.893 301.398 239.136 303.11 237.76V231.9C303.117 231.567 303.057 231.237 302.934 230.928C302.812 230.619 302.629 230.337 302.396 230.1C302.163 229.862 301.885 229.674 301.578 229.545C301.272 229.416 300.943 229.35 300.61 229.35Z" fill="#97EDAA"/>
<path d="M296.94 228.25C297.654 228.25 298.352 228.038 298.946 227.642C299.539 227.245 300.002 226.681 300.275 226.022C300.548 225.362 300.62 224.636 300.481 223.936C300.341 223.235 299.997 222.592 299.493 222.087C298.988 221.583 298.345 221.239 297.644 221.099C296.944 220.96 296.218 221.032 295.558 221.305C294.899 221.578 294.335 222.041 293.938 222.634C293.542 223.228 293.33 223.926 293.33 224.64C293.33 225.597 293.71 226.516 294.387 227.193C295.064 227.87 295.983 228.25 296.94 228.25Z" fill="#97EDAA"/>
<path d="M331.703 182.4C333.806 176.771 330.948 170.503 325.319 168.399C319.691 166.296 313.423 169.154 311.319 174.783C309.216 180.411 312.074 186.679 317.702 188.783C323.331 190.886 329.599 188.028 331.703 182.4Z" fill="white" stroke="white" stroke-width="0.5" stroke-miterlimit="10"/>
<path d="M325.11 177.85H318C317.337 177.85 316.701 178.113 316.232 178.582C315.763 179.051 315.5 179.687 315.5 180.35V186.35C317.232 187.7 319.37 188.425 321.566 188.409C323.762 188.393 325.888 187.636 327.6 186.26V180.4C327.607 180.068 327.547 179.739 327.425 179.43C327.303 179.122 327.121 178.841 326.889 178.603C326.657 178.366 326.381 178.177 326.075 178.048C325.77 177.918 325.442 177.851 325.11 177.85Z" fill="#97EDAA"/>
<path d="M321.44 176.75C322.154 176.75 322.852 176.538 323.446 176.142C324.039 175.745 324.502 175.181 324.775 174.522C325.048 173.862 325.12 173.136 324.981 172.436C324.841 171.735 324.497 171.092 323.993 170.587C323.488 170.083 322.845 169.739 322.144 169.599C321.444 169.46 320.718 169.532 320.058 169.805C319.399 170.078 318.835 170.541 318.438 171.134C318.042 171.728 317.83 172.426 317.83 173.14C317.83 174.097 318.21 175.016 318.887 175.693C319.564 176.37 320.483 176.75 321.44 176.75Z" fill="#97EDAA"/>
</svg>
