<svg width="62" height="62" viewBox="0 0 62 62" fill="none" xmlns="http://www.w3.org/2000/svg">
<circle cx="31" cy="31" r="30.5" fill="#101010" stroke="#1F1F1F"/>
<path d="M37.6667 17.6667H24.3333C20.6514 17.6667 17.6667 20.6514 17.6667 24.3333V37.6667C17.6667 41.3486 20.6514 44.3333 24.3333 44.3333H37.6667C41.3486 44.3333 44.3333 41.3486 44.3333 37.6667V24.3333C44.3333 20.6514 41.3486 17.6667 37.6667 17.6667Z" stroke="#97EDAA" stroke-width="2" stroke-linecap="round" stroke-linejoin="round"/>
<path d="M36.3333 30.16C36.4979 31.2697 36.3083 32.403 35.7917 33.3987C35.275 34.3944 34.4575 35.2019 33.4555 35.7062C32.4535 36.2106 31.3179 36.3861 30.2104 36.2079C29.1028 36.0297 28.0797 35.5068 27.2864 34.7136C26.4932 33.9203 25.9703 32.8972 25.7921 31.7896C25.6139 30.6821 25.7894 29.5465 26.2938 28.5445C26.7981 27.5425 27.6056 26.725 28.6013 26.2083C29.597 25.6917 30.7303 25.5021 31.84 25.6667C32.9719 25.8345 34.0198 26.362 34.8289 27.1711C35.638 27.9802 36.1655 29.0281 36.3333 30.16Z" stroke="#97EDAA" stroke-width="2" stroke-linecap="round" stroke-linejoin="round"/>
<path d="M38.3333 23.6667H38.3467" stroke="#97EDAA" stroke-width="2" stroke-linecap="round" stroke-linejoin="round"/>
</svg>
