<svg width="63" height="62" viewBox="0 0 63 62" fill="none" xmlns="http://www.w3.org/2000/svg">
<circle cx="31.5" cy="31" r="30.5" fill="#101010" stroke="#1F1F1F"/>
<path d="M44.8333 37.56V41.56C44.8348 41.9313 44.7587 42.2989 44.61 42.6391C44.4612 42.9794 44.243 43.2848 43.9694 43.5358C43.6958 43.7869 43.3727 43.978 43.021 44.0969C42.6692 44.2159 42.2964 44.2601 41.9266 44.2267C37.8237 43.7809 33.8826 42.3789 30.42 40.1333C27.1984 38.0862 24.4671 35.3549 22.42 32.1333C20.1666 28.6549 18.7643 24.6947 18.3266 20.5733C18.2933 20.2046 18.3371 19.833 18.4553 19.4822C18.5735 19.1313 18.7634 18.8089 19.013 18.5355C19.2626 18.2621 19.5664 18.0436 19.905 17.894C20.2437 17.7444 20.6097 17.667 20.98 17.6667H24.98C25.627 17.6603 26.2543 17.8894 26.745 18.3114C27.2356 18.7333 27.5561 19.3193 27.6466 19.96C27.8154 21.2401 28.1286 22.497 28.58 23.7067C28.7593 24.1839 28.7982 24.7025 28.6918 25.2012C28.5855 25.6998 28.3384 26.1575 27.98 26.52L26.2866 28.2133C28.1847 31.5514 30.9486 34.3153 34.2866 36.2133L35.98 34.52C36.3425 34.1615 36.8002 33.9145 37.2988 33.8081C37.7974 33.7018 38.3161 33.7406 38.7933 33.92C40.003 34.3714 41.2599 34.6845 42.54 34.8533C43.1876 34.9447 43.7792 35.2709 44.202 35.77C44.6248 36.269 44.8495 36.9061 44.8333 37.56Z" stroke="#97EDAA" stroke-width="2" stroke-linecap="round" stroke-linejoin="round"/>
</svg>
